<?xml version="1.0" encoding="utf-8"?>
<!-- Generator: Adobe Illustrator 21.0.0, SVG Export Plug-In . SVG Version: 6.00 Build 0)  -->
<svg version="1.1" id="Layer_1" xmlns="http://www.w3.org/2000/svg" xmlns:xlink="http://www.w3.org/1999/xlink" x="0px" y="0px"
	 viewBox="0 0 156.2 512" style="enable-background:new 0 0 156.2 512;" xml:space="preserve">
<style type="text/css">
	.st0{fill:#FFE155;}
	.st1{opacity:0.5;fill:#FFCE00;}
	.st2{fill:#231F20;}
	.st3{fill:#FFFFFF;}
	.st4{opacity:0.7;fill:url(#SVGID_1_);}
</style>
<g>
	<g>
		<g>
			<animate  accumulate="none" additive="replace" attributeName="opacity" attributeType="XML" calcMode="linear" dur="1s" fill="remove" from="0" repeatCount="indefinite" restart="always" to="1">
					</animate>

			<path class="st0" d="M121.6,403c-1.7,1.2-3.1,2.8-4.4,4.4c-1.5,1.7-3.1,3.6-3.6,5.8c-0.5,2.2,1.8,4,3.8,2.9
				c1.8-1,3.1-2.7,4.4-4.1c1.4-1.5,3-2.9,4.3-4.6C128,404.8,124.2,401.2,121.6,403z"/>
			<path class="st0" d="M141,424.5c-2.5,0.3-5.1,0.6-7.6,0.9c-2.6,0.4-5.3,0.5-7.2,2.5c-0.9,1-0.6,2.3,0.4,3.1
				c1.9,1.4,4.3,1.2,6.6,1.1c2.6-0.1,5.2-0.3,7.8-0.5C145.6,431.2,145.6,424,141,424.5z"/>
			<path class="st0" d="M142.9,461.7c-3.2-2.5-8.4-4.5-12.5-4.1c-2.3,0.2-3.3,3.1-1.2,4.4c1.7,1.1,3.5,1.7,5.3,2.4
				c1.8,0.8,3.5,1.8,5.4,2.4C142.7,467.7,145.4,463.7,142.9,461.7z"/>
			<path class="st0" d="M123.5,485c-0.8-1.7-2.4-3.1-3.5-4.6c-1.1-1.5-2.3-3.2-3.8-4.4c-1.9-1.5-4.2-0.1-3.9,2.3
				c0.3,2.1,1.5,4.2,2.6,5.9c1.2,1.9,2.5,3.8,4.3,5.2C122,491.4,124.8,487.5,123.5,485z"/>
			<path class="st0" d="M91.6,500.5c-0.7-2.2-1.1-4.4-1.6-6.6c-0.3-1.4-0.8-6.5-3.4-5.9c-3,0.8-2.7,5.5-2.7,7.8
				c-0.1,3.4,0.5,8.8,3.2,11c1.6,1.3,4.4,1,5-1.3C92.5,503.6,92.2,502.4,91.6,500.5z"/>
			<path class="st0" d="M60.4,485.4c-4.4,1.9-6.9,7.4-8.6,11.6c-1.8,4.5,5.7,6.6,7.3,2c1.3-3.7,4-6.9,5.2-10.6
				C65.1,485.9,62.4,484.5,60.4,485.4z"/>
			<path class="st0" d="M38.2,468.8c-5,1.4-11,4.1-14.9,7.6c-2.6,2.3,0.1,6.9,3.4,5.8c2.7-0.8,5.1-2.5,7.5-4c2.4-1.5,4.6-3,6.7-4.9
				C42.8,471.5,40.7,468.1,38.2,468.8z"/>
			<path class="st0" d="M31,441.5c-1.4-2.4-4-2.3-6.5-2.3c-3.1,0-6.3,0.1-9.4,0.2c-4.9,0.2-4.9,7.8,0,7.6
				C17.4,446.8,34.2,447.2,31,441.5z"/>
			<path class="st0" d="M44.8,416.1c-1.4-2.5-4-4.1-6.2-5.8c-2.1-1.7-4.2-4.7-7-5.1c-2.5-0.4-4.6,1.4-4,4c0.6,2.8,3.5,4.7,5.7,6.4
				c2.3,1.9,5.1,4.4,8.1,4.8C44,420.8,46.2,418.5,44.8,416.1z"/>
		</g>
		<polygon class="st1" points="79.1,386.5 88.1,387.2 94.6,394.5 97.3,409.5 107.6,422.2 116.8,434.7 116.6,448.1 102.8,463.9 
			90.3,469.7 71,470.9 57.4,465.1 48,451.5 46.5,435.9 56,420.5 63.3,415.2 64.9,401.4 70,390.2 		">
			<animate  accumulate="none" additive="replace" attributeName="opacity" attributeType="XML" calcMode="linear" dur="2s" fill="remove" from="0.2" repeatCount="indefinite" restart="always" to="1">
					</animate>
		</polygon>
		<path class="st1" d="M116.8,439.6c-0.1-1.1-0.3-2.1-0.5-3.2c-0.3-1.1-0.6-2.3-0.9-3.4c-7.8,2.4-15.2,5.8-22.2,9.8
			c6.6-5.3,13.3-10.3,20-15.4c-0.1-0.2-0.2-0.5-0.4-0.7c-0.5-0.5-1-1-1.5-1.6c-0.5-0.6-1.1-1.3-1.6-2.1c-11.8,5-22.6,11.4-33.1,18.5
			c9-8.2,18.4-15.9,28.2-23.1c-0.6-0.5-1.2-1-1.7-1.5c-0.8-0.8-1.4-1.7-1.9-2.5c-10,4.1-19.4,9.3-28.4,15
			c8.4-6.5,17.1-12.6,25.8-18.6c-0.8-1.4-1.5-2.9-2-4.5c-9,4.5-17.7,9.3-26.1,14.6c-5,3.2-9.8,7-14.8,10.6
			c12.6-11.3,25.8-21.8,39.6-31.8c0-0.6,0.2-1.1,0.6-1.4c-0.2-1.1-0.3-2.3-0.3-3.4c-7.6,4.6-15.1,9.2-22.7,13.8
			c5.6-5.2,11.2-10.4,16.7-15.6c1.3-1.2-0.4-3.5-1.9-2.5c-5,3.3-10.1,6.5-15.1,9.8c3.4-3.6,6.8-7.3,10-11.2c0.7-0.9-0.3-2.5-1.3-1.7
			c-5.9,4.4-11.7,8.8-17.5,13.2c0,0.4,0,0.8,0,1.3c3.6-2.4,7.2-4.8,10.7-7.3c-3.6,3.7-7.3,7.3-11.1,10.8c-0.2,1.6-0.5,3-0.7,4
			c0,0.3-0.1,0.5-0.2,0.8c3.9-2.5,7.7-4.9,11.6-7.4c-4.3,4-8.7,8-13,12c-0.9,2-2,3.7-3.5,5.2c0.5,0.7,1.4,1.1,2.3,0.6
			c2.9-1.7,5.8-3.5,8.7-5.3c-7.5,6-14.8,12.3-21.9,18.7c0,0.1,0,0.2-0.1,0.3c-0.4,2.6-0.6,5.5-0.9,8.3c8.5-4.3,15.9-10.9,23.8-16
			c0,0,0,0,0.1,0c-8.3,6.4-16.3,13.1-23.9,20.3c0.3,1.8,0.7,3.6,1.1,5.4c0.2,0.1,0.4,0.2,0.5,0.3c13-9.4,26.1-18.6,40.1-26.2
			c-12.6,10.3-24.5,21.2-35.8,32.9c1.4,1.2,2.7,2.4,4.1,3.6c12.5-9.8,25.4-19.6,39.2-27.4c-12.2,9.7-23.9,19.9-35,30.9
			c0.1,0.1,0.2,0.2,0.4,0.3c1.7,0.9,3.3,1.9,5.1,2.8c12.4-10.1,25.1-19.9,39.5-26.8c-11.1,9-22,18.3-31.8,28.8
			c3.4,0,6.8,0.2,10.3,0.4c5.5-4.2,11.1-8.3,16.9-12c-4.4,3.5-8.7,7.3-12.7,11.3c2.8-0.7,5.6-1.6,8.2-2.8c4-1.8,7.5-4.1,11.1-6.4
			c-0.2-0.1-0.4-0.2-0.7-0.3c1.9-1.5,3.8-2.9,5.7-4.3c1-1.5,1.9-3.1,2.7-4.7c0.8-1.5,1.5-3.1,2-4.6c0.1-0.9,0.1-1.9,0.2-2.8
			c-7,2.8-13.6,6.4-20,10.4C103.3,450.2,110,444.8,116.8,439.6z">
			<animate  accumulate="none" additive="replace" attributeName="opacity" attributeType="XML" calcMode="linear" dur="1s" fill="remove" from="0.2" repeatCount="indefinite" restart="always" to="1">
					</animate>
		</path>
	</g>
	<g>
		<path class="st2" d="M48,457.6c15.8,26.5,59.7,17.7,69.8-9.3c2.5-6.6,1.3-14.1-2.1-20c-3.2-5.5-8.8-9-13-13.6
			c-2.6-2.7-4.1-5.7-4.8-9.4c-0.7-3.7-0.7-7.5-1.9-11.2c-1.5-5.1-7.5-10.4-12.8-7.2c-0.6,0.4-0.4,1.5,0.4,1.5
			c10-1.1,9.7,11.2,10.7,17.9c1,6.9,5.7,11.6,10.6,16.1c5.8,5.3,10.2,10.9,10.1,19.1c-0.2,8.2-6.3,15.2-12.5,19.9
			c-12.6,9.5-29.8,11.6-43.1,2.4c-12.1-8.4-15.4-26.4-5.2-37.5c4.4-4.8,9.8-7.7,11.6-14.4c1.4-5.3-1.9-17.2,8.1-21.5
			c2.7-1.2,7.6-4.8,4.8-4.9c-9.4-0.3-15.8,10.3-16.4,16.5c-0.4,3.9,0,7.9-1.9,11.5c-1.6,3.2-5,5.5-7.6,7.8
			C42.5,430.4,41.2,446.1,48,457.6z"/>
		<path class="st2" d="M65.6,387.5c0.5,1.6,1.8,3.3,3.5,3.6c0.3,0.1,0.5,0,0.8-0.1c1,0,1.9-0.3,3-0.7c1.9-0.7,3.7-1.3,5.7-1.7
			c3.9-0.8,7.5,0,11.3,0.3c0.6,0.1,1-0.3,1.1-0.8c0.5,0.4,1.3,0.5,1.8-0.2c3.5-4.7,1.6-8.8-2.5-11c0.1-2.3,0.9-4.5-0.2-6.9
			c-0.7-1.5-2.4-2.5-4-2.8c0.3-2.2,0.2-4.5-1.8-6c-2.3-1.8-5.8-2.1-8.4-0.8c-0.9,0.4-0.7,2.1,0.3,2.2c1.3,0.2,2.5,0,3.8,0.1
			c3.3,0,3.6,2.9,3,5.4c-0.2,0.8,0.4,1.8,1.3,1.8c4.2-0.3,3.6,3.3,4,6.2c-0.5-0.2-0.9-0.3-1.4-0.4c-3.4-0.9-6.9-0.7-10.2,0
			c-1.4,0.3-3.7,0.8-5.4,1.7c0.2-0.6,0.1-1.4,0.2-1.9c0.2-3.2,2.7-4.8,5.8-4.6c0.9,0.1,1-1.3,0.2-1.6c-1.8-0.6-3.7-0.3-5.3,0.7
			c0.7-0.7,0.6-1.9,0.8-2.8c0.2-1,0.8-2,0.7-3.1c0-0.2-0.1-0.4-0.3-0.3c-2.2,0.2-4,5.1-1.9,6.4c0.1,0.1,0.3,0.1,0.4,0.1
			c-2.2,1.5-3.6,4.2-2.7,6.9c0.1,0.4,0.6,1,1.1,1.1c-0.6,0.5-0.9,1.1-1.1,1.8c-0.1,0.6,0.1,1,0.7,1.2c1.8,0.6,3.6-0.8,5.3-1.5
			c2.3-0.8,4.7-1.1,7.1-1.2c2.3,0,4.8,0.3,6.9,1.3c3.2,1.5,2.9,4.2,1.6,7c0,0.1,0,0.1-0.1,0.2c-0.1-0.1-0.1-0.1-0.2-0.2
			c-3.5-1.9-8.1-2.1-12-1.5c-2.6,0.4-7,1.2-9,3.5c-1.1-1.4-1.7-2.9-1.6-4.8c0.1-0.7-0.9-1.1-1.4-0.6C65.6,384.6,65.2,386,65.6,387.5
			z"/>
		<g>
			<path class="st3" d="M67,422.6c0.6,1,1.6,1.5,2.6,1.4c-0.2,1.7-0.5,3.4-0.6,5.1c-0.1,0.9,0,2,0.9,2.5c2,1.1,4-1.7,5.2-3.8
				c0.7,1.5,1.5,2.9,2.2,4.4c0.2,0.5,0.8,0.4,1.1,0.1c1.1-0.9,1.9-2,2.4-3.3c0.4,0.3,0.7,0.7,1,1c0.2,0.2,0.6,0.2,0.8-0.1
				c0.5-0.8,0.9-1.7,1.3-2.5c0.8,1.8,1.6,3.6,2.3,5.4c0.3,0.7,1.2,0.7,1.4,0c0.9-2.4,1.8-4.9,2.6-7.3c0.8,0.9,0.9,2.9,1.4,3.8
				c0.5,0.9,1.4,1.2,2.4,1.2c1.1-0.1,1.6-1.1,2-2c0.8-1.9,2-3.9,2.3-6c0.7,0.3,1.4,0.5,2.1,0.5c0.3,0,0.5-0.4,0.4-0.7
				c-1-1.9-3.4-3.3-4.8-4.8c-1.7-1.9-3.1-4.2-4.2-6.5c-1.1-2.4-1.8-5.1-2.1-7.7c-0.3-2.2,0.3-5-0.8-7c-0.2-0.3-0.6-0.4-0.9-0.1
				c-1.8,1.7-1.5,4.9-1.3,7.1c0.3,3,1.1,5.8,2.4,8.5c1.2,2.6,2.9,4.9,4.8,6.9c0.9,0.9,2,2.1,3.3,3c-0.6,0.8-1,1.7-1.4,2.6
				c-0.2,0.5-1.8,5.5-3,3.6c-1-1.7-0.4-3.7-2.7-4.4c-0.4-0.1-0.8,0.2-1,0.5c-0.8,2.2-1.6,4.3-2.3,6.5c-0.8-1.7-1.5-3.4-2.3-5
				c-0.2-0.4-1-0.4-1.1,0c-0.5,1.1-1,2.2-1.4,3.3c-0.4-0.4-0.7-0.8-1.1-1.2c-0.2-0.3-0.7-0.2-0.8,0.1c-0.5,1.1-1.1,2-1.9,2.9
				c-0.8-1.7-1.5-3.4-2.3-5.1c-0.2-0.5-1.2-0.6-1.4,0c-0.3,0.7-0.6,1.3-1,1.9c0-0.1-2.9,3.3-3,2.2c-0.2-2,0.7-4.5,1-6.5
				c0.1-0.6-0.4-1.3-1.1-1.1c-1,0.4-1.7,0.1-2.5-0.5C67.4,421.3,66.7,422.1,67,422.6z"/>
			<path class="st3" d="M64.3,423c4.2-2.8,6.6-7.3,8.1-12c0.8-2.4,1.1-5,1.2-7.5c0.1-1.9,0-4.5-1.3-6c-0.1-0.1-0.4-0.1-0.5,0.1
				c-0.8,1.6-0.6,3.5-0.7,5.2c-0.2,2.3-0.7,4.5-1.3,6.8c-1.3,4.6-4,8.5-6.5,12.5C63,422.7,63.7,423.4,64.3,423z"/>
		</g>
	</g>
	<linearGradient id="SVGID_1_" gradientUnits="userSpaceOnUse" x1="79.4876" y1="-0.6924" x2="79.4876" y2="362.2319">
		<stop  offset="0" style="stop-color:#FFFFFF"/>
		<stop  offset="0.5633" style="stop-color:#817E7F"/>
		<stop  offset="1" style="stop-color:#231F20"/>
	</linearGradient>
	<path class="st4" d="M84,278.4c9.8-6.5,18.4-13.1,12.2-26.9c-2.5-5.6-7.1-9.3-11.8-13c0.1-14.4,0.2-28.8,0.2-43.2
		c5.4-7.7,6.7-16.6,0.1-24.2c0,0-0.1-0.1-0.1-0.1c-0.1-26.9-0.4-53.8-0.9-80.7c-0.3-15.1-0.6-30.2-1-45.3
		c-0.2-7.9-0.4-15.7-0.7-23.6c-0.2-7.3-0.4-14.6-2.2-21.7c-0.1-0.5-0.9-0.5-1,0c-2.6,14-0.7,29.3-0.3,43.5
		c0.4,15.1,0.7,30.2,0.9,45.3c0.2,14.1,0.4,28.2,0.5,42.4c-0.4-0.3-1-0.2-1.2,0.5c-3.8,10.3-6.9,22.4-2.7,33.1
		c1,2.6,2.5,4.7,4.1,6.8c0,2.6,0,5.2,0,7.8c0,5.2,0,10.4,0,15.6c-0.5,0.6-1,1.2-1.5,1.8c-6.7,7.5-14.4,14.4-13,25.6
		c1.1,8.3,7.9,13.9,14.3,18.7c-0.1,9.6-0.1,19.2-0.3,28.8c0,2.2-0.1,4.4-0.1,6.5c-7.7,4.7-14.8,10.3-18,19.5
		c-3.3,9.7,1,17.7,8.6,23.2c3.9,2.8,6.7,6.1,8.5,9.8c-0.3,11.2-0.6,22.5,1,33.4c0,0.3,0.4,0.4,0.5,0.1c1.1-5.7,1.8-11.4,2.1-17.2
		c1.9-4.7,1.8-10.1,0.5-15c0.1-3.7,0.1-7.4,0.2-11.1C83.5,305.2,83.8,291.8,84,278.4z M80,133.8c0.1,10,0.1,20,0.2,30
		C76.2,154.6,78.1,144.4,80,133.8z M84.7,180.9c0-1.1,0-2.3,0-3.4c0,0,0,0.1,0,0.1c1.8,3.2,1.3,6.7,0,10
		C84.7,185.3,84.7,183.1,84.7,180.9z M73.2,228.5c-8.4-10.8,0-19.6,7-27.6c0,11.4-0.1,22.9-0.1,34.3C77.6,233.2,75.2,231,73.2,228.5
		z M85.4,244.8c5.1,4.1,10,10.4,8.9,17.6c-0.8,5.3-5.9,8.6-10.1,11.1c0,0,0-0.1,0-0.1c0.1-9.8,0.2-19.6,0.3-29.3
		C84.7,244.3,85.1,244.5,85.4,244.8z M72.5,315.2c-5.3-3.9-8-8.3-7.4-15.2c0.8-8.6,7.5-13.9,14.6-18.8c-0.2,11.2-0.3,22.3-0.5,33.5
		c0,2.2-0.1,4.3-0.1,6.5C77.2,319,74.9,317.1,72.5,315.2z"/>
</g>
</svg>
