<?xml version="1.0" encoding="utf-8"?>
<!-- Generator: Adobe Illustrator 21.0.0, SVG Export Plug-In . SVG Version: 6.00 Build 0)  -->
<svg version="1.1" id="Layer_1" xmlns="http://www.w3.org/2000/svg" xmlns:xlink="http://www.w3.org/1999/xlink" x="0px" y="0px"
	 viewBox="0 0 512 512" style="enable-background:new 0 0 512 512;" xml:space="preserve">
<style type="text/css">
	.st0{fill:#1F1A17;}
	.st1{fill:#FEF400;}
</style>
<g>
	<path class="st0" d="M46.8,280.5c-3-15.5-2.9-31.1-1.7-46.6c4.8-60.3,29.3-111.4,74-152.4c33.5-30.7,73-49.2,117.9-56.2
		c1.2-0.2,2.4-0.1,3.6-0.1c0.5,0.5,1.2,0.5,1.8,0.5c0.5,0,1,0.1,1.5,0c-0.6-0.2-1.3,0-1.6-0.7c5.7-1.5,11.6-1.4,17.4-1.9
		c2.1-0.2,2.7,0.6,2.7,2.6c0,8.4,0.1,16.9,0.3,25.3c0.1,2.6-1.9,2.9-3.4,3.9c-2.6,1.7-6.4,2-7.1,6c-0.5-0.4-1-0.9-0.2-1.5
		c-0.5,0.2-0.6,0.5-0.6,1c0.1,1.1-0.4,2.3,0.5,3.3c-1.1,17.5-2.2,34.9-3.1,52.4c-0.1,2.3-1.4,2.8-3.2,3.3
		c-9.2,2.3-18.5,4.5-27.6,7.2c-3.2,0.9-4-1.1-5.4-2.7c-11.4-13.7-22.9-27.4-34.1-41.3c-2.4-3-4.2-3.8-7.5-1.3
		c-4.2,3.3-11.6,4.6-12.6,9c-0.9,3.9,3.7,9.2,6,13.8c6.1,12.3,12.1,24.5,18.3,36.7c1.4,2.7,1.1,4.1-1.1,6.1
		c-7.5,7-14.8,14.1-22,21.4c-2.2,2.2-3.9,2.5-6.8,1.4c-16.1-6.3-32.4-12.2-48.5-18.5c-3.5-1.3-5.7-1.5-7.2,2.5
		c-1.4,3.8-6,7.4-5,10.9c0.9,3.1,5.9,4.9,9.1,7.2c11.8,8.5,23.7,17,35.6,25.3c2.6,1.8,3.6,3.3,2.5,6.7c-2.8,8.7-5.2,17.6-7.6,26.4
		c-0.6,2.2-1.5,3.6-4.1,3.8c-4.8,0.3-9.6,1-14.4,1.5c-0.7-0.2,0.3-0.1-0.4-0.3c-0.8-0.3-1.6-0.1-2.4-0.3c0.6,0.4,1.5,0,1.9,0.7
		c-2.1,1.1-4.3,1.1-6.5,0.9c-1.4-1-3-0.2-5-0.7c1.4,0.5,2.6-0.1,3.3,0.9c-8.7,1.3-17.4,2.7-26.2,3.8c-2.8,0.3-3.7,1.2-3.8,4.1
		c-0.4,10.7-0.5,10.7,10.1,13c13.7,2.9,27.4,5.9,41.2,8.6c3.2,0.6,4.6,1.9,5.3,5.1c1.6,8.3,3.4,16.6,5.5,24.9
		c0.9,3.6,0.2,5.5-2.9,7.5c-13.1,8.5-25.9,17.4-39,25.9c-3.4,2.2-3.3,3.7-1.2,6.8c5.5,7.8,5.3,7.9,14.5,5.2
		c13.1-3.9,26.3-7.7,39.3-11.8c3-0.9,4.7-0.4,6.6,1.9c6.5,7.9,13.2,15.6,20,23.3c1.9,2.2,2,3.8,0.7,6.3
		c-6.9,13.4-13.5,26.9-20.4,40.3c-1.3,2.6-1.2,4.1,1.2,6.1c8.6,7.2,8.6,7.4,16.9-0.1c10.1-9,20.2-18,30.2-27.1
		c2.3-2.1,4.2-2.7,7.4-1.6c10.5,3.6,21.1,6.9,31.7,10c3.4,1,4.5,2.6,4.7,6.1c0.6,13,1.9,26,2.4,39c0.2,4.8,1.4,8.3,5.5,10.8
		c4.7,2.9,6.5,7,6.3,12.6c-0.2,5.7,0.3,11.4,0.8,17.1c0.2,2.7-0.4,3.9-3.3,3.4c-4.8-0.9-9.7,0-14.4-1.7c1.1-1.1,2.4-0.5,2.7-0.5
		c-0.5,0.2-2.1-0.6-3.5,0.4c-17.9-1.4-35.2-5.7-51.8-12.5c-80.8-33-128.3-93-143.9-178.7c-0.2-1.2-0.1-2.4-0.1-3.6
		c1.1-1.3,0.1-3,0.7-4.4c0-0.7-0.6-0.2-0.6,0C47.5,278.1,47.8,279.4,46.8,280.5z"/>
	<path class="st1" d="M271.7,130.4c-1-3.9-0.6-7.9-0.7-11.9c-0.5-20.1-0.8-40.3-1.5-60.4c-0.2-5.1,1.7-5.9,6-5
		c6.7,1.4,10.9,5.9,14,11.5c6.2,11.1,8.6,23.4,10.4,35.7c1.2,8.4,2,16.8,3.1,25.7c2.5-1.4,3.3-3.7,4.6-5.6
		c8.7-12.4,17.5-24.6,29.4-34.2c3.5-2.8,7.4-5.3,11.7-6.7c10.4-3.6,19.7,1,23.2,11.4c3.3,10,1.6,19.9-0.5,29.8
		c-2.9,13.4-7.9,26.2-13.2,38.8c-0.6,1.5-1.3,3.1-2.3,5.8c5.3-2.5,9.6-4.5,13.9-6.5c15.4-6.9,30.9-13.3,47.8-15.5
		c6.6-0.9,13.1-0.8,19.5,1.3c10.1,3.3,13.1,8.8,10.4,19.1c-1.8,6.9-5.8,12.5-10.5,17.7c-12,13.3-26.6,23.2-41.6,32.7
		c-2,1.3-4.1,2.5-7.2,4.5c8.6,0.4,16.1,0.7,23.5,1.2c12.9,0.8,25.5,2.6,37.6,7.4c9.8,3.8,18.2,9.4,23.1,19.1
		c1.4,2.8,1.7,5.3,0.8,8.4c-3.5,11.6-12,17.5-23,20.3c-14.8,3.7-29.9,3.7-45,4.3c-4.1,0.2-8.3,0-13,0c1.1,2.6,3,3.2,4.4,4.1
		c14.7,9.9,29.2,20.1,40.9,33.6c3.4,3.9,6.5,8.1,8.5,13c4.9,12.2-1.3,23.6-14.3,26.4c-7.7,1.6-15.2,0.3-22.6-1.6
		c-15.2-3.9-29.2-10.7-43.1-18.1c-1.7-0.9-3.4-1.7-5.3-2.8c-0.5,2.3,0.9,3.8,1.7,5.4c8.2,17.6,16.5,35.2,20.4,54.4
		c0.7,3.4,1.2,6.9,1.3,10.3c0.3,13.9-10.7,22.2-24.4,18.4c-9.1-2.5-16.4-8.2-23.1-14.5c-11.5-10.7-21.1-23-30.3-35.6
		c-1-1.3-2-2.6-3.9-5.1c0.4,14.8,0.7,28.1,0,41.4c-0.6,9.7-1.7,19.4-5.4,28.5c-3.1,7.6-8.1,13.3-16.7,14.7c-4.4,0.7-8.2,0-11.3-3.5
		c-0.7-1.9-0.3-3.8-0.3-5.7c0-29.3,0-58.7,0-88c0-7.4,0-7.4,7.4-8.5c2-0.6,4.2-0.4,6.2-1.1c0.8-0.2,1.6-0.4,2.5-0.4
		c19-2.3,36.1-9.1,51-21.4c1-0.8,1.9-1.5,3.1-1.7c3,0.3,2.6-2.5,3.7-3.9c4.8-5.4,10-10.5,14-16.7c15.6-24.2,20.2-50.3,11.2-77.6
		c-10.3-31.2-32.8-50.2-64.1-59.2c-3.5-1-7-2-10.7-2.3c-0.8-0.1-1.6-0.2-2.5-0.4c-2.9-1.4-6.9,1-9.1-2.6c0.2-0.6,0.7-0.7,1.2-0.8
		c-0.7-0.2-1.3,0.2-2,0.4c-6.6,1.3-8,0.1-7.6-6.5c0.5-10.3,0.1-20.6,0.9-30.8c0.1,3,0,6-0.2,9C272.8,130.7,272.3,130.8,271.7,130.4z
		"/>
	<path class="st0" d="M282.6,346.1c-1.8,0.4-3.7,0.7-5.5,1.1c-1,0.4-2,0.3-3.1,0.2c-1.7-0.7-3.7,0.1-5.2-1.4
		c0.4-28.4,0.8-56.9,1.3-85.3c0.5-31.7,1.2-63.5,1.8-95.2c0-2.2,0.2-4.5,0.4-6.7c2.9-1,5.8-1,8.7,0c3.2,1.4,6.8,0.2,10,1.8
		c-0.2,0.4-0.6,0.6-1,0.6c1,0.1,1.9,0.3,2.8-0.4c22.2,3.5,40.7,13.4,56.7,29.7c26.6,26.9,30.8,72.9,11.3,105.9
		c-5,8.4-11,16-18.1,22.6c-0.8,1.4-1.6,2.7-3.3,3.2c-6.1,5-12.5,9.6-19.6,13.1c-11.2,5.5-22.8,9.7-35.3,10.7c-1.4-1-3-0.2-4.8-0.7
		C280.7,345.7,281.9,345,282.6,346.1z"/>
</g>
</svg>
