<svg id="Layer_1" xmlns="http://www.w3.org/2000/svg" xmlns:xlink="http://www.w3.org/1999/xlink" viewBox="0 0 512 512">
  <style>
    .st0{clip-path:url(#SVGID_4_);} .st1{fill:none;stroke:#250777;stroke-width:2;stroke-linecap:round;stroke-linejoin:round;stroke-miterlimit:10;} .st2{fill:none;stroke:#250777;stroke-width:2;stroke-miterlimit:10;} .st3{fill:#FFFFFF;stroke:#250777;stroke-width:2;stroke-linecap:round;stroke-linejoin:round;stroke-miterlimit:10;} .st4{fill:#FFFFFF;} .st5{clip-path:url(#SVGID_6_);} .st6{fill:none;stroke:#250777;stroke-width:2;stroke-linecap:round;stroke-miterlimit:10;} .st7{fill:none;stroke:#250777;stroke-width:2;stroke-linejoin:round;stroke-miterlimit:10;} .st8{fill:#D3C5A0;stroke:#250777;stroke-miterlimit:10;} .st9{clip-path:url(#SVGID_8_);} .st10{clip-path:url(#SVGID_10_);} .st11{fill:#250777;} .st12{fill:#371B82;} .st13{fill:#FFFFFF;stroke:#250777;stroke-width:0.5;stroke-miterlimit:10;}
  </style>
  <defs>
    <ellipse id="SVGID_2_" transform="rotate(-6.01 375.61 107.38)" cx="375.6" cy="107.4" rx="30.2" ry="30.2"/>
  </defs>
  <clipPath id="SVGID_4_">
    <use xlink:href="#SVGID_2_" overflow="visible"/>
  </clipPath>
  <g class="st0">
    <animate accumulate="none" additive="replace" attributeName="opacity" attributeType="XML" calcMode="linear" dur="5s" fill="remove" from=".5" repeatCount="indefinite" restart="always" to="1"/>
    <path class="st1" d="M371.1 121.9c-.3.6 0 1.9-.6 2.5-.7.8-1.9 1.1-1.9 2.5 0 .3-.2.5-.5.6-.8 1.4-1.6 2.6-1.6 4.3.5 1.3 1.6 2.5 1.9 3.9.1.5 0 .9-.2 1.2v.1c-.1.2-.4.3-.7.3-.2 0-.5 0-.8-.1-.2-.1-.3-.3-.3-.5-3-1.2-5.1-3.9-5.3-7.3-.1-1.9.6-4.2-1.3-5.6-.5-.4-1.3-.8-1.5-1.4-.7-1.6 0-2.5.4-3.9-.5-1-2.8-1.9-3.5-3.1-.8-1.4-1.6-2-1.9-3.6-.3-2-3.4-1.9-4.7-3.1-.8-.7-2.1-1.8-2.5-2.9-.6-2-.8-4.4-.8-6.5 0-2.2-1-4-1.3-6.1-.2-1.5 0-5.2 1.5-6 .3-.2.5-.1.7.1 1.5-1.7 3.7-2.9 4.4-5.1.8-2.5 2.9-4.3 5.1-5.8 2-1.4 6.2-3.2 7.4-1.1.2 0 .3.1.5.2.3.3.5.7.7 1.2.5.6.7 1.4.8 2.4.7 1.4 1.1 2.9.1 4.3-.4.5-.8.9-1.2 1.1-.6.7-1.5.9-2.6 1l-2.4.9c-.3.1-.7.1-1 .2-.3.6-.3 1.2 0 1.8.2.9.7 2.2 0 3-.8.9-1.5 1-2.7 1.1-.8 1.2-.4 1.9 1 2.2l1.2.3c.8-.2 1.5-.6 2.2-1.2.8-.7 1.9-1.9 3-2 2.9-.2 3.6 2.5 2.8 4.8-.7 2.2 0 4.3 1.1 6.3.8 1.5 1.8 2.3 2 4 .3 2.2-3.6 2.9-4.9 2.9-1 0-5.8-2.2-5.3.9.2 1.3-.1 2.2-.8 3.3 0 .2-.1.4-.1.6-.3 1 1.8.8 2.4.7.8-.1 1.5-.4 2.2-.4.4-.2.8-.2 1.1-.1l1.2.6c1.7.5 3.2.7 3.6 2.3.4.3.8.6 1.3.8 1 .7 2.5 2 1.8 3.4zM398.5 115.6c0 .1-.1.3-.1.5-.2.3-.7.5-1 .2-.8-.8-1.9-1.2-3.1-1.1-1.3.1-.3 1 0 1.6.4 1 .2 1.9-.6 2.5-.9.8-2 .9-3.1.5-.4-.2-.7-.5-.9-1-.4 2.2.1 7.8-.4 9.9-.4 1.6-.9 3-2.4 3.6-1.3.6-3.2-4.4-3.6-5.3s0-2.1.1-3c.5-2.9-2-2.3-4.2-3-2.3-.7-3.6-6.2-1.1-7.9 1.8-1.3 3.2-.6 5.2-.4s4.3.2 6-1.1c.8-.6 1.5-1.2 2.2-1.9.9-1.3.9-2.6.2-3.7h-.1c-.3 0-.5-.1-.7-.2-.4.6-1 2.3-1.9 2.1-.3-.1-.8 0-1.1-.1l-.2-.2c.2 1.1.5 2.2-.8 2.8-1.3.6-1.3-3.2-2.5-1.5l-.2.2c-.4.8-1.1 2.6-2.1 2.4s-2.5-.7-3.3-1.4c-.8-.7-.3-1.5.2-2.1.3-.3.8-.4 1.2-.5 1.2-2.1 1.3-2.7.3-1.8-.1.1-.2.1-.3.1-2.9.1-3.1-3.2-2.9-5.5 0-.5.7-1.1 1.3-1 .9.2 1.5.7 2.3 1.1 4.5 2 5.4-4.1 4.7-6.7v-.2c-.4-1.2-1-2.4-.9.2 0 1 .1 2.3-.7 3-2 1.7-3.8.8-4.5-1.5-.5-1.6.1-3.2.5-4.7.5-1.9-.4-3.6-.2-5.5.1-1.1 1.5-2.2 2.3-2.9 1.9-1.6 3.3-3.8 4.2-6 .2-.4.6-.4.9-.2.2 0 .4.1.5.2 2 .9 4 1.9 5.7 3.3 1.5 1.3 3.9 1.4 5.1 3.1 1.3 1.7 2.7 3.3 3.8 5.1 1.2 1.9 1.5 4.2 2 6.4 1.2 6.6.9 17.7-5.8 21.6z"/>
  </g>
  <ellipse id="XMLID_4_" transform="rotate(-6.01 375.61 107.38)" class="st1" cx="375.6" cy="107.4" rx="30.2" ry="30.2"/>
  <path class="st2" d="M34.5 343.5l-14.2 6.1 3.6 2.7-7.8 10.5 2.4 1.8 2.6 1.9 7.6-10.7 3.7 2.7zM327.5 83.7L339 71.2l-4.8-1 3.1-14-3.1-.7-3.4-.7-2.9 14-4.9-1z"/>
  <path class="st1" d="M444.7 182l-8.6-23.9c-.8-2.3-3.2-3.5-5.4-2.7L398 167.2c-1.1.4-1.9 1.2-2.4 2.3.3-.2.6-.4.9-.5l8.3-3 .4 1.1 25.2-9.1c2-.7 4.1.5 4.9 2.6L443 182c.3.9.3 1.7 0 2.5.2 1.1-.1 2.2-.9 3 2.2-.8 3.4-3.3 2.6-5.5z"/>
  <path class="st1" d="M431.3 162.2c1.7-.6 3.8.2 4.4 1.9l7.2 19.9c0 .1.1.2.1.4.3-.8.3-1.6 0-2.5l-7.7-21.4c-.7-2-2.9-3.3-4.9-2.6l-25.2 9.1 1.5 4.1 24.6-8.9z"/>
  <path class="st1" d="M443 184.4c0-.1-.1-.2-.1-.4l-7.2-19.9c-.6-1.7-2.7-2.6-4.4-1.9l-24.7 8.9-1.5-4.1-.4-1.1-8.3 3c-.3.1-.6.3-.9.5-1.1.8-1.6 2.3-1.1 3.7l9 25.1c.6 1.7 2.5 2.6 4.3 2l33-11.9c.5-.2 1-.5 1.4-.9.8-.7 1.2-1.9.9-3zM70.3 148.2l-1.4-14.3c-.1-1.4-1.3-2.4-2.6-2.2l-19.6 1.9c-.7.1-1.2.4-1.6.9.2-.1.4-.1.6-.1l5-.5.1.7 15.1-1.5c1.2-.1 2.2.9 2.3 2.1l1.3 12.8c.1.5-.1 1-.3 1.4 0 .6-.4 1.2-.9 1.5 1.2-.2 2.2-1.4 2-2.7z"/>
  <path class="st1" d="M65.8 135.5c1-.1 2.1.6 2.2 1.7l1.2 11.9v.2c.3-.4.4-.9.3-1.4l-1.3-12.8c-.1-1.2-1.2-2.2-2.3-2.1l-15.1 1.5.2 2.4 14.8-1.4z"/>
  <path class="st1" d="M69.1 149.3v-.2l-1.2-11.9c-.1-1-1.1-1.8-2.2-1.7L51 136.9l-.2-2.4-.1-.7-5 .5c-.2 0-.4.1-.6.1-.7.3-1.2 1-1.1 1.9l1.5 15.1c.1 1 1 1.8 2.1 1.7l19.8-1.9c.3 0 .6-.1.9-.3.4-.4.8-1 .8-1.6z"/>
  <path class="st3" d="M420 334c-.6-1.7-14.1-14.3-19.5-19.3.2-.2.3-.4.5-.7.4-.7.2-1.7-.3-2.2l-.6-.6c.7-1 1.2-2.2 1.6-3.3 1.8-5.5.5-11.5-3.4-15.7-2.9-3.1-6.8-4.9-11-5s-8.2 1.4-11.3 4.2c-1.9 1.8-3.4 4-4.2 6.5-1.8 5.5-.5 11.5 3.4 15.7 2.9 3.1 6.8 4.9 11 5 2.8.1 5.4-.5 7.8-1.8l.6.7c.5.5 1.5.8 2.2.5.2-.1.4-.3.7-.4 4.7 5.7 16.3 20 18 20.8s3.4-.9 3.4-.9 1.8-1.8 1.1-3.5zm-32.8-43.6c3.3.1 6.3 1.5 8.6 3.9 3.1 3.3 4.1 8 2.7 12.3-.6 1.9-1.8 3.7-3.3 5.1-5 4.6-12.8 4.4-17.4-.6-3.1-3.3-4.1-8-2.7-12.3.6-1.9 1.8-3.7 3.3-5.1 2.4-2.2 5.5-3.4 8.8-3.3z"/>
  <path id="XMLID_2_" class="st4" d="M237.1 120.1c-16.8 4.8-26.7 21.7-21.8 39.1l60.9-17.4c-5-17.3-22.3-26.5-39.1-21.7zM222.7 148c.8-9.3 7.2-17 16.7-19.8 9.5-2.7 18.9.5 24.6 8L222.7 148z"/>
  <defs>
    <path id="SVGID_5_" d="M237.1 120.1c-16.8 4.8-26.7 21.7-21.8 39.1l60.9-17.4c-5-17.3-22.3-26.5-39.1-21.7zM222.7 148c.8-9.3 7.2-17 16.7-19.8 9.5-2.7 18.9.5 24.6 8L222.7 148z"/>
  </defs>
  <clipPath id="SVGID_6_">
    <use xlink:href="#SVGID_5_" overflow="visible"/>
  </clipPath>
  <g class="st5">
    <animate accumulate="none" additive="replace" attributeName="opacity" attributeType="XML" begin="0.5s" calcMode="linear" dur="5s" fill="remove" from=".5" repeatCount="indefinite" restart="always" to="1"/>
    <path class="st6" d="M237.5 120.1l1.1 3.9M232.8 121.8l1.6 3.7M228.5 123.9l2.2 3.4M224.7 126.7l2.6 3.1M221.2 130l3.1 2.6M218.3 133.8l3.5 2.1M216 137.9l3.7 1.6M214.3 142.4l3.9 1M213.3 147l4 .5M213 151.7l4-.1M241.9 119.2l.5 4M246.6 118.8v4M251.4 119.1l-.7 4M256 120.1l-1.2 3.8M260.5 121.8l-1.8 3.6M264.6 124.1l-2.3 3.3M268.4 126.9l-2.8 3M271.7 130.3l-3.1 2.6M274.5 134.2l-3.5 2"/>
  </g>
  <path id="XMLID_1_" class="st2" d="M237.1 120.1c-16.8 4.8-26.7 21.7-21.8 39.1l60.9-17.4c-5-17.3-22.3-26.5-39.1-21.7zM222.7 148c.8-9.3 7.2-17 16.7-19.8 9.5-2.7 18.9.5 24.6 8L222.7 148z"/>
  <g>
    <animate accumulate="none" additive="replace" attributeName="opacity" attributeType="XML" calcMode="linear" dur="5s" fill="remove" from=".5" repeatCount="indefinite" restart="always" to="1"/>
    <path class="st6" d="M271.7 142.7l-1.1-3.8M266.1 144.3l-1.1-3.8M260.5 145.9l-1-3.8M254.9 147.5l-1-3.8M249.4 149.1l-1.1-3.8M243.8 150.7l-1.1-3.8M238.2 152.2l-1.1-3.7M232.6 153.8l-1.1-3.7M227 155.4l-1.1-3.7M221.4 157l-1-3.7"/>
  </g>
  <path class="st7" d="M332.3 358.9l4.2 1.4-.5 14.6 9.1-22.4 27.8 9.2M222.8 91.6L227 93l-.5 14.5 9.1-22.4 27.8 9.2"/>
  <path class="st3" d="M190.5 71.6h-14.2c-1.6 0-2.8 1.3-2.8 2.8v.7c0 1.6 1.3 2.8 2.8 2.8h1.1v39c0 3.3 2.7 5.9 6 5.9s6-2.6 6-5.9V78h1.1c1.6 0 2.8-1.3 2.8-2.8v-.7c0-1.6-1.3-2.9-2.8-2.9z"/>
  <path class="st8" d="M179.5 103.7v12.6c0 2.2 1.7 4 3.8 4s3.8-1.7 3.8-4v-12.6h-7.6zM184.3 94.6c-1.4 0-2.6.9-2.7 2.3-.1 1.3 1 2.7 2.3 2.7 1.4 0 2.6-.9 2.7-2.3.1-1.2-1-2.7-2.3-2.7zM185.2 87.6c-.8 0-1.4.5-1.5 1.3-.1.7.5 1.5 1.3 1.5s1.4-.5 1.5-1.3c0-.7-.6-1.5-1.3-1.5zM184.3 65c-1 0-1.8.6-1.9 1.6-.1.9.7 1.9 1.6 1.9 1 0 1.8-.6 1.9-1.6.1-.9-.7-1.9-1.6-1.9zM184.7 81.2c-.9 0-1.8.6-1.8 1.6-.1.9.6 1.8 1.6 1.8.9 0 1.8-.6 1.8-1.6.1-.8-.6-1.8-1.6-1.8zM181.5 74.6c-.9 0-1.8.6-1.8 1.6-.1.9.6 1.8 1.6 1.8.9 0 1.8-.6 1.8-1.6 0-.9-.7-1.8-1.6-1.8z"/>
  <path class="st3" d="M387.3 452.5s7.3 1.6 6.7-11c-.4-9-6.3-24-30.5-26.1s-36.6 14-38.3 22.6c-1.7 8.6 2 16.1 18.9 14.5 0 0-3.1 4.1.6 7 3.8 2.9 13.3 0 13.3 0s10 2.8 12.5 6.2c2.5 3.3 2.5 10.5 4.6 13.7h4.2s-2.7-12.9-1.9-15.4c0 0 6.7-.4 10.4-3.7 5.7-4.9-.5-7.8-.5-7.8z"/>
  <defs>
    <path id="SVGID_7_" d="M387.3 452.5s7.3 1.6 6.7-11c-.4-9-6.3-24-30.5-26.1s-36.6 14-38.3 22.6c-1.7 8.6 2 16.1 18.9 14.5 0 0-3.1 4.1.6 7 3.8 2.9 13.3 0 13.3 0s10 3.6 12.5 7c2.5 3.3 2.5 10.5 4.6 14.4h4.2s-2.7-13.7-1.9-16.2c0 0 6.7-.8 10.4-4.1 5.7-4.8-.5-8.1-.5-8.1z"/>
  </defs>
  <clipPath id="SVGID_8_">
    <use xlink:href="#SVGID_7_" overflow="visible"/>
  </clipPath>
  <g class="st9">
    <animate accumulate="none" additive="replace" attributeName="opacity" attributeType="XML" begin="0.5s" calcMode="linear" dur="5s" fill="remove" from=".5" repeatCount="indefinite" restart="always" to="1"/>
    <path class="st1" d="M391.6 453s-11.3-1.4-20.4 2.4c-9.2 3.8-17.9 7.1-17.9 7.1M368.1 456.7s3.1 7.5 13.5 7.5M370.5 460s-5 4.2-11.1 3.3M341.6 454.2s4.6-4.2 10.4-5.4c5.8-1.3 17.4-5.6 18.5-9.7M336.6 453.5s-3.3-1.9-.4-7.9-4.6-5.3-4.6-5.3M350.3 455.8c5.4-4.9 19.1-3.5 25.4-8.8M337.3 443.7c5 1 6.8-2 4.7-6.3M351 448.5c-1.8-3.3-1.3-5.7 1.5-8.1M362 445.4c-.7-2.8-.1-5.9 2.1-7.9M381.6 448.7c1.3-5.4 6.8-6 8.3-10M372.5 448.3c-.9-2.4.1-4.7 2.5-6.3M386.6 442.5c-4.3-2-5-5.1-2.1-8.8M380 427.5c-5.8 8.6-10.9-2.3-16.3 2.5M373.7 430c.1-3.1-1.5-4.9-4.6-5M355.8 423.3c-3.7 2.6-.5 7-2.1 10.4M353.7 428.7c-3.2-1.7-5.7-1.1-6.7 2.5M338.2 417.9c5.3 7.1-6.2 9.1-4.2 15M337 426.6c2.8 1.1 4.4 3 3.8 5.8M323.6 432.5c3 .2 5.6 1.7 7.5 4.2M326.2 450.4c1.4-.9 2.5-2.2 2.9-3.8M345.8 424.5c2.6-4.7 10.5-5.8 9.2-12.5M355.8 423.7c2.6 1.5 5.4 1.9 7.5.4M355.8 423.3c4.8-2.4 8.2-7.2 5.8-12.1M361.2 440.4c-2.4-.6-3.4-2.6-2.9-5.4M386.6 435.8c1.4-4.5 5.5-5 5.4-9.6M380.4 418.3c-1.9 1.5-3.5 3.6-4.6 5.8M374.1 417c-2.4 1.5-5.3 1.7-7.1.4M374.5 441.2c-1.1-2.7-.2-4.8 2.5-5.8M375 442.1c1 .2 1.9 0 2.5-.6M351 448.5c-1.3-1-2.8-1.5-4.4-1.5"/>
  </g>
  <path id="SVGID_1_" class="st1" d="M387.3 452.5s7.3 1.6 6.7-11c-.4-9-6.3-24-30.5-26.1s-36.6 14-38.3 22.6c-1.7 8.6 2 16.1 18.9 14.5 0 0-3.1 4.1.6 7 3.8 2.9 13.3 0 13.3 0s10 3.6 12.5 7c2.5 3.3 2.5 10.5 4.6 14.4h4.2s-2.7-13.7-1.9-16.2c0 0 6.7-.8 10.4-4.1 5.7-4.8-.5-8.1-.5-8.1z"/>
  <path class="st1" d="M294.5 68.1s4.5 2.7 6.9-5.9c1.6-6.1 1-17.4-14.7-24s-27.5 1.4-30.5 6.8-2.2 11.2 9.5 13.8c0 0-3 2.1-1.1 4.8 1.9 2.8 8.9 2.9 8.9 2.9s6.1 4.1 7 6.9-.6 7.4.1 10.2l2.8.9s1-9.3 2.1-10.8c0 0 4.6 1.2 7.8-.2 4.8-2.1 1.2-5.4 1.2-5.4z"/>
  <defs>
    <path id="SVGID_9_" d="M294.5 68.1s4.5 2.7 6.9-5.9c1.6-6.1 1-17.4-14.7-24s-27.5 1.4-30.5 6.8-2.2 11.2 9.5 13.8c0 0-3 2.1-1.1 4.8 1.9 2.8 8.9 2.9 8.9 2.9s5.9 4.5 6.9 7.3c.9 2.8-.7 7.8 0 10.5l2.8.9s1.1-9.6 2.2-11.1c0 0 4.6 1 7.8-.4 4.8-2.1 1.3-5.6 1.3-5.6z"/>
  </defs>
  <clipPath id="SVGID_10_">
    <use xlink:href="#SVGID_9_" overflow="visible"/>
  </clipPath>
  <g class="st10">
    <animate accumulate="none" additive="replace" attributeName="opacity" attributeType="XML" begin="0.5s" calcMode="linear" dur="5s" fill="remove" from=".5" repeatCount="indefinite" restart="always" to="1"/>
    <path class="st1" d="M297.3 69.3s-7.2-3.4-14.2-2.8c-6.9.5-13.5.8-13.5.8M280.8 66.7s.4 5.7 7.4 7.9M281.7 69.4s-4.2 1.7-8.1-.2M263.7 59.3s4-1.8 8.1-1.4c4.2.4 12.8 0 14.5-2.5M260.5 57.7s-1.8-2 1.4-5.4c3.3-3.4-1.9-4.5-1.9-4.5M269.2 62.3c4.6-2.1 13.5 1.8 18.9-.3M263 51.3c3.1 1.8 5 .1 4.5-3.2M271.2 57.5c-.5-2.6.4-4.1 2.7-5.1M279.2 57.8c.1-2 1.2-3.9 3.1-4.8M291.6 64.3c2-3.3 5.8-2.5 7.7-4.9M285.6 62c-.1-1.8 1.1-3.1 3-3.6M296.3 61.2c-2.4-2.3-2.2-4.5.5-6.3M295.1 49.7c-5.7 4.5-6.8-3.9-11.4-1.9M290.4 50.1c.8-2 .1-3.6-2-4.3M279.8 41.7c-3 1-1.8 4.6-3.7 6.5M277.3 44.9c-1.8-1.8-3.6-1.9-5 .2M269.3 34.3c2 5.9-6.1 4.7-6 9.1M266.6 39.9c1.6 1.3 2.3 2.9 1.2 4.7M256.4 40.9c2 .8 3.4 2.4 4.1 4.4M254.2 53.4c1.1-.3 2.2-1 2.8-1.9M272.9 40.4c2.8-2.6 8.2-1.6 8.8-6.4M279.7 42c1.4 1.6 3.2 2.4 4.9 1.9M279.8 41.7c3.7-.6 7.1-3 6.5-6.8M279.7 54.3c-1.5-.9-1.7-2.5-.8-4.3M297.7 56.8c1.9-2.7 4.8-2.2 5.7-5.2M297.4 43.7c-1.6.6-3.1 1.7-4.3 2.9M293.5 41.5c-1.9.5-3.9 0-4.8-1.3M288.5 57.8c-.1-2 .9-3.3 2.9-3.4M288.6 58.4c.6.4 1.3.4 1.8.1M271.2 57.5c-.6-.9-1.5-1.6-2.6-1.9"/>
  </g>
  <g>
    <path id="SVGID_3_" class="st1" d="M294.5 68.1s4.5 2.7 6.9-5.9c1.6-6.1 1-17.4-14.7-24s-27.5 1.4-30.5 6.8-2.2 11.2 9.5 13.8c0 0-3 2.1-1.1 4.8 1.9 2.8 8.9 2.9 8.9 2.9s5.9 4.5 6.9 7.3c.9 2.8-.7 7.8 0 10.5l2.8.9s1.1-9.6 2.2-11.1c0 0 4.6 1 7.8-.4 4.8-2.1 1.3-5.6 1.3-5.6z"/>
  </g>
  <g>
    <path class="st1" d="M77.3 206.7l-3-1.1-17.9 50.9 32.3 11.4s-.1 3.7 3 4.8"/>
    <path class="st1" d="M91.4 272.7c3.1 1.1 5.3-1.9 5.3-1.9l31.5 11.1 17.9-50.9-3-1.1M93.2 266.8s-11-4.9-32.4-13.3c5.8-16.4 12.5-35.4 16.9-47.9 1.4.5 2.1.8 3.3 1.3"/>
    <path class="st1" d="M93.2 266.8s12.3 3.3 33.5 9.9c5.8-16.4 12.5-35.4 16.9-47.9-1.3-.5-2.6-.9-3.8-1.2"/>
    <path class="st1" d="M93.6 267.7s-6.8-6.9-28.3-15.3c5.8-16.4 12.5-35.4 16.9-47.9 21.7 7.7 27.3 18.1 27.3 18.1l-15.9 45.1zM93.6 267.7s8.9-1.4 30.1 5.3c5.8-16.4 12.5-35.4 16.9-47.9-20.2-7.1-31.1-2.4-31.1-2.4l-15.9 45z"/>
  </g>
  <g>
    <animate accumulate="none" additive="replace" attributeName="opacity" attributeType="XML" calcMode="linear" dur="5s" fill="remove" from=".5" repeatCount="indefinite" restart="always" to="1"/>
    <path class="st1" d="M120 426.6l55.5 14.8c.7.2 1.1.9.9 1.6l-9.6 36c-.2.7-.9 1.1-1.6.9l-55.5-14.8c-.7-.2-1.1-.9-1-1.6l9.6-36c.2-.6 1-1 1.7-.9z"/>
    <path class="st1" d="M130.2 388.3l55.5 14.8c.7.2 1.1.9.9 1.6l-9.6 36c-.2.7-.9 1.1-1.6.9l-55.5-14.8c-.7-.2-1.1-.9-1-1.6l9.6-36c.3-.7 1-1.1 1.7-.9z"/>
    <path class="st1" d="M125.699 422.511l7.3618-27.636 46.769 12.458-7.3618 27.6363zM165.3 461.9c-.2.8-1.1 1.4-1.9 1.1l-43.7-11.6c-.8-.2-1.4-1.1-1.1-1.9l3.7-13.8c.2-.8 1.1-1.4 1.9-1.1l43.7 11.6c.8.2 1.3 1.1 1.1 1.9l-3.7 13.8zM148.3 470.5c-.2.8-1.1 1.3-1.9 1.1l-16.1-4.3c-.8-.2-1.3-1.1-1.1-1.9l1.4-5.4c.2-.8 1.1-1.4 1.9-1.1l16.1 4.3c.8.2 1.4 1.1 1.1 1.9l-1.4 5.4zM140.1 460.9l-2 7.7M132 398.8l46.8 12.5M131.6 403.6l6.1 1.7M137.7 405.3l-3.5 13M133.5 418.1l-6.2-1.6M121.2 439.4l46.8 12.5M119.8 444.8l46.7 12.5M128.8 435.7l-4.3 16.1M135.7 437.6l-4.3 16.1M142.6 439.4l-4.3 16.1M149.5 441.2l-4.3 16.1M156.4 443.1l-4.3 16.1M163.3 444.9L159 461"/>
  </g>
  <g>
    <path class="st1" d="M406.7 363.6h6.3v28.6h-6.3zM416.2 377.1h7.1v15.1h-7.1zM426.5 369.9h6.3v22.2h-6.3zM401.2 392.1H444M401.2 392.1v-42"/>
  </g>
  <g>
    <path class="st8" d="M427.3 287.8c1.3 0 2.4.4 3.1 1.2.8.8 1.1 1.8 1.1 3.2 0 1.3-.4 2.4-1.1 3.2-.8.8-1.8 1.2-3.1 1.2s-2.4-.4-3.1-1.2c-.8-.8-1.1-1.8-1.1-3.2 0-1.3.4-2.4 1.1-3.2.7-.8 1.7-1.2 3.1-1.2zm0 1.8c-.5 0-.9.2-1.2.7-.3.4-.4 1.1-.4 1.9s.1 1.4.4 1.9c.3.4.7.7 1.2.7s.9-.2 1.2-.7c.3-.4.4-1.1.4-1.9s-.1-1.4-.4-1.9c-.3-.5-.7-.7-1.2-.7zm2.1 14.7H427l9.9-16.5h2.4l-9.9 16.5zm9.8-8.7c1.3 0 2.4.4 3.1 1.1.8.8 1.1 1.8 1.1 3.2 0 1.3-.4 2.4-1.1 3.2-.8.8-1.8 1.2-3.1 1.2s-2.4-.4-3.1-1.2c-.8-.8-1.1-1.8-1.1-3.2 0-1.3.4-2.4 1.1-3.2.7-.7 1.8-1.1 3.1-1.1zm0 1.8c-.5 0-.9.2-1.2.7-.3.4-.4 1.1-.4 1.9s.1 1.4.4 1.9c.3.4.7.7 1.2.7s.9-.2 1.2-.7c.3-.4.4-1.1.4-1.9s-.1-1.4-.4-1.9c-.3-.4-.7-.7-1.2-.7z"/>
  </g>
  <g>
    <animate accumulate="none" additive="replace" attributeName="opacity" attributeType="XML" begin="0.5s" calcMode="linear" dur="5s" fill="remove" from=".5" repeatCount="indefinite" restart="always" to="1"/>
    <path class="st8" d="M26 248.1c1.3.4 2.1 1.1 2.6 2.1s.5 2.1.1 3.4c-.4 1.3-1.1 2.2-2.1 2.6-1 .5-2.1.5-3.3.1-1.3-.4-2.1-1.1-2.6-2.1s-.5-2.1-.1-3.4c.4-1.3 1.1-2.2 2.1-2.6 1-.5 2.1-.5 3.3-.1zm-.5 1.7c-.5-.2-.9-.1-1.3.2s-.7.9-1 1.6c-.3.8-.3 1.4-.2 1.9.1.5.4.8.9 1s.9.1 1.3-.3c.4-.3.7-.9 1-1.7s.3-1.4.2-1.9c-.2-.3-.5-.6-.9-.8zm-2.7 14.6l-2.2-.8 14.7-12.4 2.2.8-14.7 12.4zm12.1-5c1.3.4 2.1 1.1 2.6 2.1s.5 2.1.1 3.4-1.1 2.2-2.1 2.6c-1 .5-2.1.5-3.3.1-1.3-.4-2.1-1.1-2.6-2.1s-.5-2.1-.1-3.4 1.1-2.1 2.1-2.6c.9-.5 2-.6 3.3-.1zm-.6 1.7c-.5-.2-.9-.1-1.3.2-.4.3-.7.9-1 1.6-.3.8-.3 1.4-.2 1.9.1.5.4.8.9 1s.9.1 1.3-.2c.4-.3.7-.9 1-1.7.3-.8.3-1.4.2-1.9-.1-.4-.4-.8-.9-.9z"/>
  </g>
  <g>
    <path class="st8" d="M44.3 193.9l-3.3 1.6-.2-.5c-.2-.5-.3-1-.3-1.5s.2-1.2.6-2.1l.3-.8c.2-.5.3-.9.3-1.3s0-.7-.2-1c-.2-.4-.5-.7-.9-.8s-.9 0-1.4.2-1 .6-1.5 1.1-.9 1.1-1.4 1.8l-1.4-2.9c.6-.6 1.2-1.1 1.8-1.5s1.1-.8 1.7-1c1.5-.7 2.8-.9 3.9-.7 1.1.2 1.9.9 2.4 2.1.3.6.4 1.2.4 1.8s-.2 1.3-.5 2.1l-.3.8c-.2.6-.4 1-.4 1.3s0 .6.2.8l.2.5zm-2.7 2.9l3.3-1.6 1.5 3.3-3.3 1.6-1.5-3.3z"/>
  </g>
  <g>
    <path class="st8" d="M389.5 303.7l-2 1.9-.3-.3c-.3-.3-.5-.6-.6-1-.1-.3-.1-.9-.1-1.6v-.7c0-.4 0-.7-.1-1s-.2-.5-.3-.6c-.2-.3-.5-.4-.8-.3-.3 0-.6.2-.9.5s-.6.7-.8 1.1c-.2.5-.4 1-.5 1.6l-1.7-1.7c.3-.6.6-1.1.9-1.5s.6-.8.9-1.1c.9-.9 1.7-1.3 2.6-1.4.8-.1 1.6.2 2.2.9.3.4.6.7.7 1.2.1.4.2 1 .2 1.6v1.6l.3.6.3.2zm-1.2 2.7l2-1.9 1.9 1.9-2 1.9-1.9-1.9z"/>
  </g>
  <g>
    <animate accumulate="none" additive="replace" attributeName="opacity" attributeType="XML" calcMode="linear" dur="5s" fill="remove" from=".5" repeatCount="indefinite" restart="always" to="1"/>
    <path class="st1" d="M434.3 430.5l7.3-15.2-6.4-3.1-7.3 15.2c-4.2-.3-8.9 2-10.9 6.2-2.6 5.5-.3 12.1 5.2 14.7s11.8.2 14.4-5.3c2.1-4.2 1.3-9-2.3-12.5z"/>
    <path class="st1" d="M421.1 433.1c-.4.5-.8 1.1-1.1 1.7-1.9 3.9-.2 8.6 3.7 10.5 3.9 1.9 8.6.2 10.5-3.7.3-.6.5-1.3.6-1.9l-13.7-6.6z"/>
  </g>
  <g>
    <path class="st1" d="M223.4 55l-.6-16.8-7.1.3.6 16.8c-3.9 1.7-6.9 5.9-6.8 10.6.2 6.1 5.4 10.8 11.5 10.6 6.1-.2 10.5-5.3 10.3-11.4-.2-4.8-3.1-8.7-7.9-10.1z"/>
    <path class="st1" d="M212.9 63.4c-.1.6-.2 1.3-.2 2 .2 4.3 3.8 7.7 8.2 7.6 4.3-.2 7.7-3.8 7.6-8.2 0-.7-.1-1.3-.3-2l-15.3.6z"/>
  </g>
  <g>
    <path class="st1" d="M138.7 83.7c-7.6-2.9-8.6-8.1-5.7-14.7 3-6.9 5.1-14.2 5.1-14.2s6.4 9.1 8.2 13.6c2.1 5.5.4 12-7.6 15.3z"/>
    <path class="st1" d="M138.7 83.7s-3.4-3.5-1-8.5c1.1-2.3 2.4-4.7 1.8-8.1"/>
  </g>
  <g>
    <path class="st1" d="M421.3 125.2c4.7-7.1 10.2-7 16.2-2.6 6.4 4.6 13.3 8.3 13.3 8.3s-10.6 4.5-15.7 5.3c-5.8 1-12.1-2.1-13.8-11z"/>
    <path class="st1" d="M421.3 125.2s4.3-2.6 8.9.8c2.1 1.6 4.3 3.4 7.8 3.7"/>
  </g>
  <g>
    <animate accumulate="none" additive="replace" attributeName="opacity" attributeType="XML" begin="0.5s" calcMode="linear" dur="5s" fill="remove" from=".5" repeatCount="indefinite" restart="always" to="1"/>
    <path class="st1" d="M119.6 179.6H178M119.6 179.6v-57.3"/>
    <circle class="st1" cx="135.8" cy="146" r="5.7"/>
    <circle class="st1" cx="149.9" cy="162.3" r="5.7"/>
    <circle class="st1" cx="162.8" cy="136.3" r="5.7"/>
    <path class="st1" d="M119.6 152.6l10.5-4.1M139.9 150.1l6.4 7.6M154.2 157.2l6.4-15.7M167.4 139.7l11.4 8.2"/>
  </g>
  <g>
    <animate accumulate="none" additive="replace" attributeName="opacity" attributeType="XML" calcMode="linear" dur="5s" fill="remove" from=".5" repeatCount="indefinite" restart="always" to="1"/>
    <circle class="st1" cx="92" cy="171.5" r="15.3"/>
    <circle class="st1" cx="92" cy="171.5" r="11.3"/>
    <path class="st1" d="M92.5 171.6v-6.4M92.5 171.6h-8.7M82.1 184.1l-1.2 5.1 5.2-3M102.3 184.1l1.2 5.1-5.3-3M80 160.8c-1.4-2.5-.5-5.6 1.9-7 2.5-1.4 5.6-.5 7 1.9M103.6 160.8c1.4-2.5.5-5.6-1.9-7-2.5-1.4-5.6-.5-7 1.9"/>
    <path class="st1" d="M82.2 153.6c1-4.7 5.1-8.2 10.1-8.2s9.1 3.5 10.1 8.2"/>
  </g>
  <g>
    <path class="st1" d="M359.6 179.8c1.8-.1 3.7.4 5.2 1.7s2.3 3 2.5 4.9M348.8 171.8s10.7 11.6 15 17c4.4 5.5 9.3 13.1 7.4 15.7"/>
    <path class="st1" d="M377.1 196.1s-13.1-8.8-19.2-12.2c-6.1-3.5-14.4-7.1-16.7-4.9"/>
    <ellipse transform="rotate(-49.46 352.29 180.19)" class="st3" cx="352.3" cy="180.2" rx="7.1" ry="7.1"/>
    <ellipse transform="rotate(-49.47 368.61 194.23)" class="st3" cx="368.6" cy="194.2" rx="7.1" ry="7.1"/>
  </g>
  <g>
    <path class="st2" d="M133.2 303.1c-3.8 5.2-16.6-4.1-20.5 1.1s8.9 14.6 5.1 19.9c-3.9 5.2-16.6-4.1-20.5 1.1s8.9 14.6 5.1 19.9c-3.9 5.2-16.6-4.1-20.5 1.1"/>
    <path class="st2" d="M94.9 355.3c3.8-5.2-8.9-14.6-5.1-19.9 3.9-5.2 16.6 4.1 20.5-1.1s-8.9-14.6-5.1-19.9c3.9-5.2 16.6 4.1 20.5-1.1s-8.9-14.6-5.1-19.9"/>
  </g>
  <g>
    <path class="st2" d="M480.4 347.2c-3.4-.8-1.3-9-4.7-9.9-3.4-.8-5.4 7.4-8.8 6.5-3.4-.8-1.3-9-4.7-9.9-3.4-.8-5.4 7.4-8.8 6.5-3.4-.8-1.3-9-4.7-9.9"/>
    <path class="st2" d="M446.9 338.9c3.4.8 5.4-7.4 8.8-6.5 3.4.8 1.3 9 4.7 9.9 3.4.8 5.4-7.4 8.8-6.5 3.4.8 1.3 9 4.7 9.9 3.4.8 5.4-7.4 8.8-6.5"/>
  </g>
  <path class="st1" d="M376.8 378c-1.2-1.4-3.2-2.5-5-2.5l-1.9.1c-1.3.3-2.5.8-3.6 1.7-1.2 1.1-2 2.5-2.3 4-.1-1.5-.7-3-1.7-4.2-1.1-1.3-3-2.4-4.7-2.4-.6 0-1.2.1-1.8.1-1.3.2-2.4.8-3.4 1.6-1.4 1.2-2.2 2.9-2.4 4.7-.1 1.4.2 2.8.9 4-.3 0-.6 0-.9.1-1.2.2-2.3.7-3.2 1.5-1.3 1.1-2.1 2.8-2.2 4.5-.1 1.8.5 3.6 1.6 4.9 1.1 1.2 2.8 2.2 4.5 2.2.6 0 1.1-.1 1.7-.1 1.2-.2 2.3-.7 3.2-1.5.2-.2.4-.4.6-.7 1.2 1.3 3.1 2.5 5 2.5l1.9-.1c1.3-.3 2.5-.8 3.5-1.7 1.4-1.3 2.3-3.1 2.5-5 0-.6 0-1.3-.1-1.9.6.2 1.1.3 1.7.3l1.9-.1c1.3-.3 2.5-.8 3.6-1.7 1.4-1.3 2.3-3.1 2.5-5 .1-1.8-.5-3.8-1.9-5.3zM98.7 99.1c-.8-.9-2.2-1.7-3.5-1.7-.4 0-.9 0-1.3.1-.9.2-1.8.6-2.5 1.2l-.2.2v-.1c-.5-2.2-2.2-3.8-4.5-4-.9-.1-1.7.1-2.5.5-.4.2-.7.5-1.1.7-.6.6-1.1 1.3-1.4 2.1 0 .1-.1.2-.1.4-.2.7-.3 1.4-.2 2.2h-.8c-.9.2-1.7.6-2.4 1.2-1 .9-1.6 2.1-1.7 3.4s.4 2.7 1.2 3.7c.8.9 2.1 1.7 3.4 1.7.4 0 .9 0 1.3-.1s.9-.2 1.2-.4c.2.3.3.5.6.8.8 1 2.2 1.8 3.5 1.8.5 0 .9 0 1.4-.1.9-.2 1.8-.6 2.5-1.2 1-.9 1.7-2.2 1.8-3.5v-.2c.3.1.7.2 1 .2.4 0 .9 0 1.3-.1.9-.2 1.8-.6 2.5-1.2 1-.9 1.6-2.2 1.7-3.5.1-1.7-.3-3.1-1.2-4.1zM483.6 169c-.3-1.2-1.1-2.6-2.2-3.2l-1.2-.6c-.9-.3-1.8-.3-2.8-.1-.1 0-.2 0-.3.1v-.1c.7-2.1-.1-4.4-2-5.7-.7-.5-1.6-.8-2.4-.8-.4 0-.9.1-1.3.1-.8.2-1.6.6-2.2 1.1l-.3.3c-.5.5-1 1.1-1.3 1.8-.2-.1-.5-.2-.7-.3-.9-.3-1.8-.3-2.7-.1-1.3.3-2.4 1.1-3.1 2.1-.7 1.1-1 2.5-.7 3.8.3 1.2 1 2.5 2.1 3.1l1.2.6c.4.1.9.2 1.3.2 0 .3 0 .6.1.9.3 1.2 1.1 2.6 2.2 3.3l1.2.6c.9.3 1.8.3 2.8.2 1.3-.3 2.5-1.1 3.3-2.2 0-.1.1-.1.1-.2.2.3.5.5.8.6l1.2.6c.9.3 1.8.3 2.7.1 1.3-.3 2.5-1.1 3.2-2.2 1-1.2 1.2-2.6 1-4z"/>
  <g>
    <animate accumulate="none" additive="replace" attributeName="opacity" attributeType="XML" calcMode="linear" dur="5s" fill="remove" from=".5" repeatCount="indefinite" restart="always" to="1"/>
    <path class="st1" d="M49.5 386.3l1.1-6.5 24.9-17.3 23.1 33.2"/>
    <path class="st1" d="M50.4 385.7l1-5.5 23.9-16.6L98 396.2l.2 4.5"/>
    <path class="st1" d="M49.5543 386.3126l26.048-18.066L99.139 402.183l-26.0478 18.0658zM56.8 387l17.6-12.2M60.1 387.6l12.4-8.5"/>
    <g>
      <path class="st1" d="M74.9 413.1l17.6-12.2"/>
    </g>
    <path class="st1" d="M62.2942 394.903l16.927-11.742 7.695 11.093-16.927 11.742z"/>
  </g>
  <g>
    <ellipse transform="rotate(-77.7 389.74 242.78)" class="st2" cx="389.7" cy="242.8" rx="19.1" ry="9.9"/>
    <path class="st2" d="M392.4 252.4c-10 3.1-19.5 1.3-21-4-1.6-5.3 5.3-12.1 15.4-15.2 10-3.1 19.5-1.3 21 4 1.5 5.4-5.4 12.2-15.4 15.2z"/>
    <path class="st2" d="M382.9 250.3c-7.8-7.2-11.1-16.3-7.4-20.3 3.7-4.1 12.9-1.6 20.7 5.6 7.8 7.2 11.1 16.3 7.4 20.3-3.7 4-12.9 1.5-20.7-5.6z"/>
    <ellipse transform="rotate(-77.71 389.5 242.73)" class="st2" cx="389.5" cy="242.7" rx="4.8" ry="4.8"/>
    <ellipse transform="rotate(-77.71 408.27 238.58)" class="st8" cx="408.3" cy="238.6" rx="3.1" ry="3.1"/>
    <ellipse transform="rotate(-77.7 371.5 249.53)" class="st8" cx="371.5" cy="249.5" rx="3.1" ry="3.1"/>
    <ellipse transform="rotate(-77.7 393.71 224.65)" class="st8" cx="393.7" cy="224.6" rx="3.1" ry="3.1"/>
  </g>
  <g>
    <path class="st11" d="M182.1 367.1c3.4-11 0-23.2-9.4-30.2-8.8-6.6-21.1-7.2-30.4-1.4-21.2 13.1-13.8 46.6 10.9 49.7 12.8 1.7 24.5-6.2 28.9-18.1.4-1-1.2-1.4-1.6-.4-4.8 13-18.9 20.3-32.2 15.8-13.1-4.4-20.2-19.2-15.8-32.2 4.5-13.1 19.2-20.2 32.2-15.8 13.4 4.6 19.9 19 15.8 32.2-.3 1 1.3 1.4 1.6.4z"/>
    <g>
      <animateTransform accumulate="none" additive="replace" attributeName="transform" attributeType="XML" calcMode="linear" dur="10s" fill="remove" from="0 157 357" repeatCount="indefinite" restart="always" to="360 158 362" type="rotate"/>
      <path class="st11" d="M155.5 360.6c4.7-1.2 9.9-2 14.3-4.1.4-.2.1-.8-.3-.7-4.7 1.3-9.5 2.7-14.2 4.2-.3.2-.1.7.2.6z"/>
    </g>
    <g>
      <animateTransform accumulate="none" additive="replace" attributeName="transform" attributeType="XML" calcMode="linear" dur="10s" fill="remove" from="0 157 357" repeatCount="indefinite" restart="always" to="360 158 362" type="rotate"/>
      <path class="st11" d="M166.8 355.1l5.4 1.5c-.1-.3-.2-.6-.2-.9-1.5 1.6-2.9 3.2-4.4 4.8.3 0 .6.1.9.1-.8-1.8-1.3-3.8-2.3-5.6-.2-.3-.7-.2-.7.2.2 2.1 1.1 4.1 2 6 .1.3.7.4.9.1 1.4-1.6 2.9-3.2 4.3-4.9.2-.3.2-.8-.2-.9-1.8-.4-3.6-.8-5.5-1.1-.4 0-.6.6-.2.7z"/>
    </g>
    <path class="st11" d="M174.5 351.6c1.2-.9 2.4.8 1.9 1.9-.5 1-1.7 1.4-2.7 1.7-.3.1-.5.5-.3.8.6 1.1 2.8 2.9 3.9 1.5.1-.1 0-.3 0-.3-.3-.3-.6-.3-1.1-.4-.8-.2-1.4-.6-1.8-1.3-.1.3-.2.5-.3.8 1.7-.4 4-1.8 3.5-3.8-.4-1.4-2.1-2.4-3.3-1.3-.5.2-.1.6.2.4zM157.1 337.9c.5-1.1 1.2-1.9 2.1-2.6-.3-.1-.6-.2-.9-.4.1 1.1.2 2.2-.1 3.3-.2.9-.5 1.7-.6 2.6 0 .3.4.4.6.2 1.4-1.5 1.4-4.4 1.1-6.3-.1-.4-.6-.4-.8-.2-1 .8-1.7 1.8-2 3.1-.1.3.4.6.6.3z"/>
    <g>
      <animate accumulate="none" additive="replace" attributeName="opacity" attributeType="XML" calcMode="linear" dur="5s" fill="remove" from=".5" repeatCount="indefinite" restart="always" to="1"/>
      <path class="st11" d="M161.3 336.3l1.2.6c0 .3-.1.5-.2.7-.1.2-.2.4-.3.7-.2.4-.5.8-.7 1.2-.3.7-.3 1.4.2 2 .6.6 2.3.9 2.1-.4 0-.2-.2-.3-.4-.2-.3.1-.7.2-1 0-.3-.3-.1-1 0-1.3l.3-.6c.4-.6.7-1.3.6-2.1-.1-1.2-1.3-1.8-2.4-1.2-.2.3.2.8.6.6z"/>
    </g>
    <path class="st11" d="M168.5 345.5c.8-1 1.6-1.9 2.6-2.6l-.6-.3c.1 1 .1 2.1-.1 3.1-.1 1-.5 2-.4 3.1 0 .2.3.3.4.2 1.3-1.6 1.1-4.5.9-6.5 0-.3-.5-.3-.7-.2-1 .9-1.9 1.8-2.6 2.9 0 .2.4.5.5.3zM174.1 362.1c.8-.1 1.6-.1 2.4 0-.1-.1-.2-.3-.3-.4-.1.8-.6 1.2-1.3 1.4-.5.1-.4.8 0 .9 1 .3 1.5 1.6.5 2.2-.6.4-1.1.1-1.7.2-.1 0-.2.2-.2.3.5 1.3 2.5.5 3-.3.9-1.3 0-3-1.4-3.4v.9c1.1-.3 1.8-1.2 1.9-2.3 0-.2-.2-.4-.4-.4-.9-.1-1.8 0-2.7.3-.3.1-.1.6.2.6z"/>
    <g>
      <animate accumulate="none" additive="replace" attributeName="opacity" attributeType="XML" calcMode="linear" dur="5s" fill="remove" from=".5" repeatCount="indefinite" restart="always" to="1"/>
      <path class="st11" d="M168.7 369.4c-1.3.8-1.1 2.8.2 3.5 1.7.8 3.2-1.1 2.8-2.7-.1-.4-.7-.3-.7.1-.2 2.2-.9 4.2-1.6 6.2-.2.5.6.8.8.3 1-2.1 1.3-4.3 1.5-6.6-.2 0-.5.1-.7.1.4 1.3-1.5 2.6-2.3 1.1-.3-.6-.2-1.3.2-1.8.2-.1 0-.3-.2-.2z"/>
    </g>
    <path class="st11" d="M164.2 375.8c-.6-.2-1.5-.9-2.1-.4-.4.3-.4 1-.3 1.4.3.8 1.5 1.2 1.3 2.3-.3 1.3-1.4.6-2.2.8-.1 0-.2.2-.2.3.1.7 1 .8 1.6.8.7-.1 1.4-.6 1.6-1.3.3-.7.2-1.5-.2-2.1-.2-.4-.6-.6-.9-.9-.7-1 .7-.5 1.2-.4.4 0 .6-.4.2-.5zM154 375.6c-2-2.3-6.8 3.7-3.8 5.9 1.1.8 2.7 0 2.7-1.3.1-1.3-1.6-2.4-2.6-1.3-.2.2 0 .4.2.4.4-.1 1.3-.1 1.4.4.1.4-.1 1.1-.6 1.2-1.1.3-1.2-1.4-1-2 .3-1 2-3.5 3.3-2.8.3 0 .6-.3.4-.5z"/>
    <g>
      <animate accumulate="none" additive="replace" attributeName="opacity" attributeType="XML" calcMode="linear" dur="5s" fill="remove" from=".5" repeatCount="indefinite" restart="always" to="1"/>
      <path class="st11" d="M141.5 370.7c.6.5 1.3.7 2 1 .6.2.8.2 1.1.7.3.6-.1.9-.4 1.5-.9 1.5-2 3-2.7 4.7-.2.4.3.9.6.5.9-1.1 1.5-2.4 2.3-3.7.5-.8 1.3-1.8 1.5-2.7.3-1.8-3.1-2.2-4.3-2.3-.2 0-.3.2-.1.3z"/>
    </g>
    <path class="st11" d="M143.4 374.4zM139.2 363.9c-.1 1.3-.7 2.4-1.6 3.4-.4.4-.8.7-.8 1.3 0 .9 1 1.3 1.8 1 1.1-.4 1.1-1.7.5-2.5-.4-.7-1.1-1-1.6-1.5-1.2-1-.9-2.5.6-3 .2-.1.2-.3 0-.4-2.1-.5-3 2.1-1.8 3.5.4.6 1.1.9 1.6 1.4.1.2.3.3.4.5.1 1.3 0 1.5-.2.6 0-.2.6-.6.7-.8.8-1 1.1-2.2 1-3.5-.1-.4-.6-.4-.6 0zM137.7 355.3c-1.2-1.9-4-.6-3.5 1.5.6 2.4 3.8 1.8 3.9-.5 0-.3-.5-.4-.6-.1-.3 1.6-.8 3.5-.6 5.2 0 .2.3.2.4 0 .6-1.5.6-3.5.7-5.1-.2 0-.4-.1-.6-.1-.2 1.3-2.1 1.8-2.5.3-.4-1.4 1.5-1.7 2.3-1 .3.2.6 0 .5-.2zM136.8 346.4l2.7-1.5c-.2-.1-.3-.3-.5-.4l-.9 3c-.2.9-.6 1.8-.5 2.7 0 .1.2.3.3.1.6-.7.7-1.6.9-2.4l.9-3.3c.1-.3-.2-.6-.5-.4-.9.6-1.7 1.1-2.6 1.7-.3.3-.1.6.2.5zM141.9 348.3l-1.2 1.2c.2 0 .5.1.7.1-.4-.5-.4-1.2-.1-1.7.3-.6.7-.9 1.3-1.1.2-.1.1-.3 0-.4-.9-.3-1.8.4-2.1 1.1-.4.8-.4 1.9.1 2.6.2.2.5.3.7.1l1.2-1.2c.4-.5-.2-1.1-.6-.7zM143.1 341.2c.8-1.4 1.8-2.4 3.3-3l-.5-.5c-.6 2.4-1.6 5-1.8 7.5 0 .3.5.5.6.2 1-2.3 1.3-5.1 1.9-7.5.1-.3-.2-.6-.5-.5-1.7.6-3 1.8-3.4 3.6.1.3.3.4.4.2zM149.4 340.1c.3-.2.7-.4 1-.6-.2-.2-.3-.4-.5-.6-.5 2-1.4 4.4-1.3 6.5 0 .2.3.4.5.1 1.1-1.8 1.3-4.4 1.8-6.4.1-.3-.2-.6-.5-.6-.9-.1-1.7.4-1.9 1.3-.2.6.7.9.9.3z"/>
    <g>
      <animateTransform accumulate="none" additive="replace" attributeName="transform" attributeType="XML" calcMode="linear" dur="3s" fill="remove" from="0 153 357" repeatCount="indefinite" restart="always" to="360 158 362" type="rotate"/>
      <path class="st11" d="M159.7 340.5c-2 6.2-3.9 13.2-4.8 19.7 0 .3.3.4.4.1 2.3-6 3.9-13.3 4.7-19.7 0-.2-.2-.2-.3-.1z"/>
    </g>
    <g>
      <animateTransform accumulate="none" additive="replace" attributeName="transform" attributeType="XML" calcMode="linear" dur="3s" fill="remove" from="0 153 357" repeatCount="indefinite" restart="always" to="360 158 362" type="rotate"/>
      <path class="st11" d="M157.1 342.8c1.3-1.2 2.5-2.5 3.9-3.6-.2-.1-.5-.2-.7-.3.1 2.1 0 4.2-.1 6.3.3-.1.6-.2.9-.4-1.1-1.3-2.6-1.9-4.3-2-.7 0-.7 1.1 0 1.1 1.4 0 2.6.6 3.5 1.6.3.3.8.1.9-.4.1-2.1.1-4.2 0-6.3 0-.4-.4-.5-.7-.3-1.4 1.1-2.7 2.4-3.7 3.8-.4.5 0 .8.3.5z"/>
    </g>
    <path class="st11" d="M155.8 360c.1-.3.6-1 1-.6.1.1 0 .7 0 .8-.1.5-.5 1.1-1.1.9-.8-.3-1.4-1.4-.5-1.9.6-.4 1.6-.1 2 .5.5 1-.7 2.3-1.7 1.7-1-.6-.7-1.9.4-2 1-.1 1.4 1.4.5 1.8-.8.4-1.7-.4-1.3-1.2.4-.8 1.5.2 1 .7.2-.1.4-.1.6-.2l-1.5-.6c.2.2.3.4.5.6 0-.5.3-.9.5-1.3.1-.2 0-.5-.3-.5-1-.1-1.5.9-1.6 1.8 0 .3.2.5.5.6.5.2 1 .4 1.5.5.2.1.5 0 .6-.2 1.1-1.2.1-3.3-1.5-3.4-1.7 0-2.4 2.1-1.6 3.4.9 1.6 3.5 1.2 4.1-.5s-.9-3.5-2.7-3c-1.8.4-2.4 2.6-1.1 3.9 1.3 1.4 3.5.8 4.1-1.1.5-1.6-.7-3.1-2.4-3.1-1.5 0-2.7 1.4-2 2.8.8 1.6 3 2 3.7.1.2-.7.4-2.1-.6-2.1-.7-.1-1.4.5-1.4 1.2-.1.6.3.6.3.4z"/>
  </g>
  <g>
    <path class="st12" d="M419.4 255.6c-.1 0-.1 0 0 0-.1 0-.1 0 0 0zM418.9 256.6c.1-.3.2-.7.4-1 0 .3.2 1.1-.4 1zM420.2 255.7l-.2.3c-.1-.2.1-.1.2-.3zM419.7 255.8l-.2-.1.3-.2zM421.7 237.5h-.3.3zM422.7 236.8c0-.1.1-.1.1-.2 0 .1 0 .2-.1.2zM421.6 238.2v-.1.1zM420.4 247.4c-.2.1-.3.2-.4.3-.1-.4.2-.3.4-.3zM426.4 233.7l-.1-.1s.1 0 .1.1zM425.4 237.2c-.1 0-.2 0-.2-.1l.2.1zM421.8 238.8s0 .1 0 0l-.1.1s0-.1.1-.1zM426.8 232.6c.1 0 .2-.1.4-.1-.1.2-.3.2-.4.1zM422.8 236.7zM424.9 238.3c0-.1.1-.1.1-.2.1.2 0 .2-.1.2zM420.4 247.4l.1-.1-.1.1zM419.2 254.6c0-.1.1-.1.3-.1-.1 0-.2.1-.3.1zM427.4 213.5zM426.1 217.8h-.1c-.1-.1 0-.1.1 0z"/>
    <path class="st12" d="M429 222.6c-.2-.3.4-.5.4-.8h-.2l.2-.2-.3-.1c.2-.4 0-1 .5-1h-.5l.4-.4-.4.2c0-.5.5-1.2.5-1.3h-.2c-.1-.1.1-.1.1-.2h-.3c.2-.7-.3-1 .2-1.8 0-.2-.1.1-.2.1-.2-.2.1-.4.2-.5-.4 0-.4.4-.6 0 .2-.1-.4.1-.2-.3h.5c0-.2-.4-.1-.3-.4.3-.3.5.5.7 0 0-.3-1-.8-.6-1.3-.2-.5-.8.1-.6-.5l-.4.3c-.1-.1-.4-.1-.2-.4.2 0 .5-.2.5-.3-.5.5-.5-.6-1.1-.2l.1-.2h-.1v-.3c-.1.1-.3.5-.6.3v-.4c-.3 0-.4-.1-.6-.1l-.8 1c.2 0 .3-.1.5-.1.1.3-.4.2-.2.5l.2-.1h-.1c-.1-.1.1-.1.2-.1.3.2 0 .4-.2.5 0 .4.5.2.6.3-.5.1-.1.6-.4.8l.3-.1c.3.4-.1.5-.2.7h.3c-.1.4.7.8-.3.9h.2c0 .2.2.5-.1.6.1 0 .2.1.2.2-.4 0-.1.2-.1.5.1-.1.6 0 .7-.1.4.5-.6.2-.6.5.2.2.3-.1.5-.1-.3.4.8 1.2-.1 1.3l-.2-.3c-.2.1-.3.2-.2.2 0-.1.1-.1.2-.1.3.7-.8.7-.8 1.4.2 0 .2-.1.4-.1.1.3-.9.1-.7.6h.2c.1.2-.2.2-.3.2.7.2-.2.9.7 1.4-.5.1-.9.6-.7.9.4.4.5-.1.9.1 0 .2-.5.2-.4.6-.4-.1-.7-.8-1.1-.3l.2.1c0-.1-.1-.2 0-.2.3-.1.3.2.4.2l-.3.6c-.5-.1-.3-.4-.4-.5 0 .5.5 1.2.1 1.6h.2c-.5.5.7.5-.1.8.1.3.5 0 .4.4 0 .1-.2 0-.2 0-.3.4.4.3-.1.6h.5c-.4.4-1.4.8-1.3 1.2.4.1.4-.2.7-.3-.8.4-.4 1.4-.8 1.8-.3-.2-.8.1-.9-.3.5 0 .2-.2.3-.4-1.1.1.2 1.4-.7 1.3l.3.2c-.1.1-.4.2-.5.1l.1.6c.3-.1 1-.5.7-.7.4-.1.2.3.7.2-.7.3.2.3 0 .7-.5-.3-.8.3-1 .2.1.2-.2.4-.4.5-.1.2.2.9-.1 1.2.2-.1.5-.3.8-.2-.2.1-.3.4.1.5.9-.5-.8-.4-.3-.9.5-.1.6-.2.8-.5.2.2.3.2.6.3-1 .2-.3 1-.9 1.4-.3.1-.9-.1-1.1.3l-.2-.5c.2.5-.3 0-.5.4l.3-.1c0 .2-.1.3-.3.4l.5-.1c0 .1 0 .4-.2.3.1.1.2.1.3.1-.1 0-.1.1-.2.2.1-.1.1-.1.2-.1-.2.5.5.2.4.6.1 0 .2.1.3.2-.7-.2-1 .5-1.4.6l-.4.4c.1-.1.3.1.3.2.1.2.8 0 .5.4l-.3.2s.1 0 .2.1l-.3.2c.6.5-.5.6-.3 1.1 0-.1.1-.3.3-.2.1.1 0 .2-.2.2h.1l-.6.7c.3 0 .4-.5.6-.2.3.2-.1.3-.2.5-.2-.1-.3-.4-.5-.1.1.1.2.4.4.3-.3.2-.5.6-.9.8.1.1.2 0 .2 0h-.1c.1-.1.5.1.4-.3.6.1.1.5.1.8l.5-.4c.7 1-.5 1.8-.6 2.5-.1-.3.1-.4-.4-.5-.3.4-.2.4-.4.8.2.3-.4.5 0 .8.3 0-.2-.4.4-.3l-.2.6c.4-.1.2-.6.3-.8 0-.2-.1.3-.5.2.1-.6.5-.6 1.1-.8.4-.1.3.3.3.4-.6.2-1 .7-.9 1.3l.4.4c-.4.2-1.2-.1-1.2.4l.3-.1c.1.1.1.2.1.3.3-.2.6-.3.9-.5.6.4-.5.7-.7 1.1.1 0 .1-.1.3-.1 0 .6-.9 1.1-1.1 1.6.2.3.3-.4.7-.2-.2.2.1.6-.3.6.6 0-.1.6.5.2 0 1-.7 1.8-1.2 2.7.2 0 .3 0 .4.1.1-.3.3-.7.7-.8.2.3-.5.4-.3.5.2-.1.2-.3.5-.2.3.3-.2.4-.3.6l-.1-.1c-.5.5-1 .1-1 .8.3.3.3.1.7.1-.2.1.2.7-.3.7v-.4c-.2.2-.2.5-.4.6h.2c-.2.2-.2.4-.5.5l.4.2c-.2-.2-.1-.5.1-.6.4.1.1.4.1.6.3-.7 1-.6.8-1.2l-.2.1c-.3-.5.4-.7.4-1.1.1.1.2.2.3.1-.2-.8.2-1.5.2-2.4l.5-.2-.3-.1c-.1-.4.5 0 .5-.3 0 .1-.1.1-.2.1.5-.4-.3-.3-.1-.6-.4 0-.2.5-.7.3.5-.4.4-1.2 1.2-1.1-.1-1 .6-1.9.8-2.7-.1-.1-.1 0-.2 0 .5-.2-.1-1.1.3-1-.1-.2-.4-.3-.5-.4.2-.1.4-.3.5-.6l-.2.1h-.1l.2-.2c.2-.6.3-1.3.9-1.7-.3.3-.5-.2-.7-.1.7-.1.9-.8.9-1.3-.1 0-.2-.1-.4-.1l.3-.2h-.2c0-.6.9-1 .6-1.5-.1.2-.3.2-.5.2.1-.4.2-.8.5-1.2h-.1c0-.1.2-.2.3-.4l-.3-.1c.2-.2.1-.5.4-.8-.3-.2.5-.6.4-1 .1-.1-.4.2-.3-.2.7.1.1-.4.9-.3l-.2-.4h.4c-.7-.4.4-.3.3-.8h-.2c.1-.1.2-.4.4-.1 0-.2.4-.9-.1-.6.2 0 0 .3-.1.4-.3-.1-.1-.4-.5-.5h.2l-.2-.1c.4-.3.3-.8.8-.9-.1 0-.2-.1-.1-.3l.4.1.1-.4-.6.1c0-.5.7-.6.9-1-.7-.2.4-.7-.1-1.1l-.3.2c.3-.6-.1-.8.2-1.3.1.5 0 .5.4 1.3-.1-.8.7-1.1.4-1.9-.2 0-.3.1-.5 0 .4-.1.1-.6.5-.4-.1-.2-.5-.4-.5-.5l.7-.6h-.1c-.7-1.4 1.1-2 1-3.3h-.2l.4-.2c-.3.2-.3-.2-.4-.2l.6-.6c.6.1.1.1.2.3zm-2.3 9.7l-.1.2v.1-.1c0-.1-.2-.2.1-.2zm-4.4 16.1c-.2 0 0-.1 0-.2l-.1.3c.1.1.1 0 .1-.1zm1.7-16.6l-.3-.2.2-.1.1.3zm.5-2.5l-.2.2h-.1l.3-.2zm2.8-2.3c.2-.1-.2-.3.3-.4.4.3-.1.3-.3.4zm-.9 4.4c-.1.1-.1.1-.1.2.2 0 .5-.1.5 0-.2 0-.3.3-.6.3.3-.3-.4-.6.2-.5zm-1.5 5.8l-.3.1.3-.1zm-.5 1c-.4 0-.4.4-.5.6.3.1.7 0 .7-.3.4-.2-.4-.2-.2-.3zm1.9-8.9h-.3v-.1l-.2.2c-.3-.4.4-.5.6-.6-.1.2-.8.5-.1.5zm-2.6 11.2c-.3.2-.6.5-.9.4.5.1.8-.2.8-.3l.1-.1zm-.8-.2c.3-.3.5-.3 1-.4.1.4-.5.3-.7.2-.3.2 0 .2.1.3l-.4-.1zm1.4-.1v-.1c-.2-.2-.7-.4-.1-.5l.1.5v.1zm-.7 2.8l.2-.1c0 .1-.1.1-.2.1l-.2.1c0-.4.1-.2.2-.1zm.4-2.2l.1-.4c-.2 0-.2.3-.1.4zm-.8 2c0-.2 0-.6.1-.5.2 0 .1.4-.1.5zm-2.5 8.5l.1-.2.3.2h-.4zm.4-3l.2.1-.1.1-.1-.2zm.5-2.6h.2s.1-.1.2-.1c0 0-.1.1-.2.1-.1.1-.1.3 0 .4.2 0 .2-.2.3-.2.3.3-1 .6.2.7-.2.1-.5.4-.7.2.2-.3.2-.9 0-1.1-.1 0-.1-.1-.1-.1.1 0 .1 0 .1.1zm.6-3.7l.1-.1c.1-.1.2-.1.4 0-.2.2-.3 0-.4 0s-.1.1-.1.1zm0-.6l-.3.3.3-.1-.6.4c-.1-.4.3-.6.6-.6zm-.2-.2h.3-.3l.2-.5-.2.5zm1.8-5.5c-.9-.4-.8.3-1.2.4.3.1.7.4.9-.1.2.5-.7.2.1.6 0-.2.3-.5.3-.5v.3c.5-.1-.3-.6-.1-.7zm.5-2.9l.1-.3-.1.3zm1.6-8.7c-.2 0-.5-.6-.1-.6 0 .3-.1.5.1.6zm.9-3.6l-.3.4c-.5-.2.1-.3 0-.5.3-.2.1 0 .3.1zm.5-2.6l.1-.1h-.5l.4.1zm-.7 0c-.2-.1-.4.1-.4.2l.4-.2zm.1-2.3v.2l.5-.1-.5-.1zm.4.3c-.3 0-.7-.1-.6.3.3.1.3 0 .7.2.1-.1 0-.2 0-.3-.1.1 0 .2-.2.2-.1-.2 0-.3.1-.4h.3-.3zm.1 1.5c0 .1.1.1.1.1h-.1c-.1-.1-.1-.1 0-.1 0-.1-.1-.1-.1-.2-.3-.1-.5.1-.7.1.1-.1.4-.2.3-.4-.1 0-.1 0-.2.1v-.2c.4-.2.5.1.6.4.1 0 .1.1.1.2.1-.1.1-.1 0 0zm1-1.7l-.1.1h-.3c0-.2.3-.3.4-.1zm-1.5 7.4c-.1-.1-.4 0-.4.2l-.4-.2c.3.1.3-.3.4-.4.4.1.2.2.4.4zm-1.8 8.5c-.5 0-.3.5-.5.6-.1-.3-.1-.9.5-.6zm0 .9c0 .1 0 .2-.3.1-.1 0 0 .2-.1.2-.2-.3.3-.2.4-.3v-.1c.1 0 0 .1 0 .1zm1.1-5l.4-.1v-.3l-.4.4zm1.3-2.7c-.2 0-.2-.3 0-.4-.3 0-.3.2-.4.3 0 0-.1 0-.1.1 0 0 0-.1.1-.1s.2.1.4.1v.1l.1-.2-.1.1zm1.4-5c-.2-.2-.1-.2 0-.3.1.1.1.2 0 .3zm-1.4 6.6c-.1-.3-.5.1-.6-.2v.2c-.3-.3.4-.1.3-.3v.1c.3.2.2-.1.5-.1.1.1-.2.4-.2.3zm1.7-6.8c-.2-.4.4-.2.4-.4.2.3-.3.2-.4.4zm-.5 5l.3-.2h-.1l-.2.2zM426.2 218.6v-.2.2z"/>
    <path class="st12" d="M422.8 232.8c.1 0 .1.1.1.1-.1 0-.1 0-.1-.1zM422.5 233.4c-.1 0-.1 0 0 0-.1 0-.1 0 0 0zM418.9 254.3c-.4.1 0-.1 0-.2 0 .1.2.2 0 .2zM419.7 253.6c-.1 0-.2.1-.3.2 0 0 .1-.1.3-.2zM419.4 254.3v-.4c0 .1.1.2 0 .4zM420 251.5c-.2.1-.2.3-.2.3-.1-.6-.4 0-.6 0 .2-.3.5-.2.8-.3zM420.3 250.8v0zM420.1 250.5c.1-.2.4-.2.6-.2.1.3-.3.3-.4.5 0-.2.1-.3-.2-.3zM420.2 244.6s-.1.1-.2.1l.1-.3c0-.1.1.1.1.2zM421.1 243.6c.1-.2-.3-.2-.2-.3l.5.1-.3.2zM423.4 244.3zM420.9 242.3l-.6.1c.2-.2.6-.1.6-.1zM420.7 241.3l-.2.1.3-.4zM421.2 240.2h-.1l.2-.3zM424.3 228c.5 0 .2.5.2.7-.5-.2.3-.4-.2-.7zM426.3 219l-.2.4c-.1-.3 0 0 .2-.4z"/>
    <g>
      <path class="st12" d="M483.4 270.9s.1 0 .1.1c-.1 0-.2-.1-.1-.1zM485 271.5c-.4-.1-1.1-.2-1.5-.5.4 0 1.5-.1 1.5.5zM483.5 270l.5.3c-.4.1-.3-.2-.5-.3zM483.6 270.6l-.1.2-.2-.3zM456 266.6c0 .1.1.2 0 .3v-.3zM454.9 265.4c-.1-.1-.2-.1-.2-.1.1 0 .1.1.2.1zM457.1 266.8h-.2c.1-.1.1-.1.2 0zM470.9 269c.2.2.3.4.5.5-.4 0-.4-.3-.5-.5zM449.9 261.4l-.1.1c-.1 0-.1-.1.1-.1zM455.2 262.8c0 .1 0 .2-.1.2l-.1-.1.2-.1zM458 266.6s.1 0 0 0l.2.1c-.1.1-.1 0-.2-.1zM448.2 260.8c-.1-.1-.1-.2-.1-.4.1.1.2.3.1.4zM454.7 265.3zM456.9 263.3c-.1 0-.2-.1-.3-.1.2 0 .3.1.3.1zM470.9 269c0-.1-.1-.1-.1-.2.1 0 .1.1.1.2zM481.9 270.9c-.2 0-.2-.2-.2-.3.1.1.1.2.2.3zM419.5 258.1zM426 260s0 .1.1.1c-.1 0-.1 0-.1-.1z"/>
      <path class="st12" d="M432.9 257.5c-.5.1-.8-.4-1.2-.5l.1.2-.3-.2-.1.3c-.6-.3-1.4-.1-1.6-.6v.5l-.6-.5.3.4c-.8-.1-1.8-.7-2-.7v.2c-.1.1-.2-.1-.3-.2v.3c-1.1-.3-1.5.2-2.7-.4-.4 0 .2.1.1.3-.2.2-.6-.1-.7-.3 0 .4.6.4.1.6-.2-.3.1.4-.4.2l-.1-.5c-.3 0-.1.4-.6.2-.5-.3.7-.4-.1-.7-.4-.1-1.1 1-1.8.5-.7.1.2.8-.7.5l.5.5c-.2.1-.1.4-.5.2-.1-.2-.3-.5-.5-.6.8.6-.9.4-.2 1.1l-.3-.1v.1l-.4-.1c.2.2.8.3.5.6h-.6c.1.3-.1.4-.2.6l1.6.9c0-.2-.3-.3-.1-.5.5 0 .3.4.8.2l-.1-.3c0 .1.1.1 0 .1-.2.1-.2-.1-.2-.2.2-.2.6 0 .7.3.6.1.2-.5.4-.5.2.5.9.2 1.2.5l-.2-.3c.5-.3.8.1 1 .3v-.3c.6.2 1.1-.6 1.3.4v-.2c.3 0 .7-.1.8.2 0-.1.1-.2.2-.2.1.4.4.2.7.2-.2-.1 0-.6-.3-.7.7-.3.4.6.9.7.3-.2-.2-.3-.2-.5.7.4 1.7-.7 2 .3l-.4.2c.2.3.4.3.4.2-.1 0-.1-.1-.1-.2 1-.3 1.2.9 2.1.9 0-.2-.1-.3-.1-.4.4-.1.2.9.9.7l.1-.2c.2-.1.3.2.3.3.2-.7 1.4.3 2-.5.2.5 1.1 1 1.4.8.5-.4-.2-.6 0-1 .3.1.4.5.9.5-.1.4-1.1.6-.3 1.1l.2-.2c-.1 0-.2.1-.4 0-.2-.3.2-.2.3-.3l.9.3c0 .5-.6.2-.6.3.8.1 1.8-.4 2.4.1v-.2c.8.6.7-.7 1.2.2.4 0 0-.5.5-.4.2 0 0 .2 0 .2.7.3.4-.4.9.2v-.5c.7.5 1.3 1.5 2 1.4 0-.4-.4-.4-.5-.7.7.8 2.1.5 2.8 1.1-.3.3.2.8-.3.9 0-.5-.3-.2-.6-.4.2 1.1 2-.1 1.9.8l.2-.3c.1.1.4.4.1.5h1c-.3-.3-.8-1.1-1.1-.8-.2-.4.4-.2.3-.7.5.7.4-.2 1 .1-.4.5.5.8.4 1.1.2-.1.6.3.8.5.4.1 1.3-.1 1.8.2-.2-.2-.5-.5-.4-.8.2.3.6.3.7-.1-.9-.9-.5.8-1.3.2-.1-.5-.4-.7-.8-.9.3-.2.2-.3.4-.6.4 1.1 1.5.4 2.1 1 .3.3-.1.9.6 1.1l-.7.1c.7-.1.1.3.6.5l-.2-.3c.4 0 .5.1.6.4l-.2-.5c.2 0 .6 0 .5.3.1-.1.1-.2.1-.3 0 .1.1.2.3.2-.1-.1-.2-.1-.2-.2.8.3.3-.5.8-.3-.1-.1.1-.2.3-.2-.2.7.8 1 1 1.5l.6.4c-.1-.1.1-.3.3-.3.2-.1-.1-.9.5-.5l.3.3c-.1 0 0-.1.1-.2l.3.3c.7-.6.9.6 1.7.4-.2 0-.5-.1-.3-.3.1-.1.3.1.4.2v-.1l1.1.7c0-.3-.7-.4-.4-.6.3-.3.5.1.7.2-.1.2-.5.3-.1.5.1-.1.5-.2.3-.4.4.3 1 .5 1.3 1 .1-.1 0-.2-.1-.2-.2-.2.1-.5-.5-.4.1-.6.8 0 1.2 0l-.6-.6c1.4-.6 2.7.7 3.9.9-.4.1-.6-.1-.7.4.7.4.6.3 1.3.5h-.1c.4-.2.8.4 1.2 0-.1-.3-.6.1-.5-.4l.9.2c-.2-.4-.9-.2-1.2-.4-.3 0 .5.2.3.5-.8-.2-1-.6-1.3-1.2-.2-.4.5-.3.6-.3.4.7 1.1 1.1 2 1l.6-.3c.3.5 0 1.2.8 1.3l-.2-.3c.2-.1.3-.1.4-.1-.3-.3-.6-.6-.8-.9.6-.5 1.2.6 1.8.8 0-.1-.2-.2-.3-.3 1 .1 1.8 1 2.5 1.3.4-.2-.6-.3-.3-.7.3.2.9 0 .9.4 0-.6.9.1.3-.5 1.4.1 2.8.9 4.1 1.5 0-.2 0-.3.1-.4-.5-.1-1.1-.4-1.3-.8.4-.2.6.5.8.4-.1-.2-.4-.2-.4-.5.5-.2.6.3.9.4l-.2.1c.8.6.3 1.1 1.2 1.1.4-.3.1-.3.1-.7.2.2 1-.1 1.1.4l-.6-.1c.4.2.7.3 1 .5 0-.1 0-.2-.1-.2.3.2.7.3.8.6l.2-.4c-.2.2-.8.1-.8-.2.1-.4.7 0 .9 0-1.1-.4-.9-1.1-1.9-1l.1.2c-.6.2-1.1-.5-1.6-.6.2-.1.2-.2.2-.3-1.2.1-2.2-.4-3.5-.5l-.3-.5-.1.3c-.7 0 0-.5-.4-.6.2 0 .1.1.1.2-.6-.5-.5.2-.9 0 .1.4.8.3.5.7-.6-.5-1.8-.6-1.7-1.4-1.4 0-3-.8-4.1-1.1-.2.1.1.1 0 .2-.3-.6-1.6 0-1.5-.4-.2.1-.4.4-.5.5-.2-.3-.6-.4-.9-.6l.2.2-.3-.2c-.9-.3-1.9-.4-2.7-1.1.4.4-.2.5 0 .7-.3-.7-1.3-1-2.1-1.1 0 .1-.1.2 0 .4l-.4-.4v.2c-.9-.1-1.6-1-2.2-.8.3.2.3.3.3.5-.6-.1-1.2-.3-1.8-.6v.2c-.2 0-.4-.2-.6-.3l-.1.3c-.3-.2-.8-.2-1.2-.5-.2.3-1-.6-1.5-.5-.2-.1.3.5-.2.3.1-.7-.7-.2-.6-1l-.5.2v-.4c-.6.6-.5-.5-1.2-.4 0 .1.1.1 0 .2-.2-.1-.6-.3-.2-.4-.3-.1-1.3-.5-.9 0 0-.2.4.1.6.2-.1.3-.5.1-.7.4 0 0-.1-.1-.1-.2l-.1.2c-.5-.5-1.2-.4-1.5-.9 0 .1-.2.2-.4.1l.1-.4-.6-.1.2.7c-.7 0-1-.8-1.6-1-.3.7-1-.5-1.7 0l.4.3c-.9-.3-1.2.1-2-.4.8-.1.8.1 2-.3-1.1.1-1.8-.8-2.9-.6 0 .2.3.3 0 .5-.1-.4-.9-.2-.7-.6-.3.1-.5.5-.7.5l-.9-.7v.1c-2 .6-3.1-1.4-5-1.3v.2l-.4-.4c.3.3-.2.2-.3.4l-1-.7c.1-.2 0 .2.3.2zm14.9 3.4l.3.1c.1 0 .1 0 .2.1l-.3-.1c-.1.1-.2.2-.2-.1zm24.5 6.2c.1.2-.2 0-.3 0l.4.1c.1 0 0-.1-.1-.1zm-25.1-3.5l-.2.2-.1-.3.3.1zm-3.8-.8l.3.2-.3-.2zm-3.7-3.1c-.2-.3-.5.2-.6-.3.3-.4.4.1.6.3zm6.7 1.4c.1.1.2.1.3.1 0-.2-.2-.5 0-.5.1.2.5.4.5.6-.5-.3-.9.4-.8-.2zm8.9 2.1h-.1l.3.3-.2-.3zm1.5.7c.1.4.6.4 1 .6.2-.3-.1-.7-.5-.8-.5-.4-.3.4-.5.2zm-13.5-2.9v.3h-.1l.3.2c-.6.2-.8-.5-1-.6.3.1.8.8.8.1zm17 3.8c.3.3.9.7.8.9.1-.5-.3-.8-.5-.8s-.2 0-.3-.1zm-.3.9c-.5-.3-.4-.6-.7-1.1.5-.1.5.5.4.8.3.3.3 0 .5 0l-.2.3zm-.2-1.5h-.2c-.3.1-.5.7-.7.1l.7-.1h.2zm4.2 1l-.2-.2c.3 0 .3.1.2.2l.1.2c-.4 0-.1-.1-.1-.2zm-3.2-.6l-.6-.2c0 .3.4.2.6.2zm3 1c-.3 0-.9-.1-.8-.1.1-.3.7-.1.8.1zm13 3.5l-.4-.1.3-.3.1.4zm-4.5-.7l.1-.1.2.1h-.3zm-4-.9v-.2c-.1 0-.1-.1-.1-.2.1 0 .1.1.1.2.1.1.4.1.5 0 0-.2-.3-.2-.4-.3.5-.3 1 1 1-.1.1.2.6.6.4.7-.3-.2-1.2-.2-1.5-.1 0 .1-.1.1-.2.1.1 0 .1-.1.2-.1zm-5.5-.9c-.1-.1-.2-.1-.2-.2-.1-.1-.2-.3-.1-.4.3.2.1.3.1.4 0 .1.1.1.2.2zm-1-.2l.5.3-.2-.3.7.6c-.6.2-1-.2-1-.6zm-.2.2v-.3.3l-.8-.3.8.3zm-8.5-2.4c-.5.9.6.8.7 1.3.1-.3.5-.7-.3-.9.8-.2.3.7.9 0-.4 0-.7-.3-.8-.4l.4.1c-.1-.6-.7.2-.9-.1zm-4.4-.8l-.5-.1.5.1zm-13.1-2.6c0 .2-.8.5-.8 0 .3.1.7.2.8 0zm-5.6-1.2l.6.3c-.2.5-.5-.1-.8-.1-.1-.3.1-.1.2-.2zm-3.9-.9l-.2-.1.1.5.1-.4zm.1.7c-.2.2.2.4.3.4l-.3-.4zm-3.5-.3h.3l-.1-.5-.2.5zm.5-.4c0 .3-.1.7.5.7.1-.3-.1-.4.2-.7-.2-.1-.4 0-.5 0 .1.1.3 0 .3.2-.2 0-.4-.1-.5-.2 0-.1 0-.2-.1-.3 0 .1 0 .2.1.3zm2.1.1c.1 0 .2-.1.2-.1v.1c-.1.1-.1 0-.2 0s-.2 0-.3.1c-.1.3.2.5.3.7-.2-.1-.3-.4-.6-.3 0 .1 0 .1.1.2h-.4c-.3-.5.1-.5.5-.6 0-.1.1-.1.2-.2s.2 0 .2.1zm-2.6-1.2l.2.1c.1.1 0 .2 0 .3-.2-.1-.5-.3-.2-.4zm11.2 2.3c-.1.1.1.4.4.4l-.2.4c.1-.3-.5-.4-.6-.4 0-.4.1-.2.4-.4zm13 2.8c0 .5.8.4.9.6-.4 0-1.2-.1-.9-.6zm1.3.1c.2 0 .3 0 .2.3.1.1.3 0 .3.2-.4 0-.3-.4-.5-.5-.1 0-.1 0-.2-.1.1 0 .2 0 .2.1zm-7.6-1.7l-.2-.4-.4-.1.6.5zm-4.2-1.7c0 .2-.5.1-.6 0 0 .3.3.3.5.4 0 0 .1.1.2.1 0 0-.1-.1-.2-.1 0 0 .1-.2.1-.4h.2l-.3-.2.1.2zm-7.6-1.9c-.3.2-.3.1-.5 0 .1-.2.4-.2.5 0zm10 2.2c-.5 0 .1.5-.2.6h.3c-.5.2-.2-.4-.5-.4h.2c.2-.2-.2-.3-.2-.5.1-.1.6.3.4.3zm-10.4-2.5c-.5.2-.3-.4-.6-.5.5-.2.3.3.6.5zm7.6 1l-.3-.3.3.3z"/>
      <path class="st12" d="M427.2 260h-.3c.2-.1.2-.1.3 0zM448.9 265c0-.1.1-.1.1-.1l-.1.1zM449.8 265.4zM481.5 271.2c.1.4-.2 0-.4 0 .2.1.3-.2.4 0zM480.4 270.4l.3.3s-.2-.1-.3-.3zM481.4 270.8c-.3 0-.5 0-.6-.1.1 0 .3-.1.6.1zM477.1 269.8c.1.3.5.2.5.2-.9 0 .1.4.1.6-.5-.2-.4-.4-.6-.8zM476 269.4h.2c0 .1-.1.1-.2 0zM475.7 269.6c-.3-.1-.3-.4-.4-.6.4-.1.5.3.7.5-.2-.1-.3-.2-.3.1zM466.8 268.9c.1 0 .2.1.2.2l-.5-.1c-.1-.1.2-.1.3-.1zM465.2 267.9c-.4-.1-.3.3-.4.2l.1-.5.3.3zM466 265.5l.1.1c-.1 0-.1 0-.1-.1zM463.3 267.9l.1.6c-.2-.2-.1-.6-.1-.6zM461.8 268l.2.2-.6-.3zM460.2 267.3l-.1.1-.5-.2zM441.6 262.9c0-.5.7-.1 1-.2-.3.5-.6-.3-1 .2zM427.9 259.9l.7.3c-.6 0-.1-.1-.7-.3z"/>
    </g>
    <g>
      <path class="st12" d="M486.8 234.1s.1.1.1.2c-.1-.1-.2-.2-.1-.2zM488.4 235.9c-.5-.4-1.2-1.1-1.5-1.6.5.3 1.8 1.1 1.5 1.6zM487.3 233.4l.5.6c-.4-.2-.2-.3-.5-.6zM487.2 234l-.2.1-.1-.4zM457.2 246.5c.1 0 .2 0 .3.1l-.3-.1zM455 247c-.2-.1-.3-.1-.4-.2.1.1.2.1.4.2zM458.2 245l-.2.3c.1-.2.2-.3.2-.3zM472.9 239c.2.4.5.9.8 1.3-.8-.6-.8-1-.8-1.3zM446.3 242.9l-.1.2c-.1.1-.2 0 .1-.2zM454.2 244.1v.2-.2zM458.7 243.9l.2-.1c-.1.1-.1.1-.2.1zM443.7 244.2c-.1 0-.3-.1-.4-.1.2-.1.4 0 .4.1zM454.6 246.9c0-.1 0-.1 0 0 0-.1 0 0 0 0zM455 243.8c-.1 0-.1 0-.2.1 0-.1.1-.1.2-.1zM472.9 239c0-.1 0-.1 0 0 .1 0 .1-.1.1-.1s0 .1.1.1c-.1-.1-.1-.1-.2 0 0-.2 0-.1 0 0zM485.2 233.1c-.2-.1-.2-.3-.1-.4 0 .1 0 .2.1.4zM427.1 227.7c-.1 0-.1 0 0 0zM432.2 227.9l-.1.1c-.1-.1 0-.1.1-.1z"/>
      <path class="st12" d="M437.8 235.2c-.4-.5 0-1.3-.1-1.8l-.2.2v-.6l-.3.1c-.1-.9-.6-1.9-.2-2.3l-.4.2.1-1-.2.6c-.3-1-.3-2.7-.4-2.9l-.1.1c-.1-.1 0-.3 0-.5l-.2.2c0-.1 0-.2-.1-.3 0-.1-.1-.3-.1-.4-.1-.3-.1-.5-.2-.7-.1-.5-.3-.8-.4-1.2-.3-.8-.5-1.4-.7-2.8-.1 0-.2.1-.4.1-.8.3.3 0 .3.1-.5.4-1.3.5-1.5.4.1.4 1.1-.1.2.6-.4-.1.2.3-.7.5-.1-.2-.1-.3-.2-.5-.6.3-.2.5-1 .7-.5 0-.2-.2.1-.4.2-.2.4-.4-.4-.1-.4.2-.9.6-1.2 1-.3.4-.6.7-1.2.8-.8.6.7.6-.6.9h.9c-.2.2.1.4-.5.5-.2-.1-.7-.2-1-.2 1.3-.1-.8.9.4 1l-.4.1c.1 0 .1 0 .1.1l-.5.2c.4 0 1.2-.3.9.2l-.8.4c.3.2.1.4.2.6l2.5-.3c-.1-.1-.5-.1-.5-.3.6-.4.6.1 1.1-.3l-.3-.1c.1.1.2.1 0 .1-.2.2-.3.1-.4-.1.1-.3.8-.4 1-.2.3-.2-.1-.5 0-.6.1.2.2.2.3.1.1-.1.2-.2.3-.1v-.3c.4-.5.5-.3.6-.2l.1-.3h.1c.1.1.2 0 .3.1.1.1.1.3-.2.8l.1-.2c.1.1.3.3.1.6.1 0 .2-.1.3 0-.1.1-.2.1-.1.3l.3.6c0-.4.5-.3.5-.7.6.7-.3.8-.2 1.5.3.3.2-.4.3-.5 0 1.1 1.5 1.8.8 2.7l-.4-.4c-.1.4 0 .7 0 .6-.1-.1 0-.2.1-.2.7 1.1-.2 2 .2 3.2.1-.1.2-.3.3-.4.3.5-.7.7-.2 1.6l.2-.2c.2.3 0 .6-.1.5.8-.1.4 1.9 1.5 2.3-.3.5-.3 1.9 0 2.2.6.5.4-.6.8-.5.1.4-.3.8 0 1.4-.4.1-1.1-1.1-1.1.2l.3.1c-.1-.1-.2-.3-.2-.5.2-.4.3.1.5.2l.2 1.3c-.4.2-.5-.6-.6-.7.3 1 1.3 2.1 1.2 3.1l.1-.1c0 .3 0 .5.1.7l.3.3c.2.1.3.2.1 1 .2.5.4-.5.6.3.1.2-.1.2-.2.2.1 1.3.4 0 .4 1.5l.3-.8c0 .6 0 1.3-.1 2 .4.1 1.2 0 1.8-.6 0-.4-.6 0-.7-.3.5.1 1.3-.4 2.1-.8.4-.2.8-.5 1.1-.7.3-.2.6-.3.9-.4-.1.4.8.3.3 1-.4-.3-.6.1-.9.3 1.1.6 2.1-1.8 2.7-1.1v-.4c.2 0 .7 0 .5.2l1-.9c-.5 0-1.7-.1-1.7.4-.5-.2.3-.5-.2-.7 1.1.1.3-.5 1.2-.8 0 .3.2.4.5.4s.5 0 .5.1c.1-.1.2-.1.4-.1.1.1.2.2.2.3.1.1.2 0 .7 0s1 .1 1.4.2c-.3-.2-.7-.6-.6-.9.4.3.8.4 1 0-1.3-1-.6.8-1.8.1-.2-.5-.4-.7-1-.9.2-.2.1-.3.2-.6.5.6.9.7 1.5.8s1.2.1 1.6.5-.1.9.9 1.2l-.9.1c1-.1.2.3.9.6l-.2-.4c.5 0 .7.1.9.4l-.3-.6c.3 0 .8 0 .7.3.1-.1.1-.2.2-.3 0 0 0 .1.1.1s.3.1.5.1c-.2-.1-.4-.1-.4-.3 1.6.5.4-.4 1.3-.2-.1-.1.1-.2.3-.2.1.3.4.6.8.8.5-.2 1.1-.8 1.5-.9l.6-.5c.2-.2.3-.2.4-.3-.2.1-.2-.2-.1-.4.1-.3-.9-.2-.1-.8l.5-.3c-.1.1-.1-.1-.1-.2.2-.1.3-.2.4-.2-.1-.2 0-.4.1-.5.2 0 .4 0 .6.1.2 0 .6 0 .8-.2-.2.1-.6.2-.5-.1.1-.1.4-.1.6-.1l-.1-.1 1.8-.1c-.2-.2-1.1.1-.8-.3.1-.4.7-.2 1-.3 0 .2-.5.5.1.5 0-.1.5-.5.2-.5.6 0 1.5-.1 2.1.1.1-.1-.1-.1-.2-.1v.1c-.4 0-.2-.5-.8-.1-.3-.6.9-.5 1.5-.7l-1.1-.1c.5-.5 1.1-.8 1.8-1 .7-.2 1.4-.2 2.2-.4.2-.2.5-.3.7-.4.2-.1.4-.3.6-.4-.2.5-.7.6-.3.9.5-.2.7-.4.8-.5.2-.1.4-.3.6-.4h-.1c0-.2.2-.3.4-.3.1-.1.2-.1.3-.5-.2-.2-.3.6-.5 0l.7-.5c-.2-.2-.7.6-1 .7-.2.2.4-.3.5.2-.3.2-.5.3-.8.3-.3.1-.6 0-1 0-.5-.1.1-.6.3-.8.9-.1 1.5-.2 2.2-1 .1 0 .1.1.2.1.1-.1.3-.1.5-.1.1.2.1.4.1.6v.2h-.2v.1c0 .3.1.6.6 1.1-.1-.2-.1-.4-.1-.6.3.1.4.2.5.3-.1-.3-.3-.6-.4-.9-.1-.3-.2-.5-.3-.8.5.1.7.3.9.8.1.1.1.3.2.4 0 .1.1.3.2.4.1.3.3.6.5.8 0-.1-.3-.4-.3-.7l.3.3c.5-.3 1-.4 1.6-.6l.9-.3s.5-.2.7-.3c.2-.5-.8.3-.9-.2.5-.2.9-.8 1.2-.5-.5-.3 1-.7-.1-.6.3-.2.6-.5.9-.7 1.1-1 2.7-2 4-2.8-.2-.1-.2-.2-.2-.4-.5.5-1.3 1-1.9 1 .1-.5 1-.4 1-.6-.3 0-.6.4-.8.2.2-.6.7-.5 1.1-.8l-.1.3c1.3-.7 1 .4 1.9-.6.3-.7 0-.3-.1-.8.1 0 .3-.3.6-.5.3.2.7.5.8.9l-.6-.5c.4.6.8.9 1 1.3 0-.1 0-.2-.1-.4.3.4.7.8.7 1.2l.4-.3c-.3 0-.9-.5-.9-.9.2-.3.8.5 1.1.7-1.1-1.2-1.1-2.1-2.4-2.9l.2.3c-.1 0-.1 0-.2-.1-.3.5-.7.7-1.1.9s-.8.4-1.1.7c.1-.3.1-.5 0-.4-.2.2-.4.5-.6.7-.1.2-.3.3-.4.5-.3.3-.6.6-.9.8-.6.5-1.3 1.2-1.8 1.8h-.1c-.2-.1-.3-.1-.5-.1l.2.3c-.7.6-.4-.3-.9 0 .2-.1.2-.1.3 0-1.1.2-.3.6-.9.8.4.2 1-.5 1.1.1-.5.1-1.1.4-1.6.6-.4.1-.6.1-.8-.3-.1.2-.3.3-.5.4l.1.1-.1-.1-.3-.3-.1-.1-.1-.1-.1-.2c-.8-.8-1.5-1.7-2.2-2.4-.4.3-.7.5-1 .8-.2.4.2 0 .1.2-.4 0-1.1.7-1.6 1.2-.3.3-.5.5-.6.7-.1.1-.2.2-.3.1-.2.3-.1.6 0 .7-.2.1-.4.1-.6.2-.2.1-.3.1-.4.2h.2v.1H467.2c-.1 0-.5.1-.8.2-.3.1-.7.2-1 .3-.7.2-1.3.3-1.9.2.7.1 0 .5.3.6-.8-.5-2.1-.1-3.2.4 0 .1 0 .3.2.3l-.7-.1.1.1c-.4.2-.8.2-1.1.3-.1 0-.5.1-.8.1-.3.1-.6.1-.9.2-.4.4-.8 1-1 1.3.5-.5.6-.5.8-.4-.2.2-.4.5-.6.7-.1.2-.3.3-.4.5s-.3.3-.5.5c-.1.1-.2.2-.3.2l-.1.1h-.1s.1 0 .1.1-.2.1-.3.1l.2.3c-.1 0-.2.1-.3.3-.1 0-.3-.1-.4-.3 0 .2-.2.1-.4-.1-.3-.2-.8-.4-1.2-.4-.2-.1.5.5-.2.3.1-.7-1-.2-.8-1l-.7.1-.1-.4c-.4.3-.5.2-.8 0-.1-.1-.2-.2-.4-.3-.1 0-.1-.1-.2-.1h-.4c.1.1.2.2.1.2-.4-.2-1.6-.5-.7-.5-.3-.1-.9-.2-1.4-.3-.9.5-1.6.9-.8.8-.1-.1.4-.4.8-.5.2.1.4.2.6.2 0 .1-.3.2-.5.1-.3.3-.7.5-.7.8h-.3l-.1.3c-.2 0-.3.1-.5.2-.1 0-.2.1-.3.1-.2.1-.4.2-.6.2-.4.2-.7.3-1.1.2 0 .1-.1.3-.3.4l-.2-.4-.8.5.7.3c-.4.3-.8.4-1.2.4-.2 0-.4 0-.6.1-.1 0-.2 0-.3.1h-.1c.1.3 0 .3 0 .3-.1 0-.1-.1-.2.3 0 .1.1.1.1.2-.2 0-.4.4-.6.5v-.3h.1c.1-.2.3-.3.4-.9-.1.2-.1.1-.1 0 .1-.2.1-.2 0-.1s-.2.3-.4.4c.3-.3-.1-.2.3-.4-.1 0-.5.2-.6.1V244.9l.1-.8-.1.1c-1.5-2.2-.4-4.7-1.4-7.1l-.2.1.2-.7c-.1.5-.3-.1-.5-.1l.1-1.7c-.1-.1-.5.1-.4.5zm5.6 9.4l.3-.2c.1-.1.1-.1.2-.1l-.2.1c-.1.2-.2.4-.3.2zm31.1-7.3c.1.2-.1.2-.2.2l.2-.2c.1-.1 0 0 0 0zm-29.7 9.7v.4l-.3-.1.3-.3zm-5.1 3l.5-.1-.1.1-.5.1.1-.1zm-.3-5.1v.1c-.1 0 0-.1 0-.1.1-.5-.4-.5 0-.9.5.3.1.6 0 .9zm2.6 1.1c.2 0 .3-.1.4-.2-.2-.1-.6-.1-.4-.3.3.1.8-.2 1 0-.7.1-.6 1-1 .5zm12.4-1.4c0 .1.1.2.2.3-.1-.1-.2-.2-.2-.3zm1-.4c.2.1.4-.1.6-.3l.6-.6c-.2-.3-.8-.1-1.1.4-.2.1-.2.2-.2.2s0 .1.1.1c0 .1.1.2 0 .2zm-15.5 3.7v.3l-.1.1h.3c-.4.5-.6.4-.6.2 0-.3.1-.5.1-.6v.5c-.1.1.1.1.3-.5zm19.7-6.9c.5.1 1.5.1 1.5.3-.1-.5-.9-.5-1.1-.4-.1.1-.2.1-.4.1zm.3.8c-.8 0-.8-.2-1.7-.4.2-.1.4-.2.6-.2.1 0 .2 0 .3.1.2.1.3.3.3.5.5.1.4-.2.6-.3l-.1.3zm-1.1-1c-.1 0-.2.1-.4.2-.4.3-.2.7-.9.6h-.2l.1-.2 1-.5c.1 0 .3-.1.4-.1zm5.7-1.8l-.3-.1c.3 0 .3 0 .3.1l.3.1c-.6.3-.3.1-.3-.1zm-4.3 1.5l-.8.2c.1.2.5-.1.8-.2zm4.3-1c-.3.1-1.2.5-1.1.4 0-.3.8-.5 1.1-.4zm15-4.6l-.4.3v-.4l.4.1zm-4.8 3.7l.1-.3.2-.1-.3.4zm-4.3-1.4c0-.1 0-.2-.1-.2h-.2c.1-.1.2-.1.2 0 .2-.1.5-.4.6-.6-.1-.1-.4.2-.6.2.3-.5.8-.6 1.1-.7.2.3.3.3.2-.5.2.4.8 1.4.5 1.4-.2-.2-.5-.5-.8-.7-.3.3-.7.7-.9 1.1 0 .1 0 .2-.1.2 0-.1.1-.1.1-.2zm-6.7 3.7h-.4c-.2 0-.4-.1-.4-.3.5 0 .2.2.4.3s.3.1.4 0zm-1.3.5h.7l-.4-.1 1.2.1c-.5.4-1.3.3-1.5 0zm-.1.3l-.2-.2.2.2-1.1.3 1.1-.3zm-10.2 3.8c-.6.8.9.9 1 1.4.1-.3.7-.7-.5-.9 1-.1.5.7 1.3.1-.5 0-1-.4-1.1-.5l.6.1c-.3-.6-1 .1-1.3-.2zm-5.9.1l-.7.4.7-.4zm-9.9-5.3c-.2.1-.8-.8-.5-1.1.2.4.3 1 .5 1.1zm-1.8-7.9v.9c-.5 0-.1-.7-.3-1.1.2-.2.1.2.3.2zm-1.2-5.3v-.3c-.1.2-.3.4-.4.5l.4-.2zm-.5.6c-.1 0-.2.1-.2.2v.3c0-.2.1-.3.2-.5zm-1.9-1l.2-.1c0-.1-.1-.3-.1-.4l-.1.5zm.4-.7c0 .3-.2.9.3.5.2-.4 0-.4.5-.9-.2 0-.4.2-.5.3.1 0 .3-.2.3.1-.3 0-.5.1-.6 0 0-.1 0-.2-.1-.3 0 .1.1.2.1.3zm1.6.3c.1.1.1.1.2.1l-.1.1c-.1.1-.1 0-.1-.2l-.2-.2c-.2.2-.3.8-.4 1 0-.2.2-.6 0-.7-.1.1-.1.2-.1.3l-.1-.2c.2-.8.4-.7.6-.3.1 0 .1-.1.2-.1s0 .1 0 .2zm-2.3-1.1h.3c.1.1 0 .2.1.3-.3 0-.7 0-.4-.3zm5.6 12.4c-.1-.2-.4.3-.2.7l-.5-.1c.3-.1.1-.8.1-.9.4-.2.3.1.6.3zm7.6 9c.4.4 1.1-.4 1.4-.4-.5.4-1.4 1.1-1.4.4zm1.4-1.1c.2-.1.3-.2.4 0 .2 0 .3-.2.5-.2-.4.6-.6.2-.9.2-.1 0-.1.1-.2.1 0 0 .1-.1.2-.1zm-6.6 1.1c.1-.2.2-.3.3-.5l-.1-.4c-.1.3-.2.6-.2.9zm-.7-6c-.2.1-.4-.5-.3-.7-.3.1-.1.5-.1.9v0c.1-.2.2-.1.4-.2l.1.2v-.5l-.1.3zm-2.1-10.7c-.3-.3-.2-.4-.2-.7.1.1.2.4.2.7zm3.1 13.9c-.3-.6-.4.4-.6 0l.1.3c-.4-.5.2-.5.1-.8l.1.2c.3.1.1-.4.3-.5.2.3.1 1 0 .8zm-3.1-14.5c-.4-.6.2-.6.1-1 .4.4-.1.5-.1 1zm3 10.2l.1-.5h-.1v.5z"/>
      <path class="st12" d="M432.7 229.1c-.1-.2-.1-.3-.1-.3.1.1.1.2.1.3zM447.5 246.5v-.2.2zM448.1 246.5v.1zM484.7 233.2c0 .5-.2-.1-.3-.2.2.1.3-.1.3.2zM483.7 231.7h.1c.1.1.2.3.3.4-.1-.1-.2-.2-.3-.4h-.1zM484.7 232.6c-.3-.1-.4-.3-.6-.5.2.1.3.1.6.5zM480.4 234.9c.4 0 .7-.5.7-.5-.7.9.5.2.6.2-.6.4-.8.2-1.3.3zM479.2 235.8l.2-.2c0 .1-.1.2-.2.2zM479.1 236.3c-.1.1-.2.1-.3.1-.2 0-.4-.1-.6-.1.1-.1.2-.2.3-.2.2-.1.5-.1.7-.3-.2.2-.4.4-.1.5zM470.3 239.5c.1-.1.2-.1.3 0l-.4.4c-.4 0 0-.3.1-.4zM467.6 240.5c-.6.1-.2.4-.4.4l-.1-.5c.1.1.2.1.5.1zM466.9 238.2h.1-.1zM465.2 241.7l.5.4c-.4 0-.6-.4-.5-.4zM463.4 242.7l.3.1-.9.1zM461 243.2l-.1.1-.7.1zM437.7 249.8c.3-.6.5.8.6 1 0 0 0 .1-.1.1-.2.2-.2-.1-.2-.5 0-.3 0-.6-.3-.6zM433.2 230l.1 1c-.4-.7-.1-.2-.1-1z"/>
    </g>
    <g>
      <path class="st12" d="M488.5 251.5s.1 0 .1.1c-.1-.1-.2-.1-.1-.1zM490.1 252.1c-.4-.1-1.1-.2-1.5-.5.4 0 1.5-.1 1.5.5zM488.6 250.6l.5.3c-.4 0-.3-.2-.5-.3zM488.7 251.1l-.1.2-.3-.2zM460.7 247.1c0 .1.1.2 0 .3v-.3zM459.6 245.9c-.1-.1-.2-.1-.2-.1.1 0 .1.1.2.1zM461.9 247.2h-.2.2zM475.9 249.5c.2.2.3.4.5.5-.5 0-.5-.3-.5-.5zM454.5 241.9l-.1.1c0-.1 0-.2.1-.1zM459.9 243.3c0 .1 0 .2-.1.2l-.1-.1.2-.1zM462.8 247.1l.2.1c-.1 0-.2 0-.2-.1zM452.8 241.3c-.1-.1-.1-.2-.1-.4.1.1.2.3.1.4zM459.4 245.8zM461.7 243.8c-.1 0-.2-.1-.3-.1.1 0 .2 0 .3.1zM475.9 249.5c0-.1-.1-.1-.1-.2 0 .1 0 .1.1.2zM486.9 251.5c-.2 0-.2-.2-.2-.3.1.1.2.2.2.3zM423.8 238.5zM430.4 240.4s0 .1.1.1c-.1 0-.1 0-.1-.1z"/>
      <path class="st12" d="M437.3 237.9c-.5.1-.8-.4-1.2-.5l.1.2-.3-.2-.1.3c-.6-.3-1.5-.2-1.6-.6v.5l-.6-.5.3.4c-.8-.1-1.8-.7-2-.7v.2c-.1.1-.2-.1-.3-.2v.3c-1.1-.3-1.6.2-2.8-.4-.4 0 .2.1.1.3-.2.2-.6-.1-.7-.3 0 .4.6.4.1.6-.2-.3.1.4-.4.2l-.1-.5c-.3 0-.1.4-.6.2-.5-.3.7-.4-.1-.7-.4-.1-1.1 1-1.9.5-.7.1.2.8-.7.5l.5.5c-.2.1-.1.4-.5.2-.1-.2-.3-.5-.5-.6.8.6-.9.4-.2 1.1l-.3-.1v.1l-.4-.1c.2.2.8.3.5.6h-.6c.1.3-.1.4-.2.6l1.6.9c0-.2-.3-.3-.1-.5.5 0 .3.4.8.2l-.1-.3c0 .1.1.1 0 .1-.2.1-.2-.1-.2-.2.2-.2.6 0 .7.3.6.1.2-.5.4-.5.2.5 1 .2 1.3.5l-.2-.4c.5-.3.8.1 1.1.3v-.3c.6.2 1.1-.6 1.3.4v-.2c.3 0 .7-.1.9.2 0-.1.1-.2.2-.2.1.4.4.2.7.2-.2-.1-.1-.6-.3-.7.7-.3.4.6.9.7.3-.2-.2-.3-.2-.5.7.4 1.7-.7 2 .3l-.4.2c.2.3.4.3.4.2-.1 0-.1-.1-.1-.2 1-.3 1.2.9 2.1 1 0-.2-.1-.3-.1-.4.4-.1.2.9.9.7l-.1-.2c.2-.1.3.2.3.3.2-.7 1.4.3 2.1-.5.2.5 1.1 1 1.4.8.5-.4-.3-.6 0-1 .3.1.4.5.9.5-.1.4-1.1.6-.3 1.1l.2-.2c-.1 0-.2.1-.4 0-.2-.3.2-.2.3-.3l.9.3c0 .5-.6.2-.7.3.8.1 1.8-.4 2.5.1v-.2c.8.6.7-.7 1.3.2.4 0 0-.5.5-.4.2 0 0 .2 0 .2.7.3.4-.4 1 .2v-.5c.7.5 1.3 1.5 2 1.4 0-.4-.4-.4-.5-.7.8.8 2.1.5 2.9 1.1-.3.3.2.8-.3.9 0-.5-.4-.2-.6-.4.2 1.1 2-.1 2 .8l.2-.3c.1.1.4.4.1.5h1c-.3-.3-.8-1.1-1.1-.8-.2-.4.4-.2.3-.7.5.7.4-.2 1 .1-.4.5.5.8.4 1.1.2-.1.6.3.8.5.4.1 1.3-.1 1.8.2-.2-.2-.5-.5-.4-.8.2.3.6.3.7-.1-.9-.9-.5.8-1.3.2-.1-.5-.4-.7-.8-.9.3-.2.2-.3.4-.6.4 1.1 1.5.4 2.2 1 .3.3-.1.9.6 1.1l-.7.1c.7-.1.1.3.6.5l-.2-.4c.4 0 .5.1.6.4l-.2-.5c.2 0 .6 0 .5.3.1-.1.1-.2.1-.3 0 .1.1.2.3.2-.1-.1-.2-.1-.2-.2.8.3.3-.5.8-.3-.1-.1.1-.2.3-.2-.2.7.8 1.1 1 1.5l.6.4c-.1-.1.1-.3.3-.3.2-.1-.1-.9.5-.5l.3.3c-.1 0 0-.1.1-.2l.3.3c.7-.6 1 .6 1.7.4-.2 0-.5-.1-.3-.3.1-.1.3.1.4.2v-.1l1.1.7c0-.3-.7-.4-.4-.7.3-.3.5.1.8.2-.1.2-.5.3-.1.5.1-.1.5-.2.4-.4.4.3 1 .5 1.3 1 .1-.1 0-.2-.1-.2-.2-.2.1-.5-.5-.4.1-.6.8 0 1.2 0l-.6-.6c1.4-.6 2.8.7 3.9.9-.4.1-.6-.1-.7.4.7.4.6.3 1.3.5h-.1c.4-.2.8.4 1.2 0-.1-.3-.6.1-.5-.4l.9.2c-.2-.4-.9-.2-1.2-.4-.3 0 .5.2.3.5-.9-.2-1-.6-1.3-1.2-.2-.4.5-.3.6-.3.4.7 1.2 1.1 2.1 1.1l.6-.3c.3.5 0 1.2.8 1.3l-.2-.4c.2-.1.3-.1.4-.1-.3-.3-.6-.6-.8-.9.6-.5 1.2.6 1.8.9 0-.1-.2-.2-.3-.3 1 .1 1.8 1 2.5 1.3.4-.2-.6-.3-.3-.7.3.2.9 0 .9.4 0-.6.9.2.3-.5 1.4.1 2.9.9 4.2 1.5 0-.2 0-.3.1-.4-.5-.1-1.1-.4-1.3-.8.4-.2.7.5.8.4-.1-.2-.4-.2-.4-.5.5-.2.6.3.9.4l-.2.1c.8.6.3 1.1 1.3 1.1.4-.3.1-.3.1-.7.2.2 1-.1 1.1.4l-.6-.1c.4.2.8.3 1 .5 0-.1 0-.2-.1-.2.3.2.7.3.8.6l.2-.4c-.2.2-.8.1-.8-.2.1-.4.7 0 .9 0-1.1-.4-.9-1.1-1.9-1l.1.2c-.7.2-1.1-.5-1.7-.6.2-.1.2-.2.2-.3-1.2.1-2.3-.4-3.6-.5l-.3-.5-.1.3c-.7 0 0-.5-.4-.6.2 0 .1.1.1.2-.6-.5-.5.2-.9 0 .1.4.8.3.5.7-.6-.5-1.8-.6-1.8-1.4-1.4 0-3-.8-4.1-1.2-.2.1.1.1 0 .2-.3-.6-1.6 0-1.5-.4-.2.1-.4.4-.5.4-.2-.3-.6-.4-.9-.6l.2.2-.3-.2c-.9-.3-2-.4-2.7-1.1.4.4-.2.5 0 .7-.3-.7-1.3-1-2.1-1.1 0 .1-.1.2 0 .4l-.4-.4v.2c-.9-.1-1.6-1-2.3-.8.3.2.3.3.3.5-.6-.1-1.2-.3-1.8-.6v.2c-.2 0-.4-.2-.6-.3l-.1.3c-.3-.2-.8-.2-1.2-.5-.2.3-1-.6-1.5-.5-.2-.1.3.5-.2.3.1-.7-.7-.2-.6-1l-.5.2v-.4c-.6.6-.5-.5-1.2-.4 0 .1.1.1 0 .2-.2-.1-.6-.3-.2-.4-.3-.1-1.4-.5-1 0 0-.2.4.1.6.2-.1.3-.5.1-.7.4 0 0-.1-.1-.1-.2l-.1.2c-.5-.5-1.2-.4-1.5-.9 0 .1-.2.2-.4.1l.1-.4-.6-.1.2.7c-.7 0-1.1-.8-1.6-1-.3.7-1.1-.5-1.7 0l.4.3c-.9-.3-1.2.1-2-.4.8-.1.8.1 2-.3-1.2.1-1.8-.8-2.9-.6 0 .2.3.3 0 .5-.1-.4-1-.2-.7-.6-.3.1-.5.5-.7.5l-.9-.7v.1c-2 .6-3.2-1.4-5.1-1.3v.2l-.4-.4c.3.3-.2.2-.3.4l-1-.7c-.3.1-.4.6-.1.5zm15.1 3.5l.3.1c.1 0 .1 0 .2.1l-.2-.1c-.2 0-.3.2-.3-.1zm24.9 6.2c.1.2-.2 0-.3 0l.4.1c.1 0-.1 0-.1-.1zm-25.5-3.5l-.2.2-.1-.3.3.1zm-3.8-.8l.3.2-.3-.2zm-3.8-3.2c0 .1 0 0 0 0-.3-.3-.5.2-.6-.3.4-.4.5.1.6.3zm6.8 1.5c.1.1.2.1.3.1 0-.2-.2-.5 0-.5.1.2.5.4.5.6-.5-.4-.9.4-.8-.2zm9 2.1h-.1l.3.3-.2-.3zm1.6.7c.1.4.6.4 1 .6.2-.3-.1-.7-.5-.8-.5-.4-.4.4-.5.2zm-13.7-2.9v.3h-.1l.3.2c-.6.2-.8-.5-1-.6.3 0 .7.7.8.1zm17.1 3.8c.3.3.9.7.8.9.1-.5-.3-.8-.5-.8-.1 0-.1 0-.3-.1zm-.2.9c-.5-.3-.4-.6-.7-1.1.5-.1.6.5.4.8.3.3.3 0 .5 0l-.2.3zm-.2-1.5h-.2c-.3.1-.5.7-.7.1l.7-.1h.2zm4.3 1l-.2-.2c.2 0 .2.1.2.2l.1.2c-.5 0-.2-.1-.1-.2zm-3.3-.6l-.6-.2c0 .3.4.2.6.2zm3 1c-.3 0-.9-.1-.8-.1.1-.3.7-.1.8.1zm13.2 3.5l-.4-.1.3-.3.1.4zm-4.5-.7l.1-.1.2.1h-.3zm-4.1-.9v-.2c-.1 0-.1-.1-.1-.2.1 0 .1.1.1.2.1.1.4.1.5 0 0-.2-.3-.2-.4-.3.5-.3 1 1.1 1.1-.1.1.2.6.6.4.7-.4-.1-1.3-.2-1.6-.1 0 .1-.1.1-.2.1 0 0 .1 0 .2-.1zm-5.6-.9c-.1-.1-.2-.1-.2-.2-.1-.1-.2-.3-.1-.4.3.2.1.3.1.4s.1.2.2.2zm-1-.2l.5.3-.2-.3.7.6c-.6.2-1-.2-1-.6zm-.2.2v-.3.3l-.8-.3.8.3zm-8.6-2.4c-.5.9.6.8.7 1.3.1-.3.5-.7-.3-.9.8-.2.3.7.9 0-.4 0-.7-.3-.8-.4l.4.1c-.1-.6-.7.1-.9-.1zm-4.5-.8l-.5-.1.5.1zm-13.3-2.6c0 .2-.8.5-.9 0 .4 0 .8.1.9 0zm-5.6-1.3l.6.3c-.2.5-.5-.1-.8-.1-.1-.3 0-.1.2-.2zm-3.9-.9l-.2-.1.1.5.1-.4zm.1.7c-.2.2.2.4.3.4l-.3-.4zm-3.6-.3h.3l-.1-.5-.2.5zm.5-.4c0 .3-.1.7.5.7.1-.3-.1-.4.2-.7-.2-.1-.4 0-.5 0 .1.1.3 0 .3.2-.2 0-.4-.1-.5-.2 0-.1 0-.2-.1-.3 0 .1 0 .2.1.3zm2.1.1c.1 0 .2-.1.2-.1v.1c0 .1-.1 0-.2 0s-.2 0-.3.1c-.1.3.2.5.3.7-.2-.1-.3-.4-.6-.3 0 .1 0 .1.1.2h-.4c-.3-.5.1-.5.5-.6 0-.1.1-.1.2-.2.2-.1.2 0 .2.1zm-2.6-1.3l.2.1c.1.1 0 .2 0 .3-.2 0-.5-.2-.2-.4zm11.4 2.4c-.1.1.1.4.4.4l-.2.4c.1-.3-.5-.4-.6-.4-.1-.4.1-.2.4-.4zm13.1 2.9c0 .5.8.4.9.6-.4-.1-1.2-.1-.9-.6zm1.3 0c.2 0 .3 0 .2.3.1.1.3 0 .3.2-.4.1-.3-.3-.5-.5-.1 0-.1 0-.2-.1.1.1.2.1.2.1zm-7.7-1.7l-.2-.4-.4-.1.6.5zm-4.2-1.6c0 .2-.5.1-.6 0 0 .3.3.3.5.4 0 0 .1.1.2.1 0 0-.1-.1-.2-.1 0-.1.1-.2.1-.4h.2l-.3-.2.1.2zm-7.7-2c-.3.2-.3.1-.5 0 .1-.2.3-.1.5 0zm10.1 2.2c-.5 0 .1.5-.2.6h.3c-.5.2-.2-.4-.5-.4h.2c.2-.2-.2-.3-.2-.5.1 0 .6.3.4.3zm-10.5-2.5c-.5.2-.3-.4-.6-.5.4-.2.3.3.6.5zm7.7 1l-.3-.3.3.3z"/>
      <path class="st12" d="M431.6 240.4h-.3c.1-.1.2-.1.3 0zM453.6 245.4c0-.1.1-.1.1-.1 0 .1-.1.1-.1.1zM454.4 245.8s.1 0 0 0c.1 0 .1.1 0 0zM486.6 251.8c.1.4-.2 0-.4 0 .2 0 .3-.2.4 0zM485.5 250.9l.3.3c-.1 0-.2 0-.3-.3z"/>
      <path class="st12" d="M486.4 251.3c-.3 0-.5 0-.6-.1.2 0 .3-.1.6.1zM482.1 250.3c.1.3.5.2.5.2-.9 0 .1.4.1.6-.4-.1-.4-.4-.6-.8zM481 250h.2-.2zM480.7 250.1c-.3-.1-.3-.4-.4-.6.4-.1.5.3.8.5-.3-.1-.5-.1-.4.1zM471.7 249.4c.1 0 .2.1.2.2l-.5-.1c-.2-.1.2-.1.3-.1zM470.1 248.4c-.4-.1-.3.3-.4.2l.1-.5.3.3zM470.8 246l.1.1s-.1 0-.1-.1zM468.2 248.4l.1.6c-.3-.2-.2-.6-.1-.6zM466.7 248.5l.1.2-.6-.3zM465 247.8l-.1.1-.5-.2zM446.1 243.3c0-.5.7-.1 1-.2-.3.5-.6-.3-1 .2zM432.3 240.3l.7.3c-.6 0-.2-.1-.7-.3z"/>
    </g>
    <g>
      <path class="st12" d="M491.1 231.2s.1 0 .1.1c-.1 0-.2-.1-.1-.1zM492.7 231.8c-.4-.1-1.1-.2-1.5-.5.4 0 1.5-.1 1.5.5zM491.2 230.3l.5.3c-.4.1-.2-.2-.5-.3zM491.3 230.9l-.1.1-.2-.2zM464 227c0 .1.1.2 0 .3v-.3zM463 225.8c-.1-.1-.2-.1-.2-.1.1 0 .1 0 .2.1zM465.2 227.1h-.2.2zM478.8 229.3c.2.2.3.4.5.5-.5 0-.4-.3-.5-.5zM458 221.8l-.1.1c0-.1 0-.1.1-.1zM463.3 223.2c0 .1 0 .2-.1.2l-.1-.1.2-.1zM466.1 227l.2.1c-.1 0-.2 0-.2-.1zM456.4 221.2c-.1-.1-.1-.2-.1-.4.1.1.1.3.1.4zM462.7 225.7s.1 0 0 0c.1 0 .1 0 0 0 .1 0 .1 0 0 0zM465 223.7c-.1 0-.2-.1-.3-.1.2 0 .3 0 .3.1zM478.8 229.3c0-.1-.1-.1-.1-.2 0 .1.1.1.1.2zM489.6 231.2c-.2 0-.2-.2-.2-.3.1.1.2.2.2.3zM428.1 218.6zM434.5 220.4s0 .1.1.1c-.1.1-.1 0-.1-.1z"/>
      <path class="st12" d="M441.3 218c-.5.1-.8-.4-1.2-.5l.1.2-.3-.2-.1.3c-.6-.3-1.4-.1-1.5-.6v.5l-.6-.5.3.4c-.8-.1-1.8-.7-2-.7v.2c-.1.1-.2-.1-.3-.2v.3c-1.1-.3-1.5.2-2.7-.3-.3 0 .2.1.1.3-.2.2-.6-.1-.7-.3 0 .4.6.4.1.6-.2-.3.1.4-.4.2l-.1-.5c-.3 0-.1.4-.6.2-.4-.3.7-.4-.1-.7-.4-.1-1.1 1-1.8.5-.7.1.2.8-.7.5l.5.5c-.2.1-.1.4-.5.2-.1-.2-.3-.5-.5-.6.8.6-.9.4-.2 1.1l-.3-.1v.1l-.4-.1c.2.2.8.3.4.6h-.6c.1.3-.1.4-.2.6l1.6.9c0-.2-.3-.3-.1-.5.5 0 .3.4.8.2l-.1-.3c0 .1.1.1 0 .1-.2.1-.2-.1-.2-.2.2-.2.6 0 .7.3.6.1.2-.5.4-.5.2.5.9.2 1.2.5l-.2-.3c.5-.3.8.1 1 .3v-.3c.6.2 1-.6 1.3.4v-.2c.3 0 .7-.1.8.2 0-.1.1-.2.2-.2.1.4.4.2.7.2-.2-.1 0-.6-.3-.7.6-.3.4.6.9.7.3-.2-.2-.3-.2-.5.7.4 1.7-.7 1.9.3l-.4.2c.2.3.4.3.4.2-.1 0-.1-.1-.1-.2.9-.3 1.2.9 2.1.9 0-.2-.1-.3-.1-.4.4-.1.2.9.9.7l-.1-.2c.2-.1.3.2.3.3.2-.7 1.3.3 2-.5.2.5 1.1 1 1.4.8.5-.4-.2-.6 0-1 .3.1.4.5.9.5-.1.4-1.1.6-.3 1.1l.2-.2c-.1 0-.2.1-.4 0-.2-.3.2-.2.3-.3l.9.3c0 .5-.6.2-.6.3.8.1 1.8-.4 2.4.1v-.2c.8.6.7-.7 1.2.2.4 0 0-.5.5-.4.2 0 0 .2 0 .2.6.3.4-.4.9.2v-.5c.7.5 1.3 1.5 2 1.4 0-.4-.4-.4-.5-.7.7.8 2.1.5 2.8 1.1-.3.3.2.8-.3.9 0-.5-.3-.2-.6-.4.2 1.1 2-.1 1.9.8l.2-.3c.1.1.4.4.1.5h.9c-.3-.3-.8-1.1-1.1-.8-.2-.4.4-.2.3-.7.5.7.4-.2 1 .1-.4.5.5.8.4 1.1.2-.1.6.3.8.5.3.1 1.3-.1 1.8.2-.2-.2-.5-.5-.4-.8.2.2.5.3.7-.1-.8-.9-.5.8-1.3.2-.1-.5-.4-.6-.8-.9.3-.2.2-.3.4-.6.4 1.1 1.5.4 2.1 1 .3.3-.1.9.6 1.1l-.7.2c.7-.1.1.3.6.5l-.2-.3c.4 0 .5.1.6.4l-.2-.5c.2 0 .5 0 .5.3.1-.1.1-.2.1-.3 0 .1.1.2.3.2-.1-.1-.2-.1-.2-.2.8.3.3-.5.8-.3-.1-.1.1-.2.3-.2-.2.7.8 1 1 1.5l.6.4c-.1-.1.1-.3.3-.3.2-.1-.1-.9.5-.5l.3.3c-.1 0 0-.1.1-.2l.3.3c.7-.6.9.6 1.6.4-.2 0-.5-.1-.3-.3.1-.1.3.1.4.2v-.1l1.1.7c0-.3-.7-.4-.4-.6.3-.3.5.1.7.2-.1.2-.5.3-.1.5.1-.1.5-.2.3-.4.4.3.9.5 1.2 1 .1-.1 0-.2-.1-.2-.2-.2.1-.5-.5-.4.1-.6.7 0 1.2 0l-.6-.6c1.3-.6 2.7.7 3.8.9-.4.1-.6-.1-.7.4.7.4.6.3 1.3.5h-.1c.4-.2.8.4 1.1 0-.1-.3-.6.1-.5-.4l.9.2c-.2-.4-.9-.2-1.2-.4-.3 0 .5.2.3.5-.8-.2-.9-.6-1.2-1.2-.2-.4.4-.3.6-.3.4.7 1.1 1.1 2 1l.5-.3c.3.5 0 1.2.7 1.2l-.2-.3c.2-.1.3-.1.4-.1-.3-.3-.6-.6-.8-.9.6-.5 1.1.6 1.7.8 0-.1-.2-.2-.3-.3 1 0 1.8 1 2.4 1.3.4-.2-.6-.3-.3-.7.3.2.8 0 .9.4 0-.6.9.1.3-.5 1.4.1 2.8.9 4.1 1.5 0-.2 0-.3.1-.4-.5-.1-1.1-.4-1.3-.8.4-.2.6.5.8.4-.1-.2-.4-.2-.4-.5.5-.2.6.3.9.4l-.2.1c.8.6.3 1.1 1.2 1.1.4-.3.1-.3.1-.7.2.2 1-.1 1.1.4l-.6-.1c.4.2.7.3 1 .5 0-.1 0-.2-.1-.2.3.2.7.3.8.6l.2-.4c-.2.2-.8.1-.8-.2.1-.4.6 0 .9 0-1.1-.4-.9-1.1-1.9-1l.1.2c-.6.2-1.1-.5-1.6-.6.2-.1.2-.2.2-.3-1.2.1-2.2-.4-3.5-.5l-.3-.5-.1.3c-.6 0 0-.5-.4-.6.2 0 .1.1.1.2-.6-.5-.5.2-.8 0 .1.4.7.3.5.7-.6-.5-1.8-.6-1.7-1.4-1.4 0-2.9-.8-4-1.1-.2.1.1.1 0 .2-.3-.6-1.5 0-1.5-.4-.2.1-.4.4-.5.5-.2-.3-.6-.4-.9-.6l.2.2-.3-.2c-.9-.3-1.9-.4-2.6-1.1.4.4-.2.5 0 .7-.3-.7-1.2-1-2.1-1.1 0 .1-.1.2 0 .4l-.4-.4v.2c-.9-.1-1.6-1-2.2-.8.3.2.3.3.3.5-.6-.1-1.1-.3-1.8-.6v.2c-.2 0-.4-.2-.5-.3l-.1.3c-.3-.2-.8-.2-1.2-.5-.2.3-.9-.6-1.5-.5-.2-.1.3.5-.2.3.1-.7-.7-.2-.5-.9l-.5.2v-.4c-.5.6-.5-.5-1.1-.3 0 .1.1.1 0 .2-.2-.1-.6-.3-.2-.4-.3-.1-1.3-.5-.9 0 0-.2.4.1.6.2-.1.3-.5.1-.7.4 0 0-.1-.1-.1-.2l-.1.2c-.5-.5-1.1-.4-1.5-.9 0 .1-.2.2-.4.1l.1-.4-.6-.1.2.7c-.7 0-1-.8-1.6-1-.3.7-1-.5-1.6 0l.4.3c-.9-.3-1.1.1-1.9-.4.8-.1.8.1 1.9-.3-1.1.1-1.8-.8-2.8-.6 0 .2.3.3 0 .5-.1-.4-.9-.2-.7-.6-.3.1-.5.5-.7.5l-.9-.7v.1c-1.9.6-3.1-1.4-4.9-1.3v.2l-.4-.4c.3.3-.2.2-.3.4l-1-.7c.3-.6.2-.1.5-.1zm14.7 3.3l.3.1c.1 0 .1 0 .2.1l-.2-.1c-.2 0-.3.2-.3-.1zm24.2 6.1c.1.2-.2 0-.3 0l.4.1c.1 0-.1 0-.1-.1zm-24.8-3.4l-.2.2-.1-.3.3.1zm-3.7-.8l.3.2-.3-.2zm-3.7-3.1c-.2-.3-.5.2-.6-.3.4-.4.5.1.6.3zm6.6 1.4c.1.1.2.1.3.1 0-.2-.2-.5 0-.5.1.2.5.4.5.6-.5-.3-.9.4-.8-.2zm8.8 2.1h-.1l.3.3-.2-.3zm1.5.6c.1.4.6.4.9.6.2-.3-.1-.7-.5-.8-.4-.3-.3.5-.4.2zm-13.3-2.8v.3h-.1l.3.2c-.6.2-.8-.5-1-.6.3.1.7.8.8.1zm16.7 3.8c.3.3.9.7.7.9.1-.5-.3-.8-.5-.8 0 0-.1-.1-.2-.1zm-.2.8c-.4-.3-.4-.5-.7-1.1.5-.1.5.5.4.8.3.3.3 0 .5 0l-.2.3zm-.3-1.4h-.2c-.3.1-.4.7-.7.1l.7-.1h.2zm4.2.9l-.2-.2c.2.1.2.2.2.2l.1.2c-.4.1-.2 0-.1-.2zm-3.2-.5l-.6-.2c0 .2.4.2.6.2zm3 .9c-.3 0-.9-.1-.8-.1.1-.2.7 0 .8.1zm12.8 3.5l-.4-.1.3-.3.1.4zm-4.4-.7l.1-.1.2.1h-.3zm-4-.9v-.2c-.1 0-.1-.1-.1-.2.1 0 .1.1.1.2.1.1.4.1.5 0 0-.2-.3-.2-.4-.3.5-.3 1 1 1-.1.1.2.6.6.4.7-.3-.1-1.1-.2-1.5-.1 0 .1-.1.1-.2.1.1 0 .1 0 .2-.1zm-5.4-.9c-.1-.1-.2-.1-.2-.2-.1-.1-.2-.3-.1-.4.3.2.1.3.1.4 0 .1.1.2.2.2zm-1-.1l.4.3-.2-.3.6.6c-.4.2-.8-.3-.8-.6zm-.2.2v-.3.3l-.8-.3.8.3zm-8.4-2.4c-.5.9.6.8.7 1.3.1-.3.5-.7-.3-.9.8-.2.3.7.9 0-.3 0-.7-.3-.8-.4l.4.1c-.1-.6-.7.1-.9-.1zm-4.3-.8l-.5-.1.5.1zm-13-2.5c0 .2-.8.5-.8 0 .3 0 .7.1.8 0zm-5.5-1.3l.5.3c-.2.5-.5-.1-.8-.1 0-.3.2-.1.3-.2zm-3.8-.8l-.2-.1.1.5.1-.4zm.1.7c-.2.2.2.4.3.4l-.3-.4zm-3.5-.3h.3l-.1-.5-.2.5zm.5-.5c0 .3-.1.7.5.7.1-.3-.1-.4.2-.7-.2-.1-.4 0-.4 0 .1.1.3 0 .3.2-.3.1-.5 0-.6-.2 0-.1 0-.2-.1-.3 0 .2 0 .3.1.3zm2.1.1c.1 0 .2-.1.2-.1v.1c-.1.1-.2.1-.2 0-.1 0-.2 0-.3.1-.1.3.2.5.3.7-.2-.1-.3-.4-.5-.3 0 .1 0 .1.1.2h-.3c-.3-.5.1-.5.5-.6 0-.1.1-.1.1-.2l.1.1zm-2.6-1.2l.2.1c.1.1 0 .2 0 .3-.2 0-.4-.3-.2-.4zm11.1 2.3c-.1.1.1.4.4.4l-.2.4c.1-.3-.5-.4-.6-.4-.1-.4.1-.2.4-.4zm12.8 2.8c0 .5.8.4.9.6-.4 0-1.2-.1-.9-.6zm1.3 0c.2 0 .3 0 .2.3.1.1.3 0 .3.2-.4.1-.3-.3-.5-.5 0 0-.1 0-.2-.1.1.1.1.1.2.1zm-7.5-1.6l-.2-.4-.4-.1.6.5zm-4.1-1.6c0 .2-.5.1-.5 0 0 .3.3.3.5.4 0 0 .1.1.2.1 0 0-.1-.1-.2-.1-.1-.1 0-.2 0-.4h.2l-.3-.2.1.2zm-7.5-2c-.3.2-.3.1-.5 0 .1-.1.3-.1.5 0zm9.8 2.2c-.5 0 .1.5-.2.6h.2c-.5.2-.2-.4-.5-.4h.2c.2-.2-.2-.3-.2-.5.2 0 .7.3.5.3zm-10.2-2.5c-.5.2-.3-.4-.6-.5.4-.1.3.4.6.5zm7.5 1l-.3-.3.3.3zM435.7 220.4h-.3.3z"/>
      <path class="st12" d="M457.1 225.4c0-.1.1-.1.1-.1l-.1.1zM457.9 225.7s.1 0 0 0c.1.1.1.1 0 0zM489.2 231.5c.1.4-.2 0-.4 0 .2.1.4-.2.4 0zM488.2 230.7l.3.3c-.1 0-.2-.1-.3-.3zM489.1 231.1c-.3 0-.5 0-.6-.1.2 0 .3-.1.6.1zM484.9 230.1c.1.3.5.2.5.2-.8 0 .1.4.1.6-.5-.2-.4-.4-.6-.8zM483.9 229.7h.2c-.1.1-.2.1-.2 0zM483.5 229.9c-.3-.1-.3-.4-.4-.6.4-.1.5.3.7.4-.1 0-.3-.1-.3.2zM474.8 229.2c.1 0 .2.1.2.2l-.5-.1c-.2-.1.2-.1.3-.1zM473.2 228.2c-.4-.1-.2.3-.4.2l.1-.5.3.3zM473.9 225.9c.1 0 0 0 0 0zM471.3 228.3l.1.6c-.2-.2-.1-.7-.1-.6zM469.8 228.3l.2.2-.6-.3zM468.2 227.7l-.1.1-.4-.2zM449.8 223.3c0-.5.7-.1 1-.2-.3.5-.6-.3-1 .2zM436.4 220.4l.7.3c-.6 0-.2-.1-.7-.3z"/>
    </g>
    <g>
      <path class="st12" d="M484.6 262.2s.1 0 .1.1c-.1 0-.1 0-.1-.1zM486.3 262.8c-.4-.1-1.1-.2-1.5-.5.4 0 1.4 0 1.5.5zM484.8 261.4l.5.3c-.4 0-.3-.2-.5-.3zM484.8 261.9v.2l-.3-.3zM457.1 257.9c0 .1.1.2 0 .3v-.3zM456.1 256.8c-.1-.1-.2-.1-.2-.1s.1 0 .2.1zM458.3 258.1h-.2c0-.1.1-.1.2 0zM472.2 260.3c.2.2.3.4.5.5-.5 0-.5-.3-.5-.5zM451 252.7l-.1.1s0-.1.1-.1zM456.3 254.1c0 .1 0 .2-.1.2l-.1-.1.2-.1zM459.2 257.9l.2.1c-.1.1-.2 0-.2-.1zM449.3 252.1c-.1-.1-.1-.2-.1-.4.1.1.2.3.1.4zM455.8 256.7c0-.1 0-.1 0 0 0-.1 0 0 0 0zM458.1 254.7c-.1 0-.2-.1-.3-.1.2-.1.2 0 .3.1zM472.2 260.3c0-.1-.1-.1-.1-.2 0 .1 0 .1.1.2zM483.1 262.3c-.2 0-.2-.2-.2-.3.1.1.2.2.2.3zM420.5 249.4zM427.1 251.3s0 .1.1.1c-.1 0-.2 0-.1-.1z"/>
      <path class="st12" d="M434 248.8c-.5.1-.8-.4-1.2-.5l.1.2-.3-.2-.1.3c-.6-.3-1.4-.1-1.6-.6v.5l-.6-.5.3.4c-.8-.1-1.8-.7-2-.7v.2c-.1.1-.2-.1-.3-.2v.3c-1.1-.3-1.5.2-2.7-.4-.4 0 .2.1.1.3-.2.2-.6-.1-.7-.3 0 .4.6.4.1.6-.2-.3.1.4-.4.2l-.1-.5c-.3 0-.1.4-.6.2-.5-.3.7-.4-.1-.7-.4-.1-1.1 1-1.8.5-.7.1.2.8-.7.5l.5.5c-.2.1-.1.4-.5.2-.1-.2-.3-.5-.5-.6.8.6-.9.4-.2 1.1l-.3-.1v.1l-.4-.1c.2.2.8.3.5.6h-.6c.1.3-.1.4-.2.6l1.6.9c0-.2-.3-.3-.1-.5.5 0 .3.4.8.2l-.1-.3c0 .1.1.1 0 .1-.2.1-.2-.1-.2-.2.2-.2.6 0 .7.3.6.1.2-.5.4-.5.2.5.9.2 1.2.5l-.2-.4c.5-.3.8.1 1.1.3v-.3c.6.2 1.1-.6 1.3.4v-.2c.3 0 .7-.1.9.2 0-.1.1-.2.2-.2.1.4.4.2.7.2-.2-.1 0-.6-.3-.7.7-.3.4.6.9.7.3-.2-.2-.3-.2-.5.7.4 1.7-.7 2 .3l-.4.2c.2.3.4.3.4.2-.1 0-.1-.1-.1-.2 1-.3 1.2.9 2.1 1 0-.2-.1-.3-.1-.4.4-.1.2.9.9.7l-.1-.2c.2-.1.3.2.3.3.2-.7 1.4.3 2-.5.2.5 1.1 1 1.4.8.5-.4-.2-.6 0-1 .3.1.4.5.9.5-.1.4-1.1.6-.3 1.1l.2-.2c-.1 0-.2.1-.4 0-.2-.3.2-.2.3-.3l.9.3c0 .5-.6.2-.7.3.8.1 1.8-.4 2.4.1v-.2c.8.6.7-.7 1.2.2.4 0 0-.5.5-.4.2 0 0 .2 0 .2.7.3.4-.4.9.2v-.5c.7.5 1.3 1.5 2 1.4 0-.4-.4-.4-.5-.7.7.8 2.1.5 2.9 1.1-.3.3.2.8-.3.9 0-.5-.3-.2-.6-.4.2 1.1 2-.1 2 .8l.2-.3c.1.1.4.4.1.5h1c-.3-.3-.8-1.1-1.1-.8-.2-.4.4-.2.3-.7.5.7.4-.2 1 .1-.4.5.5.8.4 1.1.2-.1.6.3.8.5.4.1 1.3-.1 1.8.2-.2-.2-.5-.5-.4-.8.2.3.6.3.7-.1-.9-.9-.5.8-1.3.2-.1-.5-.4-.7-.8-.9.3-.2.2-.3.4-.6.4 1.1 1.5.4 2.1 1 .3.3-.1.9.6 1.1l-.7.1c.7-.1.1.3.6.5l-.2-.4c.4 0 .5.1.6.4l-.2-.5c.2 0 .6 0 .5.3.1-.1.1-.2.1-.3 0 .1.1.2.3.2-.1-.1-.2-.1-.2-.2.8.3.3-.5.8-.3-.1-.1.1-.2.3-.2-.2.7.8 1 1 1.5l.6.4c-.1-.1.1-.3.3-.3.2-.1-.1-.9.5-.5l.3.3c-.1 0 0-.1.1-.2l.3.3c.7-.6.9.6 1.7.4-.2 0-.5-.1-.3-.3.1-.1.3.1.4.2v-.1l1.1.7c0-.3-.7-.4-.4-.6.3-.3.5.1.7.2-.1.2-.5.3-.1.5.1-.1.5-.2.4-.4.4.3 1 .5 1.3 1 .1-.1 0-.2-.1-.2-.2-.2.1-.5-.5-.4.1-.6.8 0 1.2 0l-.6-.6c1.4-.6 2.7.7 3.9.9-.4.1-.6-.1-.7.4.7.4.6.3 1.3.5h-.1c.4-.2.8.4 1.2 0-.1-.3-.6.1-.5-.4l.9.2c-.2-.4-.9-.2-1.2-.4-.3 0 .5.2.3.5-.8-.2-1-.6-1.3-1.2-.2-.4.5-.3.6-.3.4.7 1.1 1.1 2 1l.6-.3c.3.5 0 1.2.8 1.3l-.2-.4c.2-.1.3-.1.4-.1-.3-.3-.6-.6-.8-.9.6-.5 1.2.6 1.8.8 0-.1-.2-.2-.3-.3 1 .1 1.8 1 2.5 1.3.4-.2-.6-.3-.3-.7.3.2.9 0 .9.4 0-.6.9.1.3-.5 1.4.1 2.8.9 4.1 1.5 0-.2 0-.3.1-.4-.5-.1-1.1-.4-1.3-.8.4-.2.6.5.8.4-.1-.2-.4-.2-.4-.5.5-.2.6.3.9.4l-.2.1c.8.6.3 1.1 1.2 1.1.4-.3.1-.3.1-.7.2.2 1-.1 1.1.4l-.6-.1c.4.2.7.3 1 .5 0-.1 0-.2-.1-.2.3.2.7.3.8.6l.2-.4c-.2.2-.8.1-.8-.2.1-.4.7 0 .9 0-1.1-.4-.9-1.1-1.9-1l.1.2c-.7.2-1.1-.5-1.6-.6.2-.1.2-.2.2-.3-1.2.1-2.2-.4-3.6-.5l-.3-.5-.1.3c-.7 0 0-.5-.4-.6.2 0 .1.1.1.2-.6-.5-.5.2-.9 0 .1.4.8.3.5.7-.6-.5-1.8-.6-1.7-1.4-1.4 0-3-.8-4.1-1.1-.2.1.1.1 0 .2-.3-.6-1.6 0-1.5-.4-.2.1-.4.4-.5.5-.2-.3-.6-.4-.9-.6l.2.2-.3-.2c-.9-.3-2-.4-2.7-1.1.4.4-.2.5 0 .7-.3-.7-1.3-1-2.1-1.1 0 .1-.1.2 0 .4l-.4-.4v.2c-.9-.1-1.6-1-2.3-.8.3.2.3.3.3.5-.6-.1-1.2-.3-1.8-.6v.2c-.2 0-.4-.2-.6-.3l-.1.3c-.3-.2-.8-.2-1.2-.5-.2.3-1-.6-1.5-.5-.2-.1.3.5-.2.3.1-.7-.7-.2-.6-1l-.5.2v-.4c-.6.6-.5-.5-1.2-.4 0 .1.1.1 0 .2-.2-.1-.6-.3-.2-.4-.3-.1-1.3-.5-1 0 0-.2.4.1.6.2-.1.3-.5.1-.7.4 0 0-.1-.1-.1-.2l-.1.2c-.5-.5-1.2-.4-1.5-.9 0 .1-.2.2-.4.1l.1-.4-.6-.1.2.7c-.7 0-1-.8-1.6-1-.3.7-1-.5-1.7 0l.4.3c-.9-.3-1.2.1-2-.4.8-.1.8.1 2-.3-1.2.1-1.8-.8-2.9-.6 0 .2.3.3 0 .5-.1-.4-.9-.2-.7-.6-.3.1-.5.5-.7.5l-.9-.7v.1c-2 .6-3.2-1.4-5-1.3v.2l-.4-.4c.3.3-.2.2-.3.4l-1-.7c.1 0 .1.4.4.4zm14.9 3.5l.3.1c.1 0 .1 0 .2.1l-.2-.1c-.2 0-.3.1-.3-.1zm24.6 6.1c.1.2-.2 0-.3 0l.4.1c.2 0 0 0-.1-.1zm-25.2-3.5l-.2.2-.1-.3.3.1zm-3.8-.8l.3.2-.3-.2zm-3.7-3.1c-.3-.3-.5.2-.6-.3.3-.4.4.1.6.3zm6.7 1.4c.1.1.2.1.3.1 0-.2-.2-.5 0-.5.1.2.5.4.5.6-.4-.3-.9.4-.8-.2zm8.9 2.2h-.1l.3.3-.2-.3zm1.6.6c.1.4.6.4 1 .6.2-.3-.1-.7-.5-.8-.5-.4-.4.5-.5.2zm-13.6-2.9v.3h-.1l.3.2c-.6.2-.8-.5-1-.6.3.1.8.8.8.1zm17 3.8c.3.3.9.7.8.9.1-.5-.3-.8-.5-.8-.1 0-.2 0-.3-.1zm-.2.9c-.5-.3-.4-.6-.7-1.1.5-.1.5.5.4.8.3.3.3 0 .5 0l-.2.3zm-.2-1.4h-.2c-.3.1-.5.7-.7.1l.7-.1s.1-.1.2 0zm4.2.9l-.2-.2c.3.1.3.1.2.2l.1.2c-.4.1-.2-.1-.1-.2zm-3.2-.6l-.6-.2c0 .3.4.3.6.2zm3 1c-.3 0-.9-.1-.8-.1.1-.2.7-.1.8.1zm13 3.5l-.4-.1.3-.3.1.4zm-4.4-.7l.1-.1.2.1h-.3zm-4.1-.9v-.2c-.1 0-.1-.1-.1-.2.1 0 .1.1.1.2.1.1.4.1.5 0 0-.2-.3-.2-.4-.3.5-.3 1 1 1-.1.1.2.6.6.4.7-.3-.1-1.1-.2-1.5-.1 0 .1-.1.1-.2.1.1 0 .1 0 .2-.1zm-5.5-.9c-.1-.1-.2-.1-.2-.2-.1-.1-.2-.3-.1-.4.3.2.1.3.1.4s.1.2.2.2zm-1-.1l.5.3-.2-.3.7.6c-.6.1-1-.3-1-.6zm-.3.1v-.3.3l-.8-.3.8.3zm-8.5-2.4c-.5.9.6.8.7 1.3.1-.3.5-.7-.3-.9.8-.2.3.7.9 0-.4 0-.7-.3-.8-.4l.4.1c-.1-.6-.7.2-.9-.1zm-4.4-.8l-.5-.1.5.1zm-13.2-2.6c0 .2-.8.5-.9 0 .5.1.8.2.9 0zm-5.6-1.3l.6.3c-.2.5-.5-.1-.8-.1-.1-.2.1 0 .2-.2zm-3.9-.8l-.2-.1.1.5.1-.4zm.2.7c-.2.2.2.4.3.4l-.3-.4zm-3.6-.3h.3l-.1-.5-.2.5zm.5-.4c0 .3-.1.7.5.7.1-.3-.1-.4.2-.7-.2-.1-.4 0-.5 0 .1.1.3 0 .3.2-.2 0-.4-.1-.5-.2 0-.1 0-.2-.1-.3 0 .1 0 .2.1.3zm2.1.1c.1 0 .2-.1.2-.1v.1c-.1.1-.1 0-.2 0s-.2 0-.3.1c-.1.3.2.5.3.7-.2-.1-.3-.4-.6-.3 0 .1 0 .1.1.2h-.4c-.3-.5.1-.5.5-.6 0-.1.1-.1.2-.2s.2 0 .2.1zm-2.6-1.3l.2.1c.1.1 0 .2 0 .3-.2 0-.5-.2-.2-.4zm11.3 2.4c-.1.1.1.4.4.4l-.2.4c.1-.3-.5-.4-.6-.4-.1-.4.1-.2.4-.4zm13 2.8c0 .5.8.4.9.6-.4 0-1.2-.1-.9-.6zm1.3.1c.2 0 .3 0 .2.3.1.1.3 0 .3.2-.4 0-.3-.4-.5-.5-.1 0-.1 0-.2-.1.1 0 .2 0 .2.1zm-7.6-1.7l-.2-.4-.4-.1.6.5zm-4.2-1.7c0 .2-.5.1-.6 0 0 .3.3.3.5.4 0 0 .1.1.2.1 0 0-.1-.1-.2-.1 0 0 .1-.2.1-.4h.2l-.3-.2.1.2zm-7.6-1.9c-.3.2-.3.1-.5 0 0-.2.3-.2.5 0zm10 2.2c-.5 0 .1.5-.2.6h.3c-.5.2-.2-.4-.5-.4h.2c.2-.2-.2-.3-.2-.5.1-.1.6.3.4.3zm-10.4-2.5c-.5.2-.3-.4-.6-.5.4-.2.2.3.6.5zm7.6 1l-.3-.3.3.3z"/>
      <path class="st12" d="M428.3 251.3h-.3c.1-.1.2-.1.3 0zM450 256.3c0-.1.1-.1.1-.1.1 0 0 .1-.1.1zM450.9 256.7s.1 0 0 0zM482.8 262.6c.1.4-.2 0-.4 0 .2 0 .3-.2.4 0zM481.7 261.7l.3.3c-.1 0-.2-.1-.3-.3zM482.6 262.1c-.3 0-.5 0-.6-.1.2 0 .3-.1.6.1zM478.3 261.1c.1.3.5.2.5.2-.9 0 .1.4.1.6-.4-.1-.3-.4-.6-.8zM477.3 260.8h.2-.2zM476.9 260.9c-.3-.1-.3-.4-.4-.6.4-.1.5.3.7.5-.1-.1-.3-.1-.3.1zM468 260.2c.1 0 .2.1.2.2l-.5-.1c-.1-.1.2-.1.3-.1zM466.4 259.2c-.4-.1-.3.3-.4.2l.1-.5.3.3zM467.2 256.8l.1.1c-.1 0-.1 0-.1-.1zM464.5 259.3l.1.6c-.2-.3-.1-.7-.1-.6zM463 259.3l.2.2-.6-.3zM461.3 258.7v.1l-.5-.3zM442.7 254.2c0-.5.7-.1 1-.2-.3.5-.6-.3-1 .2zM429 251.2l.7.3c-.6 0-.2-.1-.7-.3z"/>
    </g>
    <g>
      <animate accumulate="none" additive="replace" attributeName="opacity" attributeType="XML" begin="0.5s" calcMode="linear" dur="1s" fill="remove" from=".5" keyTimes="0;0.5;1" repeatCount="indefinite" restart="always" to="1"/>
      <path class="st13" d="M416.2 211.7s0 .1-.1.2-.1.2-.1.3c-.1.3-.2.6-.3 1 0 .1-.1.1-.1.2h-.2v-.4s0-.1.1-.4c.1-.3.2-.5.3-.7 0-.1.1-.2.2-.4l.1-.1.1.3zm1.5 2l-.1.1s-.1 0-.2-.1l-.5-.2c-.2-.1-.3-.1-.4-.2-.1 0-.1-.1-.2-.1-.1-.1-.2-.1-.2-.1-.1-.1-.1-.2-.1-.2 0-.1.1-.1.1-.1h.6c.1 0 .3-.1.5-.3s.4-.3.4-.4c0-.2 0-.3-.1-.4-.1 0-.2-.1-.4-.1h-.4s-.2 0-.4.1c0 0-.1.1-.2.1v-.1c0-.1.1-.2.3-.2.1 0 .2-.1.4-.1h.5c.2 0 .4.1.5.2 0 0 .1.1.1.2v.2c0 .2-.2.3-.4.5l-.6.3s-.1 0-.2.1h-.4s.1.1.2.1.2.1.2.1.1.1.2.1c0 0 .3.2.8.5zM419.1 214.2h-.1l-.5-.1c-.1 0-.2-.1-.4-.1-.2-.1-.3-.2-.3-.2v-.2c0-.1.1-.2.3-.3h.4c.1 0 .2.1.3.1.1.1.1.2.1.2 0 .1-.1.1-.3.1h-.3l.1.1c.1 0 .1.1.2.1l.4.1c-.1.1-.1.1.1.2zm-.5-.7c0-.1-.1-.1-.2-.1h-.2c-.1 0-.2.1-.2.1v.1h.4c.1 0 .2 0 .2-.1zM420.9 213.7c-.1 0-.2 0-.3.1 0 0-.1.1-.2.1-.5.3-.8.5-.9.5 0 0-.1-.1-.1-.2s-.1-.2-.1-.2v-.2c0-.1 0-.2-.1-.2v-.1h.1s.1.1.1.4c.1.2.1.4.1.4l.4-.2.4-.2c.1-.1.3-.1.4-.2h.2zM422.2 214.9h-.1l-.5-.1c-.1 0-.2-.1-.4-.1-.2-.1-.3-.2-.3-.2v-.2c0-.1.1-.2.2-.3h.4c.1 0 .2.1.3.1.1.1.1.2.1.2 0 .1-.1.1-.3.1h-.3l.1.1c.1 0 .1.1.2.1l.4.1c-.1 0 0 0 .2.2-.1-.1-.1-.1 0 0zm-.5-.7c0-.1-.1-.1-.2-.1h-.2c-.1 0-.2.1-.2.1v.1h.4c.1-.1.2-.1.2-.1zM423.6 214.5s0 .1-.1.3-.1.3-.2.5c0 0-.1-.1-.1-.2v-.2s0-.1.1-.2.1-.2.1-.2v-.1h-.3c-.1 0-.2.1-.3.1-.1 0-.2.1-.4.2l-.1.1h-.1v-.1s.1-.1.3-.2c.2-.1.3-.2.5-.2.2-.1.4-.1.5-.1.1.1.1.2.1.3 0-.1 0 0 0 0zM425.3 214.8s-.1.1-.3.2c-.2.1-.3.2-.3.2s-.1 0-.2.1h-.4c-.1 0-.2-.1-.2-.2v-.3s.1-.2.1-.3l.1.1c0 .1 0 .1-.1.2 0 .2 0 .4.1.4s.3 0 .6-.2c0 .1.2-.1.6-.2-.1 0 0 0 0 0zM426.5 215.8h-.1l-.5-.1c-.1 0-.2-.1-.4-.1-.2-.1-.3-.2-.3-.2v-.2c0-.1.1-.2.2-.3h.4c.1 0 .2.1.3.1.1.1.1.2.1.2 0 .1-.1.1-.3.1h-.3l.1.1c.1 0 .1.1.2.1l.4.1c0 .1 0 .1.2.2-.1 0 0 0 0 0zm-.5-.7c0-.1-.1-.1-.2-.1h-.2c-.1 0-.2.1-.2.1v.1h.4c.1 0 .2 0 .2-.1z"/>
    </g>
    <g>
      <path class="st13" d="M479.3 271.8l-1.5-.2h-.4s-.1.1-.1.3c-.1.2-.2.4-.2.7 0 .1-.1.2-.2.5 0 .1 0 .1-.1.2l-.1.1h-.1c0-.1.1-.2.2-.4.1-.3.2-.5.2-.7l.3-.6h-.1c-.3-.1-.6-.1-.9-.2h-.2l-.1-.1v-.1h.6c.1 0 .4 0 .7.1.3 0 .6.1.9.2l.5.1h.4c.1-.1.2 0 .2.1zM478.5 273.4c0 .1-.1.2-.1.3h-.1v-.2c.1-.3.2-.5.3-.5v.1s-.1.1-.1.3zm.3-1l-.1.1-.1-.1c0-.1.1-.1.1-.1s.1 0 .1.1zM480.9 273.7s0 .1-.1.3c0 .1-.1.2-.1.3h-.1c-.1-.1-.1-.2 0-.3v-.1-.1-.1s-.2 0-.5.1l-.5.2s-.1 0-.1-.1v-.1-.1-.2s-.3.1-.7.4h-.1v-.1s.1-.1.2-.1c0 0 .1-.1.4-.2.2-.1.3-.1.4-.1s.1.1.1.3v.2h.1s.2-.1.5-.2c0 0 .1 0 .1-.1h.4c0-.2.1-.1 0 .1zM482.3 274.4h-.1l-.5-.1c-.1 0-.2-.1-.4-.1-.2-.1-.3-.2-.3-.2v-.2c0-.1.1-.2.3-.3h.4c.1 0 .2.1.3.1.1.1.1.2.1.2 0 .1-.1.1-.3.1h-.3l.1.1c.1 0 .1.1.2.1l.4.1c-.1.1 0 .1.1.2zm-.4-.6c0-.1-.1-.1-.2-.1h-.2c-.1 0-.2.1-.2.1v.1h.4c.1-.1.1-.1.2-.1z"/>
    </g>
  </g>
  <g>
    <path class="st8" d="M154 303.6l-4.7 2.6-2.5-4.4-2.3 1.2 2.5 4.5-4.4 2.5 1.3 2.2 4.4-2.5 2.6 4.7 2.3-1.3-2.7-4.6 4.7-2.7z">
      <animateTransform accumulate="none" additive="replace" attributeName="transform" attributeType="XML" calcMode="linear" dur="5s" fill="remove" from="0 148 308" repeatCount="indefinite" restart="always" to="-360 148 308" type="rotate"/>
    </path>
    <path class="st8" d="M447.1 361l1.7 5.1-4.8 1.5.7 2.5 4.9-1.6 1.6 4.8 2.4-.8-1.6-4.8 5.1-1.7-.8-2.4-5.1 1.7-1.6-5.1z">
      <animateTransform accumulate="none" additive="replace" attributeName="transform" attributeType="XML" calcMode="linear" dur="2s" fill="remove" from="0 450 366" repeatCount="indefinite" restart="always" to="360 450 366" type="rotate"/>
    </path>
    <path class="st8" d="M349.5 45.2l1.7 5.1-4.8 1.6.8 2.4 4.8-1.6 1.6 4.9 2.4-.8-1.6-4.9 5.1-1.6-.8-2.5-5.1 1.7-1.6-5.1z">
      <animateTransform accumulate="none" additive="replace" attributeName="transform" attributeType="XML" calcMode="linear" dur="5s" fill="remove" from="0 352 50" repeatCount="indefinite" restart="always" to="360 352 50" type="rotate"/>
    </path>
    <path class="st8" d="M15.8 303.7L15 308l-4-.8-.3 2 4 .8-.8 4 2.1.3.7-4 4.2.8.4-2-4.3-.8.8-4.2z">
      <animateTransform accumulate="none" additive="replace" attributeName="transform" attributeType="XML" calcMode="linear" dur="10s" fill="remove" from="0 15 308" repeatCount="indefinite" restart="always" to="-360 15 308" type="rotate"/>
    </path>
    <path class="st8" d="M326.1 148.9l-4.7 2.6-2.5-4.4-2.2 1.2 2.5 4.5-4.4 2.5 1.2 2.2 4.5-2.5 2.6 4.7 2.2-1.3-2.6-4.6 4.7-2.7z">
      <animateTransform accumulate="none" additive="replace" attributeName="transform" attributeType="XML" calcMode="linear" dur="5s" fill="remove" from="0 321 153" repeatCount="indefinite" restart="always" to="-360 321 153" type="rotate"/>
    </path>
    <path class="st1" d="M499.9 311.6c.7-1.7 1.1-3.6 1.1-5.5h-2.4c0-1.6-.3-3.2-.9-4.6l2.1-.9c-.7-1.7-1.8-3.3-3.1-4.6l-1.6 1.6c-1.1-1.1-2.4-2-3.9-2.6l.9-2c-1.7-.7-3.5-1-5.4-1v2.2c-1.6 0-3.2.3-4.6.9l-.9-2.1c-1.7.7-3.3 1.8-4.6 3.1l1.6 1.6c-1.1 1.1-2 2.4-2.6 3.9l-2.9-.9c-.7 1.7-1.8 3.5-1.8 5.4h3.2c0 1.6.7 3.2 1.2 4.6l-2 .9c.7 1.7 1.8 3.3 3.2 4.6l1.7-1.6c1.1 1.1 2.4 2 3.9 2.6l-.9 2.3c1.7.7 3.6 1.2 5.4 1.2h-.6v-2.6c.8 0 3.5-.3 4.8-.9l1.1 2.1c1.7-.7 3.4-1.8 4.7-3.1l-1.6-1.6c1.1-1.1 2-2.4 2.6-3.9l2.3.9zM486.7 300c3.4 0 6.2 2.8 6.2 6.2 0 3.4-2.8 6.2-6.2 6.2-3.4 0-6.2-2.8-6.2-6.2s2.8-6.2 6.2-6.2z">
      <animateTransform accumulate="none" additive="replace" attributeName="transform" attributeType="XML" calcMode="linear" dur="5s" fill="remove" from="0 485 306" repeatCount="indefinite" restart="always" to="-360 485 306" type="rotate"/>
    </path>
    <path class="st1" d="M79.9 315.4c1-2.5 1.6-5.1 1.6-7.8h-3.4c0-2.3-.5-4.5-1.3-6.5l3-1.3c-1-2.5-2.5-4.7-4.4-6.6l-2.3 2.3c-1.6-1.6-3.5-2.8-5.5-3.7l1.3-3c-2.4-1-5-1.5-7.7-1.5v3.3c-2.3 0-4.5.4-6.5 1.3l-1.3-3c-2.5 1-4.7 2.5-6.6 4.4l2.3 2.3c-1.6 1.6-2.8 3.5-3.7 5.6l-3.4-1.3c-1 2.5-1.9 5-1.9 7.7h3.8c0 2.3.6 4.5 1.4 6.5l-3 1.3c1 2.5 2.5 4.7 4.4 6.6l2.3-2.3c1.6 1.6 3.5 2.8 5.6 3.7l-1.3 3.4c2.5 1 5.1 1.9 7.7 1.9h-.4v-4c1.6 0 4.6-.5 6.6-1.3l1.4 3c2.5-1 4.8-2.5 6.6-4.4l-2.3-2.3c1.6-1.6 2.9-3.4 3.7-5.5l3.3 1.2zm-18.7-20c6.7 0 12.2 5.5 12.2 12.2s-5.5 12.2-12.2 12.2S49 314.3 49 307.6s5.4-12.2 12.2-12.2z">
      <animateTransform accumulate="none" additive="replace" attributeName="transform" attributeType="XML" calcMode="linear" dur="10s" fill="remove" from="0 61.1 308" repeatCount="indefinite" restart="always" to="360 61.1 308" type="rotate"/>
    </path>
  </g>
</svg>
