<?xml version="1.0" encoding="utf-8"?>
<!-- Generator: Adobe Illustrator 21.0.0, SVG Export Plug-In . SVG Version: 6.00 Build 0)  -->
<svg version="1.1" id="Layer_1" xmlns="http://www.w3.org/2000/svg" xmlns:xlink="http://www.w3.org/1999/xlink" x="0px" y="0px"
	 viewBox="0 0 382.8 78.2" style="enable-background:new 0 0 382.8 78.2;" xml:space="preserve">
<style type="text/css">
	.st0{fill:#010101;}
</style>
	<path class="st0" d="M392.9,54.3l-48-36c-4.1-3-16.9-3-21,0l-37.7,27.9l-37.6-28.1c-4.2-2.8-16.9-2.7-21.1,0.2l-37.6,28l-37.6-28
	c-2.1-1.9-6.3-2.5-10.6-2.6c-4.2,0.1-8.6,0.8-10.6,2.5l-37.3,28l-37.4-28c-4.5-3-17.1-3-21.2,0L-4.7,48.1l-38.4-28.8
	c-4.1-3-16.9-3-21,0l-37.7,27.9l-37.6-28.1c-4.2-2.8-16.9-2.7-21.1,0.2l-37.6,28l-37.6-28c-2.1-1.9-6.3-2.5-10.6-2.6
	c-4.2,0.1-8.6,0.8-10.6,2.5l-37.3,28l-37.4-28c-4.5-3-17.1-3-21.2,0L-401,55.4c-3.1,2.1-0.9,5.1,4.8,6.5c1.8,0.2,3.7,0.4,5.9,0.4
	c4.2-0.1,8.2-0.9,10.5-2.5l37.4-27.8l37.5,27.8c2.1,1.5,6.4,2.4,10.7,2.6c4.4-0.1,8.3-1.2,10.4-2.7l37.7-27.8l37.5,27.8
	c4.2,3,16.7,3,20.8,0.1l37.7-27.9l37.7,28c4.1,2.7,16.7,2.7,21.2-0.2L-53.7,32L-16,59.7c3,2.5,10.7,3.1,16.3,2c1.2-0.3,2.2-0.6,3-1
	c1.9-0.4,3.6-1,4.9-1.9L45.6,31l37.5,27.8c2.1,1.5,6.4,2.4,10.7,2.6c4.4-0.1,8.3-1.2,10.4-2.7l37.7-27.8l37.5,27.8
	c4.2,3,16.7,3,20.8,0.1l37.7-27.9l37.7,28c4.1,2.7,16.7,2.7,21.2-0.2L334.3,31L372,58.7c3,2.5,10.7,3.1,16.3,2
	C394,59.3,396.2,56.5,392.9,54.3z">
		
		<animate  accumulate="none" additive="replace" attributeName="d" attributeType="XML"  calcMode="linear" dur="4s" fill="remove" from="M392.9,54.3l-48-36c-4.1-3-16.9-3-21,0l-37.7,27.9l-37.6-28.1c-4.2-2.8-16.9-2.7-21.1,0.2l-37.6,28l-37.6-28
	c-2.1-1.9-6.3-2.5-10.6-2.6c-4.2,0.1-8.6,0.8-10.6,2.5l-37.3,28l-37.4-28c-4.5-3-17.1-3-21.2,0L-4.7,48.1l-38.4-28.8
	c-4.1-3-16.9-3-21,0l-37.7,27.9l-37.6-28.1c-4.2-2.8-16.9-2.7-21.1,0.2l-37.6,28l-37.6-28c-2.1-1.9-6.3-2.5-10.6-2.6
	c-4.2,0.1-8.6,0.8-10.6,2.5l-37.3,28l-37.4-28c-4.5-3-17.1-3-21.2,0L-401,55.4c-3.1,2.1-0.9,5.1,4.8,6.5c1.8,0.2,3.7,0.4,5.9,0.4
	c4.2-0.1,8.2-0.9,10.5-2.5l37.4-27.8l37.5,27.8c2.1,1.5,6.4,2.4,10.7,2.6c4.4-0.1,8.3-1.2,10.4-2.7l37.7-27.8l37.5,27.8
	c4.2,3,16.7,3,20.8,0.1l37.7-27.9l37.7,28c4.1,2.7,16.7,2.7,21.2-0.2L-53.7,32L-16,59.7c3,2.5,10.7,3.1,16.3,2c1.2-0.3,2.2-0.6,3-1
	c1.9-0.4,3.6-1,4.9-1.9L45.6,31l37.5,27.8c2.1,1.5,6.4,2.4,10.7,2.6c4.4-0.1,8.3-1.2,10.4-2.7l37.7-27.8l37.5,27.8
	c4.2,3,16.7,3,20.8,0.1l37.7-27.9l37.7,28c4.1,2.7,16.7,2.7,21.2-0.2L334.3,31L372,58.7c3,2.5,10.7,3.1,16.3,2
	C394,59.3,396.2,56.5,392.9,54.3z" repeatCount="indefinite" restart="always" to="M780.9,54.3l-48-36c-4.1-3-16.9-3-21,0l-37.7,27.9l-37.6-28.1c-4.2-2.8-16.9-2.7-21.1,0.2l-37.6,28l-37.6-28
	c-2.1-1.9-6.3-2.5-10.6-2.6c-4.2,0.1-8.6,0.8-10.6,2.5l-37.3,28l-37.4-28c-4.5-3-17.1-3-21.2,0l-39.9,29.9l-38.4-28.8
	c-4.1-3-16.9-3-21,0l-37.7,27.9l-37.6-28.1c-4.2-2.8-16.9-2.7-21.1,0.2l-37.6,28l-37.6-28c-2.1-1.9-6.3-2.5-10.6-2.6
	c-4.2,0.1-8.6,0.8-10.6,2.5l-37.3,28l-37.4-28c-4.5-3-17.1-3-21.2,0L-13,55.4c-3.1,2.1-0.9,5.1,4.8,6.5c1.8,0.2,3.7,0.4,5.9,0.4
	c4.2-0.1,8.2-0.9,10.5-2.5L45.6,32l37.5,27.8c2.1,1.5,6.4,2.4,10.7,2.6c4.4-0.1,8.3-1.2,10.4-2.7l37.7-27.8l37.5,27.8
	c4.2,3,16.7,3,20.8,0.1l37.7-27.9l37.7,28c4.1,2.7,16.7,2.7,21.2-0.2L334.3,32L372,59.7c3,2.5,10.7,3.1,16.3,2c1.2-0.3,2.2-0.6,3-1
	c1.9-0.4,3.6-1,4.9-1.9L433.6,31l37.5,27.8c2.1,1.5,6.4,2.4,10.7,2.6c4.4-0.1,8.3-1.2,10.4-2.7l37.7-27.8l37.5,27.8
	c4.2,3,16.7,3,20.8,0.1l37.7-27.9l37.7,28c4.1,2.7,16.7,2.7,21.2-0.2L722.3,31L760,58.7c3,2.5,10.7,3.1,16.3,2
	C782,59.3,784.2,56.5,780.9,54.3z">
						</animate>
	</path>
</svg>
