<svg id="Layer_1" xmlns="http://www.w3.org/2000/svg" xmlns:xlink="http://www.w3.org/1999/xlink" viewBox="0 0 399 512">
  <style>
    .st0{clip-path:url(#SVGID_2_);} .st1{fill:none;stroke:#FFFFFF;stroke-width:2;stroke-linecap:round;stroke-linejoin:round;stroke-miterlimit:10;} .st2{fill:none;stroke:#FFFFFF;stroke-width:2;stroke-miterlimit:10;} .st3{clip-path:url(#SVGID_5_);} .st4{fill:none;stroke:#FFFFFF;stroke-width:2;stroke-linecap:round;stroke-miterlimit:10;} .st5{fill:none;stroke:#FFFFFF;stroke-width:2;stroke-linejoin:round;stroke-miterlimit:10;} .st6{clip-path:url(#SVGID_7_);} .st7{clip-path:url(#SVGID_9_);} .st8{fill:#FFFFFF;stroke:#FFFFFF;stroke-miterlimit:10;} .st9{fill:#FFFFFF;} .st10{fill:none;stroke:#FFFFFF;stroke-linecap:round;stroke-linejoin:round;stroke-miterlimit:10;} .st11{fill:none;stroke:#FFFFFF;stroke-width:0.75;stroke-linecap:round;stroke-linejoin:round;stroke-miterlimit:10;}
  </style>
  <defs>
    <ellipse id="SVGID_1_" transform="rotate(-6.01 360.61 115.38)" cx="360.6" cy="115.4" rx="30.2" ry="30.2"/>
  </defs>
  <clipPath id="SVGID_2_">
    <use xlink:href="#SVGID_1_" overflow="visible"/>
  </clipPath>
  <g class="st0">
    <animate accumulate="none" additive="replace" attributeName="opacity" attributeType="XML" calcMode="linear" dur="5s" fill="remove" from=".5" repeatCount="indefinite" restart="always" to="1"/>
    <path class="st1" d="M356.1 129.9c-.3.6 0 1.9-.6 2.5-.7.8-1.9 1.1-1.9 2.5 0 .3-.2.5-.5.6-.8 1.4-1.6 2.6-1.6 4.3.5 1.3 1.6 2.5 1.9 3.9.1.5 0 .9-.2 1.2v.1c-.1.2-.4.3-.7.3-.2 0-.5 0-.8-.1-.2-.1-.3-.3-.3-.5-3-1.2-5.1-3.9-5.3-7.3-.1-1.9.6-4.2-1.3-5.6-.5-.4-1.3-.8-1.5-1.4-.7-1.6 0-2.5.4-3.9-.5-1-2.8-1.9-3.5-3.1-.8-1.4-1.6-2-1.9-3.6-.3-2-3.4-1.9-4.7-3.1-.8-.7-2.1-1.8-2.5-2.9-.6-2-.8-4.4-.8-6.5 0-2.2-1-4-1.3-6.1-.2-1.5 0-5.2 1.5-6 .3-.2.5-.1.7.1 1.5-1.7 3.7-2.9 4.4-5.1.8-2.5 2.9-4.3 5.1-5.8 2-1.4 6.2-3.2 7.4-1.1.2 0 .3.1.5.2.3.3.5.7.7 1.2.5.6.7 1.4.8 2.4.7 1.4 1.1 2.9.1 4.3-.4.5-.8.9-1.2 1.1-.6.7-1.5.9-2.6 1l-2.4.9c-.3.1-.7.1-1 .2-.3.6-.3 1.2 0 1.8.2.9.7 2.2 0 3-.8.9-1.5 1-2.7 1.1-.8 1.2-.4 1.9 1 2.2l1.2.3c.8-.2 1.5-.6 2.2-1.2.8-.7 1.9-1.9 3-2 2.9-.2 3.6 2.5 2.8 4.8-.7 2.2 0 4.3 1.1 6.3.8 1.5 1.8 2.3 2 4 .3 2.2-3.6 2.9-4.9 2.9-1 0-5.8-2.2-5.3.9.2 1.3-.1 2.2-.8 3.3 0 .2-.1.4-.1.6-.3 1 1.8.8 2.4.7.8-.1 1.5-.4 2.2-.4.4-.2.8-.2 1.1-.1l1.2.6c1.7.5 3.2.7 3.6 2.3.4.3.8.6 1.3.8 1 .7 2.5 2 1.8 3.4zM383.5 123.6c0 .1-.1.3-.1.5-.2.3-.7.5-1 .2-.8-.8-1.9-1.2-3.1-1.1-1.3.1-.3 1 0 1.6.4 1 .2 1.9-.6 2.5-.9.8-2 .9-3.1.5-.4-.2-.7-.5-.9-1-.4 2.2.1 7.8-.4 9.9-.4 1.6-.9 3-2.4 3.6-1.3.6-3.2-4.4-3.6-5.3-.4-.9 0-2.1.1-3 .5-2.9-2-2.3-4.2-3-2.3-.7-3.6-6.2-1.1-7.9 1.8-1.3 3.2-.6 5.2-.4s4.3.2 6-1.1c.8-.6 1.5-1.2 2.2-1.9.9-1.3.9-2.6.2-3.7h-.1c-.3 0-.5-.1-.7-.2-.4.6-1 2.3-1.9 2.1-.3-.1-.8 0-1.1-.1l-.2-.2c.2 1.1.5 2.2-.8 2.8-1.3.6-1.3-3.2-2.5-1.5l-.2.2c-.4.8-1.1 2.6-2.1 2.4s-2.5-.7-3.3-1.4c-.8-.7-.3-1.5.2-2.1.3-.3.8-.4 1.2-.5 1.2-2.1 1.3-2.7.3-1.8-.1.1-.2.1-.3.1-2.9.1-3.1-3.2-2.9-5.5 0-.5.7-1.1 1.3-1 .9.2 1.5.7 2.3 1.1 4.5 2 5.4-4.1 4.7-6.7v-.2c-.4-1.2-1-2.4-.9.2 0 1 .1 2.3-.7 3-2 1.7-3.8.8-4.5-1.5-.5-1.6.1-3.2.5-4.7.5-1.9-.4-3.6-.2-5.5.1-1.1 1.5-2.2 2.3-2.9 1.9-1.6 3.3-3.8 4.2-6 .2-.4.6-.4.9-.2.2 0 .4.1.5.2 2 .9 4 1.9 5.7 3.3 1.5 1.3 3.9 1.4 5.1 3.1 1.3 1.7 2.7 3.3 3.8 5.1 1.2 1.9 1.5 4.2 2 6.4 1.2 6.6.9 17.7-5.8 21.6z"/>
  </g>
  <ellipse id="XMLID_4_" transform="rotate(-6.01 360.61 115.38)" class="st1" cx="360.6" cy="115.4" rx="30.2" ry="30.2"/>
  <path class="st2" d="M34.5 343.5l-14.2 6.1 3.6 2.7-7.8 10.5 2.4 1.8 2.6 1.9 7.6-10.7 3.7 2.7zM327.5 83.7L339 71.2l-4.8-1 3.1-14-3.1-.7-3.4-.7-2.9 14-4.9-1z"/>
  <path class="st1" d="M227 305.9l-8.6-23.9c-.8-2.3-3.2-3.5-5.4-2.7l-32.7 11.8c-1.1.4-1.9 1.2-2.4 2.3.3-.2.6-.4.9-.5l8.3-3 .4 1.1 25.2-9.1c2-.7 4.1.5 4.9 2.6l7.7 21.4c.3.9.3 1.7 0 2.5.2 1.1-.1 2.2-.9 3 2.2-.8 3.4-3.3 2.6-5.5z"/>
  <path class="st1" d="M213.6 286.1c1.7-.6 3.8.2 4.4 1.9l7.2 19.9c0 .1.1.2.1.4.3-.8.3-1.6 0-2.5l-7.7-21.4c-.7-2-2.9-3.3-4.9-2.6l-25.2 9.1 1.5 4.1 24.6-8.9z"/>
  <path class="st1" d="M225.3 308.3c0-.1-.1-.2-.1-.4L218 288c-.6-1.7-2.7-2.6-4.4-1.9l-24.7 8.9-1.5-4.1-.4-1.1-8.3 3c-.3.1-.6.3-.9.5-1.1.8-1.6 2.3-1.1 3.7l9 25.1c.6 1.7 2.5 2.6 4.3 2l33-11.9c.5-.2 1-.5 1.4-.9.8-.7 1.2-1.9.9-3zM70.3 148.2l-1.4-14.3c-.1-1.4-1.3-2.4-2.6-2.2l-19.6 1.9c-.7.1-1.2.4-1.6.9.2-.1.4-.1.6-.1l5-.5.1.7 15.1-1.5c1.2-.1 2.2.9 2.3 2.1l1.3 12.8c.1.5-.1 1-.3 1.4 0 .6-.4 1.2-.9 1.5 1.2-.2 2.2-1.4 2-2.7z"/>
  <path class="st1" d="M65.8 135.5c1-.1 2.1.6 2.2 1.7l1.2 11.9v.2c.3-.4.4-.9.3-1.4l-1.3-12.8c-.1-1.2-1.2-2.2-2.3-2.1l-15.1 1.5.2 2.4 14.8-1.4z"/>
  <path class="st1" d="M69.1 149.3v-.2l-1.2-11.9c-.1-1-1.1-1.8-2.2-1.7L51 136.9l-.2-2.4-.1-.7-5 .5c-.2 0-.4.1-.6.1-.7.3-1.2 1-1.1 1.9l1.5 15.1c.1 1 1 1.8 2.1 1.7l19.8-1.9c.3 0 .6-.1.9-.3.4-.4.8-1 .8-1.6zM369.8 311.3c-.6-1.7-14.1-14.3-19.5-19.3.2-.2.3-.4.5-.7.4-.7.2-1.7-.3-2.2l-.6-.6c.7-1 1.2-2.2 1.6-3.3 1.8-5.5.5-11.5-3.4-15.7-2.9-3.1-6.8-4.9-11-5s-8.2 1.4-11.3 4.2c-1.9 1.8-3.4 4-4.2 6.5-1.8 5.5-.5 11.5 3.4 15.7 2.9 3.1 6.8 4.9 11 5 2.8.1 5.4-.5 7.8-1.8l.6.7c.5.5 1.5.8 2.2.5.2-.1.4-.3.7-.4 4.7 5.7 16.3 20 18 20.8s3.4-.9 3.4-.9 1.8-1.8 1.1-3.5zM337 267.7c3.3.1 6.3 1.5 8.6 3.9 3.1 3.3 4.1 8 2.7 12.3-.6 1.9-1.8 3.7-3.3 5.1-5 4.6-12.8 4.4-17.4-.6-3.1-3.3-4.1-8-2.7-12.3.6-1.9 1.8-3.7 3.3-5.1 2.4-2.2 5.5-3.4 8.8-3.3z"/>
  <path id="XMLID_2_" class="st2" d="M237.1 120.1c-16.8 4.8-26.7 21.7-21.8 39.1l60.9-17.4c-5-17.3-22.3-26.5-39.1-21.7zM222.7 148c.8-9.3 7.2-17 16.7-19.8 9.5-2.7 18.9.5 24.6 8L222.7 148z"/>
  <defs>
    <path id="SVGID_4_" d="M237.1 120.1c-16.8 4.8-26.7 21.7-21.8 39.1l60.9-17.4c-5-17.3-22.3-26.5-39.1-21.7zM222.7 148c.8-9.3 7.2-17 16.7-19.8 9.5-2.7 18.9.5 24.6 8L222.7 148z"/>
  </defs>
  <clipPath id="SVGID_5_">
    <use xlink:href="#SVGID_4_" overflow="visible"/>
  </clipPath>
  <g class="st3">
    <animate accumulate="none" additive="replace" attributeName="opacity" attributeType="XML" begin="0.5s" calcMode="linear" dur="5s" fill="remove" from=".5" repeatCount="indefinite" restart="always" to="1"/>
    <path class="st4" d="M237.5 120.1l1.1 3.9M232.8 121.8l1.6 3.7M228.5 123.9l2.2 3.4M224.7 126.7l2.6 3.1M221.2 130l3.1 2.6M218.3 133.8l3.5 2.1M216 137.9l3.7 1.6M214.3 142.4l3.9 1M213.3 147l4 .5M213 151.7l4-.1M241.9 119.2l.5 4M246.6 118.8v4M251.4 119.1l-.7 4M256 120.1l-1.2 3.8M260.5 121.8l-1.8 3.6M264.6 124.1l-2.3 3.3M268.4 126.9l-2.8 3M271.7 130.3l-3.1 2.6M274.5 134.2l-3.5 2"/>
  </g>
  <use xlink:href="#SVGID_4_" overflow="visible" fill="none" stroke="#FFF" stroke-width="2" stroke-miterlimit="10"/>
  <path id="XMLID_1_" class="st2" d="M237.1 120.1c-16.8 4.8-26.7 21.7-21.8 39.1l60.9-17.4c-5-17.3-22.3-26.5-39.1-21.7zM222.7 148c.8-9.3 7.2-17 16.7-19.8 9.5-2.7 18.9.5 24.6 8L222.7 148z"/>
  <g>
    <animate accumulate="none" additive="replace" attributeName="opacity" attributeType="XML" calcMode="linear" dur="5s" fill="remove" from=".5" repeatCount="indefinite" restart="always" to="1"/>
    <path class="st4" d="M271.7 142.7l-1.1-3.8M266.1 144.3l-1.1-3.8M260.5 145.9l-1-3.8M254.9 147.5l-1-3.8M249.4 149.1l-1.1-3.8M243.8 150.7l-1.1-3.8M238.2 152.2l-1.1-3.7M232.6 153.8l-1.1-3.7M227 155.4l-1.1-3.7M221.4 157l-1-3.7"/>
  </g>
  <path class="st5" d="M332.3 358.9l4.2 1.4-.5 14.6 9.1-22.4 27.8 9.2M222.8 91.6L227 93l-.5 14.5 9.1-22.4 27.8 9.2"/>
  <path class="st1" d="M190.5 71.6h-14.2c-1.6 0-2.8 1.3-2.8 2.8v.7c0 1.6 1.3 2.8 2.8 2.8h1.1v39c0 3.3 2.7 5.9 6 5.9s6-2.6 6-5.9V78h1.1c1.6 0 2.8-1.3 2.8-2.8v-.7c0-1.6-1.3-2.9-2.8-2.9z"/>
  <path class="st2" d="M179.5 103.7v12.6c0 2.2 1.7 4 3.8 4s3.8-1.7 3.8-4v-12.6h-7.6zM184.3 94.6c-1.4 0-2.6.9-2.7 2.3-.1 1.3 1 2.7 2.3 2.7 1.4 0 2.6-.9 2.7-2.3.1-1.2-1-2.7-2.3-2.7zM185.2 87.6c-.8 0-1.4.5-1.5 1.3-.1.7.5 1.5 1.3 1.5s1.4-.5 1.5-1.3c0-.7-.6-1.5-1.3-1.5zM184.3 65c-1 0-1.8.6-1.9 1.6-.1.9.7 1.9 1.6 1.9 1 0 1.8-.6 1.9-1.6.1-.9-.7-1.9-1.6-1.9zM184.7 81.2c-.9 0-1.8.6-1.8 1.6-.1.9.6 1.8 1.6 1.8.9 0 1.8-.6 1.8-1.6.1-.8-.6-1.8-1.6-1.8zM181.5 74.6c-.9 0-1.8.6-1.8 1.6-.1.9.6 1.8 1.6 1.8.9 0 1.8-.6 1.8-1.6 0-.9-.7-1.8-1.6-1.8z"/>
  <defs>
    <path id="SVGID_6_" d="M324.3 426.7s7.3 1.6 6.7-11c-.4-9-6.3-24-30.5-26.1s-36.6 14-38.3 22.6c-1.7 8.6 2 16.1 18.9 14.5 0 0-3.1 4.1.6 7 3.8 2.9 13.3 0 13.3 0s10 3.6 12.5 7c2.5 3.3 2.5 10.5 4.6 14.4h4.2s-2.7-13.7-1.9-16.2c0 0 6.7-.8 10.4-4.1 5.7-4.8-.5-8.1-.5-8.1z"/>
  </defs>
  <clipPath id="SVGID_7_">
    <use xlink:href="#SVGID_6_" overflow="visible"/>
  </clipPath>
  <g class="st6">
    <animate accumulate="none" additive="replace" attributeName="opacity" attributeType="XML" begin="0.5s" calcMode="linear" dur="5s" fill="remove" from=".5" repeatCount="indefinite" restart="always" to="1"/>
    <path class="st2" d="M328.6 427.2s-11.3-1.4-20.4 2.4c-9.2 3.8-17.9 7.1-17.9 7.1M305.1 430.9s3.1 7.5 13.5 7.5M307.5 434.2s-5 4.2-11.1 3.3M278.6 428.4s4.6-4.2 10.4-5.4c5.8-1.3 17.4-5.6 18.5-9.7M273.6 427.7s-3.3-1.9-.4-7.9-4.6-5.3-4.6-5.3M287.3 430c5.4-4.9 19.1-3.5 25.4-8.8M274.3 417.9c5 1 6.8-2 4.7-6.3M288 422.7c-1.8-3.3-1.3-5.7 1.5-8.1M299 419.6c-.7-2.8-.1-5.9 2.1-7.9M318.6 422.9c1.3-5.4 6.8-6 8.3-10M309.5 422.5c-.9-2.4.1-4.7 2.5-6.3M323.6 416.7c-4.3-2-5-5.1-2.1-8.8M317 401.7c-5.8 8.6-10.9-2.3-16.3 2.5M310.7 404.2c.1-3.1-1.5-4.9-4.6-5M292.8 397.5c-3.7 2.6-.5 7-2.1 10.4M290.7 402.9c-3.2-1.7-5.7-1.1-6.7 2.5M275.2 392.1c5.3 7.1-6.2 9.1-4.2 15M274 400.8c2.8 1.1 4.4 3 3.8 5.8M260.6 406.7c3 .2 5.6 1.7 7.5 4.2M263.2 424.6c1.4-.9 2.5-2.2 2.9-3.8M282.8 398.7c2.6-4.7 10.5-5.8 9.2-12.5M292.8 397.9c2.6 1.5 5.4 1.9 7.5.4M292.8 397.5c4.8-2.4 8.2-7.2 5.8-12.1M298.2 414.6c-2.4-.6-3.4-2.6-2.9-5.4M323.6 410c1.4-4.5 5.5-5 5.4-9.6M317.4 392.5c-1.9 1.5-3.5 3.6-4.6 5.8M311.1 391.2c-2.4 1.5-5.3 1.7-7.1.4M311.5 415.4c-1.1-2.7-.2-4.8 2.5-5.8M312 416.3c1 .2 1.9 0 2.5-.6M288 422.7c-1.3-1-2.8-1.5-4.4-1.5"/>
  </g>
  <use xlink:href="#SVGID_6_" overflow="visible" fill="none" stroke="#FFF" stroke-width="2" stroke-miterlimit="10"/>
  <path class="st1" d="M307.3 49.3s4.5 2.7 6.9-5.9c1.6-6.1 1-17.4-14.7-24S272 20.8 269 26.2s-2.2 11.2 9.5 13.8c0 0-3 2.1-1.1 4.8 1.9 2.8 8.9 2.9 8.9 2.9s6.1 4.1 7 6.9-.6 7.4.1 10.2l2.8.9s1-9.3 2.1-10.8c0 0 4.6 1.2 7.8-.2 4.8-2.1 1.2-5.4 1.2-5.4z"/>
  <defs>
    <path id="SVGID_8_" d="M307.3 49.3s4.5 2.7 6.9-5.9c1.6-6.1 1-17.4-14.7-24S272 20.8 269 26.2s-2.2 11.2 9.5 13.8c0 0-3 2.1-1.1 4.8 1.9 2.8 8.9 2.9 8.9 2.9s5.9 4.5 6.9 7.3c.9 2.8-.7 7.8 0 10.5l2.8.9s1.1-9.6 2.2-11.1c0 0 4.6 1 7.8-.4 4.8-2.1 1.3-5.6 1.3-5.6z"/>
  </defs>
  <clipPath id="SVGID_9_">
    <use xlink:href="#SVGID_8_" overflow="visible"/>
  </clipPath>
  <g class="st7">
    <animate accumulate="none" additive="replace" attributeName="opacity" attributeType="XML" begin="0.5s" calcMode="linear" dur="5s" fill="remove" from=".5" repeatCount="indefinite" restart="always" to="1"/>
    <path class="st1" d="M310.1 50.5s-7.2-3.4-14.2-2.8c-6.9.5-13.5.8-13.5.8M293.6 47.9s.4 5.7 7.4 7.9M294.5 50.6s-4.2 1.7-8.1-.2M276.5 40.5s4-1.8 8.1-1.4c4.2.4 12.8 0 14.5-2.5M273.3 38.9s-1.8-2 1.4-5.4c3.3-3.4-1.9-4.5-1.9-4.5M282 43.5c4.6-2.1 13.5 1.8 18.9-.3M275.8 32.5c3.1 1.8 5 .1 4.5-3.2M284 38.7c-.5-2.6.4-4.1 2.7-5.1M292 39c.1-2 1.2-3.9 3.1-4.8M304.4 45.5c2-3.3 5.8-2.5 7.7-4.9M298.4 43.2c-.1-1.8 1.1-3.1 3-3.6M309.1 42.4c-2.4-2.3-2.2-4.5.5-6.3M307.9 30.9c-5.7 4.5-6.8-3.9-11.4-1.9M303.2 31.3c.8-2 .1-3.6-2-4.3M292.6 22.9c-3 1-1.8 4.6-3.7 6.5M290.1 26.1c-1.8-1.8-3.6-1.9-5 .2M282.1 15.5c2 5.9-6.1 4.7-6 9.1M279.4 21.1c1.6 1.3 2.3 2.9 1.2 4.7M269.2 22.1c2 .8 3.4 2.4 4.1 4.4M267 34.6c1.1-.3 2.2-1 2.8-1.9M285.7 21.6c2.8-2.6 8.2-1.6 8.8-6.4M292.5 23.2c1.4 1.6 3.2 2.4 4.9 1.9M292.6 22.9c3.7-.6 7.1-3 6.5-6.8M292.5 35.5c-1.5-.9-1.7-2.5-.8-4.3M310.5 38c1.9-2.7 4.8-2.2 5.7-5.2M310.2 24.9c-1.6.6-3.1 1.7-4.3 2.9M306.3 22.7c-1.9.5-3.9 0-4.8-1.3M301.3 39c-.1-2 .9-3.3 2.9-3.4M301.4 39.6c.6.4 1.3.4 1.8.1M284 38.7c-.6-.9-1.5-1.6-2.6-1.9"/>
  </g>
  <path id="SVGID_3_" class="st1" d="M307.3 49.3s4.5 2.7 6.9-5.9c1.6-6.1 1-17.4-14.7-24S272 20.8 269 26.2s-2.2 11.2 9.5 13.8c0 0-3 2.1-1.1 4.8 1.9 2.8 8.9 2.9 8.9 2.9s5.9 4.5 6.9 7.3c.9 2.8-.7 7.8 0 10.5l2.8.9s1.1-9.6 2.2-11.1c0 0 4.6 1 7.8-.4 4.8-2.1 1.3-5.6 1.3-5.6z"/>
  <path class="st1" d="M77.3 206.7l-3-1.1-17.9 50.9 32.3 11.4s-.1 3.7 3 4.8"/>
  <path class="st1" d="M91.4 272.7c3.1 1.1 5.3-1.9 5.3-1.9l31.5 11.1 17.9-50.9-3-1.1M93.2 266.8s-11-4.9-32.4-13.3c5.8-16.4 12.5-35.4 16.9-47.9 1.4.5 2.1.8 3.3 1.3"/>
  <path class="st1" d="M93.2 266.8s12.3 3.3 33.5 9.9c5.8-16.4 12.5-35.4 16.9-47.9-1.3-.5-2.6-.9-3.8-1.2"/>
  <path class="st1" d="M93.6 267.7s-6.8-6.9-28.3-15.3c5.8-16.4 12.5-35.4 16.9-47.9 21.7 7.7 27.3 18.1 27.3 18.1l-15.9 45.1zM93.6 267.7s8.9-1.4 30.1 5.3c5.8-16.4 12.5-35.4 16.9-47.9-20.2-7.1-31.1-2.4-31.1-2.4l-15.9 45z"/>
  <g>
    <animate accumulate="none" additive="replace" attributeName="opacity" attributeType="XML" calcMode="linear" dur="5s" fill="remove" from=".5" repeatCount="indefinite" restart="always" to="1"/>
    <path class="st1" d="M120 426.6l55.5 14.8c.7.2 1.1.9.9 1.6l-9.6 36c-.2.7-.9 1.1-1.6.9l-55.5-14.8c-.7-.2-1.1-.9-1-1.6l9.6-36c.2-.6 1-1 1.7-.9z"/>
    <path class="st1" d="M130.2 388.3l55.5 14.8c.7.2 1.1.9.9 1.6l-9.6 36c-.2.7-.9 1.1-1.6.9l-55.5-14.8c-.7-.2-1.1-.9-1-1.6l9.6-36c.3-.7 1-1.1 1.7-.9z"/>
    <path class="st1" d="M125.7127 422.4278l7.3617-27.636 46.769 12.458-7.3618 27.6362zM165.3 461.9c-.2.8-1.1 1.4-1.9 1.1l-43.7-11.6c-.8-.2-1.4-1.1-1.1-1.9l3.7-13.8c.2-.8 1.1-1.4 1.9-1.1l43.7 11.6c.8.2 1.3 1.1 1.1 1.9l-3.7 13.8zM148.3 470.5c-.2.8-1.1 1.3-1.9 1.1l-16.1-4.3c-.8-.2-1.3-1.1-1.1-1.9l1.4-5.4c.2-.8 1.1-1.4 1.9-1.1l16.1 4.3c.8.2 1.4 1.1 1.1 1.9l-1.4 5.4zM140.1 460.9l-2 7.7M132 398.8l46.8 12.5M131.6 403.6l6.1 1.7M137.7 405.3l-3.5 13M133.5 418.1l-6.2-1.6M121.2 439.4l46.8 12.5M119.8 444.8l46.7 12.5M128.8 435.7l-4.3 16.1M135.7 437.6l-4.3 16.1M142.6 439.4l-4.3 16.1M149.5 441.2l-4.3 16.1M156.4 443.1l-4.3 16.1M163.3 444.9L159 461"/>
  </g>
  <g>
    <path class="st1" d="M213.7 342.6h6.3v28.6h-6.3zM223.2 356.1h7.1v15.1h-7.1zM233.5 348.9h6.3v22.2h-6.3zM208.2 371.1H251M208.2 371.1v-42"/>
  </g>
  <g>
    <path class="st8" d="M292.3 278.8c1.3 0 2.4.4 3.1 1.2.8.8 1.1 1.8 1.1 3.2 0 1.3-.4 2.4-1.1 3.2-.8.8-1.8 1.2-3.1 1.2s-2.4-.4-3.1-1.2c-.8-.8-1.1-1.8-1.1-3.2 0-1.3.4-2.4 1.1-3.2.7-.8 1.7-1.2 3.1-1.2zm0 1.8c-.5 0-.9.2-1.2.7-.3.4-.4 1.1-.4 1.9s.1 1.4.4 1.9c.3.4.7.7 1.2.7s.9-.2 1.2-.7c.3-.4.4-1.1.4-1.9s-.1-1.4-.4-1.9c-.3-.5-.7-.7-1.2-.7zm2.1 14.7H292l9.9-16.5h2.4l-9.9 16.5zm9.8-8.7c1.3 0 2.4.4 3.1 1.1.8.8 1.1 1.8 1.1 3.2 0 1.3-.4 2.4-1.1 3.2-.8.8-1.8 1.2-3.1 1.2s-2.4-.4-3.1-1.2c-.8-.8-1.1-1.8-1.1-3.2 0-1.3.4-2.4 1.1-3.2.7-.7 1.8-1.1 3.1-1.1zm0 1.8c-.5 0-.9.2-1.2.7-.3.4-.4 1.1-.4 1.9s.1 1.4.4 1.9c.3.4.7.7 1.2.7s.9-.2 1.2-.7c.3-.4.4-1.1.4-1.9s-.1-1.4-.4-1.9c-.3-.4-.7-.7-1.2-.7z"/>
  </g>
  <g>
    <path class="st8" d="M260.2 58.1c1.3 0 2.4.4 3.1 1.2.8.8 1.1 1.8 1.1 3.2 0 1.3-.4 2.4-1.1 3.2-.8.8-1.8 1.2-3.1 1.2s-2.4-.4-3.1-1.2c-.8-.8-1.1-1.8-1.1-3.2 0-1.3.4-2.4 1.1-3.2.7-.8 1.7-1.2 3.1-1.2zm0 1.8c-.5 0-.9.2-1.2.7-.3.4-.4 1.1-.4 1.9s.1 1.4.4 1.9c.3.4.7.7 1.2.7s.9-.2 1.2-.7c.3-.4.4-1.1.4-1.9s-.1-1.4-.4-1.9c-.3-.5-.7-.7-1.2-.7zm2.1 14.7h-2.4l9.9-16.5h2.4l-9.9 16.5zm9.8-8.7c1.3 0 2.4.4 3.1 1.1.8.8 1.1 1.8 1.1 3.2 0 1.3-.4 2.4-1.1 3.2-.8.8-1.8 1.2-3.1 1.2s-2.4-.4-3.1-1.2c-.8-.8-1.1-1.8-1.1-3.2 0-1.3.4-2.4 1.1-3.2.7-.7 1.8-1.1 3.1-1.1zm0 1.8c-.5 0-.9.2-1.2.7-.3.4-.4 1.1-.4 1.9s.1 1.4.4 1.9c.3.4.7.7 1.2.7s.9-.2 1.2-.7c.3-.4.4-1.1.4-1.9s-.1-1.4-.4-1.9c-.3-.4-.7-.7-1.2-.7z"/>
  </g>
  <g>
    <animate accumulate="none" additive="replace" attributeName="opacity" attributeType="XML" begin="0.5s" calcMode="linear" dur="5s" fill="remove" from=".5" repeatCount="indefinite" restart="always" to="1"/>
    <path class="st8" d="M26 248.1c1.3.4 2.1 1.1 2.6 2.1s.5 2.1.1 3.4c-.4 1.3-1.1 2.2-2.1 2.6-1 .5-2.1.5-3.3.1-1.3-.4-2.1-1.1-2.6-2.1s-.5-2.1-.1-3.4c.4-1.3 1.1-2.2 2.1-2.6 1-.5 2.1-.5 3.3-.1zm-.5 1.7c-.5-.2-.9-.1-1.3.2s-.7.9-1 1.6c-.3.8-.3 1.4-.2 1.9.1.5.4.8.9 1s.9.1 1.3-.3c.4-.3.7-.9 1-1.7s.3-1.4.2-1.9c-.2-.3-.5-.6-.9-.8zm-2.7 14.6l-2.2-.8 14.7-12.4 2.2.8-14.7 12.4zm12.1-5c1.3.4 2.1 1.1 2.6 2.1s.5 2.1.1 3.4-1.1 2.2-2.1 2.6c-1 .5-2.1.5-3.3.1-1.3-.4-2.1-1.1-2.6-2.1s-.5-2.1-.1-3.4 1.1-2.1 2.1-2.6c.9-.5 2-.6 3.3-.1zm-.6 1.7c-.5-.2-.9-.1-1.3.2-.4.3-.7.9-1 1.6-.3.8-.3 1.4-.2 1.9.1.5.4.8.9 1s.9.1 1.3-.2c.4-.3.7-.9 1-1.7.3-.8.3-1.4.2-1.9-.1-.4-.4-.8-.9-.9z"/>
  </g>
  <g>
    <path class="st8" d="M44.3 193.9l-3.3 1.6-.2-.5c-.2-.5-.3-1-.3-1.5s.2-1.2.6-2.1l.3-.8c.2-.5.3-.9.3-1.3s0-.7-.2-1c-.2-.4-.5-.7-.9-.8s-.9 0-1.4.2-1 .6-1.5 1.1-.9 1.1-1.4 1.8l-1.4-2.9c.6-.6 1.2-1.1 1.8-1.5s1.1-.8 1.7-1c1.5-.7 2.8-.9 3.9-.7 1.1.2 1.9.9 2.4 2.1.3.6.4 1.2.4 1.8s-.2 1.3-.5 2.1l-.3.8c-.2.6-.4 1-.4 1.3s0 .6.2.8l.2.5zm-2.7 2.9l3.3-1.6 1.5 3.3-3.3 1.6-1.5-3.3z"/>
  </g>
  <g>
    <path class="st8" d="M389.5 303.7l-2 1.9-.3-.3c-.3-.3-.5-.6-.6-1-.1-.3-.1-.9-.1-1.6v-.7c0-.4 0-.7-.1-1s-.2-.5-.3-.6c-.2-.3-.5-.4-.8-.3-.3 0-.6.2-.9.5s-.6.7-.8 1.1c-.2.5-.4 1-.5 1.6l-1.7-1.7c.3-.6.6-1.1.9-1.5s.6-.8.9-1.1c.9-.9 1.7-1.3 2.6-1.4.8-.1 1.6.2 2.2.9.3.4.6.7.7 1.2.1.4.2 1 .2 1.6v1.6l.3.6.3.2zm-1.2 2.7l2-1.9 1.9 1.9-2 1.9-1.9-1.9z"/>
  </g>
  <g>
    <path class="st8" d="M113 44l-2 1.9-.3-.3c-.3-.3-.5-.6-.6-1-.1-.3-.1-.9-.1-1.6v-.7c0-.4 0-.7-.1-1s-.2-.5-.3-.6c-.2-.3-.5-.4-.8-.3-.3 0-.6.2-.9.5s-.6.7-.8 1.1c-.2.5-.4 1-.5 1.6l-1.7-1.7c.3-.6.6-1.1.9-1.5s.6-.8.9-1.1c.9-.9 1.7-1.3 2.6-1.4.8-.1 1.6.2 2.2.9.3.4.6.7.7 1.2.1.4.2 1 .2 1.6v1.6l.3.6.3.2zm-1.2 2.7l2-1.9 1.9 1.9-2 1.9-1.9-1.9z"/>
  </g>
  <g>
    <animate accumulate="none" additive="replace" attributeName="opacity" attributeType="XML" calcMode="linear" dur="5s" fill="remove" from=".5" repeatCount="indefinite" restart="always" to="1"/>
    <path class="st1" d="M223.3 405.5l7.3-15.2-6.4-3.1-7.3 15.2c-4.2-.3-8.9 2-10.9 6.2-2.6 5.5-.3 12.1 5.2 14.7s11.8.2 14.4-5.3c2.1-4.2 1.3-9-2.3-12.5z"/>
    <path class="st1" d="M210.1 408.1c-.4.5-.8 1.1-1.1 1.7-1.9 3.9-.2 8.6 3.7 10.5s8.6.2 10.5-3.7c.3-.6.5-1.3.6-1.9l-13.7-6.6z"/>
  </g>
  <g>
    <path class="st1" d="M237.2 39.2l-.6-16.8-7.1.3.6 16.8c-3.9 1.7-6.9 5.9-6.8 10.6.2 6.1 5.4 10.8 11.5 10.6s10.5-5.3 10.3-11.4c-.2-4.8-3.1-8.7-7.9-10.1z"/>
    <path class="st1" d="M226.7 47.6c-.1.6-.2 1.3-.2 2 .2 4.3 3.8 7.7 8.2 7.6 4.3-.2 7.7-3.8 7.6-8.2 0-.7-.1-1.3-.3-2l-15.3.6z"/>
  </g>
  <g>
    <path class="st1" d="M138.7 83.7c-7.6-2.9-8.6-8.1-5.7-14.7 3-6.9 5.1-14.2 5.1-14.2s6.4 9.1 8.2 13.6c2.1 5.5.4 12-7.6 15.3z"/>
    <path class="st1" d="M138.7 83.7s-3.4-3.5-1-8.5c1.1-2.3 2.4-4.7 1.8-8.1"/>
  </g>
  <g>
    <path class="st1" d="M286.3 116.2c4.7-7.1 10.2-7 16.2-2.6 6.4 4.6 13.3 8.3 13.3 8.3s-10.6 4.5-15.7 5.3c-5.8 1-12.1-2.1-13.8-11z"/>
    <path class="st1" d="M286.3 116.2s4.3-2.6 8.9.8c2.1 1.6 4.3 3.4 7.8 3.7"/>
  </g>
  <g>
    <animate accumulate="none" additive="replace" attributeName="opacity" attributeType="XML" begin="0.5s" calcMode="linear" dur="5s" fill="remove" from=".5" repeatCount="indefinite" restart="always" to="1"/>
    <path class="st1" d="M119.6 179.6H178M119.6 179.6v-57.3"/>
    <circle class="st1" cx="135.8" cy="146" r="5.7"/>
    <circle class="st1" cx="149.9" cy="162.3" r="5.7"/>
    <circle class="st1" cx="162.8" cy="136.3" r="5.7"/>
    <path class="st1" d="M119.6 152.6l10.5-4.1M139.9 150.1l6.4 7.6M154.2 157.2l6.4-15.7M167.4 139.7l11.4 8.2"/>
  </g>
  <g>
    <animate accumulate="none" additive="replace" attributeName="opacity" attributeType="XML" calcMode="linear" dur="5s" fill="remove" from=".5" repeatCount="indefinite" restart="always" to="1"/>
    <circle class="st1" cx="92" cy="171.5" r="15.3"/>
    <circle class="st1" cx="92" cy="171.5" r="11.3"/>
    <path class="st1" d="M92.5 171.6v-6.4M92.5 171.6h-8.7M82.1 184.1l-1.2 5.1 5.2-3M102.3 184.1l1.2 5.1-5.3-3M80 160.8c-1.4-2.5-.5-5.6 1.9-7 2.5-1.4 5.6-.5 7 1.9M103.6 160.8c1.4-2.5.5-5.6-1.9-7-2.5-1.4-5.6-.5-7 1.9"/>
    <path class="st1" d="M82.2 153.6c1-4.7 5.1-8.2 10.1-8.2s9.1 3.5 10.1 8.2"/>
  </g>
  <g>
    <path class="st1" d="M359.6 179.8c1.8-.1 3.7.4 5.2 1.7s2.3 3 2.5 4.9M348.8 171.8s10.7 11.6 15 17c4.4 5.5 9.3 13.1 7.4 15.7"/>
    <path class="st1" d="M377.1 196.1s-13.1-8.8-19.2-12.2c-6.1-3.5-14.4-7.1-16.7-4.9"/>
    <ellipse transform="rotate(-49.46 352.33 180.17)" class="st1" cx="352.3" cy="180.2" rx="7.1" ry="7.1"/>
    <ellipse transform="rotate(-49.47 368.57 194.2)" class="st1" cx="368.6" cy="194.2" rx="7.1" ry="7.1"/>
  </g>
  <g>
    <path class="st2" d="M133.2 303.1c-3.8 5.2-16.6-4.1-20.5 1.1s8.9 14.6 5.1 19.9c-3.9 5.2-16.6-4.1-20.5 1.1s8.9 14.6 5.1 19.9c-3.9 5.2-16.6-4.1-20.5 1.1"/>
    <path class="st2" d="M94.9 355.3c3.8-5.2-8.9-14.6-5.1-19.9 3.9-5.2 16.6 4.1 20.5-1.1s-8.9-14.6-5.1-19.9c3.9-5.2 16.6 4.1 20.5-1.1s-8.9-14.6-5.1-19.9"/>
  </g>
  <g>
    <path class="st2" d="M390 222.6c-2.6 3.6-11.4-2.8-14 .8-2.7 3.6 6.1 10 3.5 13.6-2.7 3.6-11.4-2.8-14 .8-2.7 3.6 6.1 10 3.5 13.6-2.7 3.6-11.4-2.8-14 .8"/>
    <path class="st2" d="M363.8 258.3c2.6-3.6-6.1-10-3.5-13.6 2.7-3.6 11.4 2.8 14-.8s-6.1-10-3.5-13.6c2.7-3.6 11.4 2.8 14-.8 2.7-3.6-6.1-10-3.5-13.6"/>
  </g>
  <g>
    <path class="st2" d="M290.2 352.4c-3.4-.8-1.3-9-4.7-9.9-3.4-.8-5.4 7.4-8.8 6.5-3.4-.8-1.3-9-4.7-9.9-3.4-.8-5.4 7.4-8.8 6.5-3.4-.8-1.3-9-4.7-9.9"/>
    <path class="st2" d="M256.7 344.1c3.4.8 5.4-7.4 8.8-6.5 3.4.8 1.3 9 4.7 9.9 3.4.8 5.4-7.4 8.8-6.5 3.4.8 1.3 9 4.7 9.9 3.4.8 5.4-7.4 8.8-6.5"/>
  </g>
  <path class="st1" d="M376.8 378c-1.2-1.4-3.2-2.5-5-2.5l-1.9.1c-1.3.3-2.5.8-3.6 1.7-1.2 1.1-2 2.5-2.3 4-.1-1.5-.7-3-1.7-4.2-1.1-1.3-3-2.4-4.7-2.4-.6 0-1.2.1-1.8.1-1.3.2-2.4.8-3.4 1.6-1.4 1.2-2.2 2.9-2.4 4.7-.1 1.4.2 2.8.9 4-.3 0-.6 0-.9.1-1.2.2-2.3.7-3.2 1.5-1.3 1.1-2.1 2.8-2.2 4.5-.1 1.8.5 3.6 1.6 4.9 1.1 1.2 2.8 2.2 4.5 2.2.6 0 1.1-.1 1.7-.1 1.2-.2 2.3-.7 3.2-1.5.2-.2.4-.4.6-.7 1.2 1.3 3.1 2.5 5 2.5l1.9-.1c1.3-.3 2.5-.8 3.5-1.7 1.4-1.3 2.3-3.1 2.5-5 0-.6 0-1.3-.1-1.9.6.2 1.1.3 1.7.3l1.9-.1c1.3-.3 2.5-.8 3.6-1.7 1.4-1.3 2.3-3.1 2.5-5 .1-1.8-.5-3.8-1.9-5.3zM98.7 99.1c-.8-.9-2.2-1.7-3.5-1.7-.4 0-.9 0-1.3.1-.9.2-1.8.6-2.5 1.2l-.2.2v-.1c-.5-2.2-2.2-3.8-4.5-4-.9-.1-1.7.1-2.5.5-.4.2-.7.5-1.1.7-.6.6-1.1 1.3-1.4 2.1 0 .1-.1.2-.1.4-.2.7-.3 1.4-.2 2.2h-.8c-.9.2-1.7.6-2.4 1.2-1 .9-1.6 2.1-1.7 3.4s.4 2.7 1.2 3.7c.8.9 2.1 1.7 3.4 1.7.4 0 .9 0 1.3-.1s.9-.2 1.2-.4c.2.3.3.5.6.8.8 1 2.2 1.8 3.5 1.8.5 0 .9 0 1.4-.1.9-.2 1.8-.6 2.5-1.2 1-.9 1.7-2.2 1.8-3.5v-.2c.3.1.7.2 1 .2.4 0 .9 0 1.3-.1.9-.2 1.8-.6 2.5-1.2 1-.9 1.6-2.2 1.7-3.5.1-1.7-.3-3.1-1.2-4.1zM293.4 174.2c-.3-1.2-1.1-2.6-2.2-3.2l-1.2-.6c-.9-.3-1.8-.3-2.8-.1-.1 0-.2 0-.3.1v-.1c.7-2.1-.1-4.4-2-5.7-.7-.5-1.6-.8-2.4-.8-.4 0-.9.1-1.3.1-.8.2-1.6.6-2.2 1.1l-.3.3c-.5.5-1 1.1-1.3 1.8-.2-.1-.5-.2-.7-.3-.9-.3-1.8-.3-2.7-.1-1.3.3-2.4 1.1-3.1 2.1-.7 1.1-1 2.5-.7 3.8.3 1.2 1 2.5 2.1 3.1l1.2.6c.4.1.9.2 1.3.2 0 .3 0 .6.1.9.3 1.2 1.1 2.6 2.2 3.3l1.2.6c.9.3 1.8.3 2.8.2 1.3-.3 2.5-1.1 3.3-2.2 0-.1.1-.1.1-.2.2.3.5.5.8.6l1.2.6c.9.3 1.8.3 2.7.1 1.3-.3 2.5-1.1 3.2-2.2 1-1.2 1.2-2.6 1-4z"/>
  <g>
    <animate accumulate="none" additive="replace" attributeName="opacity" attributeType="XML" calcMode="linear" dur="5s" fill="remove" from=".5" repeatCount="indefinite" restart="always" to="1"/>
    <path class="st1" d="M49.5 386.3l1.1-6.5 24.9-17.3 23.1 33.2"/>
    <path class="st1" d="M50.4 385.7l1-5.5 23.9-16.6L98 396.2l.2 4.5"/>
    <path class="st1" d="M49.557 386.309l26.048-18.0658 23.5367 33.9363-26.0478 18.0658zM56.8 387l17.6-12.2M60.1 387.6l12.4-8.5"/>
    <g>
      <path class="st1" d="M74.9 413.1l17.6-12.2"/>
    </g>
    <path class="st1" d="M62.2897 394.8898l16.927-11.742 7.695 11.093-16.927 11.742z"/>
  </g>
  <g>
    <animate accumulate="none" additive="replace" attributeName="opacity" attributeType="XML" calcMode="linear" dur="5s" fill="remove" from=".5" repeatCount="indefinite" restart="always" to="1"/>
    <path class="st1" d="M357.7 25.5l.8-4.8L376.8 8l17 24.4"/>
    <path class="st1" d="M358.4 25l.7-4 17.6-12.2 16.7 23.9.1 3.3"/>
    <path class="st1" d="M357.706 25.452l19.1455-13.2787 17.325 24.9797-19.1456 13.2787zM363.1 26l12.9-9M365.5 26.4l9.1-6.2"/>
    <g>
      <path class="st1" d="M376.4 45.2l12.9-9"/>
    </g>
    <path class="st1" d="M367.1482 31.7866l12.4077-8.607 5.643 8.1348-12.4078 8.607z"/>
  </g>
  <g>
    <ellipse transform="rotate(-77.7 329.98 225.06)" class="st2" cx="330" cy="225.1" rx="19.1" ry="9.9"/>
    <path class="st2" d="M332.6 234.7c-10 3.1-19.5 1.3-21-4-1.6-5.3 5.3-12.1 15.4-15.2 10-3.1 19.5-1.3 21 4 1.5 5.4-5.4 12.2-15.4 15.2z"/>
    <path class="st2" d="M323.1 232.6c-7.8-7.2-11.1-16.3-7.4-20.3 3.7-4.1 12.9-1.6 20.7 5.6 7.8 7.2 11.1 16.3 7.4 20.3-3.7 4-12.9 1.5-20.7-5.6z"/>
    <ellipse transform="rotate(-77.71 329.68 224.99)" class="st2" cx="329.7" cy="225" rx="4.8" ry="4.8"/>
    <ellipse transform="rotate(-77.71 348.56 220.86)" class="st2" cx="348.6" cy="220.9" rx="3.1" ry="3.1"/>
    <ellipse transform="rotate(-77.7 311.69 231.79)" class="st2" cx="311.7" cy="231.8" rx="3.1" ry="3.1"/>
    <ellipse transform="rotate(-77.7 333.83 206.96)" class="st2" cx="333.8" cy="206.9" rx="3.1" ry="3.1"/>
  </g>
  <g>
    <path class="st9" d="M182.1 367.1c3.4-11 0-23.2-9.4-30.2-8.8-6.6-21.1-7.2-30.4-1.4-21.2 13.1-13.8 46.6 10.9 49.7 12.8 1.7 24.5-6.2 28.9-18.1.4-1-1.2-1.4-1.6-.4-4.8 13-18.9 20.3-32.2 15.8-13.1-4.4-20.2-19.2-15.8-32.2 4.5-13.1 19.2-20.2 32.2-15.8 13.4 4.6 19.9 19 15.8 32.2-.3 1 1.3 1.4 1.6.4z"/>
    <g>
      <animateTransform accumulate="none" additive="replace" attributeName="transform" attributeType="XML" calcMode="linear" dur="10s" fill="remove" from="0 157 357" repeatCount="indefinite" restart="always" to="360 158 362" type="rotate"/>
      <path class="st9" d="M155.5 360.6c4.7-1.2 9.9-2 14.3-4.1.4-.2.1-.8-.3-.7-4.7 1.3-9.5 2.7-14.2 4.2-.3.2-.1.7.2.6z"/>
    </g>
    <g>
      <animateTransform accumulate="none" additive="replace" attributeName="transform" attributeType="XML" calcMode="linear" dur="10s" fill="remove" from="0 157 357" repeatCount="indefinite" restart="always" to="360 158 362" type="rotate"/>
      <path class="st9" d="M166.8 355.1l5.4 1.5c-.1-.3-.2-.6-.2-.9-1.5 1.6-2.9 3.2-4.4 4.8.3 0 .6.1.9.1-.8-1.8-1.3-3.8-2.3-5.6-.2-.3-.7-.2-.7.2.2 2.1 1.1 4.1 2 6 .1.3.7.4.9.1 1.4-1.6 2.9-3.2 4.3-4.9.2-.3.2-.8-.2-.9-1.8-.4-3.6-.8-5.5-1.1-.4 0-.6.6-.2.7z"/>
    </g>
    <path class="st9" d="M174.5 351.6c1.2-.9 2.4.8 1.9 1.9-.5 1-1.7 1.4-2.7 1.7-.3.1-.5.5-.3.8.6 1.1 2.8 2.9 3.9 1.5.1-.1 0-.3 0-.3-.3-.3-.6-.3-1.1-.4-.8-.2-1.4-.6-1.8-1.3-.1.3-.2.5-.3.8 1.7-.4 4-1.8 3.5-3.8-.4-1.4-2.1-2.4-3.3-1.3-.5.2-.1.6.2.4zM157.1 337.9c.5-1.1 1.2-1.9 2.1-2.6-.3-.1-.6-.2-.9-.4.1 1.1.2 2.2-.1 3.3-.2.9-.5 1.7-.6 2.6 0 .3.4.4.6.2 1.4-1.5 1.4-4.4 1.1-6.3-.1-.4-.6-.4-.8-.2-1 .8-1.7 1.8-2 3.1-.1.3.4.6.6.3z"/>
    <g>
      <animate accumulate="none" additive="replace" attributeName="opacity" attributeType="XML" calcMode="linear" dur="5s" fill="remove" from=".5" repeatCount="indefinite" restart="always" to="1"/>
      <path class="st9" d="M161.3 336.3l1.2.6c0 .3-.1.5-.2.7-.1.2-.2.4-.3.7-.2.4-.5.8-.7 1.2-.3.7-.3 1.4.2 2 .6.6 2.3.9 2.1-.4 0-.2-.2-.3-.4-.2-.3.1-.7.2-1 0-.3-.3-.1-1 0-1.3l.3-.6c.4-.6.7-1.3.6-2.1-.1-1.2-1.3-1.8-2.4-1.2-.2.3.2.8.6.6z"/>
    </g>
    <path class="st9" d="M168.5 345.5c.8-1 1.6-1.9 2.6-2.6l-.6-.3c.1 1 .1 2.1-.1 3.1-.1 1-.5 2-.4 3.1 0 .2.3.3.4.2 1.3-1.6 1.1-4.5.9-6.5 0-.3-.5-.3-.7-.2-1 .9-1.9 1.8-2.6 2.9 0 .2.4.5.5.3zM174.1 362.1c.8-.1 1.6-.1 2.4 0-.1-.1-.2-.3-.3-.4-.1.8-.6 1.2-1.3 1.4-.5.1-.4.8 0 .9 1 .3 1.5 1.6.5 2.2-.6.4-1.1.1-1.7.2-.1 0-.2.2-.2.3.5 1.3 2.5.5 3-.3.9-1.3 0-3-1.4-3.4v.9c1.1-.3 1.8-1.2 1.9-2.3 0-.2-.2-.4-.4-.4-.9-.1-1.8 0-2.7.3-.3.1-.1.6.2.6z"/>
    <g>
      <animate accumulate="none" additive="replace" attributeName="opacity" attributeType="XML" calcMode="linear" dur="5s" fill="remove" from=".5" repeatCount="indefinite" restart="always" to="1"/>
      <path class="st9" d="M168.7 369.4c-1.3.8-1.1 2.8.2 3.5 1.7.8 3.2-1.1 2.8-2.7-.1-.4-.7-.3-.7.1-.2 2.2-.9 4.2-1.6 6.2-.2.5.6.8.8.3 1-2.1 1.3-4.3 1.5-6.6-.2 0-.5.1-.7.1.4 1.3-1.5 2.6-2.3 1.1-.3-.6-.2-1.3.2-1.8.2-.1 0-.3-.2-.2z"/>
    </g>
    <path class="st9" d="M164.2 375.8c-.6-.2-1.5-.9-2.1-.4-.4.3-.4 1-.3 1.4.3.8 1.5 1.2 1.3 2.3-.3 1.3-1.4.6-2.2.8-.1 0-.2.2-.2.3.1.7 1 .8 1.6.8.7-.1 1.4-.6 1.6-1.3.3-.7.2-1.5-.2-2.1-.2-.4-.6-.6-.9-.9-.7-1 .7-.5 1.2-.4.4 0 .6-.4.2-.5zM154 375.6c-2-2.3-6.8 3.7-3.8 5.9 1.1.8 2.7 0 2.7-1.3.1-1.3-1.6-2.4-2.6-1.3-.2.2 0 .4.2.4.4-.1 1.3-.1 1.4.4.1.4-.1 1.1-.6 1.2-1.1.3-1.2-1.4-1-2 .3-1 2-3.5 3.3-2.8.3 0 .6-.3.4-.5z"/>
    <g>
      <animate accumulate="none" additive="replace" attributeName="opacity" attributeType="XML" calcMode="linear" dur="5s" fill="remove" from=".5" repeatCount="indefinite" restart="always" to="1"/>
      <path class="st9" d="M141.5 370.7c.6.5 1.3.7 2 1 .6.2.8.2 1.1.7.3.6-.1.9-.4 1.5-.9 1.5-2 3-2.7 4.7-.2.4.3.9.6.5.9-1.1 1.5-2.4 2.3-3.7.5-.8 1.3-1.8 1.5-2.7.3-1.8-3.1-2.2-4.3-2.3-.2 0-.3.2-.1.3z"/>
    </g>
    <path class="st9" d="M143.4 374.4zM139.2 363.9c-.1 1.3-.7 2.4-1.6 3.4-.4.4-.8.7-.8 1.3 0 .9 1 1.3 1.8 1 1.1-.4 1.1-1.7.5-2.5-.4-.7-1.1-1-1.6-1.5-1.2-1-.9-2.5.6-3 .2-.1.2-.3 0-.4-2.1-.5-3 2.1-1.8 3.5.4.6 1.1.9 1.6 1.4.1.2.3.3.4.5.1 1.3 0 1.5-.2.6 0-.2.6-.6.7-.8.8-1 1.1-2.2 1-3.5-.1-.4-.6-.4-.6 0zM137.7 355.3c-1.2-1.9-4-.6-3.5 1.5.6 2.4 3.8 1.8 3.9-.5 0-.3-.5-.4-.6-.1-.3 1.6-.8 3.5-.6 5.2 0 .2.3.2.4 0 .6-1.5.6-3.5.7-5.1-.2 0-.4-.1-.6-.1-.2 1.3-2.1 1.8-2.5.3-.4-1.4 1.5-1.7 2.3-1 .3.2.6 0 .5-.2zM136.8 346.4l2.7-1.5c-.2-.1-.3-.3-.5-.4l-.9 3c-.2.9-.6 1.8-.5 2.7 0 .1.2.3.3.1.6-.7.7-1.6.9-2.4l.9-3.3c.1-.3-.2-.6-.5-.4-.9.6-1.7 1.1-2.6 1.7-.3.3-.1.6.2.5zM141.9 348.3l-1.2 1.2c.2 0 .5.1.7.1-.4-.5-.4-1.2-.1-1.7.3-.6.7-.9 1.3-1.1.2-.1.1-.3 0-.4-.9-.3-1.8.4-2.1 1.1-.4.8-.4 1.9.1 2.6.2.2.5.3.7.1l1.2-1.2c.4-.5-.2-1.1-.6-.7zM143.1 341.2c.8-1.4 1.8-2.4 3.3-3l-.5-.5c-.6 2.4-1.6 5-1.8 7.5 0 .3.5.5.6.2 1-2.3 1.3-5.1 1.9-7.5.1-.3-.2-.6-.5-.5-1.7.6-3 1.8-3.4 3.6.1.3.3.4.4.2zM149.4 340.1c.3-.2.7-.4 1-.6-.2-.2-.3-.4-.5-.6-.5 2-1.4 4.4-1.3 6.5 0 .2.3.4.5.1 1.1-1.8 1.3-4.4 1.8-6.4.1-.3-.2-.6-.5-.6-.9-.1-1.7.4-1.9 1.3-.2.6.7.9.9.3z"/>
    <g>
      <animateTransform accumulate="none" additive="replace" attributeName="transform" attributeType="XML" calcMode="linear" dur="3s" fill="remove" from="0 153 357" repeatCount="indefinite" restart="always" to="360 158 362" type="rotate"/>
      <path class="st9" d="M159.7 340.5c-2 6.2-3.9 13.2-4.8 19.7 0 .3.3.4.4.1 2.3-6 3.9-13.3 4.7-19.7 0-.2-.2-.2-.3-.1z"/>
    </g>
    <g>
      <animateTransform accumulate="none" additive="replace" attributeName="transform" attributeType="XML" calcMode="linear" dur="3s" fill="remove" from="0 153 357" repeatCount="indefinite" restart="always" to="360 158 362" type="rotate"/>
      <path class="st9" d="M157.1 342.8c1.3-1.2 2.5-2.5 3.9-3.6-.2-.1-.5-.2-.7-.3.1 2.1 0 4.2-.1 6.3.3-.1.6-.2.9-.4-1.1-1.3-2.6-1.9-4.3-2-.7 0-.7 1.1 0 1.1 1.4 0 2.6.6 3.5 1.6.3.3.8.1.9-.4.1-2.1.1-4.2 0-6.3 0-.4-.4-.5-.7-.3-1.4 1.1-2.7 2.4-3.7 3.8-.4.5 0 .8.3.5z"/>
    </g>
    <path class="st9" d="M155.8 360c.1-.3.6-1 1-.6.1.1 0 .7 0 .8-.1.5-.5 1.1-1.1.9-.8-.3-1.4-1.4-.5-1.9.6-.4 1.6-.1 2 .5.5 1-.7 2.3-1.7 1.7-1-.6-.7-1.9.4-2 1-.1 1.4 1.4.5 1.8-.8.4-1.7-.4-1.3-1.2.4-.8 1.5.2 1 .7.2-.1.4-.1.6-.2l-1.5-.6c.2.2.3.4.5.6 0-.5.3-.9.5-1.3.1-.2 0-.5-.3-.5-1-.1-1.5.9-1.6 1.8 0 .3.2.5.5.6.5.2 1 .4 1.5.5.2.1.5 0 .6-.2 1.1-1.2.1-3.3-1.5-3.4-1.7 0-2.4 2.1-1.6 3.4.9 1.6 3.5 1.2 4.1-.5s-.9-3.5-2.7-3c-1.8.4-2.4 2.6-1.1 3.9 1.3 1.4 3.5.8 4.1-1.1.5-1.6-.7-3.1-2.4-3.1-1.5 0-2.7 1.4-2 2.8.8 1.6 3 2 3.7.1.2-.7.4-2.1-.6-2.1-.7-.1-1.4.5-1.4 1.2-.1.6.3.6.3.4z"/>
  </g>
  <g>
    <path class="st1" d="M41.6 435.8c.1-.8 0-1.9-.3-2.6-.6-1.1-2.5-1-3.1-.2-.5.8-.8 1.7-.8 2.8 0 1 1.1 1.6 1.1 1.6l-.1.6s-2.7-.4-2.9 2.1c2.6.2 4.6.3 7.2.5.1-2.5-2.5-2.5-2.5-2.5l.1-.6c0-.2 1.2-.6 1.3-1.7zM28.2 447.9c.1-.8 0-1.9-.3-2.6-.6-1.1-2.5-1-3.1-.2-.5.8-.8 1.7-.8 2.8 0 1 1.1 1.6 1.1 1.6l-.1.5s-2.7-.4-2.9 2.1c2.6.2 4.6.3 7.2.5.1-2.5-2.5-2.5-2.5-2.5l.1-.6s1.2-.4 1.3-1.6zM25.6 466.3c.1-.8 0-1.9-.3-2.6-.6-1.1-2.5-1-3.1-.2-.5.8-.8 1.7-.8 2.8 0 1 1.1 1.6 1.1 1.6l-.1.6s-2.7-.4-2.9 2.1c2.6.2 4.6.3 7.2.5.1-2.5-2.5-2.5-2.5-2.5l.1-.6c0-.1 1.2-.5 1.3-1.7zM36.9 481.5c.1-.8 0-1.9-.3-2.6-.6-1.1-2.5-1-3.1-.2-.5.8-.8 1.7-.8 2.8 0 1 1.1 1.6 1.1 1.6l-.1.6s-2.7-.4-2.9 2.1c2.6.2 4.6.3 7.2.5.1-2.5-2.5-2.5-2.5-2.5l.1-.6c0-.2 1.2-.6 1.3-1.7zM53 490c.1-.8 0-1.9-.3-2.6-.6-1.1-2.5-1-3.1-.2-.5.8-.8 1.7-.8 2.8 0 1 1.1 1.6 1.1 1.6l-.1.6s-2.7-.4-2.9 2.1c2.6.2 4.6.3 7.2.5.1-2.5-2.5-2.5-2.5-2.5l.1-.6c0-.1 1.2-.6 1.3-1.7zM71 482.8c.1-.8 0-1.9-.3-2.6-.6-1.1-2.5-1-3.1-.2-.5.8-.8 1.7-.8 2.8 0 1 1.1 1.6 1.1 1.6l-.1.6s-2.7-.4-2.9 2.1c2.6.2 4.6.3 7.2.5.1-2.5-2.5-2.5-2.5-2.5l.1-.6c0-.2 1.2-.6 1.3-1.7zM82.2 469.1c.1-.8 0-1.9-.3-2.6-.6-1.1-2.5-1-3.1-.2-.5.8-.8 1.7-.8 2.8 0 1 1.1 1.6 1.1 1.6l-.1.6s-2.7-.4-2.9 2.1c2.6.2 4.6.3 7.2.5.1-2.5-2.5-2.5-2.5-2.5l.1-.6c0-.2 1.2-.6 1.3-1.7zM81.9 453.4c.1-.8 0-1.9-.3-2.6-.6-1.1-2.5-1-3.1-.2-.5.8-.8 1.7-.8 2.8 0 1 1.1 1.6 1.1 1.6l-.1.6s-2.7-.4-2.9 2.1c2.6.2 4.6.3 7.2.5.1-2.5-2.5-2.5-2.5-2.5l.1-.6c0-.1 1.2-.5 1.3-1.7zM73 438.9c.1-.8 0-1.9-.3-2.6-.6-1.1-2.5-1-3.1-.2-.5.8-.8 1.7-.8 2.8 0 1 1.1 1.6 1.1 1.6l-.1.6s-2.7-.4-2.9 2.1c2.6.2 4.6.3 7.2.5.1-2.5-2.5-2.5-2.5-2.5l.1-.6c0-.2 1.2-.6 1.3-1.7zM59.3 433c.1-.8 0-1.9-.3-2.6-.6-1.1-2.5-1-3.1-.2-.5.8-.8 1.7-.8 2.8 0 1 1.1 1.6 1.1 1.6l-.1.7s-2.9-.3-2.9 2c2.6.2 4.6.3 7.2.5.1-2.5-2.5-2.5-2.5-2.5l.1-.6c-.1-.1 1.2-.6 1.3-1.7zM67.9 451.9c1.2 1.5 2.1 3.2 2.6 5 .5 1.9.5 4 .4 6-.2 3.7-1.3 7.2-3.6 10.1-2.1 2.8-5 4.9-8.3 6-3.5 1.3-7.3 1.5-10.9.7-3.4-.7-6.6-2.3-9.1-4.7-2.4-2.4-4.1-5.5-4.7-8.8-.7-3.6-.2-7.5 1.1-10.9 1.2-3.3 3.3-6.2 6.1-8.4 2.8-2.1 6.2-3.3 9.7-3.3 2.1 0 4.3.2 6.3.7 1.9.5 3.8 1.2 5.4 2.4.8.6 1.5 1.3 2.2 2 .4.4 1-.2.6-.6-1.4-1.6-3.1-2.8-5-3.6-2-.9-4.1-1.3-6.2-1.6-2-.2-4.1-.3-6.1 0-1.8.3-3.5.9-5.2 1.8-3.2 1.7-5.8 4.5-7.5 7.6-1.8 3.4-2.7 7.3-2.6 11.2.1 3.6 1.3 7.2 3.5 10.1s5.2 5 8.6 6.1c3.6 1.3 7.7 1.5 11.5.7 3.6-.8 7-2.6 9.6-5.2s4.4-6 5.1-9.7c.4-2.1.4-4.2.3-6.3-.2-1.9-.6-3.8-1.5-5.5-.5-.9-1-1.7-1.7-2.5-.3-.3-.9.2-.6.7z"/>
    <path class="st1" d="M67.1 450s0-.1 0 0c-.1 0-.1 0 0 0 0 1 .1 1.9.2 2.8.7-.7 1.5-1.4 2.2-2.1-.8-.1-1.7-.3-2.4-.7"/>
  </g>
  <g>
    <path class="st8" d="M154 303.6l-4.7 2.6-2.5-4.4-2.3 1.2 2.5 4.5-4.4 2.5 1.3 2.2 4.4-2.5 2.6 4.7 2.3-1.3-2.7-4.6 4.7-2.7z">
      <animateTransform accumulate="none" additive="replace" attributeName="transform" attributeType="XML" calcMode="linear" dur="5s" fill="remove" from="0 148 308" repeatCount="indefinite" restart="always" to="-360 148 308" type="rotate"/>
    </path>
    <path class="st8" d="M322.1 484l1.7 5.1-4.8 1.5.7 2.5 4.9-1.6 1.6 4.8 2.4-.8-1.6-4.8 5.1-1.7-.8-2.4-5.1 1.7-1.6-5.1z">
      <animateTransform accumulate="none" additive="replace" attributeName="transform" attributeType="XML" calcMode="linear" dur="2s" fill="remove" from="0 326 490" repeatCount="indefinite" restart="always" to="360 326 490" type="rotate"/>
    </path>
    <path class="st8" d="M349.5 45.2l1.7 5.1-4.8 1.6.8 2.4 4.8-1.6 1.6 4.9 2.4-.8-1.6-4.9 5.1-1.6-.8-2.5-5.1 1.7-1.6-5.1z">
      <animateTransform accumulate="none" additive="replace" attributeName="transform" attributeType="XML" calcMode="linear" dur="5s" fill="remove" from="0 352 50" repeatCount="indefinite" restart="always" to="360 352 50" type="rotate"/>
    </path>
    <path class="st8" d="M15.8 303.7L15 308l-4-.8-.3 2 4 .8-.8 4 2.1.3.7-4 4.2.8.4-2-4.3-.8.8-4.2z">
      <animateTransform accumulate="none" additive="replace" attributeName="transform" attributeType="XML" calcMode="linear" dur="10s" fill="remove" from="0 15 308" repeatCount="indefinite" restart="always" to="-360 15 308" type="rotate"/>
    </path>
    <path class="st8" d="M326.1 148.9l-4.7 2.6-2.5-4.4-2.2 1.2 2.5 4.5-4.4 2.5 1.2 2.2 4.5-2.5 2.6 4.7 2.2-1.3-2.6-4.6 4.7-2.7z">
      <animateTransform accumulate="none" additive="replace" attributeName="transform" attributeType="XML" calcMode="linear" dur="5s" fill="remove" from="0 321 153" repeatCount="indefinite" restart="always" to="-360 321 153" type="rotate"/>
    </path>
    <path class="st1" d="M293.9 477.6c.7-1.7 1.1-3.6 1.1-5.5h-2.4c0-1.6-.3-3.2-.9-4.6l2.1-.9c-.7-1.7-1.8-3.3-3.1-4.6l-1.6 1.6c-1.1-1.1-2.4-2-3.9-2.6l.9-2c-1.7-.7-3.5-1-5.4-1v2.2c-1.6 0-3.2.3-4.6.9l-.9-2.1c-1.7.7-3.3 1.8-4.6 3.1l1.6 1.6c-1.1 1.1-2 2.4-2.6 3.9l-2.9-.9c-.7 1.7-1.8 3.5-1.8 5.4h3.2c0 1.6.7 3.2 1.2 4.6l-2 .9c.7 1.7 1.8 3.3 3.2 4.6l1.7-1.6c1.1 1.1 2.4 2 3.9 2.6l-.9 2.3c1.7.7 3.6 1.2 5.4 1.2h-.6v-2.6c.8 0 3.5-.3 4.8-.9l1.1 2.1c1.7-.7 3.4-1.8 4.7-3.1l-1.6-1.6c1.1-1.1 2-2.4 2.6-3.9l2.3.9zM280.7 466c3.4 0 6.2 2.8 6.2 6.2 0 3.4-2.8 6.2-6.2 6.2-3.4 0-6.2-2.8-6.2-6.2s2.8-6.2 6.2-6.2z">
      <animateTransform accumulate="none" additive="replace" attributeName="transform" attributeType="XML" calcMode="linear" dur="5s" fill="remove" from="0 280 472" repeatCount="indefinite" restart="always" to="-360 280 472" type="rotate"/>
    </path>
    <path class="st1" d="M44.9 114.6c.7-1.7 1.1-3.6 1.1-5.5h-2.4c0-1.6-.3-3.2-.9-4.6l2.1-.9c-.7-1.7-1.8-3.3-3.1-4.6l-1.6 1.6c-1.1-1.1-2.4-2-3.9-2.6l.9-2c-1.7-.7-3.5-1-5.4-1v2.2c-1.6 0-3.2.3-4.6.9l-.9-2.1c-1.7.7-3.3 1.8-4.6 3.1l1.6 1.6c-1.1 1.1-2 2.4-2.6 3.9l-2.9-.9c-.7 1.7-1.8 3.5-1.8 5.4h3.2c0 1.6.7 3.2 1.2 4.6l-2 .9c.7 1.7 1.8 3.3 3.2 4.6l1.7-1.6c1.1 1.1 2.4 2 3.9 2.6l-.9 2.3c1.7.7 3.6 1.2 5.4 1.2H31v-2.6c.8 0 3.5-.3 4.8-.9l1.1 2.1c1.7-.7 3.4-1.8 4.7-3.1l-1.6-1.6c1.1-1.1 2-2.4 2.6-3.9l2.3.9zM31.7 103c3.4 0 6.2 2.8 6.2 6.2 0 3.4-2.8 6.2-6.2 6.2s-6.2-2.8-6.2-6.2 2.8-6.2 6.2-6.2z">
      <animateTransform accumulate="none" additive="replace" attributeName="transform" attributeType="XML" calcMode="linear" dur="5s" fill="remove" from="0 30 110" repeatCount="indefinite" restart="always" to="-360 30 110" type="rotate"/>
    </path>
    <path class="st1" d="M79.9 315.4c1-2.5 1.6-5.1 1.6-7.8h-3.4c0-2.3-.5-4.5-1.3-6.5l3-1.3c-1-2.5-2.5-4.7-4.4-6.6l-2.3 2.3c-1.6-1.6-3.5-2.8-5.5-3.7l1.3-3c-2.4-1-5-1.5-7.7-1.5v3.3c-2.3 0-4.5.4-6.5 1.3l-1.3-3c-2.5 1-4.7 2.5-6.6 4.4l2.3 2.3c-1.6 1.6-2.8 3.5-3.7 5.6l-3.4-1.3c-1 2.5-1.9 5-1.9 7.7h3.8c0 2.3.6 4.5 1.4 6.5l-3 1.3c1 2.5 2.5 4.7 4.4 6.6l2.3-2.3c1.6 1.6 3.5 2.8 5.6 3.7l-1.3 3.4c2.5 1 5.1 1.9 7.7 1.9h-.4v-4c1.6 0 4.6-.5 6.6-1.3l1.4 3c2.5-1 4.8-2.5 6.6-4.4l-2.3-2.3c1.6-1.6 2.9-3.4 3.7-5.5l3.3 1.2zm-18.7-20c6.7 0 12.2 5.5 12.2 12.2s-5.5 12.2-12.2 12.2S49 314.3 49 307.6s5.4-12.2 12.2-12.2z">
      <animateTransform accumulate="none" additive="replace" attributeName="transform" attributeType="XML" calcMode="linear" dur="10s" fill="remove" from="0 61.1 308" repeatCount="indefinite" restart="always" to="360 61.1 308" type="rotate"/>
    </path>
  </g>
  <g>
    <path class="st1" d="M172.7 257.6v0zM172.6 259.1c0-.4.1-1 .1-1.4 0 .3 0 1.3-.1 1.4zM172.8 257.5v0zM172.8 257.7h-.1l.1-.3zM174.2 232.7c-.1.1-.1.1 0 0zM174.3 231.6v-.2.2zM174.1 233.8v-.2.2zM173.4 246.3c0 .2-.1.4-.1.5 0-.4 0-.4.1-.5zM175 226.4c0-.1 0-.1 0 0zM174.6 231.4s0-.1 0 0c0-.1 0-.1 0 0zM174.1 234.6v0zM175.1 224.8v-.2.2zM174.3 231.3c.1 0 .1 0 0 0 .1.1 0 .1 0 0 0 .1 0 .1 0 0zM174.5 233v-.3.3zM173.4 246.3v-.2.2zM172.8 256.3v-.2.2zM176.4 199.2zM175.9 205.2c0 .1 0 .1 0 0 0 .1 0 0 0 0z"/>
    <path class="st1" d="M176 210.8c0-.4.1-.8.1-1.1v.1-.3c.1-.6.1-1.3.1-1.5l-.1.1.1-.6-.1.3c0-.7.1-1.7.1-1.9V205.7v.1c.1-1 0-1.3.1-2.5v.2c0-.2 0-.6.1-.7 0 .1-.1.6-.1.2v-.3l.1-.2v-.5c.1-.5 0 .6.1-.2 0-.4-.1-.8 0-1.5 0-.6-.1.3 0-.5l-.1.5v-.4c0-.1.1-.3.1-.5-.1.8 0-.7-.1 0v-.7c0 .2-.1.8-.1.5v-.5c0 .1 0-.1-.1 0l-.2 1.6c0-.1 0-.3.1-.2 0 .4-.1.3-.1.7v-.2s0 .1 0 0v-.2c0 .1 0 .5-.1.7v.2c-.1.3-.1.9-.1 1.2v-.2c0 .4 0 .7-.1 1v-.1c0 .5 0 .8-.1 1.2v-.1c0 .2 0 .6-.1.8V205.9c0-.2.1-.1.1-.4 0 .5-.1.5-.1.9 0 .3 0-.2.1-.3-.1.7 0 1.4-.1 1.8v-.3V207.9c0 .8-.1 1.2-.2 2v-.2c0 .4-.1.4-.1.9v-.1.3c.1 0-.1 1.3 0 1.7-.1.3-.2 1.1-.1 1.4 0 .4.1-.3.1-.2 0 .3-.1.4-.1.9 0 0 0-.8-.1 0V214.4v.2l-.1.9c-.1.1 0-.5 0-.5 0 .7 0 1.5-.1 2.1v-.1c-.1.8.1.5-.1 1.1 0 .3.1-.1 0 .4 0 .1 0 .1 0 0-.1.6 0 .3-.1.9l.1-.1c-.1.7-.2 1.4-.2 2 0 0 .1-.4.1-.5-.1.8-.1 1.9-.2 2.7 0-.2-.1.4-.1-.1.1-.1 0-.3.1-.6-.1.4-.1 1.7-.2 1.9v.1c0 .1-.1.4-.1.2v.8c0-.3.2-.9.1-1.1.1-.2 0 .3.1.1-.1.5 0 .3 0 .9 0-.3-.1.6-.1.5 0 .2-.1.6-.1.8 0 .3 0 1.1-.1 1.6 0-.2.1-.5.1-.5 0 .3-.1.5 0 .6.1-.9-.1-.3 0-1.1.1-.2.1-.4.1-.9 0 .2 0 .1.1.2-.1.5-.1 1.4-.2 2.1 0 .3-.1.1-.1.7v-.6c0 .6 0 .1-.1.7v-.2c0 .3 0 .4-.1.6l.1-.3v.7c-.1.8 0 .2 0 .7v.2c-.1 0-.1.9-.2 1.2l-.1.6v.2c0 .2.1-.2 0 .4v.3c0-.1 0 0 0 0v.3c0 .5-.1.9-.1 1.5v-.3.4l-.1 1.1c0-.1.1-.7.1-.4v.7s0-.4 0 0v.2c0 .4-.1.9-.2 1.3v-.1c0-.2.1 0 .1-.5.1 0 0 .7 0 1.1l.1-.6c0 1.1-.2 2.5-.2 3.6v-.5c-.1.7-.1.6-.1 1.2v-.1c0 .3-.1.8 0 1 0-.1 0-.5.1-.5l-.1.8c.1-.3.1-.8.1-1.1 0-.2 0 .5-.1.3.1-.8.1-.9.2-1.3.1-.2 0 .3 0 .5-.1.5-.2 1.2-.2 2v.4c-.1.4-.1.2-.2.9v-.2.3c0-.3.1-.6.1-.9 0 .4-.1 1.1-.2 1.7v-.3c0 .9-.2 1.8-.2 2.4 0 .3.1-.5.1-.4 0 .3 0 .7-.1.8.1-.1 0 .8.1.1l-.3 3.9c0-.1 0-.1 0 0 0-.4.1-1.1.1-1.3 0 .3-.1.7-.1.7 0-.1 0-.4.1-.4 0 .4-.1.6-.1.8v-.1c-.1.8-.1.4-.2 1.3 0 .3 0 0 .1 0 0 .2 0 .9-.1 1.1v-.5c0 .4-.1.7-.1 1v-.1c0 .3-.1.7-.1.8v.1c0-.2 0-.7.1-.8v.8c.1-1 .2-1 .2-1.9v.1c0-.5.1-1.1.1-1.5v.1c0-1 .1-2 .2-3.2l.1-.3c0-.6.1-.1.1-.5v.1c.1-.7 0-.4 0-.7 0 .2-.1.7-.1.5.1-.7.1-1.7.2-1.8 0-1.2.2-2.7.3-3.8 0-.1 0 .1 0 0 .1-.4.1-1.4.1-1.4v-.3c0-.3.1-.6.1-.9v.2-.3c.1-.8.1-1.8.2-2.5-.1.4 0-.1-.1.1.1-.4.2-1.3.2-2 0 0 0-.1 0 0l.1-.4v.1c0-.8.2-1.6.2-2.1 0 .3 0 .3-.1.3 0-.6.1-1.1.1-1.7v.1c0-.2 0-.4.1-.5 0-.3 0-.8.1-1.1 0-.2.1-.9.1-1.4 0-.2-.1.4 0-.1.1-.1 0-.6.1-.7v-.5c-.1-.4.1-.5.1-1.1v.1c0-.2.1-.6.1-.3 0-.3.1-1.3 0-.8v-.3c.1-.5.1-1.1.2-1.5V224.1l-.1.3c0-.6.1-1.1.2-1.6-.1-.1.1-1 .1-1.5v.4c.1-.9 0-1 .1-1.8v1.7c0-1 .2-1.7.2-2.6 0 .1 0 .3-.1.1 0-.2.1-.9.1-.7v-.5l.1-.9c0-1.6.3-3 .3-4.6l.1-.4v-.2l.1-1c0-.3 0-.2 0 0zm-.9 13.7v.4-.2-.2zm-1.6 22.7v-.3.3c0 .2 0 0 0 0zm1.3-22.7V224.2v.3zm.2-3.5v.3-.3zm.5-3.8c0-.3 0-.4.1-.6 0 .2-.1.4-.1.6zm-.4 6.1v.3c0-.1.1-.3.1-.1 0 .1-.1.5-.1.5v-.7zm-.5 8.2v.2-.2zm-.2 1.5c0 .2-.1.6-.1.9 0 .1.1-.2.1-.6.1-.4 0-.1 0-.3zm.8-12.4l-.1.3c0-.5.1-.8.1-1 .1.2 0 .8 0 .7zm-1 15.6c0 .3-.1.9-.1.8 0 0 .1-.4.1-.6v-.2zm-.1-.1c.1-.5.1-.5.1-.8 0 .5-.1.6-.1.5v.3zm.2-.4v-.2c0-.2-.1-.3 0-.6v.8zm-.3 3.9v-.2c.1.2 0 .2 0 .2v0zm.2-3v-.5.5zm-.2 2.8v-.7c.1 0 0 .6 0 .7zm-.8 12.1v-.3V251.5zm.2-4.1v.3-.3zm.2-3.7c0-.1 0-.1.1-.1 0 0 0 .1-.1.1v.5c.1-.1.1-.3 0-.5.1.4-.1 1.2 0 1 0 .1-.1.6-.1.5.1-.5.1-1.2.1-1.5v-.1.1zm.3-5v-.2c0-.1 0-.2.1-.2 0 .3 0 .1-.1.2v.2zm.1-.9l-.1.5v-.2l-.1.7c.1-.5.1-.9.2-1zm0-.2l.1-.8-.1.8zm.5-7.9c-.1-.3-.1.7-.2.8 0 0 .1.3.1-.4 0 .7-.1.4 0 .8 0-.3.1-.7.1-.7v.4c.1-.2 0-.6 0-.9zm.3-3.9v-.5.5zm.7-12v-.7.7zm.4-5.2l-.1.5v-.7c.1-.1 0 .1.1.2zm.2-3.5v-.2.2zm-.1.2c0-.1-.1.3-.1.3l.1-.3zm.2-3.2v.2-.2zm0 .4c0 .1-.1 0-.1.6 0 0 0-.1.1.1v-.4-.3-.1.1zm-.1 1.9v-.3s-.1.3-.1.4c0-.2.1-.3.1-.5v.1-.3c.1-.4.1 0 0 .3V204.4zm.2-2.5V201.9zm-.6 10.2c0-.1-.1.1-.1.4v-.1s.1-.5.1-.6v.3zm-.8 12c-.1.1-.1.7-.1.9 0-.4.1-1.2.1-.9zm0 1.1v.5c-.1-.3-.1-.3 0-.5v-.2.2zm.4-7l.1-.2v-.4l-.1.6zm.4-4v-.5c-.1.1-.1.4 0 .5-.1.1-.1.1-.1.2l.1-.2c-.1 0-.1.1 0 0v.1-.3.2zm.4-7v-.5c.1.1.1.4 0 .5zm-.6 9.2c.1-.5 0 .2 0 0l-.1.1c0-.4.1-.3.1-.5v.2c0 .1 0-.3.1-.3 0 .2-.1.6-.1.5zm.7-9.6c0-.4.1-.3.1-.6 0 .4-.1.3-.1.6zm-.4 6.9v-.3.3zM175.9 206.3v-.2.2zM174.6 226.2s0 .1 0 0c0 .1 0 .1 0 0zM174.5 227.1zM172.7 256v-.3c.1.1.1.2 0 .3zM172.9 254.9v.4c-.1-.1 0-.2 0-.4zM172.8 255.8v-.6.6zM173.1 251.9v.5c0-.7-.1.1-.1.2 0-.5 0-.5.1-.7zM173.1 250.9v0zM173.1 250.6c0-.3.1-.3.1-.5 0 .3-.1.5-.1.7.1-.1.1-.3 0-.2zM173.5 242.7v.2-.4.2zM173.7 241.1v-.3.3zM173.9 241.3v0z"/>
    <path class="st1" d="M173.8 239.5l-.1.2c0-.3.1-.3.1-.2zM173.8 238.1v.2-.6zM173.9 236.6v-.1l.1-.4zM175.1 219.4c.1-.1 0 .6 0 .8-.1-.1 0-.5 0-.8zM175.9 206.9l-.1.7c.1-.6 0-.2.1-.7z"/>
    <g>
      <path class="st1" d="M262.3 265.3h.2-.2zM264.6 265.5c-.6 0-1.5-.1-2.1-.2.5 0 1.9.1 2.1.2zM262.2 265.2l.7.1c-.4-.1-.3-.1-.7-.1zM262.5 265.3h-.1l-.4-.1zM224.5 263c.1 0 .2 0 0 0zM222.8 262.8h-.4.4zM226.1 263.1h-.3.3zM245.2 264.3c.3 0 .6.1.8.1-.6-.1-.7-.1-.8-.1zM215 262c-.2 0-.2 0 0 0zM222.4 262.5h-.1.1zM227.3 263.2h.3-.3zM212.5 261.8c-.1 0-.2 0-.3-.1.3.1.4.1.3.1zM222.4 262.8s.1 0 0 0c.1 0 .1 0 0 0zM224.9 262.7h-.4.4zM245.2 264.3h-.2c.1-.1.1 0 .2 0zM260.3 265.2h-.3.3zM173.6 259.7c-.1 0-.1 0 0 0zM182.8 260.3h.1-.1z"/>
      <path class="st1" d="M191.2 260.5c-.6 0-1.2-.1-1.7-.1h.2l-.5-.1c-.9-.1-2-.1-2.3-.2l.1.1-.9-.1.5.1c-1-.1-2.6-.2-2.8-.2h.1-.5.1c-1.6-.1-2-.1-3.7-.2h.3c-.3 0-.9-.1-1-.1.1 0 .9.1.3.1-.4 0 .3.1-.4 0l-.3-.1h-.7c-.7-.1.9 0-.3-.1-.6 0-1.2 0-2.3-.1-.9 0 .5.1-.8 0l.8.1h-.6c-.2 0-.5-.1-.8-.1 1.2.1-1.1 0 .1.1h-.4c.1 0 .1 0 0 0h-.6c.3 0 1.2.1.8.1h-.8c.2 0-.1 0 0 .1l2.4.2c-.1 0-.4-.1-.3-.1.6 0 .5.1 1.1.1h-.3s.1 0 0 0h-.3c.2 0 .8 0 1 .1h.3c.4.1 1.3.1 1.8.1l-.3-.1c.6 0 1.1.1 1.5.1h-.1c.8.1 1.2 0 1.9.1h-.1c.3 0 .9 0 1.2.1h.2c.2 0 .5 0 1 .1-.3 0-.2-.1-.6-.1.8 0 .7.1 1.4.1.4 0-.3 0-.4-.1 1 .1 2.1 0 2.7.2h-.4c.4 0 .6.1.6 0h-.2c1.2 0 1.9.2 3.1.2-.1 0-.3 0-.3-.1.6 0 .5.1 1.4.1h-.2c.3 0 .5.1.5.1 0-.1 1.9.1 2.5.1.4.1 1.7.2 2.1.2.6 0-.5-.1-.3-.1.4 0 .7.1 1.3.1 0 0-1.3 0-.1.1h.2-.2l1.3.1c.1.1-.7 0-.8 0 1 .1 2.3.1 3.3.2h-.1c1.2.1.7 0 1.7.1.5 0-.2-.1.6 0h.1c1 .1.4 0 1.3.1l-.2-.1c1.1.1 2.2.3 3.1.3-.1 0-.6-.1-.8-.1 1.2.1 3 .2 4.1.3-.3 0 .5.1-.2.1-.2-.1-.5-.1-.9-.1.6.1 2.6.1 2.8.2h.2c.2 0 .6.1.3.1l1.3.1c-.4-.1-1.4-.2-1.7-.2-.4-.1.5 0 .2-.1.8.1.5 0 1.4.1-.4 0 .9.1.8.2.3 0 .9.1 1.2.1.5 0 1.7.1 2.5.1-.3 0-.8-.1-.8-.1.4 0 .8.1.9 0-1.4-.2-.5.1-1.7-.1-.3-.1-.7-.1-1.3-.2.3 0 .2 0 .3-.1.8.1 2.1.1 3.1.3.4.1.1.1 1.1.2h-.9c.9 0 .2 0 1 .1l-.3-.1c.5 0 .7 0 .9.1l-.4-.1c.3 0 .7 0 .7.1h.6-.3c1.2.1.3 0 1 0h.3c0 .1 1.4.2 1.8.2l1 .1h.3c.3 0-.4-.1.6 0l.5.1c-.1 0 0 0 0 0l.5.1c.8 0 1.4.1 2.3.2-.3 0-.7 0-.5-.1h.6l1.7.2c-.1 0-1.1-.1-.7-.1.3 0 .7 0 1 .1 0 0-.6 0 0 0h.4c.6.1 1.4.1 2 .2h-.2c-.4 0-.1-.1-.7-.1-.1-.1 1 0 1.6.1l-1-.1c1.6 0 3.8.3 5.4.4-.5 0-.9-.1-.8 0 1 .1.9.1 1.9.1h-.1c.5 0 1.2.1 1.6.1-.2 0-.7 0-.7-.1l1.3.1c-.4-.1-1.3-.1-1.7-.1-.3 0 .7.1.5.1-1.2-.1-1.4-.1-2-.2-.4-.1.5 0 .7 0 .7.1 1.8.2 3 .3h.6c.6.1.3.1 1.4.2l-.3-.1h.5c-.4-.1-.9-.1-1.3-.2.6 0 1.7.1 2.6.2 0 0-.3 0-.4-.1 1.3.1 2.7.2 3.7.3.4 0-.8-.1-.6-.1.5.1 1.1.1 1.3.1-.2-.1 1.2.1.2 0 1.9.1 4 .3 5.9.4-.1 0-.1 0 0 0-.7 0-1.6-.1-2-.2.4 0 1 .1 1.1.1-.2 0-.7-.1-.7-.1.6 0 .9.1 1.3.1h-.2c1.2.1.7.1 2 .2.5 0 0 0 0-.1.3 0 1.3.1 1.6.1h-.8c.6 0 1.1.1 1.5.1h-.2c.4 0 1 .1 1.2.1h.1c-.3 0-1 0-1.2-.1.1 0 .9 0 1.2.1-1.5-.1-1.5-.2-2.8-.2h.2c-.8 0-1.6-.1-2.3-.2h.1c-1.6-.1-3.1-.2-4.9-.3l-.5-.1c-.9 0-.2-.1-.7-.1h.2c-1-.1-.6 0-1.1-.1.3.1 1.1.1.8.1-1-.1-2.6-.2-2.7-.3-1.9-.1-4.2-.3-5.7-.4-.2 0 .1 0 0 0-.6-.1-2.1-.1-2.1-.1h-.5c-.4 0-.9-.1-1.4-.1h.4l-.5-.1c-1.3-.1-2.7-.2-3.9-.3.7.1-.2 0 .1.1-.6-.1-2-.2-3.1-.3 0 0-.1 0 0 0l-.7-.1h.1c-1.2-.1-2.4-.2-3.2-.2.5 0 .5.1.5.1-.8-.1-1.6-.1-2.6-.2h.1c-.3 0-.6 0-.8-.1-.5 0-1.2-.1-1.7-.1-.2 0-1.4-.1-2.1-.2-.3 0 .6.1-.2 0-.1-.1-1-.1-1-.1h-.7c-.6 0-.8-.1-1.7-.1h.1c-.3 0-.9-.1-.4-.1-.4 0-1.9-.1-1.3-.1 0 0 .6 0 .8.1h-.9H215.3c-.8-.1-1.6-.1-2.2-.2h-.5l-.9-.1.4.1c-1 0-1.6-.2-2.4-.2-.2.1-1.5-.1-2.2-.1l.6.1c-1.3-.1-1.5-.1-2.7-.2 1 0 1 .1 2.6.1-1.5-.1-2.6-.2-4-.3.1 0 .4.1.1.1-.3-.1-1.3-.1-1.1-.1h-.8l-1.4-.1c-2.5-.1-4.6-.4-7-.5l-.6-.1c.5.1-.2 0-.3 0l-1.6-.2c-.5.1-.4.1-.1.2zm20.8 1.3H212.6h-.2c-.2 0-.3.1-.4 0zm34.5 2.3h-.4.6c.1.1-.1 0-.2 0zm-34.5-2h-.5.5zm-5.3-.3l.5.1-.5-.1zm-5.8-.7h.1c-.1.1-.1.1-.1 0-.4 0-.6 0-.9-.1.4.1.6.1.9.1zm9.3.6h.4c-.1 0-.4-.1-.2-.1s.8.1.8.1c-.5.1-.9.1-1 0zm12.5.9h-.1l.5.1-.4-.1zm2.2.2c.3.1 1 .1 1.4.1.1 0-.4-.1-.9-.1-.6-.1-.2 0-.5 0zm-18.8-1.3h.1-.1l.5.1c-.7 0-1.2-.1-1.5-.1.3 0 1.1.1 1 0zm23.7 1.6c.5.1 1.4.1 1.3.2 0 0-.7-.1-.9-.1-.2-.1-.3-.1-.4-.1zm-.1.1c-.7-.1-.7-.1-1.3-.2.7 0 .9.1.8.1.5.1.4 0 .6 0l-.1.1zm-.7-.2h-1.2 1.2zm5.9.4h-.3.5-.2zm-4.5-.3l-.8-.1c0 .1.5.1.8.1zm4.3.3c-.3 0-1.3-.1-1.1-.1.1 0 .9.1 1.1.1zm18.3 1.2h-.5.5zm-6.1-.3h.4-.4zm-5.7-.4c.1 0 0 0 0 0-.1 0-.2 0-.2-.1.1.1.1.1.2.1h.7c-.1 0-.4 0-.6-.1.5 0 1.7.2 1.3.1.2 0 1 .1.7.1-.5 0-1.6-.1-2.1-.1h-.2.2zm-7.6-.4h-.3c-.2 0-.3 0-.3-.1.4 0 .2 0 .3.1.1-.1.2-.1.3 0zm-1.3-.1l.7.1h-.4l1 .1c-.5-.1-1.2-.2-1.3-.2zm-.3 0h-.1.1l-1.1-.1 1.1.1zm-12-.9c-.4.1 1 .1 1.3.2.1 0 .5-.1-.6-.1 1 0 .6.1 1.2.1-.5 0-1-.1-1.1-.1h.6c-.5-.1-1 0-1.4-.1zm-6-.3h-.7.7zm-18.3-1.2c.1 0-.9 0-1.1-.1.5.1 1 .1 1.1.1zm-7.8-.5l.8.1c-.2 0-.7 0-1.1-.1h.3zm-5.4-.3h-.3.3zm.4.1c-.2 0 .4.1.5.1l-.5-.1zm-4.9-.3h.3-.3zm.6 0c.1 0 0 .1.8.1 0 0-.2 0 .1-.1h-.6.4-.7-.2c0-.1.1 0 .2 0zm2.8.1h0-.4c-.1 0 .5.1.6.1-.3 0-.5-.1-.8-.1h.2-.5c-.5-.1 0-.1.5 0h.4zm-3.8-.3h.4-.4zm15.6 1c-.2 0 .2.1.6.1h-.2s-.8-.1-.9-.1h.5zm18.2 1.2c.1.1 1.1.1 1.4.1-.6 0-1.8-.1-1.4-.1zm1.7.1h.8-1.1c.2-.1.2 0 .3 0zm-10.6-.7l-.4-.1h-.6l1 .1zm-6.1-.5h-.7.7c.1.1.2.1.3.1 0 0-.1 0-.3-.1 0 0 .1 0 0 0h.2-.5.3zm-10.6-.7h-.7c.1-.1.4 0 .7 0zm13.9.9c-.7 0 .3.1-.1.1h.3c-.6 0-.4-.1-.8-.1h.3c.2 0-.4 0-.4-.1.2 0 .9.1.7.1zm-14.5-1c-.6 0-.5-.1-.9-.1.5 0 .4.1.9.1zm10.4.6l-.5-.1.5.1zM184.4 260.4h-.4.4zM214.7 262.4h0zM215.9 262.5c.1 0 .1 0 0 0 .1 0 .1 0 0 0zM259.9 265.2c.3.1-.3 0-.5 0h.5zM258.2 265c.1 0 .3 0 .5.1-.1 0-.2 0-.5-.1zM259.6 265.1h-.9.9z"/>
      <path class="st1" d="M253.6 264.8c.3 0 .8.1.8.1-1.1-.1.2.1.3.1-.7-.2-.7-.2-1.1-.2zM252.1 264.6h.3c-.1.1-.2.1-.3 0zM251.7 264.6c-.4 0-.5-.1-.7-.1.5 0 .8.1 1.1.1h-.4zM239.7 264h.3H239.7zM237.3 263.8h-.5.5zM237.6 263.5h.2-.2zM234.8 263.6l.4.1c-.5 0-.5-.1-.4-.1zM232.8 263.6h.3l-1-.1zM230.4 263.4h-.1l-.7-.1zM204.3 261.6c-.1-.1.9 0 1.3 0-.3.1-.9 0-1.3 0zM185.3 260.4l1 .1c-.8 0-.3 0-1-.1z"/>
    </g>
    <g>
      <path class="st1" d="M259.5 214.9c.1 0 .1.1.2.1-.2-.1-.3-.2-.2-.1zM262.2 216.7c-.7-.5-1.8-1.2-2.5-1.7.6.4 2.3 1.5 2.5 1.7zM259.4 214.7l.9.6c-.5-.3-.4-.3-.9-.6zM259.7 215l-.5-.3zM220.4 236.3c.1-.1.1-.1 0 0zM218.8 237.9h-.5c.2-.1.3-.1.5 0zM221.4 234.4l-.2.4c.1-.1.2-.3.2-.4zM242.2 223.5c.3.2.6.5.8.7-.6-.5-.6-.6-.8-.7zM207.9 237.5c-.2.2-.2.2 0 0zM218.2 237.6c.1 0 0 0 0 0h-.2.2zM222.2 232.9l.2-.3c-.1.2-.1.3-.2.3zM205.2 239.6c-.1.1-.2.2-.3.2.2-.1.4-.2.3-.2zM218.3 237.8c-.1 0 0 0 0 0zM220.3 235.7c-.1.2-.2.3-.3.5.2-.2.3-.4.3-.5zM242.2 223.5c-.1-.1-.2-.1-.3-.2.2.1.3.1.3.2zM257.2 213.4c-.3-.2-.3-.2-.4-.3.1.1.3.2.4.3zM176.9 217.2l-.1.1c0-.1 0-.1.1-.1zM186 216.5c0 .1 0 .1.1.2-.1-.1-.1-.2-.1-.2z"/>
      <path class="st1" d="M190.7 227.4c-.3-.8-.6-1.6-.9-2.3l.1.2-.3-.7c-.4-1.1-1-2.5-1.1-3v.1l-.4-1.2.2.7c-.5-1.3-1.3-3.4-1.4-3.7v.1c-.1-.2-.2-.4-.2-.6v.2c-.4-1-.6-1.6-.9-2.2-.1-.3-.3-.6-.4-1-.2-.4-.4-.9-.6-1.5-.1.1-.3.2-.5.3-.3.2-.2.1-.1 0s.2-.1.3-.2c.1-.1.2-.1.2-.1-.1.1-.3.2-.5.3-.1.1-.2.1-.4.2s-.5.2-.6.3c.2-.1 1.1-.5.4-.2-.5.2.4-.1-.5.3l-.4.1c-.5.3-.1.1-.8.5-.9.4 1-.6-.4.1-.7.4-1.4.9-2.8 1.6-1.2.6.6-.3-1 .6l1-.5c-.3.2-.1.1-.8.5-.2.1-.7.3-1.1.5 1.5-.8-1.3.8.1.1l-.5.3h.1l-.7.4c.4-.2 1.5-.8 1-.5l-1 .5c.3-.1-.1.1 0 .1l3-1.5c-.1 0-.6.3-.4.2.8-.4.7-.3 1.4-.7l-.3.2c.1 0 .2-.1 0 0-.3.2-.4.2-.4.2.2-.2 1-.5 1.2-.6 1-.5.2-.2.4-.3.5-.2 1.6-.9 2.2-1.2l-.4.2c.4-.2.7-.4 1-.6.2-.1.3-.2.4-.2.1 0 .1-.1.2-.1h.1-.1s.1 0 .1-.1c.2.4.3.7.4 1 .1.3.3.6.4 1v-.1c.2.4.5 1.1.6 1.5 0 0 .1.1.1.3.1.3.3.7.5 1.4-.2-.4-.1-.3-.2-.8.4 1 .3.9.6 1.8.2.5-.2-.5-.2-.6.5 1.3 1.1 2.6 1.4 3.5l-.2-.5c.2.5.3.8.3.7-.1-.2-.1-.2-.1-.3.7 1.5.9 2.5 1.5 4 0-.1-.1-.4-.1-.4.3.7.2.7.7 1.9l-.1-.2c.2.4.3.7.2.6.1 0 1 2.5 1.4 3.3.2.6.8 2.3 1 2.7.3.7-.2-.7-.1-.4.2.6.3.9.6 1.7 0 0-.7-1.6-.1 0l.1.2c-.1-.2-.2-.4-.2-.6-.2-.5.1.3.2.4l.7 1.7c0 .1-.4-.9-.4-1 .5 1.3 1.2 2.9 1.7 4.2v-.1c.6 1.6.4.9.9 2.2.3.7-.1-.3.4.8.1.3 0 .1 0 .1.5 1.3.3.5.7 1.7l-.1-.3c.2.5.4 1.1.6 1.6.4-.3.8-.6 1.1-.9.3-.3.7-.5 1-.8-.1 0-.7.5-1 .7 1.4-1 3.2-2.6 4.5-3.6-.3.3.6-.4-.1.2-.2.1-.6.5-1 .8.8-.5 2.8-2.4 3.1-2.5l.2-.2c.2-.1.7-.5.4-.2l1.3-1.1c-.5.4-1.5 1.1-1.8 1.4-.4.3.5-.5.2-.2 1-.7.5-.5 1.5-1.2-.4.4 1-.7 1-.7.1-.1.2-.2.4-.3l.2-.2.1-.1.1-.1c.2 0 .4 0 .5.1.7.1 2.3.1 3.4.2-.4 0-1.1-.1-1-.1.6.1 1.2.1 1.3.1-2-.2-.6 0-2.4-.1-.2 0-.4-.1-.7-.1h-1.1.4c1.1.2 2.9.2 4.4.3.6.1.1.1 1.5.2h-1.2c1.3.1.3 0 1.4.1l-.4-.1c.7 0 .9.1 1.3.1l-.6-.1c.4 0 1 .1 1 .1h.1c.1 0 .2 0 .7.1h-.4c1.6.1.4 0 1.4 0h.7c.1 0 .3 0 .5.1.2-.3.4-.6.5-.9.2-.3.3-.5.4-.7l.7-1.2.2-.4v.1c.2-.4-.3.4.3-.7l.3-.6c-.1.1 0 0 0-.1l.4-.6c.1-.1.1-.3.2-.4 0-.1.1-.1.1-.2l.1-.2c.2-.1.3-.1.5-.2s.3-.2.5-.2c.4-.2.7-.3 1.1-.5-.3.2-.8.4-.6.3.2-.1.5-.3.7-.3h-.1l2.2-1c-.2.1-1.4.6-.9.4.3-.2.9-.4 1.3-.6 0 0-.7.4 0 .1.1-.1.8-.4.4-.3.7-.3 1.8-.8 2.5-1.1.2-.1-.1 0-.2.1h-.1c-.4.2-.1 0-.9.4-.1 0 1.2-.6 2-1l-1.2.5c.7-.4 1.6-.8 2.5-1.2.4-.2.9-.4 1.3-.6.4-.2.9-.4 1.3-.6.2-.3.5-.5.7-.8.2-.2.4-.5.6-.7-.4.5-.8.9-.7.9.9-1 .8-.9 1.7-1.9l-.1.1c.5-.6 1.1-1.3 1.4-1.7-.2.2-.7.8-.7.8l1.2-1.3c-.4.4-1.2 1.3-1.6 1.8-.3.4.6-.7.5-.5-1.1 1.2-1.4 1.5-1.9 2.1-.4.3.4-.6.6-.8.3-.3.7-.8 1.2-1.2.2-.2.4-.5.7-.8.1-.1.2-.3.4-.4.1-.1.2-.3.3-.4.1.1.2.1.3.2l.7.5c.6.5.3.4 1.5 1.2l-.3-.3c.3.2.4.3.6.4l-1.5-1.2c.4.2.8.6 1.3 1 .3.2.5.4.8.6.1.1.3.2.4.3.1.1.3.2.4.3l-.2-.2c-.1-.1-.2-.2-.3-.2.2.1.3.2.5.4 1.2-1.1 2.5-2.1 3.4-2.9.4-.4-.9.8-.7.5.6-.5 1.2-1.1 1.3-1.2-.3.2 1.3-1.1.2-.2.4-.4.8-.7 1.2-1.1 1.4-1.7 2.8-3.5 4.2-5.2-.1.1-.1.1 0 0-.6.7-1.4 1.7-1.8 2.1.4-.5.9-1.1 1-1.2-.2.2-.6.7-.6.7.5-.6.8-.9 1.1-1.4l-.2.2c1.1-1.3.7-.7 1.8-2.1.4-.5 0 0-.1 0 .1-.1.1-.2.2-.3.1-.1.2-.3.4-.5.2.1.5.3.7.4.2.1.4.2.5.3l-.9-.6c.6.4 1.2.8 1.7 1.2l-.2-.2c.5.4 1.2.8 1.4 1l.2.1c-.3-.2-1.2-.8-1.4-.9.1 0 1 .7 1.4.9-.9-.6-1.3-.9-1.7-1.2-.2-.1-.4-.3-.6-.4-.1-.1-.2-.2-.4-.3s-.4-.2-.6-.4l.3.2-.3-.2c-.2.3-.4.5-.5.7-.2.2-.3.4-.5.6-.3.4-.6.8-.9 1.1.2-.2.2-.3.1-.2-1.3 1.7-2.7 3.4-4.2 5.3l-.1.1-.5.4v.1c-.9.8-.2.1-.8.7l.2-.2c-1.1.9-.6.5-1.2 1.1.3-.2 1.2-1 .9-.7-1.1.9-2.7 2.4-2.9 2.4-.4.3-.8.7-1.2 1.1l-2.1-1.5c-.8-.6-1.5-1.1-2.2-1.6-.3.3-.6.7-.9 1-.2.2.1-.1.1 0-.3.3-.8.9-1.2 1.3-.2.2-.4.5-.5.6-.1.2-.2.3-.2.2-.3.3-.4.5-.4.6l-.6.6c-.2.2-.4.5-.6.7h-.1.1l.3-.3-.2.2-.3.1c-1.6.8-3.4 1.7-4.9 2.3.8-.4-.2.1.2 0-.8.3-2.5 1.1-3.9 1.8 0 0-.1.1.1 0l-.8.4h.1c-.5.2-1 .5-1.4.7-.5.2-1 .5-1.4.7-.1.2-.3.5-.4.7l-.3.6c.3-.6.3-.6.4-.6-.6 1-1.1 2-1.8 3.2 0-.1.1-.1.1-.1-.2.3-.4.7-.6 1v.1c-.1.2-.2.3-.3.5-.1.1-.2.3-.3.5h-.5s-.4 0-.6-.1c-.3 0-2-.2-3-.2-.4 0 .8.1-.2 0-.1-.1-1.3-.1-1.4-.2h-.9l-.2-.1c-.8 0-1.2-.1-2.3-.2h.1c-.4 0-1.2-.1-.6-.1-.2 0-.7 0-1.1-.1-.2.1-.3.3-.5.4-.1.1-.2.2-.3.2l.1-.1.2-.1c.1-.1.3-.2.5-.4h.5-.4c-.1.1-.2.1-.2.2-.1 0-.1.1-.2.1l-.2.2s-.1.1-.2.1l-.1.1c-.9.7-1.8 1.4-2.5 1.9 0 0-.2.2-.5.4l-.9.8.5-.3c-1 .8-1.8 1.4-2.7 2.1-.2.2-1.7 1.3-2.4 2l.7-.5c-.6.5-.9.8-1.3 1-.3.2-.5.4-.8.6-.1-.2-.1-.4-.2-.6.1.2.1.3.2.5v.1l.1-.1c.1-.1.2-.2.4-.3.3-.2.7-.6 1.3-1.1-.4.3-.7.6-1.1.9-.2.1-.3.3-.5.4l-.1.1h-.1l-.1-.3c-.1-.2-.2-.4-.3-.7-.2-.4-.4-.9-.6-1.4 0 .1.2.6 0 .1-.1-.4-.7-1.7-.5-1.4-.2-.6-.3-.6-.4-1l-.7-1.9v.1c-1.3-3.2-2.3-6-3.6-9.2v.1l-.3-.8c.2.6-.1-.3-.2-.3l-.8-2.1c.1-.2.1 0 .3.5zm14 12.7l.4-.3c.1-.1.2-.1.3-.2l-.3.2c-.2.1-.3.3-.4.3zm38.9-16.2c.1-.1.1-.1 0 0l-.2.2.5-.4c0-.1-.2.1-.3.2zm-38.7 16.4l-.2.2-.3.2.5-.4zm-5.8 4.6l.6-.5-.6.5zm-3.5-5v.1-.1c-.2-.5-.3-.7-.4-1.2.2.5.2.9.4 1.2zm7.1 1.9c.2-.2.3-.2.4-.3-.1.1-.5.4-.2.1.2-.1.9-.7.9-.7-.6.4-.9.8-1.1.9zm15.9-4.2h-.2l.7.1-.5-.1zm1.8-1.9c.2-.3.7-1.2 1-1.7.1-.2-.3.4-.7 1.1-.4.8-.1.3-.3.6zm-22.1 9.7l.2-.1-.2.1.6-.4c-.2.2-.5.4-.7.6-.1 0-.1.1-.2.1l-.1.1c-.1 0-.1.1-.2.1-.1-.2-.1-.2-.1-.4v.2c0 .1 0 .1.1.2.1 0 .1-.1.2-.1l.1-.1.1-.1c.2-.2.3-.2.2-.2zm26.5-14.5c.6-.3 1.7-.8 1.6-.7 0-.1-.9.3-1.1.5-.2 0-.3.1-.5.2zm0 .1c-.9.4-1 .4-1.7.7.9-.4 1.1-.5 1-.4.6-.3.5-.2.8-.4l-.1.1zm-1 .3l-.4.2c-.2.1-.3.2-.4.2-.1 0-.1.1-.2.1 0 0-.1 0-.1.1-.1 0-.1.1-.2.1 0 0 0 .1-.1.1 0 0 0 .1-.1.1l.1-.2 1-.5c.1-.1.2-.1.4-.2zm7.4-3.6l-.4.2.4-.2.3-.1c-.8.4-.4.2-.3.1zm-5.7 2.8l-1 .5c.1 0 .7-.4 1-.5zm5.5-2.6c-.4.2-1.3.6-1.4.7.1-.1 1.1-.6 1.4-.7zm19.2-10.2l-.5.6.2-.3.3-.3zm-6.1 5.9l.1-.1.3-.3-.4.4zm-6.1-1.1c.1-.1 0 0 0 0l-.2.2c.1-.1.1-.2.2-.2.2-.2.5-.6.6-.7-.1.1-.4.5-.5.6.1-.2.3-.4.5-.6.2-.2.4-.5.6-.6.3.2.4.3.3.2.2.2 1.1.8.8.6s-.7-.5-1.1-.8c-.2.3-.5.5-.7.8-.2.1-.3.3-.5.5l-.2.2c.1-.1.2-.1.2-.2zm-8.4 6.1c-.3.1-.4.2-.4.2-.2.1-.4.2-.4.1.6-.3.2-.1.4-.1.1 0 .3-.1.4-.2zm-1.6.9l.9-.4-.5.2 1.3-.6c-.7.3-1.6.7-1.7.8zm-.3.1l-.2.1.2-.1-1.4.7 1.4-.7zm-12.9 7.9c-.6.1 1.4.2 1.8.2.1 0 .7 0-.9-.1 1.4.1.9.1 1.7.1-.7 0-1.5-.1-1.6-.1h.8c-.4-.1-1.2 0-1.8-.1zm-7.9 1.1l-.8.6.8-.6zm-14.1-5.3c0 .1-.5-1.1-.6-1.5.2.7.5 1.4.6 1.5zm-4-10.2l.4 1.1c-.1-.2-.4-1-.6-1.5-.1-.1.1.3.2.4zm-2.8-7l-.1-.3.1.3zm.1.5c-.1-.2.2.5.2.7l-.2-.7zm-3.7-2.3l.4-.2-.4.2zm.6-.4c.1 0 .1 0 1.1-.5 0-.1-.2.1.1-.1-.3.2-.6.3-.7.4.2-.1.5-.3.5-.3l-1 .5s-.1 0-.2.1c0 0 .1 0 .2-.1zm2.5.9c.1.1.1.3.1.3v.1c-.1-.2-.1-.3-.1-.4-.1-.1-.1-.3-.2-.5-.1-.1.2.6.2.8-.1-.3-.2-.6-.4-1.1 0 .1 0 0 .1.3l-.2-.6c-.2-.7 0-.1.3.6 0 0 0 .1.1.2 0 0 0 .1.1.3zm-3.7-.4l.3-.2c.2-.1.1 0 .1 0-.3.2-.8.5-.4.2zm9.7 15.6c-.1-.2.1.3.3.8l-.1-.3s-.4-1-.4-1.1c-.1-.1.1.3.2.6zm12.6 10.8c.2-.1 1.2-1 1.5-1.2-.5.5-1.8 1.5-1.5 1.2zm1.9-1.5c.3-.2.4-.3.4-.3.1-.1.4-.3.5-.4-.6.5-.6.4-.9.7-.1.1-.2.1-.3.2.1-.1.2-.2.3-.2zm-9.7 2.8l-.1-.5-.3-.7.4 1.2zm-3-7.9c0 .1-.3-.8-.4-1 0 .1.2.6.4 1.1 0 .1.1.2.1.3 0-.1-.1-.2-.1-.3-.1-.2 0-.1 0-.1l.1.3-.2-.6.1.3zm-5.5-13.9c-.2-.5-.2-.6-.4-.9.1.1.3.6.4.9zm7.1 18c-.3-.8.1.4-.1-.1l.2.4c-.3-.7-.2-.5-.4-1l.1.3c.1.3-.2-.5-.2-.6.2.4.6 1.4.4 1zm-7.3-18.8c-.4-.8-.2-.7-.4-1.2.2.6.1.6.4 1.2zm5.3 13.5l-.2-.6v-.1l.2.7z"/>
      <path class="st1" d="M186.9 218.6c-.1-.2-.1-.3-.2-.5 0 .2.1.3.2.5zM207.8 238l.1-.1c.1 0 0 0-.1.1zM209.2 237.3h.1-.1zM256.7 213.1l-.6-.4c.3.2.4.3.6.4zM254.8 212l.1-.1c.1 0 .1.1.2.1.1.1.2.1.2.2-.1 0-.1-.1-.2-.1s-.1-.1-.2-.2c0 0 0 .1-.1.1zM256.4 212.8c-.4-.3-.7-.5-1-.7.2.2.5.4 1 .7zM250.8 217c.3-.3.7-.8.7-.8-1 1.2.2-.2.3-.3-.6.7-.6.7-1 1.1zM249.5 218.7l.3-.3c-.1 0-.2.1-.3.3zM249.1 219.1l-.3.3c-.2.2-.3.2-.5.4.2-.1.3-.3.4-.4.2-.3.4-.5.6-.8 0 .4-.3.6-.2.5zM236.8 224.2l.3-.3-.6.7c-.3.2.1-.3.3-.4zM234.3 226.5c-.7.3-.3.2-.6.3v-.1l.6-.2zM234.5 226.1l.2-.1s-.1.1-.2.1zM231.1 228l.5-.2c-.5.3-.6.3-.5.2zM228.7 229.3l.4-.2-1.3.6zM225.6 230.7l-.1.1-.8.4zM197.1 244.4c0-.1.1.2.3.6.2.4.3.8.4 1.1-.3-.4-.5-1.2-.7-1.7zM187.4 219.7l.5 1.3c-.5-1-.2-.2-.5-1.3z"/>
    </g>
    <g>
      <path class="st1" d="M265.2 238h.2-.2zM267.6 238.2c-.6 0-1.6-.1-2.2-.2.6 0 2 .1 2.2.2zM265.1 237.9l.8.1c-.5 0-.4-.1-.8-.1zM265.4 238l-.4-.1zM227 235.7c.1 0 .1 0 0 0zM225.3 235.5h-.4.4zM228.6 235.8h-.3.3zM247.9 237c.3 0 .6.1.8.1-.6-.1-.7-.1-.8-.1zM217.3 234.7c-.2 0-.2 0 0 0zM224.9 235.2s-.1 0 0 0h-.1.1zM229.8 235.8h.3-.3zM214.8 234.5c-.1 0-.2 0-.3-.1.3.1.4.1.3.1zM224.8 235.5c.1 0 .1 0 0 0 .1 0 .1 0 0 0zM227.4 235.4h-.4c.1-.1.3 0 .4 0zM247.9 237h-.2c.1-.1.1-.1.2 0zM263.2 237.9h-.3.3zM175.3 232.3zM184.7 232.9h.1c-.1.1-.1 0-.1 0z"/>
      <path class="st1" d="M193.3 233.1c-.6 0-1.2-.1-1.8-.1h.2l-.5-.1c-.9-.1-2-.1-2.3-.2l.1.1-.9-.1.5.1c-1.1-.1-2.6-.2-2.9-.2h.1-.5.1c-1.6-.1-2-.1-3.8-.2h.3c-.3 0-.9-.1-1-.1.1 0 .9.1.3.1-.4 0 .3.1-.4 0l-.3-.1h-.7c-.7-.1.9 0-.3-.1-.6 0-1.2 0-2.3-.1-1 0 .5.1-.8 0l.8.1h-.7c-.2 0-.5-.1-.8-.1 1.2.1-1.1 0 .1.1h-.4c.1 0 .1 0 0 0h-.6c.4 0 1.2.1.8.1h-.8c.2 0-.1 0 0 .1l2.4.2c-.1 0-.4-.1-.3-.1.7 0 .5.1 1.1.1h-.3s.1 0 0 0h-.3c.2 0 .8 0 1 .1h.3c.4.1 1.3.1 1.8.1l-.3-.1c.6 0 1.1.1 1.5.1h-.1c.8.1 1.3 0 1.9.1h-.1c.3 0 .9 0 1.2.1h.2c.2 0 .5 0 1.1.1-.3 0-.2-.1-.6-.1.8 0 .7.1 1.4.1.4 0-.4 0-.4-.1 1 .1 2.1 0 2.7.2h-.4c.4 0 .6.1.6 0h-.2c1.2 0 1.9.2 3.1.3-.1 0-.3 0-.3-.1.6 0 .5.1 1.5.1h-.2c.3 0 .5.1.5.1 0-.1 1.9.1 2.6.1.4.1 1.7.2 2.1.2.6 0-.5-.1-.3-.1.4 0 .7.1 1.3.1 0 0-1.3 0-.1.1h.2-.2l1.3.1c.1.1-.7 0-.8 0 1.1.1 2.3.1 3.3.2h-.1c1.2.1.7 0 1.7.1.5 0-.2-.1.6 0h.1c1 .1.4 0 1.3.1l-.2-.1c1.1.1 2.2.3 3.1.3-.1 0-.6-.1-.8-.1 1.2.1 3 .2 4.1.3-.3 0 .5.1-.2.1-.2-.1-.5-.1-.9-.1.6.1 2.7.1 2.9.2h.2c.2 0 .6.1.3.1l1.3.1c-.4-.1-1.4-.2-1.7-.2-.4-.1.5 0 .2-.1.8.1.5 0 1.4.1-.4 0 .9.1.8.2.3 0 .9.1 1.2.1.5 0 1.7.1 2.5.1-.3 0-.8-.1-.8-.1.4 0 .8.1.9 0-1.4-.2-.5.1-1.8-.1-.3-.1-.7-.1-1.3-.2h.3c.8.1 2.1.1 3.2.3.4.1.1.1 1.1.2h-.9c1 0 .2 0 1 .1l-.3-.1c.5 0 .7 0 .9.1l-.4-.1c.3 0 .7 0 .8.1h.6-.3c1.2.1.3 0 1 0h.4c0 .1 1.4.2 1.8.2l1 .1h.3c.3 0-.4-.1.6 0l.5.1c-.1 0 0 0 0 0l.5.1c.8 0 1.5.1 2.4.2-.3 0-.7 0-.5-.1h.6l1.7.2c-.1 0-1.1-.1-.7-.1.3 0 .8.1 1.1.1 0 0-.6 0 0 0h.4c.6.1 1.4.1 2 .2h-.2c-.4 0-.1-.1-.8-.1-.1-.1 1 0 1.6.1l-1-.1c1.7 0 3.9.3 5.5.4-.5 0-.9-.1-.8 0 1 .1.9.1 1.9.1h-.1c.5 0 1.2.1 1.6.1-.2 0-.7 0-.8-.1l1.3.1c-.4-.1-1.3-.1-1.8-.1-.4 0 .7.1.5.1-1.2-.1-1.5-.1-2-.2-.4-.1.5 0 .7 0 .8.1 1.9.2 3 .3h.7c.6.1.3.1 1.4.2l-.3-.1h.5c-.5-.1-.9-.1-1.4-.2.6 0 1.7.1 2.6.2 0 0-.4 0-.4-.1 1.3.1 2.7.2 3.7.3.4 0-.8-.1-.6-.1.5.1 1.1.1 1.3.1-.2-.1 1.2.1.2 0 1.9.1 4.1.3 6 .4-.1 0-.1 0 0 0-.7 0-1.6-.1-2-.2.4 0 1 .1 1.1.1-.2 0-.7-.1-.7-.1.6 0 .9.1 1.3.1h-.2c1.2.1.7.1 2 .2.5 0 0 0 0-.1.3 0 1.3.1 1.6.1h-.8c.6 0 1.1.1 1.5.1h-.2c.4 0 1 .1 1.2.1h.1c-.3 0-1.1 0-1.2-.1.1 0 .9 0 1.2.1-1.5-.1-1.6-.2-2.9-.2h.2c-.8 0-1.7-.1-2.4-.2h.1c-1.6-.1-3.1-.2-4.9-.3l-.5-.1c-.9 0-.2-.1-.8-.1h.2c-1-.1-.6 0-1.1-.1.3.1 1.1.1.8.1-1-.1-2.6-.2-2.7-.3-1.9-.1-4.2-.3-5.8-.4h.1c-.6-.1-2.1-.1-2.1-.1h-.5c-.4 0-.9-.1-1.4-.1h.4l-.5-.1c-1.3-.1-2.7-.2-3.9-.3.7.1-.2 0 .1.1-.6-.1-2-.2-3.1-.3 0 0-.1 0 0 0l-.7-.1h.1c-1.2-.1-2.5-.2-3.3-.2.5 0 .5.1.5.1-.9-.1-1.7-.1-2.6-.2h.1c-.3 0-.6 0-.8-.1-.5 0-1.2-.1-1.8-.1-.2 0-1.5-.1-2.2-.2-.3 0 .6.1-.2 0-.1-.1-1-.1-1-.1H220.7c-.6 0-.8-.1-1.7-.1h.1c-.3 0-.9-.1-.4-.1-.4 0-1.9-.1-1.3-.1 0 0 .6 0 .8.1h-.9H217c-.8-.1-1.7-.1-2.3-.2h-.5l-.9-.1.4.1c-1-.1-1.6-.2-2.4-.2-.2.1-1.5-.1-2.2-.1l.6.1c-1.3-.1-1.5-.1-2.8-.2 1.1 0 1.1.1 2.6.1-1.5-.1-2.6-.2-4.1-.3.1 0 .4.1.1.1-.3-.1-1.3-.1-1.1-.1h-.8l-1.5-.1c-2.5-.1-4.6-.4-7.1-.5l-.6-.1c.5.1-.2 0-.3 0l-1.6-.2c.3-.1.4 0 .8 0zm21 1.4H214.9 214.3zm34.9 2.3h-.4H249.2zm-34.9-2h-.5.5zm-5.4-.4l.5.1-.5-.1zm-5.9-.6h.1-.1c-.4 0-.6 0-.9-.1.4 0 .7.1.9.1zm9.4.6h.4c-.1 0-.5-.1-.2-.1.2 0 .8.1.8.1-.5 0-.9.1-1 0zm12.7.9h-.1l.5.1-.4-.1zm2.3.1c.3.1 1 .1 1.5.1.1 0-.4-.1-.9-.1-.8 0-.4.1-.6 0zm-19.1-1.2h.1-.1l.5.1c-.7 0-1.2-.1-1.5-.1.3 0 1.1.1 1 0zm24 1.6c.5.1 1.4.1 1.3.2 0 0-.7-.1-.9-.1-.2-.1-.3-.1-.4-.1zm-.1 0c-.7-.1-.8-.1-1.3-.2.7 0 .9.1.8.1.5.1.4 0 .7 0l-.2.1zm-.7-.1h-1.2 1.2zm6 .4h-.3c.3-.1.3 0 .3 0h.2-.2zm-4.6-.3l-.8-.1s.6.1.8.1zm4.4.3c-.4 0-1.3-.1-1.1-.1 0 0 .9.1 1.1.1zm18.5 1.2h-.5.5zm-6.2-.3h.4-.4zm-5.7-.4c-.1 0-.2 0-.2-.1 0 .1.1.1.2.1h.7c-.1 0-.4 0-.6-.1.5 0 1.7.2 1.4.1.2 0 1 .1.7.1-.6 0-1.8-.1-2.2-.1h-.2.2zm-7.7-.5h-.4c-.2 0-.3 0-.3-.1.5 0 .2 0 .3.1h.4zm-1.4 0l.7.1h-.4l1.1.1c-.6-.1-1.3-.2-1.4-.2zm-.2 0h-.1.1l-1.2-.1 1.2.1zm-12.2-.9c-.5.1 1 .1 1.3.2.1 0 .5 0-.7-.1 1 0 .6.1 1.2.1-.5 0-1.1-.1-1.1-.1h.6c-.4-.1-.9 0-1.3-.1zm-6.2-.4l-.7-.1.7.1zm-18.4-1.1c.1 0-.9 0-1.1-.1.4 0 1 .1 1.1.1zm-7.9-.5l.8.1c-.2 0-.8-.1-1.1-.1-.2-.1.1 0 .3 0zm-5.5-.4h-.3.3zm.4.1c-.2 0 .4.1.5.1l-.5-.1zm-5-.3h.4-.4zm.6 0c.1 0 0 .1.9.1 0 0-.2 0 .1-.1h-.6.4-.8-.2.2zm2.9.2h0-.4c-.1 0 .5.1.6.1-.3 0-.5-.1-.8-.1h.2-.5c-.5-.1 0-.1.5 0h.2c.1-.1.1-.1.2 0zm-3.8-.4h.4c-.4.1-.8 0-.4 0zm15.8 1.1c-.2 0 .2.1.6.1h-.2s-.8-.1-.9-.1c-.1-.1.2 0 .5 0zm18.3 1.1c.1.1 1.1.1 1.4.1-.5 0-1.7 0-1.4-.1zm1.8.1h.8c-.5.1-.5.1-.8 0h-.3.3zm-10.7-.7l-.4-.1h-.6l1 .1zm-6.2-.4h-.7.7c.1.1.2.1.3.1 0-.1-.1-.1-.3-.1 0 0 .1 0 0 0h.2-.5.3zm-10.8-.8h-.7.7zm14.1.9c-.7 0 .3.1-.1.1h.3c-.6 0-.4-.1-.8-.1h.3c.2 0-.4 0-.5-.1.3.1 1 .2.8.1zm-14.7-.9c-.7 0-.5-.1-.9-.1.5 0 .4 0 .9.1zm10.5.6l-.5-.1.5.1zM186.3 233h-.4.4zM217 235h0zM218.3 235.1zM262.8 237.9c.3.1-.3 0-.5 0h.5zM261.1 237.7c.1 0 .3 0 .5.1-.1 0-.3 0-.5-.1zM262.5 237.8c-.3 0-.6 0-.9-.1.3.1.5.1.9.1zM256.4 237.5c.3 0 .8.1.8.1-1.1-.1.2.1.3.1-.7-.2-.7-.2-1.1-.2zM254.9 237.3h.3c-.1.1-.2 0-.3 0zM254.5 237.3c-.4 0-.5-.1-.7-.1.5 0 .8.1 1.1.1h-.4z"/>
      <path class="st1" d="M242.3 236.7h.3-.7c-.2-.1.3 0 .4 0zM239.9 236.4h-.5.5zM240.2 236.2h.2-.2zM237.3 236.3l.4.1c-.5 0-.5-.1-.4-.1zM235.3 236.2l.3.1-.9-.1zM232.9 236.1h-.1l-.7-.1zM206.4 234.3c-.1-.1 1 0 1.3 0-.2.1-.8 0-1.3 0zM187.2 233.1l1 .1c-.8-.1-.2-.1-1-.1z"/>
    </g>
    <g>
      <path class="st1" d="M264.7 210.1h.2-.2zM266.9 210.2c-.6 0-1.5-.1-2.1-.2.6.1 2 .2 2.1.2z"/>
      <path class="st1" d="M264.6 210l.7.1c-.4-.1-.4-.1-.7-.1zM264.8 210.1l-.4-.1zM227.4 207.8c.1 0 .1 0 0 0zM225.7 207.6h-.3.3zM229 207.9h-.3.3zM247.8 209.1c.3 0 .5.1.7.1-.5-.1-.6-.1-.7-.1zM217.9 206.9c-.1 0-.1-.1 0 0zM225.3 207.4h-.1.1zM230.1 208c.1 0 .1 0 0 0h.3-.3zM215.6 206.7c-.1 0-.2 0-.3-.1.2 0 .3.1.3.1zM225.3 207.6s.1 0 0 0c.1 0 0 0 0 0zM227.8 207.5h-.4.4zM247.8 209.1h-.2c0-.1.1-.1.2 0zM262.7 210h-.3.3zM177.1 204.5zM186.2 205.2h.1-.1zM194.6 205.3c-.6 0-1.2-.1-1.7-.1h.2-.5c-.9-.1-1.9-.1-2.2-.2h.1l-.9-.1.5.1c-1-.1-2.6-.2-2.8-.2h.1-.5.1c-1.5-.1-2-.1-3.7-.2h.3c-.3 0-.9-.1-1-.1.1 0 .9.1.3.1-.4 0 .3.1-.4 0l-.3-.1h-.7c-.7-.1.8 0-.3-.1-.6 0-1.2 0-2.3-.1-.9 0 .5.1-.8 0l.8.1h-.6c-.2 0-.5-.1-.8-.1 1.2.1-1.1 0 .1.1h-.4c.1 0 .1 0 0 0h-.6c.3 0 1.2.1.8.1h-.8c.2 0-.1 0 0 .1l2.4.2c-.1 0-.4-.1-.3-.1.6 0 .5.1 1.1.1h-.3s.1 0 0 0h-.3c.2 0 .8 0 1 .1h.3c.4.1 1.3.1 1.8.1h-.3c.6 0 1.1.1 1.5.1h-.1c.8.1 1.2 0 1.8.1h-.1c.3 0 .8 0 1.2.1h.2c.2 0 .5 0 1 .1-.3 0-.2-.1-.6-.1.8 0 .7.1 1.3.1.4 0-.3 0-.4-.1 1 .1 2 0 2.7.2h-.4c.4 0 .6.1.6 0h-.2c1.2 0 1.9.2 3.1.2-.1 0-.3 0-.3-.1.6 0 .5.1 1.4.1h-.2c.3 0 .5 0 .5.1 0-.1 1.9.1 2.5.1.4.1 1.7.2 2.1.2.6 0-.5-.1-.3-.1.4 0 .7.1 1.3.1 0 0-1.3 0-.1.1h.2-.2l1.3.1h-.8c1 .1 2.3.1 3.2.2h-.1c1.2.1.7 0 1.7.1.5 0-.2-.1.6 0 .2 0 .1 0 0 0 .9.1.4 0 1.3.1l-.2-.1c1 .1 2.1.2 3 .3-.1 0-.6-.1-.8-.1 1.2.1 2.9.2 4 .3-.3 0 .5.1-.2.1-.2-.1-.5 0-.9-.1.6.1 2.6.1 2.8.2h.2c.2 0 .6.1.3.1l1.2.1c-.4-.1-1.3-.2-1.6-.2-.4-.1.5 0 .2-.1.8.1.5 0 1.4.1-.4 0 .9.1.8.1.3 0 .9.1 1.1.1.5 0 1.6.1 2.4.1-.3 0-.8-.1-.7-.1.4 0 .8.1.9 0-1.4-.2-.5.1-1.7-.1-.3-.1-.7-.1-1.3-.1h.3c.8.1 2.1.1 3.1.3.4.1.1.1 1.1.2h-.9c.9 0 .2 0 1 .1h-.3c.5 0 .6 0 .9.1l-.4-.1c.3 0 .7 0 .7.1h.6-.3c1.1.1.3 0 1 0h.3c0 .1 1.4.2 1.7.2l.9.1h.3c.3 0-.4-.1.6 0l.5.1c-.1 0 0 0 0 0l.5.1c.8 0 1.4.1 2.3.2-.3 0-.6 0-.5-.1h.6l1.7.2c-.1 0-1.1-.1-.7-.1.3 0 .7 0 1 .1 0 0-.6 0 0 0h.4c.6.1 1.4.1 1.9.2h-.2c-.3 0-.1-.1-.7-.1-.1-.1 1 0 1.6.1l-1-.1c1.6 0 3.8.3 5.4.4-.5 0-.9-.1-.8 0 1 .1.9.1 1.8.1h-.1c.5 0 1.2.1 1.5.1-.2 0-.7 0-.7-.1l1.2.1c-.4-.1-1.2-.1-1.7-.1-.3 0 .7.1.5.1-1.2-.1-1.4-.1-2-.2-.3-.1.5 0 .7 0 .7.1 1.8.2 3 .2h.6c.6.1.3.1 1.4.2h-.3.5c-.4-.1-.9-.1-1.3-.2.6 0 1.7.1 2.5.2 0 0-.3 0-.4-.1 1.3.1 2.6.2 3.6.3.4 0-.8-.1-.6-.1.5 0 1.1.1 1.2.1-.2-.1 1.2.1.2 0 1.9.1 3.9.3 5.8.4-.1 0-.1 0 0 0-.6 0-1.6-.1-1.9-.2.4 0 1 .1 1.1.1-.2 0-.6-.1-.6-.1.6 0 .9.1 1.2.1h-.2c1.2.1.7.1 1.9.2.5 0 0 0 0-.1.3 0 1.3.1 1.6.1h-.8c.5 0 1.1.1 1.4.1h-.2c.4 0 1 .1 1.2.1h.1c-.3 0-1 0-1.2-.1.1 0 .9 0 1.2.1-1.5-.1-1.5-.2-2.8-.2h.2c-.8 0-1.6-.1-2.3-.2h.1c-1.5-.1-3-.2-4.8-.3l-.5-.1c-.9 0-.2-.1-.7-.1h.2c-1-.1-.6 0-1.1-.1.3.1 1.1.1.8.1-1-.1-2.5-.2-2.7-.3-1.8-.1-4.1-.3-5.7-.4-.2 0 .1 0 0 0-.6-.1-2.1-.1-2.1-.1h-.5c-.4 0-.9-.1-1.4-.1h.4-.5c-1.2-.1-2.7-.2-3.8-.3.6.1-.2 0 .1.1-.6-.1-1.9-.2-3.1-.3 0 0-.1 0 0 0l-.6-.1h.1c-1.2-.1-2.4-.2-3.2-.2.5 0 .5.1.5.1-.8-.1-1.6-.1-2.6-.2h.1c-.3 0-.6 0-.8-.1-.5 0-1.1-.1-1.7-.1-.2 0-1.4-.1-2.1-.2-.3 0 .6.1-.2 0-.1-.1-.9-.1-1-.1h-.7c-.5 0-.8-.1-1.6-.1h.1c-.3 0-.9-.1-.4-.1-.4 0-1.9-.1-1.2-.1 0 0 .6 0 .8.1h-.8H217.6c-.8-.1-1.6-.1-2.2-.2h-.5l-.9-.1.4.1c-.9 0-1.6-.2-2.4-.2-.2.1-1.5-.1-2.2-.1l.6.1c-1.3-.1-1.5-.1-2.7-.2 1 0 1 .1 2.5.1-1.5-.1-2.6-.2-3.9-.3.1 0 .4.1.1 0-.3-.1-1.3-.1-1.1-.1h-.8l-1.4-.1c-2.4-.1-4.5-.4-7-.5l-.6-.1c.5.1-.2 0-.2 0l-1.6-.1c.4-.2.5-.2.9-.2zm20.5 1.4H215.7 215.1zm34 2.2h-.4.6c.1.1-.1 0-.2 0zm-34-2h-.5.5zm-5.3-.3h.5-.5zm-5.8-.6h0c-.4 0-.6 0-.9-.1.5 0 .7.1.9.1zm9.2.6h.4c-.1 0-.4-.1-.2-.1s.8.1.8.1c-.5 0-.9.1-1 0zm12.4.8h-.1l.5.1-.4-.1zm2.2.2c.3.1.9.1 1.4.1.1 0-.4-.1-.9-.1-.6-.1-.2 0-.5 0zm-18.6-1.2h.1-.1l.5.1c-.7 0-1.2-.1-1.5-.1.3-.1 1.2.1 1 0zm23.4 1.5c.5.1 1.3.1 1.3.2 0 0-.7-.1-.9-.1-.2-.1-.3-.1-.4-.1zm-.1.1c-.7-.1-.7-.1-1.3-.2.7 0 .9.1.8.1.5.1.4 0 .6 0l-.1.1zm-.7-.2h-1.2 1.2zm5.8.4h-.3.5-.2zm-4.4-.3l-.8-.1c0 .1.5.1.8.1zm4.2.3c-.3 0-1.2-.1-1.1-.1.1 0 .9.1 1.1.1zm18.1 1.2h-.5.5zm-6.1-.3h.4-.4zm-5.5-.4c-.1 0-.2 0-.2-.1 0 .1.1.1.2.1h.7c-.1 0-.4 0-.6-.1.5 0 1.6.2 1.3.1.2 0 1 .1.7.1-.6 0-1.7-.1-2.1-.1h-.2.2zm-7.5-.4h-.3c-.2 0-.3 0-.3-.1.4 0 .2 0 .3.1 0-.1.1 0 .3 0zm-1.4-.1l.7.1h-.3l1 .1c-.6-.1-1.3-.2-1.4-.2zm-.2 0h-.1.1l-1.1-.1 1.1.1zm-11.9-.8c-.4.1 1 .1 1.2.2.1 0 .5 0-.6-.1 1 0 .6.1 1.2.1-.5 0-1-.1-1.1-.1h.6c-.4-.1-.9-.1-1.3-.1zm-5.9-.4h-.7.7zm-18-1.1c.1 0-.9 0-1.1-.1.4 0 1 .1 1.1.1zm-7.7-.5l.8.1c-.2 0-.7 0-1.1-.1-.2-.1.1 0 .3 0zm-5.4-.4h-.3.3zm.4.1c-.2 0 .4.1.5.1l-.5-.1zm-4.8-.3h.3-.3zm.5 0c.1 0 0 .1.8.1 0 0-.2 0 .1-.1h-.6.4c-.2.1-.5 0-.7 0h-.2.2zm2.9.2h0-.4c-.1 0 .4.1.6.1-.3 0-.5-.1-.8-.1h.2-.5c-.5-.1 0-.1.5 0h.1c.1-.1.2 0 .3 0zm-3.8-.3h.4-.4zm15.4 1c-.2 0 .2.1.6.1h-.2s-.8-.1-.9-.1c-.1-.1.2 0 .5 0zm17.9 1.1c.1.1 1.1.1 1.3.1-.5 0-1.6-.1-1.3-.1zm1.7.1h.8c-.5.1-.5 0-.8 0h-.2.2zm-10.4-.7l-.4-.1h-.6l1 .1zm-6-.4h-.7.7c.1 0 .2.1.3.1-.1-.1-.1-.1-.3-.1-.1 0 0 0 0 0h.2-.5.3zm-10.5-.7h-.7c.1-.1.4-.1.7 0zm13.7.8c-.6 0 .3.1-.1 0h.3c-.5 0-.4-.1-.8-.1h.3c.2 0-.4 0-.4-.1.2.2.9.3.7.2zm-14.3-.9c-.6 0-.5-.1-.9-.1.5 0 .4.1.9.1zm10.2.6l-.5-.1.5.1zM187.8 205.2h-.3.3zM217.7 207.2h0zM218.9 207.3c.1 0 .1 0 0 0zM262.3 210c.3.1-.3 0-.5 0h.5zM260.6 209.8c.1 0 .3 0 .5.1-.1 0-.2 0-.5-.1zM262 209.9h-.8.8zM256.1 209.5c.3 0 .8.1.8.1-1.1-.1.2.1.3.1-.7-.1-.7-.1-1.1-.2zM254.6 209.4h.3c-.1.1-.2 0-.3 0zM254.2 209.4c-.4 0-.5-.1-.7-.1.5 0 .8.1 1.1.1h-.4zM242.3 208.8h.3-.3zM240 208.6h-.5.5zM240.3 208.4h.2-.2z"/>
      <path class="st1" d="M237.5 208.5l.4.1c-.5-.1-.5-.2-.4-.1zM235.5 208.4h.3l-.9-.1zM233.2 208.2h-.1l-.7-.1zM207.4 206.5h1.2c-.2.1-.8-.1-1.2 0zM188.7 205.3l1 .1c-.8-.1-.3-.1-1-.1z"/>
    </g>
    <g>
      <path class="st1" d="M262.3 253.3h.2-.2zM264.6 253.5c-.6 0-1.5-.1-2.1-.2.5.1 1.9.1 2.1.2zM262.2 253.2l.7.1c-.4 0-.3 0-.7-.1zM262.4 253.3h-.4zM224.4 251c0 .1.1.1 0 0zM222.6 250.8h-.4.4zM225.9 251.1h-.3.3zM245.1 252.3c.3 0 .6.1.8.1-.6 0-.7-.1-.8-.1zM214.7 250.1c-.1-.1-.2-.1 0 0zM222.2 250.6h-.1.1zM227.1 251.2h.3-.3zM212.3 249.9c-.1 0-.2 0-.3-.1.2 0 .3.1.3.1zM222.2 250.8s.1 0 0 0c.1 0 0 0 0 0zM224.7 250.7h-.4.4zM245.1 252.3h-.2.2zM260.3 253.2h-.3.3zM173.2 247.7c-.1 0-.1 0 0 0zM182.4 248.3h.1-.1z"/>
      <path class="st1" d="M190.9 248.5c-.6 0-1.2-.1-1.7-.1h.2l-.5-.1c-.9-.1-2-.1-2.3-.2l.1.1-.9-.1.5.1c-1-.1-2.6-.2-2.8-.2h.1-.5.1c-1.6-.1-2-.1-3.8-.2h.3c-.3 0-.9-.1-1-.1.1 0 .9.1.3.1-.4 0 .3.1-.4 0l-.3-.1h-.7c-.7-.1.9 0-.3-.1-.6 0-1.2 0-2.3-.1-1 0 .5.1-.8 0l.8.1h-.7c-.2 0-.5-.1-.8-.1 1.2.1-1.1 0 .1.1h-.4c.1 0 .1 0 0 0h-.6c.3 0 1.2.1.8.1h-.8c.2 0-.1 0 0 .1l2.4.2c-.1 0-.4-.1-.3-.1.6 0 .5.1 1.1.1h-.3s.1 0 0 0h-.3c.2 0 .8 0 1 .1h.3c.4.1 1.3.1 1.8.1l-.3-.1c.6 0 1.1.1 1.5.1h-.1c.8.1 1.3 0 1.9.1h-.1c.3 0 .9 0 1.2.1h.2c.2 0 .5 0 1 .1-.3 0-.2-.1-.6-.1.8 0 .7.1 1.4.1.4 0-.3 0-.4-.1 1 .1 2.1 0 2.7.2h-.4c.4 0 .6.1.6 0h-.2c1.2 0 1.9.2 3.1.2-.1 0-.3 0-.3-.1.6 0 .5.1 1.5.1h-.2c.3 0 .5.1.5.1 0-.1 1.9.1 2.6.1.4.1 1.7.2 2.1.2.6 0-.5-.1-.3-.1.4 0 .7.1 1.3.1 0 0-1.3 0-.1.1h.2-.2l1.3.1c.1.1-.7 0-.8 0 1 .1 2.3.1 3.3.2h-.1c1.2.1.7 0 1.7.1.5 0-.2-.1.6 0h.1c1 .1.4 0 1.3.1l-.2-.1c1.1.1 2.2.3 3.1.3-.1 0-.6-.1-.8-.1 1.2.1 3 .2 4.1.3-.3 0 .5.1-.2.1-.2-.1-.5-.1-.9-.1.6.1 2.7.1 2.8.2h.2c.2 0 .6.1.3.1l1.3.1c-.4-.1-1.4-.2-1.7-.2-.4-.1.5 0 .2-.1.8.1.5 0 1.4.1-.4 0 .9.1.8.2.3 0 .9.1 1.2.1.5 0 1.7.1 2.5.1-.3 0-.8-.1-.8-.1.4 0 .8.1.9 0-1.4-.2-.5.1-1.7-.1-.3-.1-.7-.1-1.3-.2h.3c.8.1 2.1.1 3.2.3.4.1.1.1 1.1.2h-.9c1 0 .2 0 1 .1l-.3-.1c.5 0 .7 0 .9.1l-.4-.1c.3 0 .7 0 .7.1h.6-.3c1.2.1.3 0 1 0h.3c0 .1 1.4.2 1.8.2l1 .1h.3c.3 0-.4-.1.6 0l.5.1c-.1 0 0 0 0 0l.5.1c.8 0 1.4.1 2.3.2-.3 0-.7 0-.5-.1h.6l1.7.2c-.1 0-1.1-.1-.7-.1.3 0 .7.1 1.1.1 0 0-.6 0 0 0h.4c.6.1 1.4.1 2 .2h-.2c-.4 0-.1-.1-.7-.1-.1-.1 1 0 1.6.1l-1-.1c1.6 0 3.8.3 5.5.4-.5 0-.9-.1-.8 0 1 .1.9.1 1.9.1h-.1c.5 0 1.2.1 1.6.1-.2 0-.7 0-.7-.1l1.3.1c-.4-.1-1.3-.1-1.7-.1-.3 0 .7.1.5.1-1.2-.1-1.4-.1-2-.2-.4-.1.5 0 .7 0 .7.1 1.8.2 3 .3h.6c.6.1.3.1 1.4.2l-.3-.1h.5c-.4-.1-.9-.1-1.3-.2.6 0 1.7.1 2.6.2 0 0-.4 0-.4-.1 1.3.1 2.7.2 3.7.3.4 0-.8-.1-.6-.1.5.1 1.1.1 1.3.1-.2-.1 1.2.1.2 0 1.9.1 4 .3 6 .4-.1 0-.1 0 0 0-.7 0-1.6-.1-2-.2.4 0 1 .1 1.1.1-.2 0-.7-.1-.7-.1.6 0 .9.1 1.3.1h-.2c1.2.1.7.1 2 .2.5 0 0 0 0-.1.3 0 1.3.1 1.6.1h-.8c.6 0 1.1.1 1.5.1h-.2c.4 0 1 .1 1.2.1h.1c-.3 0-1 0-1.2-.1.1 0 .9 0 1.2.1-1.5-.1-1.5-.2-2.8-.2h.2c-.8 0-1.6-.1-2.3-.2h.1c-1.6-.1-3.1-.2-4.9-.3l-.5-.1c-.9 0-.2-.1-.7-.1h.2c-1-.1-.6 0-1.1-.1.3.1 1.1.1.8.1-1-.1-2.6-.2-2.7-.3-1.9-.1-4.2-.3-5.8-.4h.1c-.6-.1-2.1-.1-2.1-.1h-.5c-.4 0-.9-.1-1.4-.1h.4l-.5-.1c-1.3-.1-2.7-.2-3.9-.3.7.1-.2 0 .1.1-.6-.1-2-.2-3.1-.3 0 0-.1 0 0 0l-.7-.1h.1c-1.2-.1-2.5-.2-3.2-.2.5 0 .5.1.5.1-.8-.1-1.6-.1-2.6-.2h.1c-.3 0-.6 0-.8-.1-.5 0-1.2-.1-1.8-.1-.2 0-1.4-.1-2.1-.2-.3 0 .6.1-.2 0-.1-.1-1-.1-1-.1H218.9c-.6 0-.8-.1-1.7-.1h.1c-.3 0-.9-.1-.4-.1-.4 0-1.9-.1-1.3-.1 0 0 .6 0 .8.1h-.9H215.2c-.8-.1-1.7-.1-2.3-.2h-.5l-.9-.1.4.1c-1 0-1.6-.2-2.4-.2-.2.1-1.5-.1-2.2-.1l.6.1c-1.3-.1-1.5-.1-2.7-.2 1 0 1 .1 2.6.1-1.5-.1-2.6-.2-4-.3.1 0 .4.1.1.1-.3-.1-1.3-.1-1.1-.1h-.8l-1.4-.1c-2.5-.1-4.6-.4-7.1-.5l-.6-.1c.5.1-.2 0-.3 0l-1.6-.2c-.6 0-.5.1-.1.1zm20.9 1.4H212.4 211.8zm34.6 2.3h-.4H246.4zm-34.6-2.1h-.5.5zm-5.3-.3l.5.1-.5-.1zm-5.9-.6h.1-.1c-.4 0-.6 0-.9-.1.4 0 .6.1.9.1zm9.3.6h.4c-.1 0-.4-.1-.2-.1s.8.1.8.1c-.5 0-.9.1-1 0zm12.6.8h-.1l.5.1-.4-.1zm2.2.2c.3.1 1 .1 1.4.1.1 0-.4-.1-.9-.1-.6-.1-.2 0-.5 0zm-18.9-1.2h.1-.1l.5.1c-.7 0-1.2-.1-1.5-.1.3-.1 1.2.1 1 0zm23.8 1.5c.5.1 1.4.1 1.3.2 0 0-.7-.1-.9-.1-.1-.1-.2-.1-.4-.1zm0 .1c-.7-.1-.7-.1-1.3-.2.7 0 .9.1.8.1.5.1.4 0 .7 0l-.2.1zm-.8-.2h-1.2 1.2zm6 .4h-.3.5-.2zm-4.6-.3l-.8-.1c.1.1.6.1.8.1zm4.4.3c-.4 0-1.3-.1-1.1-.1 0 .1.8.1 1.1.1zm18.3 1.3h-.5.5zm-6.1-.4h.4-.4zm-5.7-.3s0-.1 0 0c-.1 0-.2 0-.2-.1 0 0 .1 0 .2.1h.7c-.1 0-.4 0-.6-.1.5 0 1.7.2 1.4.1.2 0 1 .1.7.1-.6-.1-1.8-.1-2.2-.1h-.2.2zm-7.6-.5h-.3c-.2 0-.3 0-.3-.1.4 0 .2 0 .3.1h.3zm-1.4-.1l.7.1h-.4l1.1.1c-.6-.1-1.3-.2-1.4-.2zm-.2 0h-.1.1l-1.1-.1 1.1.1zm-12.1-.8c-.4.1 1 .1 1.3.2.1 0 .5 0-.7-.1 1 0 .6.1 1.2.1-.5 0-1.1-.1-1.1-.1h.6c-.4-.1-.9-.1-1.3-.1zm-6.1-.4l-.7-.1.7.1zm-18.3-1.1c.1 0-.9 0-1.1-.1.5 0 1 .1 1.1.1zm-7.9-.6l.8.1c-.2 0-.7-.1-1.1-.1h.3zm-5.4-.3h-.3.3zm.4.1c-.2 0 .4.1.5.1l-.5-.1zm-4.9-.3h.3-.3zm.6 0c.1 0 0 .1.8.1 0 0-.2 0 .1-.1h-.6.4-.7-.2.2zm2.9.1h.2c-.1.1-.2.1-.2 0h-.4c-.1 0 .5.1.6.1-.3 0-.5-.1-.8-.1h.2-.5c-.5-.1 0-.1.5 0h.4zm-3.9-.3h.4c-.3.1-.7 0-.4 0zm15.7 1c-.2 0 .2.1.6.1h-.2s-.8-.1-.9-.1h.5zm18.2 1.2c.1.1 1.1.1 1.4.1-.5 0-1.7-.1-1.4-.1zm1.8.1h.8c-.6.1-.5 0-.8 0h-.3.3zm-10.7-.7l-.4-.1h-.6l1 .1zm-6.1-.5h-.7s.5.1.7 0c.1.1.2.1.3.1 0 0-.1 0-.3-.1 0 .1.1.1 0 0h.2-.5.3zm-10.7-.7h-.7.7zm14 .9c-.7 0 .3.1-.1.1h.3c-.6 0-.4-.1-.8-.1h.3c.2 0-.4 0-.4-.1.2.1.9.1.7.1zm-14.6-.9c-.7 0-.5-.1-.9-.1.5 0 .4 0 .9.1zm10.4.6l-.5-.1.5.1zM184 248.4h-.4.4zM214.4 250.4h0zM215.7 250.5c.1 0 .1 0 0 0zM259.9 253.3c.3.1-.3 0-.5 0 .2-.1.3-.1.5 0zM258.2 253.1c.1 0 .3 0 .5.1-.1-.1-.3-.1-.5-.1zM259.6 253.2c-.3 0-.6 0-.9-.1.2.1.4.1.9.1z"/>
      <path class="st1" d="M253.5 252.8c.3 0 .8.1.8.1-1.1-.1.2.1.3.1-.7-.1-.7-.1-1.1-.2zM252 252.7h0zM251.6 252.7c-.4 0-.5-.1-.7-.1.5 0 .8.1 1.1.1h-.4zM239.5 252h.3H239.5zM237.1 251.8h-.5.5zM237.4 251.6h.2-.2zM234.6 251.7l.4.1c-.5-.1-.5-.1-.4-.1zM232.6 251.6h.3-.9zM230.2 251.4h-.7zM204 249.7c-.1-.1 1 0 1.3 0-.3.1-.9-.1-1.3 0zM184.9 248.4l1 .1c-.8 0-.2 0-1-.1z"/>
    </g>
    <g>
      <path class="st1" d="M159.5 199s0 .1-.1.3-.1.3-.1.4c-.1.4-.2.9-.2 1.5 0 .1 0 .2-.1.3 0 0-.1 0-.2.1v-.5s0-.2.1-.5c.1-.4.2-.8.2-1 0-.1.1-.3.2-.5 0 0 .1-.1.1-.2l.1.1zm2.5 2.3c0 .1-.1.1-.2.1 0 0-.2 0-.3-.1l-.7-.2c-.2-.1-.4-.1-.6-.2-.1 0-.2 0-.3-.1-.2 0-.3-.1-.4-.1l-.2-.2c0-.1.1-.2.2-.2 0 0 .1 0 .3-.1.2 0 .4-.1.4-.1.2-.1.4-.2.6-.5.3-.3.4-.5.4-.6 0-.2-.1-.4-.3-.5-.1 0-.3-.1-.6-.1h-.3s-.1 0-.3.1c-.1 0-.3.1-.5.3 0 .1-.1.1-.2.2l-.1-.1c0-.1.1-.3.3-.4.1-.1.3-.1.5-.2.3-.1.5-.1.7-.1.3 0 .5.1.7.2 0 0 .1.1.2.3.1.1.1.2.1.3 0 .2-.2.5-.4.7s-.4.4-.7.5c0 0-.1.1-.3.1h-.2c-.2 0-.2 0-.3.1 0 0 .1.1.3.1.1 0 .2.1.4.1.1 0 .2.1.4.1.2.2.7.3 1.4.6zM164 201.7c-.1.1-.1.1-.2.1h-.7c-.2 0-.3 0-.5-.1-.3-.1-.4-.2-.4-.3v-.3c0-.2.1-.3.3-.4.1-.1.3-.1.5-.1s.3.1.4.1c.1.1.1.2.1.3s-.1.1-.4.2c-.2.1-.4.1-.5.1v.1s.1.1.2.1.2.1.3.1h.6s.1 0 .3.1c-.1 0 0 0 0 0zm-.8-.8c-.1-.1-.2-.1-.3-.1h-.3s-.2.1-.2.2v.1h.1s.2 0 .4-.1c.2 0 .3-.1.3-.1zM166.4 200.7c-.1 0-.2.1-.4.2 0 0-.1.1-.3.2-.6.5-1 .8-1.1.8l-.2-.2c-.1-.1-.1-.2-.1-.3s0-.2-.1-.3c0-.1-.1-.2-.2-.3v-.2h.1s.1.2.3.5c.1.3.2.5.3.5 0 0 .2-.1.5-.3s.5-.4.5-.4c.2-.1.4-.2.5-.3h.1l.1.1zM168.2 202c-.1.1-.1.1-.2.1h-.7c-.2 0-.3 0-.5-.1-.3-.1-.4-.2-.4-.3v-.3c0-.2.1-.3.3-.4.1-.1.3-.1.5-.1s.3.1.4.1c.1.1.1.2.1.3s-.1.1-.4.2c-.2.1-.4.1-.5.1v.1s.1.1.2.1.2.1.3.1h.6s.1 0 .3.1c0-.1 0 0 0 0zm-.7-.8c-.1-.1-.2-.1-.3-.1h-.3s-.2.1-.2.2v.1h.1s.2 0 .4-.1c.1 0 .3-.1.3-.1zM170.2 201.2s0 .2-.1.5c0 .2-.1.5-.1.8h-.1s-.1-.1-.1-.2v-.3s0-.1.1-.3c0-.2.1-.3.1-.3 0-.1 0-.1-.1-.1s-.2 0-.3.1c-.2.1-.3.1-.3.2-.1.1-.3.2-.5.4l-.2.2h-.2v-.1c0-.1.1-.2.4-.4.2-.2.4-.3.6-.4.3-.2.5-.3.7-.2 0 0 .1 0 .1.1 0-.1 0-.1 0 0zM172.4 201.3c0 .1-.1.2-.3.4l-.4.4s-.1.1-.3.2c-.1 0-.2.1-.3.1h-.3s-.2-.1-.3-.3c-.1-.1-.1-.3-.1-.4 0-.1 0-.2.1-.4h.1s.1 0 .1.1v.3c0 .3.1.5.3.5s.4-.1.7-.3c0-.2.2-.3.7-.6 0-.1 0 0 0 0zM174.3 202.4c-.1.1-.1.1-.2.1h-.7c-.2 0-.3 0-.5-.1-.3-.1-.4-.2-.4-.3v-.3c0-.2.1-.3.3-.4.1-.1.3-.1.5-.1s.3.1.4.1c.1.1.1.2.1.3s-.1.1-.4.2c-.2.1-.4.1-.5.1v.1s.1.1.2.1.2.1.3.1h.6s.1 0 .3.1c-.1-.1 0 0 0 0zm-.8-.8c-.1-.1-.2-.1-.3-.1h-.3s-.2.1-.2.2v.1h.1s.2 0 .4-.1.3-.1.3-.1z"/>
    </g>
    <g>
      <path class="st1" d="M257.1 267.3H255c-.3 0-.4 0-.5.1 0 .1-.1.2-.1.4-.1.3-.1.6-.2.9 0 .1-.1.3-.1.7 0 .1 0 .2-.1.3 0 0 0 .1-.1.1h-.1c0-.1.1-.3.1-.6.1-.4.1-.7.2-1l.2-.9h-1.4-.4s-.1 0-.1-.1v-.1l.1-.1H256.6c.2.1.4.1.5.3zM256.2 269.6v.4h-.2v-.2c0-.5.1-.7.2-.8l.1.1v.1c0 .1-.1.2-.1.4zm.3-1.4c0 .1-.1.1-.2.2l-.2-.2c0-.1.1-.1.1-.1.1-.1.2 0 .3.1zM259.6 269.5v.8h-.1c-.1-.1-.1-.2-.1-.4v-.2-.2-.2h-.1c-.1 0-.3.1-.7.3l-.6.4c-.1 0-.1 0-.2-.1v-.2-.2-.2h-.1c-.1 0-.4.2-.9.6h-.1v-.1s.1-.1.3-.2c0 0 .2-.1.5-.4.2-.2.4-.3.5-.2.1 0 .2.2.2.4v.2h.1s.3-.1.7-.3c0 0 .1-.1.2-.1.3-.1.4-.1.5-.1-.2.1-.1.2-.1.4zM261.6 270.3c-.1.1-.1.1-.2.1h-.7c-.2 0-.3 0-.5-.1-.3-.1-.4-.2-.4-.3v-.3c0-.2.1-.3.3-.4.1-.1.3-.1.5-.1s.3.1.4.1c.1.1.1.2.1.3 0 .1-.1.1-.4.2-.2.1-.4.1-.5.1v.1s.1.1.2.1.2.1.3.1h.8c.1 0 .1 0 .1.1zm-.7-.9c-.1-.1-.2-.1-.3-.1h-.3c-.1 0-.2.1-.2.2v.1h.1s.2 0 .4-.1c.1 0 .2 0 .3-.1z"/>
    </g>
  </g>
  <g>
    <path class="st10" d="M211.5 17.4c-1.3-3.9-4.2-7.4-8.7-8.1-2.5-.4-5.1 0-7.5.5-3.2.7-6.4 1.4-9.7 2-6.4 1.2-12.8 2.1-19.2 3-4.8.7-11.2 1.3-14.7 5-3.2 3.4-3.5 9.4-3.5 13.6.1 4.5 2 9.3 7 10.5 2.7.7 5.7.2 8.4-.4 3.3-.7 6.6-1.8 9.7-3.1.7 1.5 1.8 2.8 3.3 3.8 1 .7 2.8 1.7 3.9.6.1-.1.1-.3 0-.4-.9-1.8-1.9-3.8-.5-5.6v-.1c.1.1.2.2.4.2 6.7-.8 13.4-1.7 20-3 3.8-.7 9.2-1.2 11.5-4.7 1.1-1.7 1-3.6.9-5.5-.2-2.8-.4-5.7-1.3-8.3zm0 4.7c.3 2.3 1 5.4.1 7.7-1.8 4.5-9.7 4.9-13.8 5.6-5.8 1-11.7 1.9-17.5 2.6-.2 0-.3.1-.4.3-.2-.2-.5-.2-.7 0-.6.7-.9 1.6-.9 2.5 0 .6.1 1.1.3 1.7.1.4.7 1.2.7 1.6.2.2.1.3-.2.2-.2.1-.4.1-.5 0-.3-.1-.8-.3-1.1-.5-.5-.3-1-.6-1.4-.9-1.1-.9-1.9-1.9-2.5-3.1-.2-.3-.6-.1-.6.2-4.6 1.6-9.7 3.3-14.7 3.4-5.8.1-8.9-4.1-9.2-9.2-.1-2.3.2-4.7.5-7 .4-2.4.9-4.9 2.7-6.7 3.5-3.7 10.1-4.2 14.9-4.8 5-.7 10.1-1.4 15.1-2.3 4.9-.9 9.8-2.1 14.7-2.9 5.2-.9 9.8.3 12.4 4.9 1.3 2.1 1.8 4.4 2.1 6.7z"/>
    <path class="st10" d="M161.8 36.7c-5.5.6-6.6-9.9-1.9-11.7.4-.1.2-.7-.2-.6-3.8.6-3.9 4.8-3.5 7.7.4 2.6 2.2 6.9 5.8 5.4.5-.2.2-.8-.2-.8zM166.9 27.8c.7-.6 1-1.7.7-2.6-.6-1.6-2.8-2-4.3-1.4-.3-.1-.6.1-.6.4.2 4.1 1.2 8.3 1.9 12.4.1.5.9.4.8-.1-.3-2.7-.6-5.5-1.1-8.2.3.1.6.2.9.1.9 2.8 1.8 5.8 3.1 8.3.2.4.8.2.7-.2-.5-2.8-1.9-5.7-3.1-8.3.5-.1.8-.2 1-.4zm-2.6-.3l-.6-3c1-.2 2-.1 2.7.6.5.5.5 1.2.1 1.8-.5.7-1.2.6-2 .6-.1-.1-.2-.1-.2 0zM174.6 34.8c-.4.1-.7.3-1.1.4-.4.1-.8.2-1.2.2-.1-.9-.3-1.7-.5-2.6.4 0 .7-.1 1.1-.2.5-.1 1-.1 1.3-.3s.3-.6-.1-.7c-.4-.1-.9.1-1.4.2-.4.1-.7.1-1.1.2l-1.5-8.1c.5-.1 1.1-.2 1.6-.3.1.2.4.3.6.1l.4-.4c.3-.3.1-.9-.4-.8-1 .2-1.9.3-2.9.5-.3 0-.5.3-.4.5.7 4.1 1.4 8.1 2.5 12.1.1.2.2.3.4.3h.1c.8.1 2.1 0 2.8-.6.4-.1.3-.6-.2-.5zM180.5 25.7c-.4-1.1-1-4.3-2.8-4.2-1.9.1-1.5 3.5-1.6 4.6-.1 3 .3 6 1.1 8.9.1.4.8.3.7-.1-.2-.9-.3-1.7-.4-2.6 1.2-.3 2.3-.5 3.6-.6.1.8.3 1.6.3 2.5v.6c0 .6 1 .6 1-.1-.3-3.1-.9-6.1-1.9-9zm-3.1 5.9c-.1-.9-.2-1.7-.3-2.6-.1-1.2-.1-2.4 0-3.6 0-.5.1-1 .1-1.5-.2-.7 0-.9.7-.7 1.5.1 2.2 4.4 2.5 5.6.2.7.3 1.3.4 2-1.1.1-2.3.4-3.4.8zM185.4 20.2c-.7-.3-1.5 0-2.2.1-.8.2-1.6.4-2.3.7-.3.1-.2.6.2.5.5-.1 1.1-.3 1.6-.4.5 4.1 1.5 8.2 3.1 11.9.1.3.7.2.6-.2-1.2-3.9-2.1-7.8-2.8-11.9.6 0 1.2 0 1.8-.2.3 0 .2-.4 0-.5zM188.7 19.6c-.1-.4-.8-.3-.7.1.7 3.9 1.6 7.8 2.5 11.7-.1.1-.1.2 0 .4s.2.4.2.5c.2.5 1 .2.9-.3-.8-4.1-1.7-8.3-2.9-12.4zM195.9 17.7c.1 4.2.2 8.4.2 12.5-1-2-1.7-4.2-2.4-6.4-.5-1.5-1-4.3-2.4-5.2-.1-.1-.2-.1-.3 0l-.1.1c-.3.2-.1.6.2.5.1 0 2.2 6.6 2.4 7.2.7 2.1 1.4 4 2.6 5.9.2.3.9.3.9-.1 0-4.7-.1-9.5-.2-14.2 0-.8-1-.9-.9-.3zM202.5 15.8c.3-.1.2-.6-.1-.7-1.2 0-2.6.6-3.7 1-.3.1-.1.6.2.5v.2c.4 2.2.8 4.4 1.1 6.6s.5 4.5.9 6.6c.1.4.6.4.8.1.4.1.9.1 1.3 0 .6-.1 1.7-.2 1.9-.9.1-.2-.1-.4-.3-.4-.6-.1-1.2.4-1.8.5-.4.1-.8 0-1.1 0 0-1.3-.1-2.6-.3-4 .4-.1.8-.2 1.3-.4.4-.1.8-.2 1.2-.5.2-.2.1-.5-.2-.6-.5 0-.8.2-1.2.3-.4.1-.8.3-1.1.4-.4-2.7-1.1-5.5-1.8-8 0-.1-.1-.2-.2-.2.5-.1.9-.3 1.4-.4.5.2 1.1.1 1.7-.1z"/>
  </g>
  <g>
    <path class="st10" d="M228.5 478.6c.2-.5.3-1 .5-1.5 1.1-4.1 1.2-8.4 1.4-12.6.1-2.1 1.4-6.8 0-8.6-.2-.2-.4-.1-.6 0-.7-1.6-2.1-1.9-3.8-2.4-2.8-.8-5.6-1.4-8.5-1.7-5.7-.5-11.3.3-16.4 3-.2.1-.2.3-.2.5-.2-.1-.5.1-.5.4-.1 2-.3 4.2-.5 6.3-4.5-1.5-9.4 1.6-9.3 6.5 0 4.9 4.9 7.9 9.4 6.5.2 1.4.6 2.8 1 4.1-5.2-.1-14 4.8-8.9 10.7 5.4 6.2 17.1 6.7 24.6 6.4 6.7-.3 17.7-.4 22.2-6.3 5.1-6.6-5.2-10.7-10.4-11.3zm-28.9-6.9c-2.2-.2-4.7-1.1-4.7-3.7 0-2.5 2.8-2.9 4.8-2.9-.2 2.2-.2 4.4-.1 6.6zM194 468c0 3.1 3 4.4 5.6 4.5 0 .6.1 1.1.2 1.7-4 1.4-8.4-1.2-8.4-5.6 0-4.5 4.4-7.1 8.4-5.7 0 .4-.1.9-.1 1.3-2.5.1-5.7.7-5.7 3.8zm21.3-15.4c2.2.1 4.5.4 6.7.8 1.8.4 6.3.9 7.1 2.8 0 .1.1.1.1.2-.1 0-.1 0-.2.1-.3.1-.3.3-.3.5l-.9.6c0-.1-.1-.2-.2-.2-7.9-3.2-16.5-3.2-24.5 0h-.1c-.5-.5-.9-1.1-1.4-1.7 4.2-2.3 8.8-3.2 13.7-3.1zm11.6 5.4c-7.4 4.2-17 6-23.4 0 7.6-3 15.8-3 23.4 0zm-26.2 13.9c-.4-5.4.2-11.1.5-15.4 7.2 9.6 20.2 6.5 28.8.6.1 0 .2-.1.3-.1-.1 1-.5 3.5-.5 3.9-.1 1.4-.2 2.9-.2 4.3-.2 3.5-.3 7.1-1.1 10.5-1.7 7.3-6.5 11.9-14.1 12.1-10 .3-13-7-13.6-15.4 0-.2 0-.4-.1-.5zm31.8 21.3c-4.9 1.6-10.6 2.1-15.7 2.3-5.5.2-11-.2-16.2-1.9-2.8-.9-7.2-2.4-8.6-5.4-2.7-5.6 5.4-8.3 9.2-8.2h.2c.1.2.2.4.2.6 2.8 6.2 8.5 8.7 15.1 7.8 5.6-.8 9.5-4.1 11.5-9h.1c3.3.3 7 1.4 9.5 3.8 4.6 4.4-1.6 8.8-5.3 10zM209.3 448.1c-1.8-1.3-2.8-3-1.7-5.2.4-.7.8-1.4 1.1-2.1.4-1.3.3-3-.9-3.8.4.3.9-.4.4-.7-.1-.1-.2-.1-.2-.2-.2-.1-.4 0-.5.1s-.2.2-.3.2c-.1.1-.1.3-.1.4.1.4.2.5.4.8.6 1.8.8 2.4-.1 4.1-.5.9-1.2 1.9-1.3 3-.2 2 1.3 3.2 2.8 4.2.4.2.8-.5.4-.8zM220.3 434.4c-.1 0-.3.1-.3.3 0 .1 0 .2-.1.3-.1.5.7.8.8.2.3.4.4.8.4 1.3.1.6.1 1.2-.1 1.8-.2.8-.8 1.4-1.3 2-.7.7-1.3 1.1-1.8 2.1-.7 1.6-.4 3.4.6 4.8.3.4 1 0 .7-.4-2.9-4.1 2.2-5.4 2.7-8.9.3-1.1.1-4-1.6-3.5z"/>
    <path class="st10" d="M196.2 489.8c-1.6-.1-2.7-1.7-2.4-3.2.1-.5-.7-.7-.8-.2-.5 2.1 1.1 4.2 3.2 4.3.5 0 .5-.9 0-.9zM199.7 489.9c-1.9-.1-3.5-1.4-3.9-3.2-.1-.5-.9-.3-.8.2.5 2.2 2.5 3.7 4.7 3.8.5.1.5-.8 0-.8zM228 463c-.1-.5-.9-.3-.8.2.4 1.8.5 3.6.3 5.5 0 .5.8.5.8 0 .2-1.9.1-3.8-.3-5.7zM226.3 465.1c-.1-.5-.9-.3-.8.2.4 2 .4 4-.1 6-.1.5.7.7.8.2.5-2.1.6-4.2.1-6.4zM205.2 480c-1.3-1.3-2-2.4-2-4.8 0-.8-.8-.8-.8 0 0 2.4.8 4 2.3 5.4.3.5.9-.2.5-.6zM237 484.4c-.4-.4-.9.2-.6.6 1 1.2.8 3-.4 4-.4.3.2.9.6.6 1.6-1.3 1.7-3.7.4-5.2zM235.7 485.3c-.1-.5-1-.3-.8.2.4 1.4-.1 2.9-1.3 3.7-.4.3 0 1 .4.7 1.5-1 2.2-2.8 1.7-4.6z"/>
  </g>
  <g>
    <path class="st10" d="M355 456.7l-1.1 1.1c-.4.3-.8.6-1.1.9-.1.2.1.4.3.4.5-.1.9-.6 1.2-.9.4-.4.8-.8 1.1-1.2.1-.2-.3-.5-.4-.3zM351.1 454.6c-.5.2-.9.5-1.4.7-.4.2-.9.4-1.2.7-.2.2 0 .4.2.4.5-.1.9-.4 1.3-.7.5-.3.9-.5 1.4-.8.1-.1-.1-.4-.3-.3zM348.1 449.3c-2.1.1-4.6.4-6.5 1.3-.3.1-.1.5.2.4 2.1-.4 4.2-1 6.4-1.3.2 0 .1-.5-.1-.4zM347.8 444.1c-.7-.2-1.4-.3-2.1-.5-.6-.1-1.2-.4-1.9-.4-.2 0-.3.3-.1.4 1.2.6 2.7.8 4 .9.3 0 .3-.3.1-.4zM348.1 436.6c-1.2-1-2.5-2-3.7-3l.1-.1c.3-.1.2-.5-.1-.5-.3 0-.5.1-.7.4-.1.1-.1.3 0 .4.5.4 5.4 4 5.3 4.1-.1.2.1.3.3.2.5-.5-.8-1.3-1.2-1.5zM354 432.2c-.5-.9-.9-1.8-1.4-2.6-.1-.2-.5-.1-.4.2.3 1 .8 1.9 1.4 2.7.2.2.5 0 .4-.3zM357.4 423.2c-.2-.3-.5 0-.4.2.8 1.9 1.5 3.8 1.9 5.9.1.3.5.2.4-.1-.2-2.1-.8-4.2-1.9-6zM365.4 425.6c-.4 1-.5 2.1-.4 3.2 0 .2.4.2.4 0 0-1.1.2-2 .4-3.1 0-.3-.3-.4-.4-.1zM372.5 424.3c-1.4 1.8-2.4 4-3.5 6-.1.2.2.5.4.2 1.2-1.9 2.6-3.9 3.5-5.9.1-.4-.2-.6-.4-.3zM374.8 429.9c-.3.4-.6.9-.9 1.3-.4.4-.8.8-1.2 1.1-.2.1 0 .4.2.3.9-.5 2-1.4 2.2-2.5 0-.2-.2-.4-.3-.2zM382.9 432.4c-2.3 1.3-4.4 2.5-6.9 3.5-.3.1-.2.6.1.5 2.5-.8 5-1.9 7-3.5.3-.3.1-.7-.2-.5zM381.2 439.1c-1 .3-2 .6-3.1.8-.2 0-.2.4.1.4 1.1-.1 2.2-.3 3.2-.8.2-.1.1-.5-.2-.4zM384.1 444.9c-2.2-.2-4.4-.4-6.6-.7-.2 0-.3.3-.1.4 2.1.6 4.5.9 6.7.8.3 0 .3-.4 0-.5zM379.7 449.3c-.5-.2-1-.3-1.5-.5-.5-.1-1-.3-1.5-.4-.1 0-.2.2-.1.3.4.2.9.4 1.4.5.5.2 1 .4 1.5.5.2.1.4-.3.2-.4zM378.7 457c-.8-.8-1.8-1.3-2.7-2-.5-.3-1-.7-1.5-1-.2-.2-.5-.3-.7-.5-.1-.1-.2-.2-.4-.2 0-.1-.1-.1-.1-.1v-.1-.1s-.1-.1-.2-.1h-.1c-.1 0-.1.1-.1.2.1.6 1.5 1.2 2 1.6 1.2.8 2.3 1.9 3.6 2.5.2.3.4 0 .2-.2zM372.7 458.2c-.7-.5-1.5-1-2-1.8-.1-.2-.4 0-.3.2.5.8 1.2 1.6 2.2 1.9.1.1.2-.2.1-.3z"/>
    <path class="st10" d="M388 499c-.3-4-.9-8.1-1.3-12.1-.5-3.9-.7-7.9-1.4-11.8 0-.1-.1-.2-.2-.2.1-.2 0-.5-.3-.5 0-.1 0-.1-.1-.2-1.5-.9-3.2-1.6-4.8-2.5-1.6-.9-3.1-1.9-4.6-2.9-3-2.2-5.7-4.8-8.3-7.5 0-.1 0-.3-.1-.5 0-.1-.1-.2-.2-.2h.1c.5-.5.7-1.3.3-1.8v-.3c-1.2-2.1 1.6-3.3 3-4.1 1-.6 1.9-1.4 2.7-2.3 1.5-1.7 2.5-3.9 3-6.2.9-4.7-.9-9.3-4.8-12.2-3.9-2.9-9.2-3.6-13.6-1.5s-7.5 6.7-8 11.5c-.3 2.9.4 5.9 2.2 8.2.8 1 1.8 1.8 2.9 2.4 1.9 1 4.7 1.6 4.9 4.2 0 .1 0 .1.1.1-.4.6-.4 1.3.1 1.9-.3.7-.1 1.2.3 1.6 0 0-.1 0-.1.1-2.3 3.3-4.5 6.6-7 9.7-1.1 1.4-2.3 2.8-3.5 4.2-.4.5-1.6 1.4-1.8 2.2v.1c-.7 7.2-.6 14.5-.9 21.8 0 .2.2.4.4.4 13.7.1 27.3-.2 41-1.2 0 .1.1-.2 0-.4zm-32-44.6c-2.8-1.3-4.8-3.2-5.6-6.3-1.5-5.3 1.1-11.2 5.6-14.3 4.4-3 10.3-2.6 14.6.5 4.3 3.2 5.7 8.8 3.7 13.7-1.1 2.7-3 4.7-5.5 6.1-1.5.9-3.3 2.3-2.7 4.2h-.1c-2.2.6-4 .9-6.3.2 0-2.2-1.9-3.3-3.7-4.1zm3.6 4.6c2 .9 4.7 1.1 6.7-.1h.1c0 .1.1.1.1.1.8 1.8-2.9 2-3.6 2.1-.8-.1-4.6-.2-3.3-2.1zm5.1 3.7c-.6.2-1.2.2-1.8.1-.7-.1-2.2-.2-2.9-.8v-.1c0-.1-.1-.1-.2-.1-.1-.2-.2-.5-.2-.8.8.7 2.2.6 3.2.6s2.3-.1 3.3-.6c0 .1.1.1.1.1.6.3-1.4 1.6-1.5 1.6zm1.4 0c-.6 2.4-4.5 2.1-5.7.1.7.3 1.5.5 2.1.6.8.1 2.6 0 3.6-.7zm-17 14.5c.6-.6 1.1-1.3 1.7-2 1.1-1.3 2.1-2.6 3.1-3.9 2.1-2.7 4.2-5.5 6-8.5 1.1 2.9 6.7 2.9 6.9-.6 0-.1 0-.2-.1-.2 0-.1.1-.1.1-.2 2.2 2.8 4.9 5.2 7.8 7.3 1.5 1.1 3.1 2.1 4.8 3.1 1.3.8 2.8 1.6 4.2 2.1-5.9.4-11.8 1-17.7 1.7-6 .7-12.1 1.3-18.1 2.4.4-.4 1.1-1.1 1.3-1.2zm-2 22.8c.3-6.9.9-14 .7-20.9 6.1-.7 12.3-1.6 18.4-2.3 6.1-.7 12.3-1.1 18.4-1.7v.1c.2 4.1.9 8.2 1.4 12.3.4 3.8.8 7.6 1.4 11.4-13.4.8-26.9 1.2-40.3 1.1z"/>
    <path class="st10" d="M355.5 495.3c-.1-.2-.3-.2-.5-.1.1-.2.2-.4.3-.5v-.9c0-.4 0-.8-.1-1.2-.1-1-.1-2-.2-3.1-.1-1.9-.2-3.9-.4-5.8 0-.3-.5-.3-.5 0 0 2.2.1 4.5.2 6.7 0 1 .1 2 .1 3.1 0 .7-.1 1.6.2 2.2.1.2.4.2.5.1l.1-.1c.3-.1.3-.3.3-.4zM365.6 489.5c-.2-3.7-2.5-6.7-6.3-7-.2 0-.4.2-.4.4 0 4.2-.1 8.4.1 12.6 0 .3.3.3.4.2 0 .1.1.2.2.2 4 .9 6.1-3.1 6-6.4zm-5.8 5.7c-.1 0-.2 0-.3.1.2-4 .1-8 .1-12 2.9.4 4.8 2.6 5.1 5.5.4 2.9-1 7.3-4.9 6.4zM372.9 494.1c-1.4-.1-2.3-.1-3.1-1.5-.5-.8-.8-1.9-1.1-2.8-.1-.4-.2-.8-.3-1.3.8.1 1.7.2 2.5.3.6.1 1.5.3 2-.1 1-.7.6-2.8.6-3.7-.2-2.1-1.9-5.4-4.5-3.7-2.5 1.6-1.7 5.9-1.1 8.2.7 2.7 1.8 5.9 5.1 4.9.1 0 .1-.3-.1-.3zm-4.8-9.8c.2-1.6 1.2-3 3-2.3 1.3.5 1.5 2.6 1.5 3.7 0 .4.1 1 0 1.4.1.3-.1.6-.5.7-.2.5-.6.6-1.1.4-.9.1-1.9-.2-2.8-.2h-.2c0-1.3 0-2.5.1-3.7zM381.9 483.4c-.8-2.3-3.5-4.7-5.8-2.7-.2.2.1.6.3.4 2.1-1.5 4.1.5 4.8 2.4.6 1.6.8 3.3.8 5-2-1.3-5.3-1.3-5.7 1.6-.2 1.1.2 2.8 1.2 3.5 1.2.9 2.8.2 3.8-.5 1.4-.9 1.5-2.2 1.5-3.8 0-1.8-.2-4-.9-5.9zm-1 9.2c-1.1.8-2.9 1.3-3.6-.4-.6-1.4-.2-3.1 1.3-3.7 1.2-.4 2.5.2 3.4 1 0 1.1-.1 2.4-1.1 3.1zM355.1 481.1c-.2-.3-.6-.4-1-.2-.2.1-.2.3-.1.5 0 0 0 .1.1.1v.3c.1.3.5.4.8.3.3-.3.4-.7.2-1z"/>
  </g>
  <g>
    <path class="st11" d="M73.7 41c-2.3-1.7-5.2-1.8-7.6-.3-.3.2-.6.4-.9.7-1.4-5.3-7.5-7.2-12.4-5.7-2.5.8-4.9 2.3-6.5 4.4-.8 1.1-2.3 3.5-.9 4.7.1.1.2 0 .2-.1-.6-4.3 4.9-7.6 8.5-8.5 4.8-1.1 8.5 1.2 10.5 5.5 0 .1.1.1.1.1-.3.3-.6.7-.9 1.1-1.2-3.4-5.3-5.6-8.8-5.3-4.1.4-7.5 3.9-8.1 7.9-3.3-1.8-7.5-1.5-10 1.9-2.9 4-2 12.6 3.9 13.2-1.2 6.9 2.2 14.4 8.3 17.8l-.2.2c-.3.4-.6.8-.8 1.2-.3.9-.1 1.9.6 2.5.6.5 1.5.5 2.1.1.7-.5.7-1.5 1.1-2.2.2-.3-.2-.6-.5-.5-1 .4-.5 2.6-1.9 2.2-1-.3-.9-1.6-.5-2.3.2-.3.5-.6.6-.9 6.2 3.2 13.7 2.2 19.1-2.2 1.1-.9 2.1-1.9 3-3 .4.6.9 1.2 1.6 1.4.7.2 1.5 0 2-.5 1.3-1.4-.4-2.9-1.8-3.4 2.5-4.3 3.1-9.5.8-14.6-.3-.6-.5-1.1-.8-1.6 4.7-3 4.5-10.7.2-13.8zm-19.1-2.5c4-.6 7 1.9 8.6 5.3-.5.9-.8 1.9-.7 2.8-2.9-.7-6-.6-9 .4-.2.1-.2.2-.2.3-1.1.3-2.2.6-3.2 1.1 0-.1 0-.1-.1-.2-.7-1-1.7-1.9-2.7-2.5 1.1-3.4 3.5-6.6 7.3-7.2zm-17 9.4c3.1-4.1 9-3 11.7.8l.1.1c-4.3 2.3-7.5 6.4-8.5 11.3-4.9-1.5-6.3-8.2-3.3-12.2zm36.9 24.4c.4.4.8 1.1.3 1.6-.9 1-2.1 0-2.6-.8.4-.5.7-.9 1-1.4.4.1.9.3 1.3.6zM70.1 74c-4.8 4.9-11.5 7-18.1 4.6-6.5-2.3-10.6-8.8-10.5-15.6.2-7.7 6.2-14 13.6-15.7.1 0 .1-.1.1-.1 6.5-1.2 13.1 1.2 16.9 6.7 4.5 6.6 3.4 14.6-2 20.1zm3-20c-2.4-3.6-6-6.2-10.1-7.2.9-1.8 1.3-3.6 3.1-4.9 2.5-1.9 5.7-1.6 7.9.6 3.6 3.4 2.1 8.3-.9 11.5z"/>
    <path class="st11" d="M72.2 58.8C70 52.5 63 48.6 56.5 48.9c-.3 0-.3.4 0 .4 7.1.2 14.3 4.2 15.7 11.7 1.5 8.2-4.7 14.3-12.5 15.4C52 77.5 44.6 73.1 44 65c-.7-8.4 5.7-13.6 12.8-16.3.2-.1.1-.3-.1-.2-6.1.9-11.7 6-13.1 12.1-1.4 5.9 1.1 12.4 6.6 15.2 5.4 2.7 12.5 1.8 17.3-1.6 5-3.5 6.6-9.9 4.7-15.4z"/>
    <path class="st11" d="M62.9 71.5v.4c-1-2.9-2.2-5.8-3.6-8.6 0-.2-.2-.4-.4-.6-.9-.8-2.6.1-2.1 1.3.1.2.2.3.3.5.1.1.3.3.4.3 0 .7.2 1.4.3 1.9l.3 2.7c-.1-.1-.2-.2-.2-.3-.3-.4-.8 0-.8.4.2 1 .7 1.8 1.4 2.4.3.2.7.2.8-.2.3-.8.6-1.5.7-2.3.1-.4-.6-.6-.8-.2 0 .1-.1.1-.1.2 0-1.7-.1-3.4-.2-5.1 0 0 0-.1.1-.1 1 2.5 1.9 4.9 2.8 7.4l-.3.3c-.1.1-.1.3 0 .4.3.8.7 1.4 1.2 2 .1.1.2.1.3.2.3.2.8.1.8-.4.1-.1.3-.2.3-.4 0-.9 0-1.7-.2-2.6 0-.3-.9-.1-1 .4zM29.5 54.5c-1.6-.1-3.4.2-5 .3-1.3.1-2.7 0-4 .4.1-.5.3-1.1.1-1.6-.1-.3-.5-.3-.7-.1-.4.5-.3 1.3-.3 1.8 0 .7 0 1.3.1 2 .1.4.7.3.7-.1v-1.5c1.4.3 2.9.1 4.4 0 1.6-.1 3.2-.1 4.8-.6.4 0 .3-.6-.1-.6zM30.1 51.3c-1.8-.2-3.6-.1-5.4 0-1.5 0-3.1-.1-4.7.3-.2.1-.2.3 0 .4 1.6.4 3.4.3 5 .3 1.7 0 3.4.1 5.1-.1.6-.2.5-.9 0-.9zM32.4 45.1c-3-1.4-6-2.3-8.8-4-.4-.3-.9.2-.8.6.2 1.1.6 1.9 1.1 2.7-1 .4-2.6 1.1-2 2.1.1.1.1.1.2.1 0 .2.1.3.3.4 2.8.9 5.7 1.6 8.5 2.3.6.1 1-.7.4-1l-.7-.3c-.2-.1-.4-.1-.5 0-2.5-.6-5-1.3-7.5-1.8h-.1c-.1-.3 2.4-1.3 2.3-1.2.3-.1.5-.4.3-.7-.4-.5-.7-1.1-.9-1.6 2.4 1.5 5.2 2.9 8 3.2.4 0 .6-.7.2-.8zM34.9 41.6c-.5.4-.9 1.1-1.5 1.2-.6.1-1.8-.8-2.5-1.3.2-.2.3-.4.5-.6.3-.3.6-.6.8-1 .1-.3-.2-.8-.6-.6-.3.2-.6.6-.8 1-.2.2-.3.5-.5.7-1.6-1-3.1-2-4.7-3 .3-.3.6-.5.8-.8.4-.3.8-.7 1-1.1.2-.3-.2-.7-.5-.5-.4.2-.8.7-1.1 1-.4.4-.7.8-1.1 1.2-.2.2 0 .5.2.6l.1.1c2.3 1.7 4.7 3.5 7.2 5 1.5.9 2.5 0 3.2-1.5.2-.2-.1-.7-.5-.4zM41.1 35c-.8-1.3-1.9-2.4-3-3.6-1.2-1.3-2.3-2.6-3.5-3.9-.4-.4-.9.2-.6.6 1 1.3 2.1 2.5 3.1 3.8 1 1.2 2 2.6 3.3 3.6.4.2.9-.1.7-.5zM43.8 29.8c-.6-.4-1.2-.7-1.9-.9-.6-.2-1.1-.4-1.7-.7-.4-.1-.7-.3-1-.6-.9-.5-1-1.3-.5-2.5.3-.1.2-.5-.1-.5-1.4-.1-1.5 1.5-1.1 2.5 1.3 3 8.1 2.5 5.9 6.9.2-.5-.3-.9-.7-.5l-.2.2c-.1.1-.2.3-.1.5.6 2 2.7-.1 2.8-1.4.3-1.3-.5-2.3-1.4-3zM56.1 20.5c-.6.8-1.1 1.6-1.5 2.4-.6-.8-1.1-1.7-1.6-2.5-.2-.4-.9-.2-.9.2-.1 3.6 0 7.2.9 10.7.1.3.6.3.6-.1-.3-3-.6-6-.5-9 .4.7.9 1.3 1.4 1.9.2.2.7.2.8-.1.3-.6.5-1.2.9-1.7 0 3.2-.1 6.4.1 9.6 0 .6.9.6.9 0 .2-3.7 0-7.5 0-11.3-.1-.4-.8-.5-1.1-.1zM61.9 20.3c-.2 0-.5.3-.3.5-2.2.3-2.5 4.6-2.7 6.3-.2 1.3-.9 6.2 1.5 6.3 2.3.1 3-5 3.1-6.6.2-1.3.5-6.4-1.6-6.5zm-.4 10.8c-.2.9-.7 1-1.7.3-.1-.5-.1-1-.1-1.5 0-.8 0-1.6.1-2.4.1-1.2.4-5.7 2.1-6.2.1 0 .1 0 .1-.1 1.5 2.1.8 8.3-.5 9.9zM73.1 23.4c-1.8 2.6-2.2 5.9-3.4 8.8-.4-3.5-.8-7.1-1.2-10.6-.1-.5-.8-.7-.9-.1-.9 3.7-2.1 7.4-2.6 11.2 0 .3.4.3.5.1 1-2.7 1.7-5.6 2.3-8.4.4 3.2.7 6.4 1.1 9.6 0 .4.6.7.9.3 1.8-3.3 2-7.1 4.1-10.2.4-.7-.4-1.2-.8-.7zM80.1 26.3c-.8-.7-1.7-1.2-2.7-1.7-.2-.1-.6-.1-.7.2-1.5 3.1-3.1 6.3-4.4 9.5-.1.2 0 .3.2.4 0 0 0 .1.1.1.1.1.1.2.2.2.1.1.2.1.3.2.3.1.5.3.8.4.5.2.9.5 1.4.6.3 0 .5-.4.3-.7-.4-.3-.9-.5-1.4-.7-.3-.1-.5-.2-.8-.3-.1 0-.2-.1-.3-.1H73c.7-1.4 1.5-2.7 2.1-4.1.4.1.7.3 1 .5s.6.4 1 .2c.1-.1.2-.2.2-.3 0-.5-.5-.6-.9-.7-.3-.1-.7-.2-1-.3.6-1.3 1.3-2.6 1.9-3.9.7.4 1.4.9 2.2 1.2.5.2 1-.3.6-.7zM86.4 28.8c-.2-.2-.5-.1-.6.1-.3.5-.2 1-.6 1.5s-1 .8-1.6.7c-1.3-.2-1.7-1.8-1.2-2.9.1-.3-.2-.6-.5-.3-1.2 1.4-.3 3.7 1.4 4.1.9.2 1.8-.1 2.5-.8.6-.6 1.2-1.7.6-2.4z"/>
    <path class="st11" d="M83 31.9c-.9.7-1.3 2.2-1.8 3.2-.5 1.1-1.3 2.3-1.6 3.5-.1.5.5.7.7.3.8-1.1 1.3-2.5 1.9-3.7.4-1 1.2-2.1 1.1-3.2 0-.1-.2-.2-.3-.1z"/>
  </g>
</svg>
