<?xml version="1.0" encoding="utf-8"?>
<!-- Generator: Adobe Illustrator 21.0.0, SVG Export Plug-In . SVG Version: 6.00 Build 0)  -->
<svg version="1.1" id="Layer_1" xmlns="http://www.w3.org/2000/svg" xmlns:xlink="http://www.w3.org/1999/xlink" x="0px" y="0px"
	 viewBox="0 0 562 562" style="enable-background:new 0 0 562 562;" xml:space="preserve">
<style type="text/css">
	.st0{fill:#0C0C0C;}
</style>
<g>
	<path class="st0" d="M243,280.2c-7.4,5.9-15.9,10.1-23.9,14.9c-22.8,13.7-46.1,26.5-71.3,35.5c-8.9,3.2-18.1,5.6-27.6,6.2
		c-20.1,1.3-27.2-12.8-23.8-30.2c5.2-26,20.5-46.6,35.2-67.5c14.8-20.9,32.3-39.6,51-57.1c16.7-15.6,34.5-29.9,53.1-43.2
		c22.4-16.1,45.9-30.5,70.3-43.4c20.5-11,41.5-21.1,63.8-28.1c10.1-3.2,20.4-5.9,31.3-4.6c11.4,1.4,16.8,7.1,17.7,18.5
		c0.5,7.5-1.8,14.5-3.8,21.5c-0.8,2.5-2.2,2.7-3.9,0.8C396.2,87.2,377.6,88,358.8,93c-29.6,7.9-54.8,24.5-79.4,42
		c-22,15.7-42.9,33-62.6,51.6c-11.3,10.6-20.5,23-29.7,35.4c-10.4,13.9-20.1,28.1-26,44.6c-1.9,5.3-2.2,10.8-1,16.2
		c1.3,5.8,7.4,9.6,15.6,10.2c14,1,27.5-1.3,40.8-5.6c8.6-2.8,17.3-5.6,25.9-8.4C242.6,279.5,242.8,279.8,243,280.2z"/>
	<path class="st0" d="M150.7,460.7c32.2-19.4,63.1-39.4,93.1-60.9c31.6-22.6,62.3-46.2,89.2-74.3c13.6-14.2,26.4-29.2,33.4-48
		c3.1-8.1,4.3-16.4,2-24.9c-2.5-9.1-6-12-15.4-12.8c-15.8-1.4-30.7,2.6-45.3,7.8c-7.6,2.7-15.1,6.1-22.6,9.1c-1.8,0.7-3.5,2.1-5.9,1
		c16.6-11.3,33.4-22.1,50.8-31.8c20-11.2,40.4-21.8,62.6-28c5.5-1.5,11-2.7,16.7-3c19-0.9,28.3,8.3,27.2,27.4
		c-0.9,15.8-6.7,30-14.3,43.6c-14.9,26.3-35.4,47.8-57.9,67.5c-39.4,34.5-83.4,62.1-129.1,87.2c-24.5,13.5-49.5,25.9-74.7,37.9
		C157.6,459.7,154.9,461.7,150.7,460.7z"/>
	<path class="st0" d="M426.3,177.2c-9.3-0.6-20.9-2.8-29.8-12.3c-8.1-8.7-7.7-20.3,1-28.3c16.3-15,46.9-15.3,63.5-0.6
		c10.4,9.2,9.6,23.2-1.9,32.2C451.6,174,440.9,177.3,426.3,177.2z"/>
	<path class="st0" d="M303.8,81.9c-2.6,0-3.8-1.1-4.5-2.7c-3.2-7.1-6.4-14.2-9.7-21.2c-0.5-1.2-1-2.2,0.5-2.9c1.2-0.5,2,0.2,2.2,1.3
		c1.5,6.4,5.1,4.4,9,2.6c7.3-3.3,7.4-3.2,10.4,4.1c0.6,1.5,1.4,3,1.8,4.6c0.8,2.9,4.1,5.7,1.5,8.7C312.1,79.9,307.3,80.4,303.8,81.9
		z M305.2,60.3c-2.5,1.2-6,2.2-8.6,4.3c-1.1,0.9,1.3,3.7,2,5.7c0.5,1.2,1.1,2.4,1.5,3.7c1.4,4.5,3.7,6.4,8,3.1
		c1.5-1.2,5.3-0.7,4.3-3.7c-1.6-4.6-3-9.4-6.1-13.3C306.4,60,306.1,60.1,305.2,60.3z"/>
	<path class="st0" d="M347,380.1c-1.1,0.9-2.5,1.7-3.6,3c-1.2,1.5,0.6,2.3,1.2,3.3c1.4,2,3,4,4.5,6c0.6,0.8,1.4,1.7,0.2,2.5
		c-1,0.6-1.8,0-2.5-0.9c-1.5-2.2-3.3-4.2-4.7-6.4c-2-3.1-3.4-0.8-5.1,0.2c-2.2,1.2-2,2.5-0.6,4.3c2.7,3.4,5.2,6.9,7.8,10.3
		c0.6,0.8,1.9,1.7,0.4,2.9c-1.7,1.4-1.9-0.4-2.5-1.1c-3.2-4.2-6.3-8.6-9.5-12.8c-1.2-1.6-1.4-2.6,0.5-3.9c4-2.8,7.9-5.9,11.8-8.9
		c2.2-1.7,4.3-1.6,6.1,0.6c3,3.8,6,7.5,9,11.3c0.6,0.7,1.6,1.6,0.5,2.5c-1.3,1.2-2.1-0.1-2.8-1c-2.6-3.2-5.1-6.6-7.7-9.8
		C349.3,381.2,348.7,380.1,347,380.1z"/>
	<path class="st0" d="M367.3,35.8c3.4-0.1,5,0.6,5.6,2.7c1.4,5.1,2.7,10.2,4.1,15.4c0.5,1.8-0.1,2.7-2.1,3.1
		c-3.2,0.7-6.4,1.7-9.6,2.6c-3.2,0.9-5.2-0.3-6.2-3.3c-0.7-2-1.4-4.1-1.8-6.2c-0.7-3.5-4.2-8.3-2.1-10.1
		C358.6,37.2,364,36.9,367.3,35.8z M373.4,52.5c-0.7-2.5-1.5-5.1-2.2-7.6c-1.9-6.7-1.8-6.4-8.3-5c-4.4,1-5.3,2.8-3.5,6.6
		c0.5,1,0.6,2.2,1,3.3c2.3,7.7,4.5,8.6,11.6,4.9C372.9,54.3,373.7,53.8,373.4,52.5z"/>
	<path class="st0" d="M159.3,179c-0.8-1.1-1.5-2-2.3-2.8c-3-3.1-6.1-6.1-9.2-9.1c-0.8-0.8-1.8-1.7-0.6-2.9c0.6-0.6,1.4-0.9,2.1-0.1
		c4.1,4.4,9.5,7.8,12.2,13.6c0.9,1.9,0.6,3-0.7,4.4c-3,3.1-6,6.2-8.9,9.4c-2.4,2.8-5.2,2.9-7.8,0.7c-3.7-3-7.2-6.4-10.8-9.7
		c-0.9-0.8-1.8-1.7-0.6-2.9c1.2-1.2,2.1-0.1,3,0.6c3.2,2.9,6.5,5.7,9.6,8.8c1.9,2,3.1,1.8,4.7-0.3c1.3-1.8,4-3.1,0.7-5.4
		c-1.3-1-2.4-2.3-3.7-3.4c-0.9-0.8-1.7-1.7-0.8-2.9c1.2-1.4,2-0.2,2.8,0.6c1.3,1.2,2.6,2.6,4,3.8c0.8,0.7,1.6,2.1,2.9,1
		C157.2,181.5,158.1,180.3,159.3,179z"/>
	<path class="st0" d="M316.9,65.8c-0.3-3.3,1-4.6,2.8-5.3c2.3-0.9,4.6-1.8,7-2.6c1.7-0.6,2.9-1.3,1.8-3.6c-0.9-1.7-1.4-2.9-3.6-1.7
		c-1,0.6-2.2,0.9-3.3,1c-0.5,0.1-1.2-0.5-1.5-1c-0.3-0.6,0.1-1.3,0.8-1.5c2.3-0.9,4.6-1.8,7-2.7c1.1-0.4,1.8,0.1,2.2,1.2
		c1.9,5.3,4,10.5,5.7,15.9c0.7,2.1-0.7,3.8-2.8,4.7c-1.8,0.7-3.7,1.5-5.6,2.1c-2.3,0.8-5.3,3.3-6.7,1.8
		C318.5,71.7,317.8,67.9,316.9,65.8z M323.5,71.2c2.6-2.8,8-1.1,8.8-5.7c0.3-1.6-0.2-6-3.4-5.2c-3.1,0.8-7.8,0.6-8.7,4.8
		C319.9,66.7,320.9,69.7,323.5,71.2z"/>
	<path class="st0" d="M336.1,48.6c-1.1,0.5-2,0.6-2.4-0.7c-0.3-1,0-1.6,1-1.8c3.7-0.7,1.9-2.9,1.5-4.9c-0.3-1.4-2.3-3.3,0.4-4.1
		c2-0.6,2.3,1.6,2.5,2.9c0.5,4.1,2.8,4.1,5.8,2.7c1.2-0.5,2.5-0.9,3.7-1.3c0.8-0.2,1.8-0.1,2.1,0.7c0.6,1.3-0.7,1.5-1.4,2
		c-2.3,1.7-7.2-0.1-7.1,4.3c0,3,1.9,5.9,2.8,9c0.8,3.1,1.3,5.7,5.8,3.7c2.9-1.3,2-2.8,1.5-4.7c-0.3-1.1-0.9-2.5,0.6-3
		c1.9-0.7,2,1.1,2.4,2.3c0.8,2.2,1.8,4.7-0.4,6.5c-2.8,2.2-6.3,2.8-9.7,3.5c-1.1,0.2-1-1.5-1.3-2.4c-1.5-4.2-3-8.4-4.4-12.7
		C338.7,48.9,338.4,47.2,336.1,48.6z"/>
	<path class="st0" d="M105,250.6c-2,4-4.7,8.1-7.7,12c-0.4,0.5-1.2,0.4-1.7-0.2c-0.9-1-0.3-2.1,0.3-2.7c2.1-2,2.9-4.8,4.5-7.2
		c1.3-1.9,0.8-3.3-1-4.6c-2-1.5-3.3-0.8-4.4,1.1c-0.7,1.2-1.4,2.2-2.1,3.4c-3.6,5.6-6.5,6-11.6,1.6c-1.6-1.4-2.3-3.1-1.4-4.8
		c2.2-3.9,4.6-7.6,7-11.4c0.5-0.7,1.3-1.2,2.1-0.7c1.2,0.7,0.8,1.6,0.2,2.5c-1.8,2.8-3.5,5.6-5.4,8.4c-1.6,2.4-0.4,3.4,1.5,4.7
		c2.1,1.4,3.3,0.7,4.4-1.2c1.2-2,2.4-4,3.7-5.9c1.4-1.8,3.2-3.2,5.5-1.8C101.5,245.3,104.7,246.3,105,250.6z"/>
	<path class="st0" d="M385.3,371.7c-1.9-2.2-4.2-4.5-6.1-7.1c-1.2-1.6-0.7-3.5,0.8-4.9c1.7-1.6,3.4-3.2,5.2-4.6
		c1.5-1.2,2.1-2.3,0.5-4c-1.5-1.7-2.6-1.4-4.1-0.1c-1,0.8-2.1,3.1-3.5,1.4c-1.4-1.6,1.1-2.3,1.9-3.3c2.8-3.7,5.2-3.4,7.8,0.3
		c2,2.8,4.6,5.2,7,7.7c1,1.1,2,2.2,1.9,3.9C396.6,362.4,387.1,371.7,385.3,371.7z M386.1,367.9c1.3-0.1,8.2-6.9,7.7-7.4
		c-1.6-1.8-2.6-4.3-5.2-4.9c-0.8-0.2-7.5,6.5-7.2,7.1C382.6,364.8,384,366.8,386.1,367.9z"/>
	<path class="st0" d="M119,231.4c-2.6,3.6-5.2,7.1-7.8,10.5c-1.8,2.3-4,3-6.5,1.3c-3.7-2.5-7.3-5.1-11-7.7c-0.8-0.6-1.9-1.3-1.4-2.3
		c0.7-1.4,2.3-0.6,3-0.2c3.1,1.8,6.3,3.8,9.1,6c2.6,2.1,4.3,1.8,5.9-1c0.7-1.3,1.6-2.5,2.6-3.6c1.6-1.7,1.1-2.8-0.7-4
		c-1.9-1.3-3.7-2.8-5.6-4.1c-2.8-1.9-4.3-2.9-5.5-2.6c-1.2,0.2-2.2,1.7-4.2,4.6c-1.1,1.7-3.4,5.2-4.8,5.4c-0.2,0-0.6,0.1-0.8-0.2
		c-0.2-0.2-0.1-0.6,0-0.8c0.9-2.8,3.2-5.9,3.2-5.9c2.1-2.8,2.1-2.9,3.2-4.5c2.2-3.1,4.7-3.4,7.7-1.2
		C109.8,224.6,114.3,227.9,119,231.4z"/>
	<path class="st0" d="M264.6,102c-1.6,0.3-1.8-1-2.2-1.8c-2.5-4.3-4.9-8.7-7.3-13c-1.5-2.7-0.9-4.8,1.7-6.3c2.7-1.6,5.6-2.9,8.2-4.6
		c2.7-1.8,4.5-1.7,5.5,1.6c0.4,1.4,2.7,2.9,0.9,4.3c-2.3,1.6-2.4-1.3-3.3-2.4c-0.8-1-1.5-0.8-2.5-0.5c-8.3,2.8-8.9,4.2-4.8,11.7
		c4.1,7.5,4.1,7.4,11.6,3.5c1.7-0.9,4.2-3.8,5.3-1.6c1.5,2.8-2.5,3-4.2,4.1C270.6,98.9,267.5,100.4,264.6,102z"/>
	<path class="st0" d="M432.6,326.8c-3.6,3.6-6,7.8-10.1,10c-3.5,1.9-5.2-1.8-7.4-3.6c-0.6-0.5-1.2-1.2-1.8-1.7
		c-8-7.9-7.8-9.2,1.2-16.3c2-1.6,3.9-1.8,5.8,0c3.7,3.4,7.3,6.8,11,10.2C431.7,325.9,432.1,326.3,432.6,326.8z M417.6,316.7
		c-0.5,0.2-0.9,0.2-1.1,0.5c-2.1,2.1-4.8,4-6,6.6c-0.9,2,2.3,3.2,3.7,4.7c1.6,1.7,3.3,3.3,4.9,5c1.1,1.1,2.1,1.3,3.5,0.4
		c6.3-4,6.6-6.8,1.3-11.7c-1.5-1.4-2.9-2.8-4.4-4.1C418.8,317.5,418.1,317.1,417.6,316.7z"/>
	<path class="st0" d="M148.5,481.9c5,0.1,9.3,7.5,6.3,11.6c-1.7,2.3-1.1,2.7,0.9,3.6c1.1,0.5,3,1,2.1,2.7c-0.9,1.7-2.4,0.2-3.5-0.2
		c-1.2-0.4-2.4-1.2-3.6-1.6c-5.1-1.9-6.4-1-6,4.2c0.1,1.1,0.2,2.1-1.1,2.4c-1.2,0.3-1.8-0.6-2.1-1.6c-1.6-5.4-3.2-10.8-4.8-16.2
		c-0.5-1.6,0-2.5,1.6-3C141.7,482.9,144.9,481.4,148.5,481.9z M152.6,490.5c-1.6-2.1-0.3-6.5-4-6.1c-2.7,0.3-7.3-0.3-7.8,3.8
		c-0.3,2.1-0.3,6.5,3.5,6.3C147.1,494.2,150.9,494.1,152.6,490.5z"/>
	<path class="st0" d="M302.1,431.7c-0.1,2.6-6,7.5-7.9,6.9c-1.6-0.5-1.4-1.7-0.3-2.6c1-0.8,2.2-1.5,3.3-2.2c1.2-0.8,2.2-1.5,1-3.1
		c-0.9-1.2-1.8-2-3.3-1.1c-1.2,0.7-2.3,1.4-3.4,2.1c-6,3.6-11.5,0.9-12.4-6c-0.3-2,1.1-3.1,2.5-4c2.9-1.9,5.9-3.6,8.9-5.5
		c1.2-0.8,2.2-0.7,2.9,0.5c2.8,4.5,5.6,9,8.3,13.6C302,430.6,302,431.4,302.1,431.7z M294.9,425.1c-1.7-2-1.8-4.9-4.6-5.3
		c-1.7-0.2-7.6,4.9-7.2,6c0.8,1.8,1.3,5,3.7,4.5C289.9,429.6,292.6,427.6,294.9,425.1z"/>
	<path class="st0" d="M199.5,145.8c-3.7-0.4-13.7-10-14.4-13.8c-0.3-1.5,0.5-2.7,1.5-3.5c2.6-2.3,5.3-4.5,8.1-6.6
		c2.1-1.6,4-0.7,5.8,1c6.7,6.5,6.6,8.6-1.5,13.2c-1.4,0.8-2.3,1.9-3.1,3.1c-0.8,1.2,0.4,2.1,1.1,3c1,1.1,2,0.5,3.1-0.1
		c1.3-0.7,2.2-2.9,4.2-1.7c0.9,0.5,0.7,1.6,0.2,2.3C203.4,144.5,202,146.2,199.5,145.8z M193.1,138.4c2-3.1,4.5-4.7,6.9-6.4
		c1.3-0.9,2.5-2.1,0.7-3.5c-1.6-1.3-2-5-5.1-3.2c-2.4,1.4-5,3.1-6.4,5.4c-1.6,2.5,2.4,3.5,3,5.6
		C192.2,136.8,192.5,137.2,193.1,138.4z"/>
	<path class="st0" d="M411.9,346.6c-0.9,3.5-4.1,5.7-6.9,7.8c-1.8,1.3-2.7-1.7-3.9-2.9c-2.4-2.3-4.6-4.8-6.9-7.2
		c-1.3-1.4-2.4-3.2-4.6-0.7c-1.1,1.2-2.7-0.4-2-1.1c3.5-3.3,0.2-4.8-1.4-6.7c-0.6-0.8-1.6-1.5-0.8-2.5c0.9-1,2-0.2,2.5,0.6
		c3,4.8,5.8,3.2,8.6-0.2c0.8-0.9,1.9-2.5,3.2-1c1,1.2-0.6,2-1.3,2.7c-4.5,4.8-4.5,4.8,0.2,9.7c1,1.1,2,2.2,3.2,3.2
		c1.4,1.2,2.2,4.1,5,1.5c2.2-2,3.3-3.7,0.4-5.9c-0.9-0.7-1.9-1.9-0.6-2.9c1.2-1,2,0.5,2.8,1.3C410.4,343.4,411.7,344.4,411.9,346.6z
		"/>
	<path class="st0" d="M458.9,295.4c-0.1,1.7-7.9,11.8-9.1,12c-0.4,0.1-1-0.1-1.2-0.4c-0.7-0.8-0.2-1.5,0.4-2.1
		c1.8-2.2,3.6-4.4,5.5-6.4c1.6-1.7,2-3-0.1-4.9c-2.3-2.1-3.7-1.4-5.2,0.7c-0.7,0.9-1.5,1.8-2.2,2.7c-4,4.6-7.8,4.3-11.1-0.8
		c-0.8-1.2-1.3-2.6-0.4-3.7c2.5-3.3,5.1-6.5,7.7-9.7c0.5-0.6,1.1-0.7,1.7-0.3c0.8,0.6,0.9,1.2,0.2,2c-1.9,2.3-3.7,4.7-5.8,6.9
		c-1.8,1.9-1.7,3.1,0.4,4.8c1.9,1.6,3.2,1.9,4.8-0.3c1.2-1.8,2.7-3.4,4.2-5c1.3-1.4,2.9-2.5,4.8-1.3
		C455.8,291.3,458.4,292.6,458.9,295.4z"/>
	<path class="st0" d="M246.8,89.9c-2.3,1.5-5.5,2.9-7.6,5.2c-1.6,1.7,1.1,3.5,2,5.1c1.9,3.3,4,6.5,6,9.8c0.6,0.9,1.1,1.7-0.1,2.5
		c-1.1,0.8-1.8,0.2-2.4-0.7c-2.9-4.7-6.7-9-8.5-14c-2.5-6.8,5-6.9,8.3-9.6c2.5-2,5.3-2.1,7.2,1c2.5,4.1,4.9,8.3,7.2,12.5
		c0.5,1,2.1,2.4,0.1,3.3c-1.7,0.8-2.2-1-2.9-2.1c-2.1-3.6-4.2-7.2-6.4-10.7C249.3,91.2,248.9,89.9,246.8,89.9z"/>
	<path class="st0" d="M356.5,359.2c0.7,0.6,1.4,1.1,1.8,1.8c2.3,4,4.7,3.7,7.5,0.6c0.9-0.9,2.1-3.1,3.5-1.6c1.6,1.7-0.8,2.6-1.8,3.2
		c-4.5,2.6-3.7,5.3-0.5,8.3c1.4,1.4,2.6,3,3.9,4.5c1.3,1.5,2.2,3.8,4.9,1.3c2-1.9,3.2-3.2,0.8-5.5c-0.7-0.7-2.2-1.6-0.8-2.8
		c1.3-1.1,2,0.3,2.8,1.1c3.3,3.2,3.2,5.4-0.4,8.6c-5,4.4-5,4.4-9.3-0.9c-1.6-1.9-3.2-3.9-4.8-5.8c-1.4-1.6-2.5-4.4-5.2-1.5
		c-0.4,0.4-1.3,0.5-1.6-0.4c-0.2-0.4-0.3-1.2-0.1-1.3c3.8-2.6,0.6-4.3-0.8-6.2c-0.6-0.8-1.5-1.5-1-2.6
		C355.5,359.7,356,359.5,356.5,359.2z"/>
	<path class="st0" d="M293.8,83.3c-2.4-5.1-4.6-9.4-6.5-13.8c-0.5-1.2-2.7-2.9,0-4c2.3-0.9,2.1,1.6,2.6,2.7
		c2.3,4.6,4.4,9.3,6.7,13.9c1,2,0.9,3-1.4,4.1c-14.8,7.1-12.3,7.4-19.3-5.9c-0.8-1.5-1.4-3-2.2-4.5c-0.6-1.2-1.6-2.6-0.1-3.4
		c1.7-1,2.1,0.8,2.7,1.9c1.8,3.6,3.8,7,5.3,10.7c1.3,3.1,2.9,3.5,5.6,1.8C289.4,85.5,291.7,84.5,293.8,83.3z"/>
	<path class="st0" d="M167.6,156.3c-2.7-3.3-4.8-4.7-7.3-1c-0.6,0.9-2,1.6-3,0.4c-0.8-1,0.3-1.8,0.9-2.5c0.6-0.6,1.3-1.1,1.8-1.8
		c2.8-4,5.2-3.1,7.8,0.3c2.2,2.8,4.8,5.4,7.3,8c2.9,2.9,3,5.7-0.1,8.6c-1.7,1.6-3.6,3-5.1,4.8c-2.4,2.8-4,3.1-6.8,0
		c-6.4-7-6.6-6.9,0.3-13.2C164.8,158.5,166.3,157.4,167.6,156.3z M173.9,163.7c-1-1.8-2.4-3.7-4.6-4.6c-1-0.4-7.5,5.8-7.2,7
		c0.6,2.5,2.5,4.1,4.7,5.2C167.5,171.7,173.9,164.9,173.9,163.7z"/>
	<path class="st0" d="M186.7,460c1.4-0.2,1.7,1.2,2.1,2.2c2.8,6.8,5.5,13.5,8.2,20.3c0.5,1.2,0.4,2.8-0.7,3.7
		c-3.8,3.2-8.6,4-13.1,5.6c-1.3,0.4-1.4-1.1-1.8-2c-1.8-4.4-3.7-8.8-5.2-13.3c-1.2-3.4,0.9-5.6,3.8-6.4c4.6-1.3,9-2.3,5.6-8.6
		C184.9,460.3,185.5,460,186.7,460z M194.1,483.2c-1.1-2.4-2.2-4.5-3.1-6.8c-2.4-6.6-2.3-6.4-8.6-4.3c-3.2,1.1-3.8,2.5-2.4,5.4
		c1.2,2.6,2.1,5.3,3.1,7.9c0.5,1.4,1,3.1,3.1,2.2C188.9,486.4,192.4,486.4,194.1,483.2z"/>
	<path class="st0" d="M205.2,483.3c-2.9,0-4.4-0.9-5.1-2.8c-1.5-3.9-3-7.7-4.5-11.6c-1.1-2.9-0.5-5.1,2.9-6.1
		c1.1-0.3,2.2-0.9,3.3-1.2c2.5-0.5,4.6-4,7.1-2.1c3.1,2.3,3.9,6.5,5.4,9.9c0.5,1-0.5,1.3-1.4,1.9c-2.7,1.6-5.6,2.7-8.5,4
		c-1.2,0.5-2.7,0.9-1.7,2.8c0.7,1.3,1.4,2.3,3,1.8c0.8-0.2,1.5-0.6,2.3-0.8c0.9-0.2,2.1-0.6,2.6,0.6c0.4,1.1-0.6,1.8-1.5,2.2
		C207.5,482.5,205.9,483,205.2,483.3z M202.4,473c2-2.3,6.9-0.8,7.3-5.1c0.1-1.7-0.5-5.4-3.7-4.6c-2.8,0.6-6.6,1-7.3,4.5
		C198.4,469.2,199.2,472.4,202.4,473z"/>
	<path class="st0" d="M138,194.8c6.1,1.6,7,3.4,4.5,7c-0.2,0.3-0.4,0.5-0.6,0.8c-6.1,6.9-4.1,6.6-10.7,1c-2.1-1.8-4.2-3.7-6.5-5.4
		c-1.2-0.9-2.1-2.4-4.3-1.4c-1.6,0.8-2.7,0.2-1.8-2.3c0.9-2.4-2.4-2.7-3.5-4.3c-0.6-1-1.7-1.8-0.5-3c1-0.9,2-0.4,2.6,0.4
		c3.9,4.9,6.4,2.1,9-1.4c0.7-0.9,1.6-2.8,3.1-1.7c1.7,1.3,0,2.6-0.8,3.7c-4,5.3-4,5.3,1,9.7c0.9,0.8,1.7,1.8,2.7,2.2
		c1.8,0.8,2.4,4.4,5.5,2.3C140.8,200.5,140.8,198.2,138,194.8z"/>
	<path class="st0" d="M231.9,98.7c-0.7,0.6-1.3,1.4-2.2,1.8c-4.3,1.7-3,4-1,6.7c1.3,1.7,2.5,3.5,3.5,5.4c1.7,3,3.5,4.8,6.7,1.7
		c0.7-0.7,2-1.1,2.7-0.2c1.1,1.4-0.3,2.1-1.2,2.7c-3.4,2.3-6.9,4.6-10.4,6.9c-0.8,0.5-1.5,1.4-2.5,0.2c-1.2-1.4-0.1-2.2,0.9-2.6
		c4.8-1.9,3.5-4.5,1.1-7.4c-1.2-1.4-2.2-2.9-3.1-4.5c-1.7-3.3-3.6-5.6-7.2-1.9c-0.8,0.8-2.1,1.4-3,0.1c-0.7-1.1,0.5-1.8,1.3-2.3
		c3.7-2.5,7.5-4.9,11.2-7.5C230.3,96.7,231.1,97,231.9,98.7z"/>
	<path class="st0" d="M166,497.9c-2.9,0.4-4.2-0.9-4.9-2.7c-0.8-2-1.4-4.1-2-6.1c-3.7-11.4-3.7-10.2,8.2-14.4c3-1,4.7,0.2,5.9,2.8
		c3.8,8.2,3.9,8.2-4.8,11.3c-1.2,0.5-2.5,1-3.7,1.4c-1.6,0.5-1.6,1.5-1,2.7c0.5,1,0.7,2.4,2.3,1.9c1.1-0.3,2.2-0.7,3.3-1
		c0.9-0.2,1.8-0.2,2.2,0.6c0.6,1.3-0.5,1.8-1.4,2.2C168.5,497.2,166.9,497.6,166,497.9z M168.1,477.4c-2.4,2.1-7.2,0.5-7.7,4.8
		c-0.2,1.5-0.1,5.4,3.2,4.7c2.9-0.6,7.1-0.3,7.9-4.2C171.8,481.2,171.1,478.1,168.1,477.4z"/>
	<path class="st0" d="M446.3,311.2c-0.3,0.6-0.5,1.2-0.9,1.4c-0.9,0.4-1.6-0.2-2.2-0.8c-3.1-2.8-6.3-5.4-9.2-8.3c-3-3-4.7-1-6.2,1.3
		c-1.4,2.1-5.7,3.6-1.5,7c3.2,2.6,6.2,5.6,9.2,8.4c0.8,0.7,2.2,1.4,0.8,2.8c-1.1,1.2-1.7,0-2.4-0.6c-3.7-3.4-7.4-6.6-11-10.1
		c-2.5-2.4-1.5-5,0.8-6.8c3.1-2.3,4.3-9,10-5.4c4.2,2.6,7.6,6.4,11.3,9.7C445.5,310.2,445.9,310.7,446.3,311.2z"/>
	<path class="st0" d="M237.5,447.9c-0.3-2.1,1.5-3,2.5-3.6c2.5-1.6,5.2-2.9,7.9-4.1c2.5-1.1,4.6-0.2,5.9,2.1
		c2.2,4.1,4.3,8.2,6.5,12.3c0.5,1,1.3,2.3,0,3.1c-1.6,0.9-2.4-0.6-3-1.8c-1.6-3.1-3.4-6.1-4.7-9.3c-1.6-3.9-3.7-3.7-6.9-2
		c-3,1.6-5.1,2.8-2.8,6.6c2.1,3.4,3.5,7.1,5.3,10.7c0.5,1,0.5,1.9-0.7,2.5c-0.7,0.3-1.3,0.3-1.7-0.3
		C243,458.7,240.2,453.3,237.5,447.9z"/>
	<path class="st0" d="M284.9,443.3c-0.1,0.8-0.3,1.4-1.1,1.5c-1.2,0.1-1.8-0.6-2.3-1.5c-1.9-3.3-3.7-6.7-5.6-10
		c-1.1-1.9-2.2-4.7-5.1-2c-2,1.9-7.8,1.5-4.3,7c2.1,3.3,3.9,6.9,5.8,10.4c0.6,1.1,1.1,2.1-0.3,2.9c-1.6,0.9-2-0.6-2.5-1.5
		c-2.4-4.3-4.8-8.7-7.1-13.1c-0.9-1.8-0.7-3.8,1-4.9c2.9-1.9,5.9-3.6,9.1-5.1c1.6-0.8,3.4-0.1,4.3,1.5c2.6,4.4,5.2,8.9,7.7,13.3
		C284.7,442.4,284.8,442.9,284.9,443.3z"/>
	<path class="st0" d="M214.1,460.7c-0.3-3.2,0.6-4.8,2.4-5.7c3-1.5,6-2.7,9.1-4c0.9-0.4,2-0.9,2.6,0.2c0.9,1.5-0.3,2.1-1.3,2.6
		c-2.1,1-4.1,2.2-6.3,2.9c-3.1,1-3.5,2.6-2.4,5.6c1.3,3.4,3.2,2.5,5.4,1.5c0.6-0.3,1.2-0.6,1.8-0.8c1.3-0.5,2.9-2,3.8,0
		c1.1,2.3-1.4,2.2-2.6,2.6c-4.1,1.4-6.4,3.4-3.4,7.8c0.6,0.9,0.6,2-0.7,2.5c-0.9,0.4-1.7,0-2.1-0.8
		C218.1,469.9,215.9,464.8,214.1,460.7z"/>
	<path class="st0" d="M116.1,203c-1.9,2.5-3.7,5.1-5.7,7.4c-2.1,2.4-2.3,4.1,0.6,6.4c3.1,2.4,4.3,0.8,5.9-1.4
		c0.1-0.1,0.2-0.3,0.3-0.4c1.3-1.2,2.2-4.6,4.2-3c2.3,1.8-0.6,3.8-1.9,5.2c-1.5,1.7-2.2,2.7-2,3.6c0.3,1.8,4.5,4.6,4.8,5.1
		c0.6,1,0.5,1.4,0.4,1.6c-0.3,0.4-1.5,0.2-2.1-0.2c-1.3-0.9-8.9-5.6-14.6-10.5c-0.7-0.6-1.6-2.5-0.7-4.2c2.3-4.1,5.4-7.5,8.5-11
		c0.5-0.5,1.2-0.7,1.8-0.1C115.8,201.8,115.8,202.4,116.1,203z"/>
	<path class="st0" d="M380.1,38.3c1.1,4.5,2.1,9.1,3.3,13.6c0.3,1.2,0.8,2.4-0.8,2.9c-1.8,0.6-1.8-1-2.1-2
		c-1.3-4.8-2.5-9.7-3.6-14.5c-0.8-3.3,0.8-5.1,3.8-5.8c2.9-0.7,5.8-1.3,8.8-2c3.8-0.9,6,1,5.4,4.7c-0.1,0.6-0.5,1.2-1,1.5
		c-0.5,0.3-1.5,0.5-1.7-0.3c-1.4-5.9-5.1-2.1-7.8-1.8C382.6,34.9,379.1,34.3,380.1,38.3z"/>
	<path class="st0" d="M311.6,403.3c0.5,0.6,1.1,1.3,1.7,2.1c2.2,3.3,4.6,6.5,6.7,9.9c1.4,2.2,2.7,2.5,4.8,0.9
		c2.3-1.8,4.8-3.5,7.3-5.1c0.6-0.4,1.2-1.3,2.1-0.2c0.9,1.1,0.5,1.7-0.7,2.3c-0.3,0.1-0.5,0.5-0.8,0.6c-4,2-7.4,7.9-11.9,5.7
		c-5.3-2.5-7.1-9.2-10.6-14C309.6,404.6,309.8,403.4,311.6,403.3z"/>
	<path class="st0" d="M180.4,133.7c1.6,0.6,2.4,2,2.7,3.3c0.3,1.1-0.5,1.9-2.1,1.8c-4.2-0.3-5.8,3.7-8.4,5.8c-1.3,1,0.2,2.4,1.1,3.4
		c2.7,3.1,5.6,6.2,8.3,9.3c0.8,1,2.1,2.1,0.8,3.4c-1.2,1.2-2.2-0.2-2.8-1c-3.4-3.6-6.7-7.4-10-11.1c-2-2.2-1.4-4.4,0.4-6.2
		c2.8-2.8,5.9-5.3,8.9-7.9C179.5,134.1,179.9,133.9,180.4,133.7z"/>
	<path class="st0" d="M366.2,387.4c-0.3,0.7-0.5,1.4-0.7,1.5c-0.6,0.1-1.5,0.1-1.8-0.2c-3.9-4.7-7.7-9.5-11.6-14.2
		c-0.5-0.6-0.5-1.2,0.1-1.7c0.3-0.3,1.1-0.5,1.2-0.4C357.8,377.3,362,382.3,366.2,387.4z"/>
	<path class="st0" d="M339.8,408.1c-0.3,0.3-0.6,0.8-1,0.8c-0.6,0-1.4-0.1-1.7-0.5c-3.5-4.8-7-9.6-10.4-14.4
		c-0.6-0.8-0.6-1.5,0.3-2.1c0.6-0.4,1.3-0.3,1.7,0.3c3.6,4.9,7.2,9.9,10.7,14.8C339.6,407.3,339.7,407.7,339.8,408.1z"/>
	<path class="st0" d="M257.7,435.9c2.9,5.3,5.7,10.6,8.6,16c0.5,0.9,1,1.8-0.1,2.6c-0.8,0.6-1.7,0.5-2.1-0.3
		c-2.7-5.8-7.5-10.8-7.6-17.6C256.9,436.3,257.3,436.1,257.7,435.9z"/>
	<path class="st0" d="M403.2,327.3c4.9,4.8,9.7,9.5,14.4,14.3c0.1,0.1-0.4,1.1-0.6,1.1c-0.6,0.1-1.4,0.1-1.8-0.3
		c-4.3-4.1-8.5-8.3-12.7-12.6C401.3,328.7,402.2,327.8,403.2,327.3z"/>
	<path class="st0" d="M232.7,447.9c1-0.1,1.5,0.7,1.8,1.4c2.2,4.4,4.4,8.9,6.5,13.3c0.5,1.1,0.6,2.5-0.5,3.1c-1.6,0.8-1.8-1-2.3-1.9
		c-2.2-4.3-4.3-8.6-6.3-12.9C231.6,449.9,230.4,448.4,232.7,447.9z"/>
</g>
</svg>
