<svg id="Layer_1" xmlns="http://www.w3.org/2000/svg" viewBox="0 0 600 120">
  <style>
    .st0{fill:#EAECED;} .st1{fill:#00CE9B;} .st2{enable-background:new ;} .st3{fill:none;stroke:#273238;stroke-miterlimit:10;} .st4{fill:#273238;} .st5{fill:#38464C;} .st6{fill:#FF7143;} .st7{fill:#4F5E63;} .st8{fill:#0DC8D6;} .st9{fill:#FFFFFF;} .st10{fill:#1B8689;} .st11{fill:#BCBCBC;} .st12{fill:#EAC598;} .st13{fill:#2E3192;} .st14{fill:#C1C1C1;} .st15{fill:#7C5F50;}
  </style>
  <path class="st0" d="M-3-.2v119.8h547.1c30.7 0 55.5-8 55.5-17.9V17.8c0-10-24.8-17.9-55.5-17.9L-3-.2z"/>
  <path class="st1" d="M367.2.2v120.3H601V.2z"/>
  <g class="st2">
    <path d="M53.6 50.2c-1 0-1.9-.1-2.6-.4s-1.4-.6-1.9-1.1-.9-1-1.2-1.7-.5-1.4-.6-2.2-.2-1.6-.2-2.6v-8.5c0-1 .1-1.9.2-2.7.1-.8.3-1.5.6-2.2s.7-1.3 1.2-1.7c.5-.4 1.1-.8 1.9-1s1.6-.4 2.6-.4c2.2 0 3.7.6 4.7 1.8.9 1.2 1.4 2.9 1.4 5.2v1.9h-3.2v-1.7-.9-.8s0-.6-.1-.7c0-.2-.1-.4-.2-.6-.1-.2-.1-.4-.2-.5-.1-.1-.2-.3-.4-.4-.1-.1-.3-.3-.5-.3-.2-.1-.4-.1-.7-.2s-.5-.1-.8-.1c-.5 0-.9.1-1.2.2s-.6.3-.9.5c-.2.2-.4.5-.5.7-.1.3-.2.6-.3 1s-.1.8-.1 1.2v10.9c0 1.8.2 3.1.7 3.8s1.3 1.1 2.4 1.1c.4 0 .8 0 1.2-.1s.6-.3.8-.5.4-.5.5-.7.2-.6.3-1 .1-.8.1-1.1V41h3.2v1.8c0 .9-.1 1.7-.2 2.5s-.3 1.4-.6 2-.6 1.2-1.1 1.6c-.5.4-1 .7-1.7 1s-1.7.3-2.6.3zM69 50.2c-1.2 0-2.2-.2-3.1-.5-.9-.4-1.5-.9-2-1.6-.5-.7-.9-1.5-1.1-2.4-.2-.9-.3-2-.3-3.3v-9.1c0-2.5.5-4.4 1.5-5.7 1-1.3 2.7-1.9 5.1-1.9 2.3 0 4 .7 5 2s1.5 3.2 1.5 5.7v9.1c0 2.5-.5 4.4-1.5 5.8s-2.7 1.9-5.1 1.9zm-1.6-2.9c.4.2 1 .3 1.6.3s1.2-.1 1.6-.3.8-.5 1-.9.4-.9.5-1.4.1-1.1.1-1.9V32.6c0-.7 0-1.3-.1-1.8s-.2-.9-.5-1.3c-.2-.4-.6-.7-1-.9-.4-.2-1-.3-1.6-.3s-1.2.1-1.6.3c-.4.2-.8.5-1 .9s-.4.9-.5 1.3-.1 1.1-.1 1.8v10.6c0 .7 0 1.4.1 1.9s.2 1 .5 1.4c.2.3.6.6 1 .8zM78.9 50l.5-24.1h3.3L87 45.5l4.3-19.6h3.3l.3 24.1h-2.7l-.3-17.5L87.8 50h-1.9l-4.1-17.5-.2 17.5h-2.7zM98.6 50V25.9h6c2.1 0 3.6.6 4.5 1.7s1.4 2.8 1.4 5c0 2-.5 3.5-1.5 4.6s-2.5 1.6-4.4 1.6H102V50h-3.4zm3.4-13.7h1.5c1.5 0 2.5-.3 3-.8s.8-1.5.8-3V31s-.1-.8-.2-1.1c-.1-.3-.2-.6-.4-.8-.2-.2-.4-.4-.7-.5-.3-.1-.6-.2-1-.3-.4 0-.9-.1-1.5-.1H102v8.1zM121.8 49.8c-.8.3-1.6.4-2.7.4s-1.9-.1-2.7-.4c-.8-.3-1.4-.6-1.9-1.1s-.9-1.1-1.1-1.8c-.3-.7-.5-1.5-.6-2.3s-.2-1.8-.2-2.8v-16h3.2V42c0 .7 0 1.3.1 1.8 0 .5.1 1 .3 1.5.1.5.3.9.5 1.2s.5.6.9.8.9.3 1.4.3 1-.1 1.4-.3.7-.5.9-.8c.2-.3.4-.7.5-1.2l.3-1.5c0-.5.1-1.1.1-1.8V25.9h3.2v16c0 1.1-.1 2-.2 2.8s-.3 1.6-.6 2.3c-.3.7-.7 1.3-1.1 1.8-.4.4-1 .8-1.7 1zM131.5 50V28.4h-4.4v-2.5h12v2.5h-4.2V50h-3.4zM141 50V25.9h9.3v2.5h-6v8h4.9v2.4h-4.9v8.8h6V50H141zM153.1 50V25.9h4.8c2.4 0 4.2.5 5.4 1.5 1.1 1 1.7 2.6 1.7 4.9 0 3.1-1 5-3 5.6l3.4 12.1h-3.3l-3.2-11.3h-2.6V50h-3.2zm3.4-13.7h1.3c1.5 0 2.5-.3 3.1-.9.6-.6.9-1.6.9-3.1s-.3-2.5-.8-3.1-1.6-.9-3-.9h-1.5v8zM181 50.2c-2 0-3.6-.6-4.6-1.9-1.1-1.3-1.7-3-1.8-5.1l3-.8c.2 3.5 1.4 5.2 3.4 5.2.9 0 1.5-.2 2-.7s.7-1.2.7-2.1c0-.5-.1-1-.2-1.4-.1-.4-.3-.8-.6-1.2s-.5-.7-.8-1c-.2-.3-.6-.6-1.1-1l-4-3.6c-.8-.7-1.4-1.5-1.8-2.3-.4-.8-.6-1.8-.6-3 0-1.7.5-3.1 1.5-4.1s2.4-1.5 4.2-1.5c1.9 0 3.4.5 4.3 1.5s1.5 2.6 1.7 4.7l-2.8.8c0-.5-.1-1-.2-1.4l-.3-1.2s-.3-.7-.6-1c-.2-.3-.5-.5-.9-.6s-.8-.2-1.3-.2c-1.8.1-2.7 1-2.7 2.6 0 .7.1 1.3.4 1.8s.6 1 1.2 1.5l4.1 3.6c1.1 1 1.9 2 2.5 3.1s.9 2.3.9 3.7c0 1.8-.5 3.2-1.6 4.2-.9.9-2.2 1.4-4 1.4zM195.5 50.2c-1 0-1.9-.1-2.6-.4s-1.4-.6-1.9-1.1-.9-1-1.2-1.7-.5-1.4-.6-2.2-.2-1.6-.2-2.6v-8.5c0-1 .1-1.9.2-2.7.1-.8.3-1.5.6-2.2s.7-1.3 1.2-1.7c.5-.4 1.1-.8 1.9-1s1.6-.4 2.6-.4c2.2 0 3.7.6 4.7 1.8.9 1.2 1.4 2.9 1.4 5.2v1.9h-3.2v-1.7-.9-.8s0-.6-.1-.7c0-.2-.1-.4-.2-.6-.1-.2-.1-.4-.2-.5-.1-.1-.2-.3-.4-.4-.1-.1-.3-.3-.5-.3-.2-.1-.4-.1-.7-.2s-.5-.1-.8-.1c-.5 0-.9.1-1.2.2s-.6.3-.9.5c-.2.2-.4.5-.5.7-.1.3-.2.6-.3 1s-.1.8-.1 1.2v10.9c0 1.8.2 3.1.7 3.8s1.3 1.1 2.4 1.1c.4 0 .8 0 1.2-.1s.6-.3.8-.5.4-.5.5-.7.2-.6.3-1 .1-.8.1-1.1V41h3.2v1.8c0 .9-.1 1.7-.2 2.5s-.3 1.4-.6 2-.6 1.2-1.1 1.6c-.5.4-1 .7-1.7 1s-1.7.3-2.6.3zM204.9 50V25.9h3.3V50h-3.3zM212.1 50V25.9h9.3v2.5h-6v8h4.9v2.4h-4.9v8.8h6V50h-9.3zM224.3 50V25.9h2.3l6.8 16v-16h2.8V50H234l-6.9-16.5V50h-2.8zM246 50.2c-1 0-1.9-.1-2.6-.4s-1.4-.6-1.9-1.1-.9-1-1.2-1.7-.5-1.4-.6-2.2-.2-1.6-.2-2.6v-8.5c0-1 .1-1.9.2-2.7.1-.8.3-1.5.6-2.2s.7-1.3 1.2-1.7c.5-.4 1.1-.8 1.9-1s1.6-.4 2.6-.4c2.2 0 3.7.6 4.7 1.8.9 1.2 1.4 2.9 1.4 5.2v1.9h-3.2v-1.7-.9-.8s0-.6-.1-.7c0-.2-.1-.4-.2-.6-.1-.2-.1-.4-.2-.5-.1-.1-.2-.3-.4-.4-.1-.1-.3-.3-.5-.3-.2-.1-.4-.1-.7-.2s-.5-.1-.8-.1c-.5 0-.9.1-1.2.2s-.6.3-.9.5c-.2.2-.4.5-.5.7-.1.3-.2.6-.3 1s-.1.8-.1 1.2v10.9c0 1.8.2 3.1.7 3.8s1.3 1.1 2.4 1.1c.4 0 .8 0 1.2-.1s.6-.3.8-.5.4-.5.5-.7.2-.6.3-1 .1-.8.1-1.1V41h3.2v1.8c0 .9-.1 1.7-.2 2.5s-.3 1.4-.6 2-.6 1.2-1.1 1.6c-.5.4-1 .7-1.7 1s-1.7.3-2.6.3zM255.3 50V25.9h9.3v2.5h-6v8h4.9v2.4h-4.9v8.8h6V50h-9.3zM272.9 50l5.1-24.1h3.2l5.1 24.1h-3.2l-1.1-6.1h-4.9L276 50h-3.1zm4.8-8.5h4l-2-10.9-2 10.9zM288.9 50V25.9h2.3l6.8 16v-16h2.8V50h-2.2l-6.9-16.5V50h-2.8zM304.6 50V25.9h5.2c2.6 0 4.4.6 5.5 1.8 1.1 1.2 1.6 3 1.6 5.6v8.9c0 2.6-.5 4.6-1.6 5.9-1.1 1.3-2.8 2-5.3 2l-5.4-.1zm3.3-2.4h1.9c.5 0 1-.1 1.4-.2.4-.1.7-.2 1-.4.3-.1.5-.4.7-.7s.3-.6.4-.9c.1-.3.2-.6.2-1.2 0-.5.1-1 .1-1.3v-9.4V32s-.1-.8-.1-1.2c-.1-.4-.1-.7-.3-1s-.3-.5-.5-.7-.4-.4-.7-.5-.6-.2-1-.3c-.4-.1-.8-.1-1.3-.1h-1.8v19.4z"/>
  </g>
  <g class="st2">
    <path d="M31.9 85.7V61.6h3.3v24.1h-3.3zM39.1 85.7V61.6h2.3l6.8 16v-16H51v24.1h-2.2L42 69.2v16.5h-2.9zM54.9 85.7V61.6h9.3V64h-5.9v8h4.6v2.4h-4.6v11.3h-3.4zM72.6 85.9c-1.2 0-2.2-.2-3.1-.5-.9-.4-1.5-.9-2-1.6s-.9-1.5-1.1-2.4-.3-2-.3-3.3V69c0-2.5.5-4.4 1.5-5.7s2.7-1.9 5.1-1.9c2.3 0 4 .7 5 2s1.5 3.2 1.5 5.7v9.1c0 2.5-.5 4.4-1.5 5.8-1.1 1.3-2.8 1.9-5.1 1.9zM71 83c.4.2 1 .3 1.6.3s1.2-.1 1.6-.3.8-.5 1-.9.4-.9.5-1.4.1-1.1.1-1.9V68.3c0-.7 0-1.3-.1-1.8s-.2-.9-.5-1.3c-.2-.4-.6-.7-1-.9s-1-.3-1.6-.3-1.2.1-1.6.3-.8.5-1 .9-.4.9-.5 1.3-.1 1.1-.1 1.8v10.6c0 .7 0 1.4.1 1.9s.2 1 .5 1.4c.2.3.6.6 1 .8zM82.5 85.7V61.6h4.8c2.4 0 4.2.5 5.4 1.5s1.7 2.6 1.7 4.9c0 3.1-1 5-3 5.6l3.4 12.1h-3.3l-3.2-11.3h-2.6v11.3h-3.2zM85.9 72h1.3c1.5 0 2.5-.3 3.1-.9s.9-1.6.9-3.1-.3-2.5-.8-3.1-1.6-.9-3-.9h-1.5v8zM97.9 85.7l.5-24.1h3.3l4.3 19.6 4.3-19.6h3.3l.5 24.1h-2.7l-.4-17.5-4.1 17.5H105l-4.1-17.5-.3 17.5h-2.7zM116.3 85.7l5.1-24.1h3.2l5.1 24.1h-3.2l-1.1-6.1h-4.9l-1.1 6.1h-3.1zm4.8-8.5h4l-2-10.9-2 10.9zM133.8 85.7V64.1h-4.4v-2.5h12v2.5h-4.2v21.6h-3.4zM143.4 85.7V61.6h3.3v24.1h-3.3zM156.7 85.9c-1.2 0-2.2-.2-3.1-.5-.9-.4-1.5-.9-2-1.6s-.9-1.5-1.1-2.4c-.2-.9-.3-2-.3-3.3V69c0-2.5.5-4.4 1.5-5.7s2.7-1.9 5.1-1.9c2.3 0 4 .7 5 2s1.5 3.2 1.5 5.7v9.1c0 2.5-.5 4.4-1.5 5.8-1 1.3-2.7 1.9-5.1 1.9zm-1.6-2.9c.4.2 1 .3 1.6.3s1.2-.1 1.6-.3.8-.5 1-.9.4-.9.5-1.4.1-1.1.1-1.9V68.3c0-.7 0-1.3-.1-1.8s-.2-.9-.5-1.3c-.2-.4-.6-.7-1-.9s-1-.3-1.6-.3-1.2.1-1.6.3c-.4.2-.8.5-1 .9s-.4.9-.5 1.3-.1 1.1-.1 1.8v10.6c0 .7 0 1.4.1 1.9s.2 1 .5 1.4c.3.3.6.6 1 .8zM166.7 85.7V61.6h2.3l6.8 16v-16h2.8v24.1h-2.2l-6.9-16.5v16.5h-2.8zM191.7 85.7V64.1h-4.4v-2.5h12v2.5H195v21.6h-3.3zM201.1 85.7V61.6h9.3v2.5h-6v8h4.9v2.4h-4.9v8.8h6v2.4h-9.3zM219.2 85.9c-1 0-1.9-.1-2.6-.4s-1.4-.6-1.9-1.1-.9-1-1.2-1.7-.5-1.4-.6-2.2-.2-1.6-.2-2.6v-8.5c0-1 .1-1.9.2-2.7.1-.8.3-1.5.6-2.2.3-.7.7-1.3 1.2-1.7s1.1-.8 1.9-1 1.6-.4 2.6-.4c2.2 0 3.7.6 4.7 1.8.9 1.2 1.4 2.9 1.4 5.2v1.9h-3.2v-1.7-.9-.8s0-.6-.1-.7-.1-.4-.2-.6c-.1-.2-.1-.4-.2-.5-.1-.1-.2-.3-.4-.4-.1-.1-.3-.3-.5-.3s-.4-.1-.7-.2-.5-.1-.8-.1c-.5 0-.9.1-1.2.2s-.6.3-.9.5c-.2.2-.4.5-.5.7-.1.3-.2.6-.3 1s-.1.8-.1 1.2v10.9c0 1.8.2 3.1.7 3.8.5.7 1.3 1.1 2.4 1.1.4 0 .8 0 1.2-.1.3-.1.6-.3.8-.5s.4-.5.5-.7.2-.6.3-1 .1-.8.1-1.1v-3.2h3.2v1.8c0 .9-.1 1.7-.2 2.5s-.3 1.4-.6 2-.6 1.2-1.1 1.6-1 .7-1.7 1c-.8 0-1.6.1-2.6.1zM228.5 85.7V61.6h3.4V72h6.2V61.6h3.4v24.1h-3.4V74.4h-6.2v11.3h-3.4zM245.2 85.7V61.6h2.3l6.8 16v-16h2.8v24.1H255l-6.9-16.5v16.5h-2.9zM267.1 85.9c-1.2 0-2.2-.2-3.1-.5-.9-.4-1.5-.9-2-1.6s-.9-1.5-1.1-2.4-.3-2-.3-3.3V69c0-2.5.5-4.4 1.5-5.7s2.7-1.9 5.1-1.9c2.3 0 4 .7 5 2s1.5 3.2 1.5 5.7v9.1c0 2.5-.5 4.4-1.5 5.8-1.1 1.3-2.8 1.9-5.1 1.9zm-1.6-2.9c.4.2 1 .3 1.6.3s1.2-.1 1.6-.3.8-.5 1-.9.4-.9.5-1.4.1-1.1.1-1.9V68.3c0-.7 0-1.3-.1-1.8s-.2-.9-.5-1.3c-.2-.4-.6-.7-1-.9s-1-.3-1.6-.3-1.2.1-1.6.3-.8.5-1 .9-.4.9-.5 1.3-.1 1.1-.1 1.8v10.6c0 .7 0 1.4.1 1.9s.2 1 .5 1.4c.2.3.5.6 1 .8zM277 85.7V61.6h3.4v21.7h6.1v2.4H277zM294.8 85.9c-1.2 0-2.2-.2-3.1-.5-.9-.4-1.5-.9-2-1.6s-.9-1.5-1.1-2.4-.3-2-.3-3.3V69c0-2.5.5-4.4 1.5-5.7s2.7-1.9 5.1-1.9c2.3 0 4 .7 5 2s1.5 3.2 1.5 5.7v9.1c0 2.5-.5 4.4-1.5 5.8-1.1 1.3-2.8 1.9-5.1 1.9zm-1.7-2.9c.4.2 1 .3 1.6.3s1.2-.1 1.6-.3c.4-.2.8-.5 1-.9s.4-.9.5-1.4.1-1.1.1-1.9V68.3c0-.7 0-1.3-.1-1.8s-.2-.9-.5-1.3c-.2-.4-.6-.7-1-.9-.4-.2-1-.3-1.6-.3s-1.2.1-1.6.3-.8.5-1 .9-.4.9-.5 1.3c-.1.5-.1 1.1-.1 1.8v10.6c0 .7 0 1.4.1 1.9s.2 1 .5 1.4c.3.3.6.6 1 .8zM310.4 86c-2.2 0-3.8-.7-4.7-2.1-1-1.4-1.5-3.4-1.5-6.1v-8.1c0-1.1.1-2.1.2-2.9s.3-1.6.6-2.3c.3-.7.7-1.3 1.2-1.7s1.1-.8 1.8-1c.7-.2 1.6-.4 2.6-.4 2.2 0 3.8.6 4.8 1.7s1.5 2.9 1.5 5.3v.9h-3.2v-.8c0-.7 0-1.2-.1-1.7 0-.4-.1-.9-.2-1.3s-.3-.7-.5-.9c-.2-.2-.5-.4-.9-.5s-.8-.2-1.4-.2c-.4 0-.8 0-1.1.1-.3.1-.6.2-.8.4l-.6.6c-.2.3-.3.5-.4.8s-.2.6-.2 1-.1.8-.1 1.1V78c0 1.9.2 3.2.7 4s1.3 1.2 2.6 1.2 2.1-.4 2.6-1.3.7-2.3.7-4.2V76h-3v-2.4h6.1v11.9H315l-.3-2.8c-.7 2.2-2.2 3.3-4.3 3.3zM324.1 85.7v-8.5l-5.2-15.6h3.1l3.7 11.6 3.6-11.6h3.2l-5.2 15.6v8.5h-3.2z"/>
  </g>
  <g>
    <path id="XMLID_481_" class="st3" d="M543 107.7c-2.4-14.8-4.9-29.6-7.3-44.4-.7-2.5.1-5.1 2.1-6.8 2.4-2.2 3-5.7 1.4-8.5L532 35.6c-2.8-4.8-8.7-6.7-13.7-4.6l-20.2 8.5"/>
    <path id="XMLID_480_" class="st4" d="M543 90.7c-3.6.9-7.3-1.4-8.2-5l-2.4-10c-.9-3.6 1.4-7.3 5-8.2 3.6-.9 7.3 1.4 8.2 5l2.4 10c.9 3.7-1.2 7.3-5 8.2z">
      <animateTransform accumulate="none" additive="replace" attributeName="transform" calcMode="linear" dur="20s" fill="remove" repeatCount="indefinite" restart="always" type="translate" values="0 -10 ; 0 20; 0 -10"/>
    </path>
    <g id="XMLID_325_">
      <path id="XMLID_470_" class="st4" d="M520.9 44.8h-71.6c-2.8 0-5.1 2.3-5.1 5.1v40.9c0 2.8 2.3 5.1 5.1 5.1h71.6c2.8 0 5.1-2.3 5.1-5.1V49.9c0-2.8-2.2-5.1-5.1-5.1z"/>
      <path id="XMLID_467_" class="st5" d="M473.1 83.3h24.1v9.3h-24.1z"/>
      <circle id="XMLID_464_" class="st6" cx="495.9" cy="84.3" r=".3"/>
      <g id="XMLID_341_">
        <path id="XMLID_554_" class="st7" d="M451 48.3h4.2v1.9H451z"/>
        <path id="XMLID_553_" class="st7" d="M457.4 48.3h4.2v1.9h-4.2z"/>
        <path id="XMLID_552_" class="st7" d="M463.9 48.3h4.2v1.9h-4.2z"/>
        <path id="XMLID_551_" class="st7" d="M470.3 48.3h4.2v1.9h-4.2z"/>
        <path id="XMLID_550_" class="st7" d="M476.6 48.3h4.2v1.9h-4.2z"/>
        <path id="XMLID_549_" class="st7" d="M483 48.3h4.2v1.9H483z"/>
        <path id="XMLID_548_" class="st7" d="M489.4 48.3h4.2v1.9h-4.2z"/>
        <path id="XMLID_547_" class="st7" d="M495.9 48.3h4.2v1.9h-4.2z"/>
        <path id="XMLID_546_" class="st7" d="M502.3 48.3h4.2v1.9h-4.2z"/>
        <path id="XMLID_545_" class="st7" d="M508.6 48.3h4.2v1.9h-4.2z"/>
        <path id="XMLID_544_" class="st7" d="M515 48.3h4.2v1.9H515z"/>
        <path id="XMLID_543_" class="st7" d="M451 53.9h4.2v3.8H451z"/>
        <path id="XMLID_542_" class="st7" d="M457.4 53.9h4.2v3.8h-4.2z"/>
        <path id="XMLID_541_" class="st7" d="M463.9 53.9h4.2v3.8h-4.2z"/>
        <path id="XMLID_540_" class="st7" d="M470.3 53.9h4.2v3.8h-4.2z"/>
        <path id="XMLID_539_" class="st7" d="M476.6 53.9h4.2v3.8h-4.2z"/>
        <path id="XMLID_538_" class="st7" d="M483 53.9h4.2v3.8H483z"/>
        <path id="XMLID_537_" class="st7" d="M489.4 53.9h4.2v3.8h-4.2z"/>
        <path id="XMLID_536_" class="st7" d="M495.9 53.9h4.2v3.8h-4.2z"/>
        <path id="XMLID_535_" class="st7" d="M502.3 53.9h4.2v3.8h-4.2z"/>
        <path id="XMLID_534_" class="st7" d="M508.6 53.9h4.2v3.8h-4.2z"/>
        <path id="XMLID_533_" class="st7" d="M515 53.9h4.2v3.8H515z"/>
        <path id="XMLID_532_" class="st7" d="M451 59.5h4.2v3.8H451z"/>
        <path id="XMLID_531_" class="st7" d="M457.4 59.5h4.2v3.8h-4.2z"/>
        <path id="XMLID_530_" class="st7" d="M463.9 59.5h4.2v3.8h-4.2z"/>
        <path id="XMLID_529_" class="st7" d="M470.3 59.5h4.2v3.8h-4.2z"/>
        <path id="XMLID_528_" class="st7" d="M476.6 59.5h4.2v3.8h-4.2z"/>
        <path id="XMLID_527_" class="st7" d="M483 59.5h4.2v3.8H483z"/>
        <path id="XMLID_526_" class="st7" d="M489.4 59.5H500v3.8h-10.6z"/>
        <path id="XMLID_525_" class="st7" d="M502.3 59.5h4.2v3.8h-4.2z"/>
        <path id="XMLID_524_" class="st7" d="M508.6 59.5h4.2v3.8h-4.2z"/>
        <path id="XMLID_523_" class="st7" d="M515 59.5h4.2v3.8H515z"/>
        <path id="XMLID_522_" class="st7" d="M451 65.2h4.2V69H451z"/>
        <path id="XMLID_521_" class="st7" d="M457.4 65.2h4.2V69h-4.2z"/>
        <path id="XMLID_520_" class="st7" d="M463.9 65.2h4.2V69h-4.2z"/>
        <path id="XMLID_519_" class="st7" d="M470.3 65.2h4.2V69h-4.2z"/>
        <path id="XMLID_518_" class="st7" d="M476.6 65.2h4.2V69h-4.2z"/>
        <path id="XMLID_517_" class="st7" d="M483 65.2h4.2V69H483z"/>
        <path id="XMLID_516_" class="st7" d="M502.3 65.2h4.2V69h-4.2z"/>
        <path id="XMLID_515_" class="st7" d="M508.6 65.2h4.2V69h-4.2z"/>
        <path id="XMLID_514_" class="st7" d="M515 65.2h4.2V69H515z"/>
        <path id="XMLID_513_" class="st7" d="M451 70.8h10.6v3.8H451z"/>
        <path id="XMLID_512_" class="st7" d="M463.9 70.8h4.2v3.8h-4.2z"/>
        <path id="XMLID_511_" class="st7" d="M470.3 70.8h4.2v3.8h-4.2z"/>
        <path id="XMLID_510_" class="st7" d="M476.6 70.8h4.2v3.8h-4.2z"/>
        <path id="XMLID_509_" class="st7" d="M483 70.8h4.2v3.8H483z"/>
        <path id="XMLID_508_" class="st7" d="M489.4 70.8h4.2v3.8h-4.2z"/>
        <path id="XMLID_507_" class="st7" d="M489.4 65.2V69h6.5v5.7h4.1v-9.5z"/>
        <path id="XMLID_506_" class="st7" d="M502.3 70.8h4.2v3.8h-4.2z"/>
        <path id="XMLID_505_" class="st7" d="M508.6 70.8h4.2v3.8h-4.2z"/>
        <path id="XMLID_504_" class="st7" d="M451 76.4h4.2v3.8H451z"/>
        <path id="XMLID_503_" class="st7" d="M457.4 76.4h4.2v3.8h-4.2z"/>
        <path id="XMLID_502_" class="st7" d="M463.9 76.4h29.8v3.8h-29.8z"/>
        <path id="XMLID_501_" class="st7" d="M495.9 76.4h4.2v3.8h-4.2z"/>
        <path id="XMLID_500_" class="st7" d="M502.3 76.4h4.2v3.8h-4.2z"/>
        <path id="XMLID_499_" class="st7" d="M508.6 76.4h4.2v3.8h-4.2z"/>
        <path id="XMLID_498_" class="st7" d="M515 70.8h4.2v9.5H515z"/>
      </g>
      <path id="XMLID_340_" class="st7" d="M525.4 8.8h-80.6c-2.2 0-4 1.8-4 4v.8h88.6v-.8c0-2.2-1.7-4-4-4z"/>
      <path id="XMLID_339_" class="st4" d="M527.2 11.1H443c-1.3 0-2.4 1.2-2.2 2.5l3.2 29.2c.1 1.1 1.1 2 2.2 2H524c1.1 0 2.1-.9 2.2-2l3.2-29.2c.1-1.3-.9-2.5-2.2-2.5z"/>
      <path id="XMLID_336_" class="st8" d="M446.9 41.9l-3-27.9h82.5l-3 27.9z"/>
      <g id="XMLID_326_">
        <path id="XMLID_333_" class="st9" d="M460.4 32.3l-.9-8.5h51.3l-.9 8.5z"/>
        <path id="XMLID_330_" class="st10" d="M462.1 26l.4 4h22.6v-4z"/>
        <path id="XMLID_327_" class="st11" d="M508.1 26h-23v4h22.7z"/>
      </g>
    </g>
    <g id="XMLID_313_">
      <animateTransform accumulate="none" additive="replace" attributeName="transform" calcMode="linear" dur="5s" fill="remove" repeatCount="indefinite" restart="always" type="translate" values="0 10 ; 0 -20; 0 10"/>
      <path id="XMLID_320_" class="st12" d="M465.3 72.7c.9.2 1.5 1.1 1.3 2l-1.4 7.2-.1.5c-.1.3.1.5.4.6s.5-.1.6-.4l.1-.5 2.1-10.6c.2-.9 1.1-1.5 2-1.3s1.5 1.1 1.3 2l-2.1 10.6-.1.5c-.1.3.1.5.4.6s.5-.1.6-.4l.1-.5 2.3-11.6c.2-.9 1.1-1.5 2-1.3s1.5 1.1 1.3 2l-2.4 11.5-.1.5c-.1.3.1.5.4.6s.5-.1.6-.4l.1-.5 1.9-9.4c.2-.9 1.1-1.5 2-1.3.9.2 1.5 1.1 1.3 2L477 89.4c0 .1 0 .1-.1.2l.8-.3c.6-.2 1-.8 1-1.4v-1.5c0-.6.3-1.1.8-1.3.9-.5 2 .1 2.2 1.2l.4 3.7c0 .3 0 .6-.2.9l-3.4 5.6c-.1.2-.2.3-.4.4l-5.5 3.9-1 5-10.8-2.1 1-5s-1.9-8-1-12.5l2.4-12.2c.2-1 1.1-1.6 2.1-1.3z"/>
      <path id="XMLID_319_" class="st9" d="M455.482 106.153l1.2064-6.0817 20.2065 4.0088-1.2066 6.0817z"/>
      <path id="XMLID_316_" class="st13" d="M450.839 139.0595l6.4606-32.566 17.558 3.4834-6.4606 32.5658z"/>
      <ellipse id="XMLID_314_" transform="rotate(-71.22 458.28 103.43)" class="st4" cx="458.3" cy="103.4" rx="1.4" ry="1.4"/>
    </g>
    <g id="XMLID_297_">
      <animateTransform accumulate="none" additive="replace" attributeName="transform" calcMode="linear" dur="20s" fill="remove" repeatCount="indefinite" restart="always" type="translate" values="0 -10 ; 0 20; 0 -10"/>
      <path id="XMLID_303_" class="st12" d="M546.3 73.4c-.9.2-1.5 1.1-1.3 2l1.4 7.2.1.5c.1.3-.1.5-.4.6s-.5-.1-.6-.4l-.1-.5-2.1-10.6c-.2-.9-1.1-1.5-2-1.3s-1.5 1.1-1.3 2l2.1 10.6.1.5c.1.3-.1.5-.4.6s-.5-.1-.6-.4l-.1-.5-2.3-11.6c-.2-.9-1.1-1.5-2-1.3s-1.5 1.1-1.3 2l2.3 11.6.1.5c.1.3-.1.5-.4.6s-.5-.1-.6-.4l-.1-.5-1.9-9.4c-.2-.9-1.1-1.5-2-1.3-.9.2-1.5 1.1-1.3 2l2.8 14.4c0 .1 0 .1.1.2l-.8-.3c-.6-.2-1-.8-1-1.4v-1.5c0-.6-.3-1.1-.8-1.3-.9-.5-2 .1-2.2 1.2l-.1 3.6c0 .3 0 .6.2.9l3.4 5.6c.1.2.2.3.4.4l5.3 3.9 1 5 10.8-2.1-1-5s1.9-8 1-12.5l-2.4-12.2c-.1-1-1-1.5-2-1.4z"/>
      <path id="XMLID_302_" class="st9" d="M534.8028 104.8654l20.2065-4.0088 1.2065 6.0816-20.2065 4.0088z"/>
      <path id="XMLID_299_" class="st13" d="M536.7498 110.761l17.558-3.4835 6.461 32.566-17.5582 3.4832z"/>
      <ellipse id="XMLID_298_" transform="rotate(-18.77 553.32 104.36)" class="st4" cx="553.3" cy="104.4" rx="1.4" ry="1.4"/>
    </g>
    <g id="XMLID_290_">
      <path id="XMLID_296_" class="st9" d="M437.3 80.2l-3 1.7-1.4-2.5 3-1.7c.7-.4 1.6-.1 2 .6.2.6 0 1.5-.6 1.9z"/>
      <path id="XMLID_295_" class="st14" d="M434.3 81.8l1.2-.7c-.1-.2-.2-.5-.3-.7-.4-.6-.8-1.2-1.3-1.7l-1 .6 1.4 2.5z"/>
      <ellipse id="XMLID_294_" transform="rotate(-29.21 426.5 84.59)" class="st9" cx="426.5" cy="84.6" rx="8.9" ry="8.9"/>
      <ellipse id="XMLID_292_" transform="rotate(-29.21 426.5 84.59)" class="st15" cx="426.5" cy="84.6" rx="6.6" ry="6.6"/>
      <path id="XMLID_291_" class="st14" d="M422.3 88.2c-1.8-3.2-.6-7.2 2.5-8.9 1.3-.7 2.8-1 4.2-.7-1.8-.7-3.9-.7-5.7.3-3.2 1.8-4.3 5.8-2.5 8.9 1 1.8 2.8 3 4.7 3.3-1.4-.7-2.6-1.6-3.2-2.9z"/>
    </g>
  </g>
</svg>
