<svg id="Layer_1" xmlns="http://www.w3.org/2000/svg" viewBox="0 0 600 120">
  <style>
    .st0{fill:#EAECED;} .st1{fill:#424242;} .st2{enable-background:new ;} .st3{fill:none;stroke:#FFFFFF;stroke-width:2;stroke-linecap:round;stroke-linejoin:round;stroke-miterlimit:10;}
  </style>
  <path class="st0" d="M-1.3-.8v121.1h547.4c30.7 0 55.6-8.1 55.6-18.1V17.3c0-10-24.9-18.1-55.6-18.1H-1.3z"/>
  <path class="st1" d="M367.6-.5v121.7h233.2V-.5z"/>
  <g class="st2">
    <path d="M43 73l.5-24.1h3.3L51 68.4l4.3-19.6h3.3L59 73h-2.7L56 55.4 51.9 73H50l-4-17.6-.3 17.6H43zM62.7 73V48.9H72v2.5h-6v8h4.9v2.4H66v8.8h6V73h-9.3zM80.8 73.2c-1 0-1.9-.1-2.6-.4s-1.4-.6-1.9-1.1-.9-1-1.2-1.7c-.3-.7-.5-1.4-.6-2.2s-.2-1.6-.2-2.6v-8.5c0-1 .1-1.9.2-2.7s.3-1.5.6-2.2c.3-.7.7-1.3 1.2-1.7s1.1-.8 1.9-1 1.6-.4 2.6-.4c2.2 0 3.7.6 4.7 1.8.9 1.2 1.4 2.9 1.4 5.2v1.9h-3.2v-1.7-.9-.8s0-.6-.1-.7c0-.2-.1-.4-.2-.6-.1-.2-.1-.4-.2-.5s-.2-.3-.4-.4c-.1-.1-.3-.3-.5-.3-.2-.1-.4-.1-.7-.2s-.5-.1-.8-.1c-.5 0-.9.1-1.2.2-.3.1-.6.3-.9.5-.2.2-.4.5-.5.7-.1.3-.2.6-.3 1-.1.4-.1.8-.1 1.2v10.9c0 1.8.2 3.1.7 3.8.5.7 1.3 1.1 2.4 1.1.4 0 .8 0 1.2-.1s.6-.3.8-.5c.2-.2.4-.5.5-.7s.2-.6.3-1c.1-.4.1-.8.1-1.1V64H87v1.8c0 .9-.1 1.7-.2 2.5s-.3 1.4-.6 2c-.3.6-.6 1.2-1.1 1.6s-1 .7-1.7 1-1.6.3-2.6.3zM90.1 73V48.9h3.4v10.4h6.2V48.9h3.4V73h-3.4V61.7h-6.2V73h-3.4zM105.5 73l5.1-24.1h3.2L119 73h-3.2l-1.1-6.1h-4.9l-1.1 6.1h-3.2zm4.8-8.5h4l-2-10.9-2 10.9zM121.5 73V48.9h2.3l6.8 16v-16h2.8V73h-2.2l-6.9-16.5V73h-2.8zM137.3 73V48.9h3.3V73h-3.3zM150.6 73.2c-1 0-1.9-.1-2.6-.4s-1.4-.6-1.9-1.1-.9-1-1.2-1.7-.5-1.4-.6-2.2-.2-1.6-.2-2.6v-8.5c0-1 .1-1.9.2-2.7.1-.8.3-1.5.6-2.2s.7-1.3 1.2-1.7 1.1-.8 1.9-1 1.6-.4 2.6-.4c2.2 0 3.7.6 4.7 1.8.9 1.2 1.4 2.9 1.4 5.2v1.9h-3.2v-1.7-.9-.8s0-.6-.1-.7c0-.2-.1-.4-.2-.6-.1-.2-.1-.4-.2-.5-.1-.1-.2-.3-.4-.4-.1-.1-.3-.3-.5-.3-.2-.1-.4-.1-.7-.2s-.5-.1-.8-.1c-.5 0-.9.1-1.2.2-.3.1-.6.3-.9.5-.2.2-.4.5-.5.7-.1.3-.2.6-.3 1s-.1.8-.1 1.2v10.9c0 1.8.2 3.1.7 3.8.5.7 1.3 1.1 2.4 1.1.4 0 .8 0 1.2-.1s.6-.3.8-.5.4-.5.5-.7.2-.6.3-1 .1-.8.1-1.1V64h3.2v1.8c0 .9-.1 1.7-.2 2.5s-.3 1.4-.6 2-.6 1.2-1.1 1.6-1 .7-1.7 1-1.7.3-2.6.3zM158.5 73l5.1-24.1h3.2l5.1 24.1h-3.2l-1.1-6.1h-4.9l-1.1 6.1h-3.1zm4.8-8.5h4l-2-10.9-2 10.9zM174.5 73V48.9h3.4v21.7h6.1V73h-9.5zM193.1 73V48.9h9.3v2.5h-6v8h4.9v2.4h-4.9v8.8h6V73h-9.3zM205.3 73V48.9h2.3l6.8 16v-16h2.8V73H215l-6.9-16.5V73h-2.8zM226.7 73.3c-2.2 0-3.8-.7-4.7-2.1-1-1.4-1.5-3.4-1.5-6.1V57c0-1.1.1-2.1.2-2.9.1-.8.3-1.6.6-2.3s.7-1.3 1.2-1.7 1.1-.8 1.8-1 1.6-.4 2.6-.4c2.2 0 3.8.6 4.8 1.7s1.5 2.9 1.5 5.3v.9H230v-.8c0-.7 0-1.2-.1-1.7 0-.4-.1-.9-.2-1.3s-.3-.7-.5-.9-.5-.4-.9-.5-.8-.2-1.4-.2c-.4 0-.8 0-1.1.1s-.6.2-.8.4l-.6.6s-.3.5-.4.8-.2.6-.2 1-.1.8-.1 1.1v10.1c0 1.9.2 3.2.7 4s1.3 1.2 2.6 1.2 2.1-.4 2.6-1.3.7-2.3.7-4.2v-1.7h-3.1V61h6.1v12h-2.1l-.3-2.8c-.6 2-2.1 3.1-4.2 3.1zM237.1 73V48.9h3.3V73h-3.3zM244.3 73V48.9h2.3l6.8 16v-16h2.8V73H254l-6.9-16.5V73h-2.8zM260 73V48.9h9.3v2.5h-6v8h4.9v2.4h-4.9v8.8h6V73H260zM272.1 73V48.9h9.3v2.5h-6v8h4.9v2.4h-4.9v8.8h6V73h-9.3zM284.2 73V48.9h4.8c2.4 0 4.2.5 5.4 1.5 1.1 1 1.7 2.6 1.7 4.9 0 3.1-1 5-3 5.6l3.4 12.1h-3.3L290 61.7h-2.6V73h-3.2zm3.4-13.8h1.3c1.5 0 2.5-.3 3.1-.9.6-.6.9-1.6.9-3.1s-.3-2.5-.8-3.1-1.6-.9-3-.9h-1.5v8zM299.8 73V48.9h3.3V73h-3.3zM307.1 73V48.9h2.3l6.8 16v-16h2.8V73h-2.2l-6.9-16.5V73h-2.8zM328.5 73.3c-2.2 0-3.8-.7-4.7-2.1-1-1.4-1.5-3.4-1.5-6.1V57c0-1.1.1-2.1.2-2.9.1-.8.3-1.6.6-2.3.3-.7.7-1.3 1.2-1.7s1.1-.8 1.8-1c.7-.2 1.6-.4 2.6-.4 2.2 0 3.8.6 4.8 1.7s1.5 2.9 1.5 5.3v.9h-3.2v-.8c0-.7 0-1.2-.1-1.7 0-.4-.1-.9-.2-1.3s-.3-.7-.5-.9-.5-.4-.9-.5-.8-.2-1.4-.2c-.4 0-.8 0-1.1.1-.3.1-.6.2-.8.4l-.6.6c-.2.3-.3.5-.4.8s-.2.6-.2 1-.1.8-.1 1.1v10.1c0 1.9.2 3.2.7 4s1.3 1.2 2.6 1.2 2.1-.4 2.6-1.3.7-2.3.7-4.2v-1.7H329V61h6.1v12H333l-.3-2.8c-.6 2-2.1 3.1-4.2 3.1z"/>
  </g>
  <g>
    <path class="st3" d="M448.1 43.5c.2.2 2.3-.1 5.1-.6 1.2 2.2 2.8 4.1 4.7 5.6-1.1 2.6-1.9 4.5-1.9 4.8-.1.8 3.1 2.8 4.9 2.6.2 0 1.6-1.8 3.3-4.2 2.2.7 4.6.9 7.1.6 1.1 2.7 1.9 4.7 2.1 4.9.5.7 4.1-.2 5.3-1.6.2-.2-.2-2.4-.7-5.4 2.2-1.2 4.1-2.8 5.6-4.8 2.9 1.1 5.1 1.9 5.4 1.9.9-.1 2.6-4.9 2.6-4.9s-2.1-1.4-4.9-3.2c.6-2.2.9-4.6.6-7 2.8-1.3 4.9-2.3 5.1-2.5.6-.7-1.6-5.3-1.6-5.3s-2.4.5-5.6 1.1c-1.2-2.2-2.7-4-4.6-5.5 1.1-2.8 1.8-4.9 1.8-5.2-.1-.9-4.9-2.6-4.9-2.6s-1.3 1.9-3.1 4.6c-2.3-.7-4.8-.9-7.3-.7-1.2-2.7-2.2-4.6-2.4-4.8-.7-.6-5.3 1.6-5.3 1.6s.4 2.2 1.1 5.3c-2.1 1.1-3.9 2.7-5.4 4.5-2.5-1-4.4-1.8-4.6-1.8-.8-.1-2.8 3.1-2.6 4.9 0 .2 1.6 1.5 3.9 3.1-.7 2.3-1 4.8-.7 7.3-2.5 1-4.4 1.8-4.6 2-.6.5.2 4.1 1.6 5.3zm18.3-18.4c5.1-1.5 10.4 1.4 11.9 6.5s-1.4 10.4-6.5 11.9-10.4-1.4-11.9-6.5c-1.5-5 1.4-10.4 6.5-11.9zM432.5-13.6c0 .2 1.3 1.3 3 2.8-.7 1.9-1.1 3.8-1 5.8-2.2.7-3.8 1.2-3.9 1.3-.6.3-.1 3.3.9 4.4.1.1 1.9 0 4.3-.2.8 1.7 1.9 3.3 3.3 4.7-1.1 2.1-1.9 3.6-1.9 3.8-.2.6 2.3 2.4 3.7 2.4.2 0 1.4-1.4 3-3.2 1.9.7 3.9 1.1 5.9 1 .8 2.4 1.5 4.1 1.7 4.3.5.5 4.4-.9 4.4-.9s-.2-2-.6-4.7c1.7-.8 3.3-1.9 4.6-3.3 2.3 1.1 4 1.8 4.2 1.8.7 0 2.4-3.7 2.4-3.7s-1.5-1.2-3.6-2.8c.7-1.8 1-3.8 1-5.7 2.3-.8 4-1.5 4.1-1.6.5-.5-.9-4.4-.9-4.4s-1.9.2-4.4.5c-.8-1.8-1.9-3.4-3.4-4.8 1-2.1 1.7-3.7 1.7-4 0-.7-3.7-2.4-3.7-2.4s-1.1 1.4-2.7 3.4c-1.8-.7-3.7-1-5.6-1-.7-2.1-1.2-3.6-1.3-3.8-.3-.6-3.3-.1-4.4.9-.1.1 0 1.8.2 4-1.8.8-3.5 1.9-4.9 3.4-2-1-3.4-1.8-3.6-1.8-.7-.1-2.5 2.4-2.5 3.8zm22.9-1.5c5.3 3.5 6.8 10.6 3.4 15.9-3.5 5.3-10.6 6.8-15.9 3.4-5.3-3.5-6.8-10.6-3.4-15.9s10.6-6.8 15.9-3.4z"/>
    <ellipse transform="rotate(-56.95 449.17 -5.5)" class="st3" cx="449.2" cy="-5.5" rx="8.2" ry="8.2"/>
    <path class="st3" d="M383.3 105.7c0 .2 1.3 1.3 3 2.8-.7 1.9-1.1 3.8-1 5.8-2.2.7-3.8 1.2-3.9 1.3-.6.3-.1 3.3.9 4.4.1.1 1.9 0 4.3-.2.8 1.7 1.9 3.3 3.3 4.7-1.1 2.1-1.9 3.6-1.9 3.8-.2.6 2.3 2.4 3.7 2.4.2 0 1.4-1.4 3-3.2 1.9.7 3.9 1.1 5.9 1 .8 2.4 1.5 4.1 1.7 4.3.5.5 4.4-.9 4.4-.9s-.2-2-.6-4.7c1.7-.8 3.3-1.9 4.6-3.3 2.3 1.1 4 1.8 4.2 1.8.7 0 2.4-3.7 2.4-3.7s-1.5-1.2-3.6-2.8c.7-1.8 1-3.8 1-5.7 2.3-.8 4-1.5 4.1-1.6.5-.5-.9-4.4-.9-4.4s-1.9.2-4.4.5c-.8-1.8-1.9-3.4-3.4-4.8 1-2.1 1.7-3.7 1.7-4 0-.7-3.7-2.4-3.7-2.4s-1.1 1.4-2.7 3.4c-1.8-.7-3.7-1-5.6-1-.7-2.1-1.2-3.6-1.3-3.8-.3-.6-3.3-.1-4.4.9-.1.1 0 1.8.2 4-1.8.8-3.5 1.9-4.9 3.4-2-1-3.4-1.8-3.6-1.8-.7-.1-2.5 2.3-2.5 3.8zm22.9-1.5c5.3 3.5 6.8 10.6 3.4 15.9-3.5 5.3-10.6 6.8-15.9 3.4-5.3-3.5-6.8-10.6-3.4-15.9s10.6-6.9 15.9-3.4z"/>
    <ellipse transform="rotate(-56.95 399.9 113.8)" class="st3" cx="399.9" cy="113.8" rx="8.2" ry="8.2"/>
    <path class="st3" d="M497.4 32.6c.1.2 2.1.9 4.9 1.7.1 2.5.8 5 1.9 7.2-2.1 1.9-3.7 3.4-3.9 3.6-.5.7 1.6 3.9 3.3 4.6.2.1 2.2-.9 4.8-2.4 1.8 1.6 3.9 2.9 6.2 3.7-.2 3-.3 5.2-.2 5.4.1.8 3.9 1.6 5.6.9.2-.1.9-2.3 1.7-5.3 2.6-.1 5-.8 7.3-1.9 2.2 2.3 3.9 4 4.2 4.1.9.3 4.6-3.3 4.6-3.3s-1.3-2.2-3.1-5.1c1.6-1.8 2.8-3.9 3.6-6.2 3.2.1 5.5.1 5.8-.1.8-.4.9-5.6.9-5.6s-2.4-.6-5.7-1.4c-.1-2.5-.8-4.9-1.8-7.1 2.2-2.1 3.8-3.8 3.9-4 .3-.9-3.3-4.6-3.3-4.6s-2 1.2-4.8 2.9c-1.8-1.7-4-3-6.4-3.8.1-3 0-5.2-.1-5.5-.4-.8-5.6-.9-5.6-.9s-.6 2.2-1.3 5.3c-2.5.1-4.8.7-7 1.8-1.9-2.1-3.2-3.6-3.4-3.7-.7-.5-3.9 1.6-4.6 3.3-.1.2.9 2.1 2.3 4.6-1.7 1.8-3 4-3.9 6.5-2.8-.2-4.9-.2-5.1-.2-.7 0-1.6 3.8-.8 5.5zm25.7-13.7c8 1.2 13.4 8.7 12.2 16.6s-8.7 13.4-16.6 12.2c-8-1.2-13.4-8.7-12.2-16.6 1.2-8 8.7-13.4 16.6-12.2z">
      <animateTransform accumulate="none" additive="replace" attributeName="transform" attributeType="XML" calcMode="linear" dur="15s" fill="remove" from="0 521 34" repeatCount="indefinite" restart="always" to="360 521 34" type="rotate"/>
    </path>
    <ellipse transform="rotate(-81.23 520.89 33.31)" class="st3" cx="520.9" cy="33.3" rx="10.3" ry="10.3"/>
    <path class="st3" d="M499.8 99.7c.1.1 1.4.3 3.2.5.3 1.5 1 2.9 1.9 4.1-1.1 1.4-1.9 2.4-2 2.6-.2.4 1.4 2.2 2.5 2.4.2 0 1.2-.8 2.7-2 1.2.8 2.6 1.3 4.1 1.6.2 1.8.4 3.1.4 3.3.2.5 2.5.6 3.5-.1.1-.1.3-1.5.5-3.4 1.5-.4 3-1 4.2-1.9 1.6 1.2 2.8 2 2.9 2 .6.1 2.4-2.5 2.4-2.5s-1-1.2-2.4-2.7c.8-1.2 1.3-2.6 1.5-4.1 1.9-.3 3.3-.5 3.5-.6.5-.3-.1-3.5-.1-3.5s-1.5-.1-3.6-.2c-.3-1.5-1-2.9-1.8-4.1 1.1-1.5 1.9-2.7 1.9-2.8.1-.6-2.5-2.4-2.5-2.4s-1.1 1-2.6 2.3c-1.3-.8-2.7-1.4-4.3-1.6-.3-1.8-.5-3.1-.6-3.3-.3-.5-3.5.1-3.5.1s-.1 1.4-.2 3.4c-1.5.3-2.8.9-4 1.8-1.3-1-2.3-1.8-2.5-1.9-.4-.2-2.2 1.4-2.4 2.5 0 .1.7 1.2 1.9 2.5-.8 1.3-1.4 2.7-1.6 4.3-1.7.2-3 .4-3.1.4-.5 0-.6 2.3.1 3.3zm14-11c4.9-.1 9 3.8 9.1 8.7.1 4.9-3.8 9-8.7 9.1-4.9.1-9-3.8-9.1-8.7-.1-4.9 3.8-9 8.7-9.1z"/>
    <ellipse transform="rotate(-1.15 513.86 98.32)" class="st3" cx="514" cy="97.7" rx="6.3" ry="6.3"/>
    <path class="st3" d="M479.5 70.5c.1.2 1 .3 2.4.4.1.5.2 1.1.3 1.6-1.1.5-1.9.8-1.9.8-.4.2.3 2.5.9 2.9.1.1 1-.1 2.4-.6.3.5.6.9.9 1.3l-1.5 1.5c-.3.3 1.3 2.2 1.9 2.4.2.1.9-.5 2-1.5.4.3.9.6 1.4.9-.5 1.2-.8 1.9-.8 1.9-.2.4 2 1.5 2.7 1.5.2 0 .6-.8 1.2-2.1l1.5.3v2.1c0 .5 2.4.6 3.1.3.2-.1.3-1 .4-2.4.7-.1 1.3-.2 1.9-.4.4 1 .7 1.6.8 1.7.3.7 3-.2 2.9-1 0-.1-.3-.8-.7-1.9.5-.3 1-.7 1.5-1 .8.7 1.3 1.2 1.3 1.3.6.6 2.7-1.4 2.3-2-.1-.1-.6-.6-1.4-1.5.4-.5.7-1 1-1.6 1 .4 1.6.6 1.7.7.7.3 2-2.3 1.3-2.8-.1-.1-.8-.4-1.9-.8.2-.6.3-1.2.3-1.8 1.1 0 1.7-.1 1.8-.1.8 0 1-2.9.2-3.1-.1 0-.9 0-2.1-.1-.1-.6-.2-1.3-.4-1.9 1-.4 1.6-.7 1.7-.8.7-.3-.2-3-1-2.9-.1 0-.8.3-1.9.7-.3-.5-.7-1-1-1.5.7-.8 1.2-1.3 1.3-1.3.6-.6-1.4-2.7-2-2.3-.1.1-.6.6-1.5 1.4-.5-.4-1-.7-1.6-1 .4-1 .6-1.6.7-1.7.3-.7-2.3-2-2.8-1.3-.1.1-.4.8-.8 1.9-.6-.2-1.2-.3-1.8-.3 0-1.1-.1-1.7-.1-1.8 0-.8-2.9-1-3.1-.2 0 .1 0 .9-.1 2.1l-1.5.3c-.5-1.1-.8-1.9-.8-1.9-.2-.4-2.5.3-2.9.9-.1.1.1 1 .6 2.4-.5.3-.9.6-1.3.9l-1.5-1.5c-.3-.3-2.2 1.3-2.4 1.9-.1.2.5.9 1.5 2-.3.4-.6.9-.9 1.4-1.2-.5-1.9-.8-1.9-.8-.4-.2-1.5 2-1.5 2.7 0 .2.8.6 2.1 1.2l-.3 1.5H480c-.6 0-.8 2.4-.5 3zm15.2-7.4c3.4 0 6.1 2.7 6.1 6.1s-2.7 6.1-6.1 6.1-6.1-2.7-6.1-6.1c0-3.4 2.7-6.1 6.1-6.1z">
      <animateTransform accumulate="none" additive="replace" attributeName="transform" attributeType="XML" calcMode="linear" dur="5s" fill="remove" from="0 495 68" repeatCount="indefinite" restart="always" to="-360 495 68" type="rotate"/>
    </path>
    <path class="st3" d="M544.4 14.9c.1.2 1.2.4 3 .4.1.7.2 1.3.4 2-1.4.6-2.3 1-2.4 1-.5.2.4 3 1.1 3.6.2.2 1.3-.1 2.9-.7.3.6.7 1.1 1.1 1.6-1.1 1.1-1.7 1.8-1.8 1.8-.4.4 1.5 2.7 2.4 2.9.2.1 1.1-.6 2.4-1.8.5.4 1.1.8 1.7 1.1-.6 1.4-.9 2.3-1 2.4-.2.5 2.4 1.9 3.3 1.8.2 0 .8-1 1.5-2.6.6.2 1.2.3 1.9.4v2.6c0 .6 3 .8 3.8.4.2-.1.4-1.2.4-3 .8-.1 1.6-.3 2.4-.5.5 1.2.9 1.9.9 2.1.4.9 3.7-.3 3.5-1.3 0-.1-.4-1-.9-2.4.6-.4 1.3-.8 1.9-1.3 1 .9 1.6 1.5 1.7 1.6.7.7 3.4-1.7 2.8-2.5-.1-.1-.7-.8-1.7-1.8.5-.6.9-1.3 1.3-2 1.2.5 2 .7 2.1.8.9.4 2.4-2.8 1.6-3.4-.1-.1-1-.5-2.3-1 .2-.7.3-1.5.4-2.2 1.3 0 2.1-.1 2.3-.1 1 0 1.2-3.6.2-3.8-.1 0-1.1-.1-2.5-.1-.1-.8-.3-1.6-.5-2.3 1.2-.5 1.9-.9 2.1-.9.9-.4-.3-3.7-1.3-3.5-.1 0-1 .4-2.4.9-.4-.6-.8-1.3-1.3-1.9.9-1 1.5-1.6 1.6-1.7.7-.7-1.7-3.4-2.5-2.8-.1.1-.8.7-1.8 1.7-.6-.5-1.3-.9-2-1.3.5-1.2.7-2 .8-2.1.4-.9-2.8-2.4-3.4-1.6-.1.1-.5 1-1 2.3-.7-.2-1.5-.3-2.2-.4 0-1.3-.1-2.1-.1-2.3 0-1-3.6-1.2-3.8-.2 0 .1-.1 1.1-.1 2.5-.6.1-1.3.2-1.9.4-.6-1.4-1-2.3-1-2.4-.2-.5-3 .4-3.6 1.1-.2.2.1 1.3.7 2.9-.6.3-1.1.7-1.6 1.1-1.1-1.1-1.8-1.7-1.8-1.8-.4-.4-2.7 1.5-2.9 2.4-.1.2.6 1.1 1.8 2.4-.4.5-.8 1.1-1.1 1.7-1.4-.6-2.3-.9-2.4-1-.5-.2-1.9 2.4-1.8 3.3 0 .2 1 .8 2.6 1.5-.2.6-.3 1.2-.4 1.9h-2.6c-.7.4-.9 3.4-.5 4.1zM563 1.1c6.8 0 12.2 5.5 12.2 12.2s-5.5 12.2-12.2 12.2c-6.8 0-12.2-5.5-12.2-12.2S556.3 1.1 563 1.1z"/>
    <path class="st3" d="M563 20.8c4.2 0 7.5-3.4 7.5-7.5 0-4.2-3.4-7.5-7.5-7.5s-7.5 3.4-7.5 7.5c0 4.2 3.3 7.5 7.5 7.5zm0-12.5c2.8 0 5 2.2 5 5s-2.2 5-5 5-5-2.2-5-5 2.2-5 5-5z"/>
    <g>
      <animateTransform accumulate="none" additive="replace" attributeName="transform" attributeType="XML" calcMode="linear" dur="20s" fill="remove" from="0 447 90" repeatCount="indefinite" restart="always" to="-360 447 90" type="rotate"/>
      <path class="st3" d="M417.6 91.3c.2.3 2 .6 4.8.7.1 1.1.4 2.2.6 3.2-2.3 1-3.7 1.6-3.9 1.6-.9.4.7 4.9 1.8 5.9.3.3 2-.2 4.7-1.2.5.9 1.1 1.8 1.7 2.6-1.8 1.8-2.8 2.9-3 3-.7.7 2.5 4.3 3.9 4.8.4.1 1.8-1 3.9-2.9.9.7 1.8 1.3 2.7 1.8-.9 2.3-1.5 3.7-1.6 3.9-.4.9 4 3 5.4 2.9.4 0 1.3-1.6 2.5-4.2 1 .3 2 .5 3.1.6v4.2c0 1 4.8 1.3 6.1.6.3-.2.6-2 .7-4.8 1.3-.2 2.6-.4 3.9-.8.9 1.9 1.4 3.2 1.5 3.4.6 1.5 6.1-.5 5.8-2.1 0-.2-.6-1.6-1.5-3.8 1.1-.6 2.1-1.3 3-2.1 1.5 1.5 2.5 2.4 2.7 2.5 1.1 1.1 5.4-2.7 4.5-4.1-.1-.2-1.2-1.3-2.8-3 .8-1 1.5-2.1 2.1-3.2 2 .7 3.2 1.2 3.4 1.3 1.5.6 4-4.6 2.6-5.5-.2-.1-1.6-.7-3.8-1.7.3-1.2.5-2.4.7-3.6 2.1-.1 3.5-.1 3.7-.1 1.6 0 1.9-5.8.3-6.1-.2 0-1.7-.1-4.1-.1-.2-1.3-.4-2.5-.8-3.7 1.9-.9 3.2-1.4 3.4-1.5 1.5-.6-.5-6.1-2.1-5.8-.2 0-1.6.6-3.8 1.5-.6-1.1-1.3-2.1-2.1-3 1.5-1.6 2.4-2.5 2.5-2.7 1.1-1.1-2.7-5.4-4.1-4.5-.2.1-1.3 1.2-3 2.8-1-.8-2.1-1.5-3.2-2.1.7-2 1.2-3.2 1.3-3.4.6-1.5-4.6-4-5.5-2.6-.1.2-.7 1.6-1.7 3.8-1.2-.3-2.4-.5-3.6-.7-.1-2.1-.1-3.5-.1-3.7 0-1.6-5.8-1.9-6.1-.3 0 .2-.1 1.8-.1 4.1-1 .1-2.1.4-3.1.6-1-2.3-1.6-3.7-1.6-3.9-.4-.9-4.9.7-5.9 1.8-.3.3.2 2 1.2 4.7-.9.5-1.8 1.1-2.6 1.7-1.8-1.8-2.9-2.8-3-3-.7-.7-4.3 2.5-4.8 3.9-.1.4 1 1.8 2.9 3.9-.7.9-1.3 1.8-1.8 2.7-2.3-.9-3.7-1.5-3.9-1.6-.9-.4-3 4-2.9 5.4 0 .4 1.6 1.3 4.2 2.5-.3 1-.5 2-.6 3.1h-4.2c-.7.2-1 5-.3 6.3zm30.2-22.6c11 0 19.9 8.9 19.9 19.9s-8.9 19.9-19.9 19.9-19.9-8.9-19.9-19.9 8.9-19.9 19.9-19.9z"/>
      <path class="st3" d="M447.8 100.9c6.8 0 12.3-5.5 12.3-12.3s-5.5-12.3-12.3-12.3-12.3 5.5-12.3 12.3 5.5 12.3 12.3 12.3zm0-20.4c4.5 0 8.1 3.6 8.1 8.1s-3.6 8.1-8.1 8.1-8.1-3.6-8.1-8.1 3.6-8.1 8.1-8.1z"/>
    </g>
    <path class="st3" d="M517.3 78.8s2.4 2.8 3.9 2.9c0 0 2.3-3.4 5.6.7 0 0 3-.4 4.7-2.2 0 0-2.8-5.4 3-4.6 0 0 .7-3.6.3-5.1 0 0-5.2-.9-2.2-4.8 0 0-2.4-2.7-4.4-2.8 0 0-3.2 3.4-5-.6 0 0-2.3.1-4.7 2.2 0 0 2.1 3.2-2.9 4.4 0 0-1.2 2.2-.5 4.9-.1 0 3.7-.2 2.2 5zM523 68c2.4-1.1 5.2-.1 6.4 2.3 1.1 2.4.1 5.2-2.3 6.4-2.4 1.1-5.2.1-6.4-2.3s-.1-5.3 2.3-6.4z">
      <animateTransform accumulate="none" additive="replace" attributeName="transform" attributeType="XML" calcMode="linear" dur="5s" fill="remove" from="0 525 72" repeatCount="indefinite" restart="always" to="-360 525 72" type="rotate"/>
    </path>
    <path class="st3" d="M410.6 5s3 2.2 4.5 1.9c0 0 1.4-3.9 5.6-.7 0 0 2.8-1.1 4-3.2 0 0-4-4.6 1.8-5.1 0 0-.2-3.7-.9-5.1 0 0-5.2.4-3.3-4.1 0 0-3-2-4.9-1.7 0 0-2.3 4-5 .6 0 0-2.2.7-4 3.2 0 0 2.8 2.6-1.8 5 0 0-.6 2.5.7 4.8-.1.1 3.5-1 3.3 4.4zm2.9-11.8c2.1-1.7 5.1-1.3 6.7.7 1.7 2.1 1.3 5.1-.7 6.7-2.1 1.7-5.1 1.3-6.7-.7-1.7-2-1.4-5 .7-6.7zM483.6 121s3 2.2 4.5 1.9c0 0 1.4-3.9 5.6-.7 0 0 2.8-1.1 4-3.2 0 0-4-4.6 1.8-5.1 0 0-.2-3.7-.9-5.1 0 0-5.2.4-3.3-4.1 0 0-3-2-4.9-1.7 0 0-2.3 4-5 .6 0 0-2.2.7-4 3.2 0 0 2.8 2.6-1.8 5 0 0-.6 2.5.7 4.8-.1.1 3.5-1 3.3 4.4zm2.9-11.8c2.1-1.7 5.1-1.3 6.7.7 1.7 2.1 1.3 5.1-.7 6.7-2.1 1.7-5.1 1.3-6.7-.7-1.7-2-1.4-5 .7-6.7zM477.7-16s-3.9 5.8-3.4 8.6c0 0 7.5 2.5 1.6 10.6 0 0 2.3 5.4 6.4 7.5 0 0 8.6-7.9 9.9 3.1 0 0 7-.6 9.6-2 0 0-1-10 7.6-6.5 0 0 3.7-5.8 2.9-9.5 0 0-7.8-4.1-1.4-9.6 0 0-1.4-4.2-6.4-7.5 0 0-4.8 5.5-9.7-3.1 0 0-4.7-1.1-9.2 1.6.1 0 2.5 6.9-7.9 6.8zm22.7 4.8c3.3 3.8 2.8 9.6-1 12.9s-9.6 2.8-12.9-1-2.8-9.6 1-12.9 9.6-2.8 12.9 1z"/>
    <g>
      <path class="st3" d="M535.7 103s-3.9 5.8-3.4 8.6c0 0 7.5 2.5 1.6 10.6 0 0 2.3 5.4 6.4 7.5 0 0 8.6-7.9 9.9 3.1 0 0 7-.6 9.6-2 0 0-1-10 7.6-6.5 0 0 3.7-5.8 2.9-9.5 0 0-7.8-4.1-1.4-9.6 0 0-1.4-4.2-6.4-7.5 0 0-4.8 5.5-9.7-3.1 0 0-4.7-1.1-9.2 1.6.1 0 2.5 6.9-7.9 6.8zm22.7 4.8c3.3 3.8 2.8 9.6-1 12.9s-9.6 2.8-12.9-1c-3.3-3.8-2.8-9.6 1-12.9s9.6-2.8 12.9 1z"/>
    </g>
    <g>
      <path class="st3" d="M517.2-.9s2.5 4.3 4.4 4.9c0 0 3.9-4 7.2 2.3 0 0 4.1.2 6.8-1.8 0 0-2.4-7.9 5.1-5.3 0 0 1.8-4.7 1.7-6.8 0 0-6.7-2.5-1.8-6.9 0 0-2.6-4.1-5.2-4.8 0 0-5 3.7-6.6-2 0 0-3.1-.4-6.8 1.8 0 0 2 4.7-5 5.2 0 0-2.2 2.7-1.8 6.3.1-.1 5.2.5 2 7.1zm10-13c3.5-.9 7 1.2 7.9 4.6.9 3.5-1.2 7-4.6 7.9-3.5.9-7-1.2-7.9-4.6s1.2-7 4.6-7.9z"/>
      <ellipse transform="rotate(-14.63 528.91 -7.66)" class="st3" cx="528.9" cy="-7.6" rx="4" ry="4"/>
    </g>
    <g>
      <path class="st3" d="M576 112.7s2.5 4.3 4.4 4.9c0 0 3.9-4 7.2 2.3 0 0 4.1.2 6.8-1.8 0 0-2.4-7.9 5.1-5.3 0 0 1.8-4.7 1.7-6.8 0 0-6.7-2.5-1.8-6.9 0 0-2.6-4.1-5.2-4.8 0 0-5 3.7-6.6-2 0 0-3.1-.4-6.8 1.8 0 0 2 4.7-5 5.2 0 0-2.2 2.7-1.8 6.3.1-.1 5.2.5 2 7.1zm10-13c3.5-.9 7 1.2 7.9 4.6.9 3.5-1.2 7-4.6 7.9-3.5.9-7-1.2-7.9-4.6s1.2-7 4.6-7.9z"/>
      <ellipse transform="rotate(-14.63 587.72 105.94)" class="st3" cx="587.7" cy="106" rx="4" ry="4"/>
    </g>
    <g>
      <path class="st3" d="M539.8 59.7c.3 0 1.4.4 3.1.8-.1.8-.3 1.5-.3 2.3-1.8 0-2.9.1-3.1.1-.7.4-1.4 4.2-.2 4.1.3 0 1.4 0 3.2-.1 0 .5.1 1 .2 1.4-1.8.5-2.9.8-2.9.9-.6.5-.4 4.4.8 4 .2-.1 1.4-.4 3.1-.9.2.6.4 1.1.6 1.6-1.6.9-2.5 1.5-2.6 1.6-.5.7.8 4.4 1.8 3.7.2-.1 1.2-.7 2.8-1.6.4.7.9 1.3 1.4 1.9-1.3 1.3-2 2.1-2.1 2.2-.3.8 2 4 2.7 3 .2-.2 1-1 2.2-2.3l1.2.9c-.9 1.6-1.5 2.6-1.5 2.7-.1.8 2.9 3.4 3.4 2.3.1-.2.7-1.2 1.6-2.8.5.3 1.1.5 1.6.7-.5 1.8-.8 2.8-.7 3 .1.8 3.6 2.5 3.8 1.3 0-.3.4-1.4.8-3.1.8.1 1.5.3 2.3.3 0 1.8.1 2.9.1 3.1.4.7 4.2 1.4 4.1.2 0-.3 0-1.4-.1-3.2.6-.1 1.1-.1 1.7-.2.4 1.5.6 2.4.7 2.6.6 1.6 3.9.5 3.7-.5 0-.2-.3-1.2-.7-3 .7-.2 1.3-.5 1.9-.8.7 1.3 1.2 2.1 1.3 2.3 1 1.4 3.9-.5 3.4-1.5-.1-.1-.6-1.1-1.4-2.7.7-.5 1.5-1.1 2.1-1.6 1.1 1 1.8 1.7 1.9 1.8 1.3 1 3.7-1.6 2.9-2.4-.1-.1-.9-.9-2.1-2.2.4-.5.7-.9 1.1-1.4 1.3.8 2.1 1.2 2.3 1.3 1.5.7 3.2-2.4 2.2-3-.1-.1-1.1-.7-2.6-1.6.3-.6.6-1.3.8-1.9 1.5.4 2.4.7 2.6.7 1.6.3 2.5-3.1 1.4-3.4-.1 0-1.2-.4-2.9-.9.2-.9.3-1.8.4-2.7 1.5 0 2.5 0 2.7-.1 1.7-.2 1.5-3.7.4-3.7h-3.1c-.1-.6-.1-1.2-.2-1.8 1.5-.4 2.4-.6 2.6-.7 1.6-.6.5-3.9-.5-3.7-.2 0-1.2.3-3 .7-.2-.7-.5-1.3-.8-1.9 1.3-.7 2.1-1.2 2.3-1.3 1.4-1-.5-3.9-1.5-3.4-.1.1-1.1.6-2.7 1.4-.5-.7-1.1-1.5-1.6-2.1 1-1.1 1.7-1.8 1.8-1.9 1-1.3-1.6-3.7-2.4-2.9-.1.1-.9.9-2.2 2.1-.5-.4-.9-.7-1.4-1.1.8-1.3 1.2-2.1 1.3-2.3.7-1.5-2.4-3.2-3-2.2-.1.1-.7 1.1-1.6 2.6-.6-.3-1.3-.6-1.9-.8.4-1.5.7-2.4.7-2.6.3-1.6-3.1-2.5-3.4-1.4 0 .1-.4 1.2-.9 2.9-.9-.2-1.8-.3-2.7-.4 0-1.5 0-2.5-.1-2.7-.2-1.7-3.7-1.5-3.7-.4v3.1c-.5 0-1 .1-1.5.2-.5-1.8-.8-2.9-.9-2.9-.5-.6-4.4-.4-4 .8.1.2.4 1.4.8 3.1-.6.2-1.1.4-1.6.6-.9-1.6-1.5-2.5-1.6-2.6-.7-.5-4.4.8-3.7 1.8.1.2.7 1.2 1.6 2.8-.7.4-1.3.9-1.9 1.4-1.3-1.3-2.1-2-2.2-2.1-.8-.3-4 2-3 2.7.2.2 1 1 2.3 2.2l-.9 1.2c-1.6-.9-2.6-1.5-2.7-1.5-.8-.1-3.4 2.9-2.3 3.4.2.1 1.2.7 2.8 1.6-.3.5-.5 1-.7 1.6-1.8-.5-2.8-.8-3-.7-.1.3-1.8 3.8-.6 4zm22.1 4.7h-9.6c.1-2.7 1-5.1 2.5-7.1l7.1 7.1zm13.9-7.2c1.5 2 2.4 4.5 2.5 7.1h-9.6l7.1-7.1zm-7.2 10h9.5c-.4 2.4-1.5 4.6-3.1 6.4l-6.4-6.4zm-6.7 0l-6.4 6.4c-1.6-1.8-2.6-4-3.1-6.4h9.5zm-4.3 8.2l6.3-6.3v8.8c-2.4-.3-4.5-1.1-6.3-2.5zm9.1 2.5v-8.8l6.3 6.3c-1.8 1.4-4 2.2-6.3 2.5zm7.2-22.7l-7.2 7.2V52c2.7.3 5.2 1.4 7.2 3.2zm-10-3.2v10.4l-7.2-7.2c1.9-1.8 4.4-2.9 7.2-3.2z">
        <animateTransform accumulate="none" additive="replace" attributeName="transform" attributeType="XML" calcMode="linear" dur="20s" fill="remove" from="0 565 65" repeatCount="indefinite" restart="always" to="360 565 65" type="rotate"/>
      </path>
    </g>
    <g>
      <path class="st3" d="M393.8 31.6c.2 0 1.3.3 3 .8-.1.7-.2 1.5-.3 2.2-1.7 0-2.8.1-2.9.1-.7.4-1.4 4-.2 3.9.2 0 1.4 0 3.1-.1 0 .5.1.9.2 1.4-1.7.5-2.7.7-2.8.8-.6.5-.3 4.2.8 3.8.2-.1 1.3-.4 3-.8.2.5.4 1.1.6 1.6-1.5.9-2.4 1.4-2.5 1.5-.5.7.7 4.2 1.7 3.5.2-.1 1.2-.7 2.7-1.5.4.6.9 1.2 1.4 1.8-1.2 1.3-1.9 2-2 2.1-.3.8 1.9 3.8 2.6 2.9.2-.2.9-1 2.1-2.2.4.3.7.6 1.1.8-.9 1.5-1.4 2.5-1.4 2.6-.1.8 2.7 3.2 3.2 2.2.1-.2.7-1.2 1.5-2.7.5.2 1 .5 1.5.7-.5 1.7-.7 2.7-.7 2.8.1.8 3.5 2.4 3.7 1.3 0-.2.3-1.3.8-3 .7.1 1.5.2 2.2.3 0 1.7.1 2.8.1 2.9.4.7 4 1.4 3.9.2 0-.2 0-1.4-.1-3.1.6 0 1.1-.1 1.6-.2.4 1.4.6 2.3.7 2.5.6 1.5 3.8.5 3.5-.5 0-.1-.3-1.2-.7-2.8.6-.2 1.3-.5 1.9-.7.7 1.3 1.2 2 1.3 2.2.9 1.3 3.8-.5 3.3-1.4-.1-.1-.6-1.1-1.4-2.6.7-.5 1.4-1 2.1-1.6 1 1 1.7 1.6 1.9 1.8 1.3 1 3.5-1.5 2.8-2.3l-2.1-2.1c.4-.4.7-.9 1-1.4 1.2.7 2 1.2 2.2 1.3 1.5.7 3-2.3 2.1-2.9-.1-.1-1-.6-2.5-1.5.3-.6.6-1.2.8-1.8 1.4.4 2.3.6 2.5.7 1.6.3 2.4-3 1.3-3.3-.1 0-1.2-.3-2.8-.8.2-.8.3-1.7.3-2.6 1.4 0 2.4 0 2.6-.1 1.6-.2 1.4-3.5.4-3.5H440c0-.6-.1-1.1-.2-1.7 1.4-.4 2.3-.6 2.5-.7 1.5-.6.5-3.8-.5-3.5-.1 0-1.2.3-2.8.7-.2-.6-.5-1.3-.7-1.9 1.3-.7 2-1.2 2.2-1.3 1.3-.9-.5-3.8-1.4-3.3-.1.1-1.1.6-2.6 1.4-.5-.7-1-1.4-1.6-2.1 1-1 1.6-1.7 1.8-1.9 1-1.3-1.5-3.5-2.3-2.8l-2.1 2.1c-.4-.4-.9-.7-1.4-1 .7-1.2 1.2-2 1.3-2.2.7-1.5-2.3-3-2.9-2.1-.1.1-.6 1-1.5 2.5-.6-.3-1.2-.6-1.8-.8.4-1.4.6-2.3.7-2.5.3-1.6-3-2.4-3.3-1.3 0 .1-.3 1.2-.8 2.8-.8-.2-1.7-.3-2.6-.3 0-1.4 0-2.4-.1-2.6-.2-1.6-3.5-1.4-3.5-.4v2.9c-.5 0-1 .1-1.5.2-.4-1.7-.7-2.7-.8-2.8-.5-.6-4.2-.3-3.8.8.1.2.4 1.3.8 3-.5.2-1.1.4-1.6.6-.9-1.5-1.4-2.4-1.5-2.5-.7-.5-4.2.7-3.5 1.7.1.2.7 1.2 1.5 2.7-.6.4-1.2.9-1.8 1.4-1.3-1.2-2-1.9-2.1-2-.8-.3-3.8 1.9-2.9 2.6.2.2 1 .9 2.2 2.1-.3.4-.6.7-.8 1.1-1.5-.9-2.5-1.4-2.6-1.4-.8-.1-3.2 2.7-2.2 3.2.2.1 1.2.7 2.7 1.5-.2.5-.5 1-.7 1.5-1.7-.5-2.7-.7-2.8-.7-.7.2-2.3 3.6-1.2 3.8zm21.3 4.5h-9.2c.1-2.5 1-4.9 2.4-6.8l6.8 6.8zm13.2-6.9c1.4 1.9 2.3 4.3 2.4 6.8h-9.2l6.8-6.8zm-6.8 9.5h9.1c-.4 2.3-1.4 4.4-2.9 6.1l-6.2-6.1zm-6.4 0l-6.1 6.1c-1.5-1.7-2.5-3.8-2.9-6.1h9zm-4.2 8l6-6V49c-2.2-.2-4.3-1.1-6-2.3zm8.7 2.3v-8.4l6 6c-1.7 1.3-3.7 2.2-6 2.4zm6.9-21.8l-6.9 6.9v-10c2.7.4 5 1.5 6.9 3.1zm-9.6-3v10l-6.9-6.9c1.9-1.7 4.3-2.8 6.9-3.1z">
        <animateTransform accumulate="none" additive="replace" attributeName="transform" attributeType="XML" calcMode="linear" dur="10s" fill="remove" from="0 418 36" repeatCount="indefinite" restart="always" to="360 418 36" type="rotate"/>
      </path>
    </g>
  </g>
</svg>
