<svg id="Layer_1" xmlns="http://www.w3.org/2000/svg" viewBox="0 0 600 120">
  <style>
    .st0{fill:#EAECED;} .st1{fill:#FFA357;} .st2{enable-background:new ;} .st3{fill:url(#SVGID_1_);stroke:#FFFFFF;stroke-miterlimit:10;} .st4{fill:url(#SVGID_2_);stroke:#FFFFFF;stroke-miterlimit:10;} .st5{fill:#EAEAEA;} .st6{fill:#FFFFFF;} .st7{fill:#333333;}
  </style>
  <path class="st0" d="M-1.3-.8v121.1h547.4c30.7 0 55.6-8.1 55.6-18.1V17.3c0-10-24.9-18.1-55.6-18.1H-1.3z"/>
  <path class="st1" d="M367.6-.5v121.7h233.2V-.5z"/>
  <g class="st2">
    <path d="M83.4 55V30.9h9.3v2.5h-6v8h4.9v2.4h-4.9v8.8h6V55h-9.3zM95.5 55V30.9h3.4v21.7h6.1V55h-9.5zM107.3 55V30.9h9.3v2.5h-6v8h4.9v2.4h-4.9v8.8h6V55h-9.3zM125.5 55.2c-1 0-1.9-.1-2.6-.4s-1.4-.6-1.9-1.1c-.5-.5-.9-1-1.2-1.7-.3-.7-.5-1.4-.6-2.2s-.2-1.6-.2-2.6v-8.5c0-1 .1-1.9.2-2.7.1-.8.3-1.5.6-2.2.3-.7.7-1.3 1.2-1.7.5-.4 1.1-.8 1.9-1s1.6-.4 2.6-.4c2.2 0 3.7.6 4.7 1.8.9 1.2 1.4 2.9 1.4 5.2v1.9h-3.2v-1.7-.9-.8c0-.3 0-.6-.1-.7 0-.2-.1-.4-.2-.6-.1-.2-.1-.4-.2-.5-.1-.1-.2-.3-.4-.4-.1-.1-.3-.3-.5-.3-.2-.1-.4-.1-.7-.2s-.5-.1-.8-.1c-.5 0-.9.1-1.2.2-.3.1-.6.3-.9.5-.2.2-.4.5-.5.7-.1.3-.2.6-.3 1-.1.4-.1.8-.1 1.2v10.9c0 1.8.2 3.1.7 3.8.5.7 1.3 1.1 2.4 1.1.4 0 .8 0 1.2-.1s.6-.3.8-.5c.2-.2.4-.5.5-.7s.2-.6.3-1c.1-.4.1-.8.1-1.1V46h3.2v1.8c0 .9-.1 1.7-.2 2.5s-.3 1.4-.6 2c-.3.6-.6 1.2-1.1 1.6-.5.4-1 .7-1.7 1s-1.7.3-2.6.3zM137.3 55V33.3h-4.4v-2.5h12v2.5h-4.2V55h-3.4zM146.7 55V30.9h4.8c2.4 0 4.2.5 5.4 1.5 1.1 1 1.7 2.6 1.7 4.9 0 3.1-1 5-3 5.6L159 55h-3.3l-3.2-11.3h-2.6V55h-3.2zm3.4-13.8h1.3c1.5 0 2.5-.3 3.1-.9.6-.6.9-1.6.9-3.1s-.3-2.5-.8-3.1c-.5-.6-1.6-.9-3-.9h-1.5v8zM168.3 55.2c-1.2 0-2.2-.2-3.1-.5-.9-.4-1.5-.9-2-1.6-.5-.7-.9-1.5-1.1-2.4-.2-.9-.3-2-.3-3.3v-9.1c0-2.5.5-4.4 1.5-5.7s2.7-1.9 5.1-1.9c2.3 0 4 .7 5 2s1.5 3.2 1.5 5.7v9.1c0 2.5-.5 4.4-1.5 5.8s-2.8 1.9-5.1 1.9zm-1.6-2.9c.4.2 1 .3 1.6.3s1.2-.1 1.6-.3.8-.5 1-.9c.2-.4.4-.9.5-1.4.1-.5.1-1.1.1-1.9V37.6c0-.7 0-1.3-.1-1.8s-.2-.9-.5-1.3c-.2-.4-.6-.7-1-.9-.4-.2-1-.3-1.6-.3s-1.2.1-1.6.3c-.4.2-.8.5-1 .9-.2.4-.4.9-.5 1.3s-.1 1.1-.1 1.8v10.6c0 .7 0 1.4.1 1.9s.2 1 .5 1.4c.2.3.5.6 1 .8zM178.2 55V30.9h2.3l6.8 16v-16h2.8V55H188l-7-16.5V55h-2.8zM194.1 55V30.9h3.3V55h-3.3zM207.3 55.2c-1 0-1.9-.1-2.6-.4s-1.4-.6-1.9-1.1c-.5-.5-.9-1-1.2-1.7-.3-.7-.5-1.4-.6-2.2s-.2-1.6-.2-2.6v-8.5c0-1 .1-1.9.2-2.7.1-.8.3-1.5.6-2.2.3-.7.7-1.3 1.2-1.7.5-.4 1.1-.8 1.9-1s1.6-.4 2.6-.4c2.2 0 3.7.6 4.7 1.8.9 1.2 1.4 2.9 1.4 5.2v1.9h-3.2v-1.7-.9-.8c0-.3 0-.6-.1-.7 0-.2-.1-.4-.2-.6-.1-.2-.1-.4-.2-.5-.1-.1-.2-.3-.4-.4-.1-.1-.3-.3-.5-.3-.2-.1-.4-.1-.7-.2s-.5-.1-.8-.1c-.5 0-.9.1-1.2.2-.3.1-.6.3-.9.5-.2.2-.4.5-.5.7-.1.3-.2.6-.3 1-.1.4-.1.8-.1 1.2v10.9c0 1.8.2 3.1.7 3.8.5.7 1.3 1.1 2.4 1.1.4 0 .8 0 1.2-.1s.6-.3.8-.5c.2-.2.4-.5.5-.7s.2-.6.3-1c.1-.4.1-.8.1-1.1V46h3.2v1.8c0 .9-.1 1.7-.2 2.5s-.3 1.4-.6 2c-.3.6-.6 1.2-1.1 1.6-.5.4-1 .7-1.7 1s-1.7.3-2.6.3zM222.3 55.2c-2 0-3.6-.6-4.6-1.9-1.1-1.3-1.7-3-1.8-5.1l3-.8c.2 3.5 1.4 5.2 3.4 5.2.9 0 1.5-.2 2-.7.5-.5.7-1.2.7-2.1 0-.5-.1-1-.2-1.4-.1-.4-.3-.8-.6-1.2s-.5-.7-.8-1c-.2-.3-.6-.6-1.1-1l-4-3.6c-.8-.7-1.4-1.5-1.8-2.3-.4-.8-.6-1.8-.6-3 0-1.7.5-3.1 1.5-4.1 1-1 2.4-1.5 4.2-1.5 1.9 0 3.4.5 4.3 1.5s1.5 2.6 1.7 4.7l-2.8.8c0-.5-.1-1-.2-1.4l-.3-1.2s-.3-.7-.6-1c-.2-.3-.5-.5-.9-.6s-.8-.2-1.3-.2c-1.8.1-2.7 1-2.7 2.6 0 .7.1 1.3.4 1.8s.6 1 1.2 1.5l4.1 3.6c1.1 1 1.9 2 2.5 3.1.6 1.1.9 2.3.9 3.7 0 1.8-.5 3.2-1.6 4.2-.9.9-2.3 1.4-4 1.4zM236.2 55l5.1-24.1h3.2l5.1 24.1h-3.2l-1.1-6.1h-4.9l-1.1 6.1h-3.1zm4.7-8.5h4l-2-10.9-2 10.9zM252.1 55V30.9h2.3l6.8 16v-16h2.8V55h-2.2L255 38.5V55h-2.9zM267.9 55V30.9h5.2c2.6 0 4.4.6 5.5 1.8 1.1 1.2 1.6 3 1.6 5.6v8.9c0 2.6-.5 4.6-1.6 5.9-1.1 1.3-2.8 2-5.3 2h-5.4zm3.3-2.5h1.9c.5 0 1-.1 1.4-.2.4-.1.7-.2 1-.4.3-.1.5-.4.7-.7.2-.3.3-.6.4-.9.1-.3.2-.6.2-1.2s.1-1 .1-1.3v-9.4-1.5s-.1-.8-.1-1.2-.1-.7-.3-1-.3-.5-.5-.7-.4-.4-.7-.5c-.3-.1-.6-.2-1-.3-.4-.1-.8-.1-1.3-.1h-1.8v19.4z"/>
  </g>
  <g class="st2">
    <path d="M21.2 90.9c-1 0-1.9-.1-2.6-.4s-1.4-.6-1.9-1.1c-.5-.5-.9-1-1.2-1.7s-.5-1.4-.6-2.2-.2-1.6-.2-2.6v-8.5c0-1 .1-1.9.2-2.7.1-.8.3-1.5.6-2.2.3-.7.7-1.3 1.2-1.7.5-.4 1.1-.8 1.9-1s1.6-.4 2.6-.4c2.2 0 3.7.6 4.7 1.8.9 1.2 1.4 2.9 1.4 5.2v1.9h-3.2v-1.7-.9-.8c0-.3 0-.6-.1-.7 0-.2-.1-.4-.2-.6-.1-.2-.1-.4-.2-.5-.1-.1-.2-.3-.4-.4s-.3-.3-.5-.3c-.2-.1-.4-.1-.7-.2s-.5-.1-.8-.1c-.5 0-.9.1-1.2.2-.3.1-.6.3-.9.5-.2.2-.4.5-.5.7-.1.3-.2.6-.3 1-.1.4-.1.8-.1 1.2v10.9c0 1.8.2 3.1.7 3.8.5.7 1.3 1.1 2.4 1.1.4 0 .8 0 1.2-.1.3-.1.6-.3.8-.5.2-.2.4-.5.5-.7s.2-.6.3-1c.1-.4.1-.8.1-1.1v-3.2h3.2v1.8c0 .9-.1 1.7-.2 2.5s-.3 1.4-.6 2c-.3.6-.6 1.2-1.1 1.6-.5.4-1 .7-1.7 1-.8 0-1.7.1-2.6.1zM36.7 90.9c-1.2 0-2.2-.2-3.1-.5-.9-.4-1.5-.9-2-1.6-.5-.7-.9-1.5-1.1-2.4s-.3-2-.3-3.3V74c0-2.5.5-4.4 1.5-5.7 1-1.3 2.7-1.9 5.1-1.9 2.3 0 4 .7 5 2s1.5 3.2 1.5 5.7v9.1c0 2.5-.5 4.4-1.5 5.8-1.1 1.3-2.8 1.9-5.1 1.9zM35 88c.4.2 1 .3 1.6.3s1.2-.1 1.6-.3.8-.5 1-.9c.2-.4.4-.9.5-1.4.1-.5.1-1.1.1-1.9V73.3c0-.7 0-1.3-.1-1.8s-.2-.9-.5-1.3c-.2-.4-.6-.7-1-.9-.4-.2-1-.3-1.6-.3s-1.2 0-1.6.2c-.4.2-.8.5-1 .9-.2.4-.4.9-.5 1.3s-.1 1.1-.1 1.8v10.6c0 .7 0 1.4.1 1.9s.2 1 .5 1.4c.3.4.6.7 1 .9zM46.5 90.7l.5-24.1h3.3l4.3 19.6 4.3-19.6h3.3l.5 24.1H60l-.3-17.5-4.1 17.5h-1.9l-4.1-17.5-.3 17.5h-2.8zM66.1 90.7l.5-24.1h3.3l4.3 19.6 4.3-19.6h3.3l.5 24.1h-2.7l-.3-17.5-4.1 17.5h-1.9l-4.1-17.5-.3 17.5h-2.8zM94.8 90.5c-.8.3-1.6.4-2.7.4s-1.9-.1-2.7-.4c-.8-.3-1.4-.6-1.9-1.1-.5-.5-.9-1.1-1.1-1.8-.3-.7-.5-1.5-.6-2.3-.1-.8-.2-1.8-.2-2.8v-16h3.2v16.1c0 .7 0 1.3.1 1.8 0 .5.1 1 .3 1.5.1.5.3.9.5 1.2.2.3.5.6.9.8.4.2.9.3 1.4.3s1-.1 1.4-.3c.4-.2.7-.5.9-.8s.4-.7.5-1.2l.3-1.5c0-.5.1-1.1.1-1.8v-16h3.2v16c0 1.1-.1 2-.2 2.8-.1.8-.3 1.6-.6 2.3-.3.7-.7 1.3-1.1 1.8-.4.4-1 .8-1.7 1zM102.1 90.7V66.6h2.3l6.8 16v-16h2.8v24.1h-2.2l-6.9-16.5v16.5h-2.8zM117.9 90.7V66.6h3.3v24.1h-3.3zM131.2 90.9c-1 0-1.9-.1-2.6-.4s-1.4-.6-1.9-1.1c-.5-.5-.9-1-1.2-1.7s-.5-1.4-.6-2.2-.2-1.6-.2-2.6v-8.5c0-1 .1-1.9.2-2.7.1-.8.3-1.5.6-2.2.3-.7.7-1.3 1.2-1.7.5-.4 1.1-.8 1.9-1s1.6-.4 2.6-.4c2.2 0 3.7.6 4.7 1.8.9 1.2 1.4 2.9 1.4 5.2v1.9h-3.2v-1.7-.9-.8c0-.3 0-.6-.1-.7 0-.2-.1-.4-.2-.6-.1-.2-.1-.4-.2-.5-.1-.1-.2-.3-.4-.4s-.3-.3-.5-.3c-.2-.1-.4-.1-.7-.2s-.5-.1-.8-.1c-.5 0-.9.1-1.2.2-.3.1-.6.3-.9.5-.2.2-.4.5-.5.7-.1.3-.2.6-.3 1-.1.4-.1.8-.1 1.2v10.9c0 1.8.2 3.1.7 3.8.5.7 1.3 1.1 2.4 1.1.4 0 .8 0 1.2-.1.3-.1.6-.3.8-.5.2-.2.4-.5.5-.7s.2-.6.3-1c.1-.4.1-.8.1-1.1v-3.2h3.2v1.8c0 .9-.1 1.7-.2 2.5s-.3 1.4-.6 2c-.3.6-.6 1.2-1.1 1.6-.5.4-1 .7-1.7 1-.9 0-1.7.1-2.6.1zM139.1 90.7l5.1-24.1h3.2l5.1 24.1h-3.2l-1.1-6.1h-4.9l-1.1 6.1h-3.1zm4.8-8.5h4l-2-10.9-2 10.9zM156.6 90.7V69h-4.4v-2.5h12V69H160v21.6h-3.4zM166.2 90.7V66.6h3.3v24.1h-3.3zM179.6 90.9c-1.2 0-2.2-.2-3.1-.5-.9-.4-1.5-.9-2-1.6-.5-.7-.9-1.5-1.1-2.4s-.3-2-.3-3.3V74c0-2.5.5-4.4 1.5-5.7 1-1.3 2.7-1.9 5.1-1.9 2.3 0 4 .7 5 2s1.5 3.2 1.5 5.7v9.1c0 2.5-.5 4.4-1.5 5.8-1.1 1.3-2.8 1.9-5.1 1.9zm-1.7-2.9c.4.2 1 .3 1.6.3s1.2-.1 1.6-.3.8-.5 1-.9c.2-.4.4-.9.5-1.4.1-.5.1-1.1.1-1.9V73.3c0-.7 0-1.3-.1-1.8s-.2-.9-.5-1.3c-.2-.4-.6-.7-1-.9-.4-.2-1-.3-1.6-.3s-1.2.1-1.6.3c-.4.2-.8.5-1 .9-.2.4-.4.9-.5 1.3s-.1 1.1-.1 1.8v10.6c0 .7 0 1.4.1 1.9s.2 1 .5 1.4c.3.3.6.6 1 .8zM189.5 90.7V66.6h2.3l6.8 16v-16h2.8v24.1h-2.2l-6.9-16.5v16.5h-2.8zM212 90.7V66.6h9.3V69h-6v8h4.9v2.4h-4.9v8.8h6v2.4H212zM224.1 90.7V66.6h2.3l6.8 16v-16h2.8v24.1h-2.2L227 74.2v16.5h-2.9zM245.6 91c-2.2 0-3.8-.7-4.7-2.1-1-1.4-1.5-3.4-1.5-6.1v-8.1c0-1.1.1-2.1.2-2.9.1-.8.3-1.6.6-2.3.3-.7.7-1.3 1.2-1.7.5-.4 1.1-.8 1.8-1 .7-.2 1.6-.4 2.6-.4 2.2 0 3.8.6 4.8 1.7s1.5 2.9 1.5 5.3v.9H249v-.8c0-.7 0-1.2-.1-1.7 0-.4-.1-.9-.2-1.3s-.3-.7-.5-.9c-.2-.2-.5-.4-.9-.5-.4-.1-.8-.2-1.4-.2-.4 0-.8 0-1.1.1s-.6.2-.8.4l-.6.6c-.2.3-.3.5-.4.8-.1.3-.2.6-.2 1s-.1.8-.1 1.1V83c0 1.9.2 3.2.7 4s1.3 1.2 2.6 1.2 2.1-.4 2.6-1.3.7-2.3.7-4.2V81h-3.1v-2.4h6.1v11.9h-2.1l-.3-2.8c-.8 2.2-2.2 3.3-4.3 3.3zM255.9 90.7V66.6h3.3v24.1h-3.3zM263.1 90.7V66.6h2.3l6.8 16v-16h2.8v24.1h-2.2L266 74.2v16.5h-2.9zM278.9 90.7V66.6h9.3V69h-6v8h4.9v2.4h-4.9v8.8h6v2.4h-9.3zM291 90.7V66.6h9.3V69h-6v8h4.9v2.4h-4.9v8.8h6v2.4H291zM303.1 90.7V66.6h4.8c2.4 0 4.2.5 5.4 1.5 1.1 1 1.7 2.6 1.7 4.9 0 3.1-1 5-3 5.6l3.4 12.1h-3.3l-3.2-11.3h-2.6v11.3h-3.2zm3.4-13.8h1.3c1.5 0 2.5-.3 3.1-.9.6-.6.9-1.6.9-3.1s-.3-2.5-.8-3.1c-.5-.6-1.6-.9-3-.9h-1.5v8zM318.7 90.7V66.6h3.3v24.1h-3.3zM325.9 90.7V66.6h2.3l6.8 16v-16h2.8v24.1h-2.2l-6.9-16.5v16.5h-2.8zM347.4 91c-2.2 0-3.8-.7-4.7-2.1-1-1.4-1.5-3.4-1.5-6.1v-8.1c0-1.1.1-2.1.2-2.9s.3-1.6.6-2.3c.3-.7.7-1.3 1.2-1.7s1.1-.8 1.8-1c.7-.2 1.6-.4 2.6-.4 2.2 0 3.8.6 4.8 1.7s1.5 2.9 1.5 5.3v.9h-3.2v-.8c0-.7 0-1.2-.1-1.7s-.1-.9-.2-1.3-.3-.7-.5-.9c-.2-.2-.5-.4-.9-.5-.4-.1-.8-.2-1.4-.2-.4 0-.8 0-1.1.1-.3.1-.6.2-.8.4l-.6.6c-.2.3-.3.5-.4.8-.1.3-.2.6-.2 1s-.1.8-.1 1.1V83c0 1.9.2 3.2.7 4s1.3 1.2 2.6 1.2 2.1-.4 2.6-1.3.7-2.3.7-4.2V81h-3v-2.4h6.1v11.9H352l-.3-2.8c-.8 2.2-2.2 3.3-4.3 3.3z"/>
  </g>
  <linearGradient id="SVGID_1_" gradientUnits="userSpaceOnUse" x1="233.182" y1="318.681" x2="345.782" y2="318.681" gradientTransform="matrix(0 -1 -1 0 728.88 351.98)">
    <stop offset="0" stop-color="#F2F2F2"/>
    <stop offset="1" stop-color="#F2F2F2"/>
  </linearGradient>
  <path class="st3" d="M418.7 57.1l-15.4-12.2v-17L393.2 20V6.2h-.5v64.4L379 79.8v18.9l13.7 9.5v10.6h.5v-10.9l-13.7-9.5V80l13.5-9 8.3 6v41.7h.5v-42l-8.5-6.2v-50l2.7 2.1v43.9l9.5 6.8v45.3h.5V73.3l-9.5-6.8V23.1l6.4 5v17l15.4 12.2v46.4l-.1 4.3v10.8h.5v-10.5h3.8v10.5h.5v-11h-4.2l.1-3.9L441.4 87V57.1L426 44.9v-8.6c.5-.2.9-.6.9-1.2 0-.7-.6-1.3-1.3-1.3-.7 0-1.3.6-1.3 1.3s.5 1.2 1.1 1.3v8.8l15.4 12.2v29.4l-2.8 2.1V57.1l-15.4-12.2V27.1c.5-.1.9-.6.9-1.2 0-.7-.6-1.3-1.3-1.3-.7 0-1.3.6-1.3 1.3 0 .6.5 1.2 1.1 1.3v18l15.4 12.2v31.8l-2.8 2.1V57.1l-15.4-12.2V14.4c.5-.1 1-.6 1-1.2 0-.7-.6-1.3-1.3-1.3s-1.3.6-1.3 1.3c0 .6.5 1.2 1.1 1.3v30.7l15.4 12.2v34.1h.1l-2.9 2.1V57.1l-15.4-12.2V14.4c.6-.1 1-.6 1-1.2 0-.7-.6-1.3-1.3-1.3-.7 0-1.3.6-1.3 1.3 0 .6.5 1.2 1.1 1.3v30.7l15.4 12.2V94l-2.8 2.1v-39l-15-12.2V14.4c.6-.1 1-.6 1-1.2 0-.7-.6-1.3-1.3-1.3-.7 0-1.3.6-1.3 1.3 0 .6.5 1.2 1.1 1.2v30.7l15.4 12.2v39.1l-2.8 2.1V57.1l-15.4-12.2V14.4c.6-.1 1-.6 1-1.2 0-.7-.6-1.3-1.3-1.3-.7 0-1.3.6-1.3 1.3 0 .6.5 1.1 1.1 1.2v30.7l15.4 12.2v41.5l-2.8 2.1V57.1l-15.4-12.2V14.4c.6-.1 1-.6 1-1.2 0-.7-.6-1.3-1.3-1.3-.7 0-1.3.6-1.3 1.3 0 .6.5 1.1 1 1.2v30.7l15.4 12.2v43.9l-2.8 2.1V57.1h.3zm6.1-22c0-.4.4-.8.8-.8s.8.4.8.8-.4.8-.8.8c-.5 0-.8-.4-.8-.8zm-3.2-9.3c0-.4.4-.8.8-.8s.8.4.8.8-.4.8-.8.8c-.5 0-.8-.3-.8-.8zm-3.3-12.6c0-.4.4-.8.8-.8s.8.4.8.8-.4.8-.8.8-.8-.4-.8-.8zm-3.2 0c0-.4.4-.8.8-.8s.8.4.8.8-.4.8-.8.8-.8-.4-.8-.8zm-3.2 0c0-.4.4-.8.8-.8s.8.4.8.8-.4.8-.8.8-.8-.4-.8-.8zm-3.2 0c0-.4.4-.8.8-.8s.8.4.8.8-.4.8-.8.8c-.5 0-.8-.4-.8-.8zm-3.3 0c0-.4.4-.8.8-.8s.8.4.8.8-.4.8-.8.8-.8-.4-.8-.8z">
    <animateTransform accumulate="none" additive="replace" attributeName="transform" calcMode="linear" dur="20s" fill="remove" repeatCount="indefinite" restart="always" type="translate" values="0 30 ; 0 0; 0 30"/>
  </path>
  <linearGradient id="SVGID_2_" gradientUnits="userSpaceOnUse" x1="613.2296" y1="127.7085" x2="725.8486" y2="127.7085" gradientTransform="matrix(0 1 1 0 435.44 -613.03)">
    <stop offset="0" stop-color="#F2F2F2"/>
    <stop offset="1" stop-color="#F2F2F2"/>
  </linearGradient>
  <path class="st4" d="M554.6 61.8L570 74v17l10.1 7.8v13.9h.5V48.3l13.7-9.2V20.3l-13.7-9.5V.2h-.5V11l13.7 9.5v18.4l-13.5 9-8.3-6V.2h-.5v42l8.5 6.2v50l-2.7-2.1v-44l-9.5-6.8V.2h-.5v45.5l9.5 6.8v43.3l-6.4-5v-17L555 61.6V15.2l.1-4.3V.2h-.5v10.5h-3.8V.2h-.5v11h4.2l-.1 3.9L532 31.9v29.9L547.4 74v8.6c-.5.2-.9.6-.9 1.2 0 .7.6 1.3 1.3 1.3s1.3-.6 1.3-1.3c0-.7-.5-1.2-1.1-1.3v-8.8l-15.4-12.2V32.2l2.8-2.1v31.7L550.8 74v17.8c-.5.1-.9.6-.9 1.2 0 .7.6 1.3 1.3 1.3s1.3-.6 1.3-1.3c0-.6-.5-1.2-1.1-1.3v-18L536 61.5V29.8l2.8-2.1v34.1L554.2 74v30.4c-.5.1-1 .6-1 1.2 0 .7.6 1.3 1.3 1.3s1.3-.6 1.3-1.3c0-.6-.5-1.2-1.1-1.3V73.8l-15.4-12.2V27.5h-.1l2.9-2.1v36.5l15.4 12.2v30.4c-.6.1-1 .6-1 1.2 0 .7.6 1.3 1.3 1.3s1.3-.6 1.3-1.3c0-.6-.5-1.2-1.1-1.3V73.8l-15.4-12.2V25l2.8-2.1v38.9L560.8 74v30.4c-.6.1-1 .6-1 1.2 0 .7.6 1.3 1.3 1.3s1.3-.6 1.3-1.3c0-.6-.5-1.2-1.1-1.2V73.8l-15.4-12.2v-39l2.8-2.1v41.3L564.1 74v30.4c-.6.1-1 .6-1 1.2 0 .7.6 1.3 1.3 1.3s1.3-.6 1.3-1.3c0-.6-.5-1.1-1.1-1.2V73.8l-15.4-12.2V20.2l2.8-2.1v43.7L567.4 74v30.4c-.6.1-1 .6-1 1.2 0 .7.6 1.3 1.3 1.3s1.3-.6 1.3-1.3c0-.6-.5-1.1-1-1.2V73.8l-15.4-12.2V17.7l2.8-2.1v46.2h-.8zm-6.1 22.1c0 .4-.4.8-.8.8s-.8-.4-.8-.8.4-.8.8-.8c.5 0 .8.3.8.8zm3.3 9.2c0 .4-.4.8-.8.8s-.8-.4-.8-.8.4-.8.8-.8.8.4.8.8zm3.2 12.7c0 .4-.4.8-.8.8s-.8-.4-.8-.8.4-.8.8-.8.8.3.8.8zm3.2 0c0 .4-.4.8-.8.8s-.8-.4-.8-.8.4-.8.8-.8.8.3.8.8zm3.2 0c0 .4-.4.8-.8.8s-.8-.4-.8-.8.4-.8.8-.8c.5 0 .8.3.8.8zm3.3 0c0 .4-.4.8-.8.8s-.8-.4-.8-.8.4-.8.8-.8.8.3.8.8zm3.2 0c0 .4-.4.8-.8.8s-.8-.4-.8-.8.4-.8.8-.8.8.3.8.8z">
    <animateTransform accumulate="none" additive="replace" attributeName="transform" calcMode="linear" dur="20s" fill="remove" repeatCount="indefinite" restart="always" type="translate" values="0 -30 ; 0 0; 0 -30"/>
  </path>
  <g>
    <path class="st5" d="M508.1 91.7h-41.6c-6.4 0-11.7-5.2-11.7-11.7V38.4c0-6.4 5.2-11.7 11.7-11.7h41.6c6.4 0 11.7 5.2 11.7 11.7V80c-.1 6.5-5.3 11.7-11.7 11.7z"/>
    <g>
      <animate accumulate="none" additive="replace" attributeName="opacity" attributeType="XML" calcMode="linear" dur="1s" fill="remove" from=".1" repeatCount="indefinite" restart="always" to="1"/>
      <path class="st6" d="M457.8 18.9h2.8v7.9h-2.8zM463.4 18.9h2.8v7.9h-2.8zM469 18.9h2.8v7.9H469zM474.7 18.9h2.8v7.9h-2.8zM480.3 18.9h2.8v7.9h-2.8zM485.9 18.9h2.8v7.9h-2.8zM491.5 18.9h2.8v7.9h-2.8zM497.1 18.9h2.8v7.9h-2.8zM502.7 18.9h2.8v7.9h-2.8zM508.3 18.9h2.8v7.9h-2.8zM513.9 18.9h2.8v7.9h-2.8z"/>
    </g>
    <g>
      <animate accumulate="none" additive="replace" attributeName="opacity" attributeType="XML" calcMode="linear" dur="1s" fill="remove" from=".1" repeatCount="indefinite" restart="always" to="1"/>
      <path class="st6" d="M457.8 91.7h2.8v7.9h-2.8zM463.4 91.7h2.8v7.9h-2.8zM469 91.7h2.8v7.9H469zM474.7 91.7h2.8v7.9h-2.8zM480.3 91.7h2.8v7.9h-2.8zM485.9 91.7h2.8v7.9h-2.8zM491.5 91.7h2.8v7.9h-2.8zM497.1 91.7h2.8v7.9h-2.8zM502.7 91.7h2.8v7.9h-2.8zM508.3 91.7h2.8v7.9h-2.8zM513.9 91.7h2.8v7.9h-2.8z"/>
    </g>
    <g>
      <animate accumulate="none" additive="replace" attributeName="opacity" attributeType="XML" calcMode="linear" dur="1s" fill="remove" from=".1" repeatCount="indefinite" restart="always" to="1"/>
      <path class="st6" d="M446.8 85.9h7.9v2.8h-7.9zM446.8 80.3h7.9v2.8h-7.9zM446.8 74.7h7.9v2.8h-7.9zM446.8 69.1h7.9v2.8h-7.9zM446.8 63.5h7.9v2.8h-7.9zM446.9 57.9h7.9v2.8h-7.9zM446.9 52.3h7.9v2.8h-7.9zM446.9 46.7h7.9v2.8h-7.9zM446.9 41.1h7.9v2.8h-7.9zM446.9 35.4h7.9v2.8h-7.9zM446.9 29.8h7.9v2.8h-7.9z"/>
    </g>
    <g>
      <animate accumulate="none" additive="replace" attributeName="opacity" attributeType="XML" calcMode="linear" dur="1s" fill="remove" from=".1" repeatCount="indefinite" restart="always" to="1"/>
      <path class="st6" d="M519.7 85.9h7.9v2.8h-7.9zM519.7 80.3h7.9v2.8h-7.9zM519.7 74.7h7.9v2.8h-7.9zM519.7 69.1h7.9v2.8h-7.9zM519.7 63.5h7.9v2.8h-7.9zM519.7 57.9h7.9v2.8h-7.9zM519.8 52.3h7.9v2.8h-7.9zM519.8 46.6h7.9v2.8h-7.9zM519.8 41h7.9v2.8h-7.9zM519.8 35.4h7.9v2.8h-7.9zM519.8 29.8h7.9v2.8h-7.9z"/>
    </g>
    <path class="st7" d="M457.3 85.6V32.9c0-2 1.6-3.5 3.5-3.5h52.8c2 0 3.5 1.6 3.5 3.5v52.8c0 2-1.6 3.5-3.5 3.5h-52.8c-1.9 0-3.5-1.6-3.5-3.6z"/>
  </g>
</svg>
