<svg id="Layer_1" xmlns="http://www.w3.org/2000/svg" viewBox="0 0 600 120">
  <style>
    .st0{fill:#EAECED;} .st1{fill:#A6D4E8;} .st2{opacity:0.29;enable-background:new ;} .st3{fill:#231F20;} .st4{fill:#FFC708;} .st5{enable-background:new ;}
  </style>
  <path class="st0" d="M-1.3-.8v121.1h547.4c30.7 0 55.6-8.1 55.6-18.1V17.3c0-10-24.9-18.1-55.6-18.1H-1.3z"/>
  <path class="st1" d="M367.6-.5v121.7h233.2V-.5z"/>
  <path class="st2" d="M527.7 111.3v-6.1h-2v6.1h-1.3V106h-2v5.3h-4.8v-4.6h-2.3v-4.5h-2v4.5h-1.5v-2.6h-.6v-.4h-.9v.4h-.9V103h-.9v1.1h-.7v-1.9h-1v1.9h-.8v4.5h-.9v-4.4h-1v4.4h-.5v6.1h-2.2v5H530v-8.4z"/>
  <path class="st2" d="M554.5 110.8v-6.1h-2v6.1h-1.3v-5.2h-2v2.5h-4.7v1.7h-2.4v-4.9h-2v1.3h-1.4v-2.5h-.6v3.5h-1v-3.5h-.8v-1.2h-1v1.2h-.7v1.9h-.9v-1.9h-.8v4.4h-1v-4.3h-.9v4.3h-.5v6.1h-2.2v5h28.5v-8.4zM471.7 96V85.5h-2.2V96h-1.4v-9.1h-2.2V96h-5.2v-7.9h-2.6v-7.9h-2.2v7.9h-1.6v-4.5h-.6v-.7h-1.1v.7h-.9v-2h-1.1v2h-.7v-3.4h-1.1v3.4h-.8v7.7h-1.1v-7.5h-1v7.5h-.6v10.8h-2.4v8.6h31.3V96z"/>
  <path class="st2" d="M501.2 95.2V84.6H499v10.6h-1.5v-9.1h-2.2v4.4h-5.2v3h-2.6v-8.6h-2.1v2.4h-1.6v-4.5h-.7v6.1h-1v-6.1h-1v-2h-1v2h-.8v3.4h-1v-3.4h-.9v7.7h-1v-7.6h-1.1v7.6h-.5v10.7h-2.4v8.6h31.3V95.2zM571.2 110.8v-6.1h-2v6.1h-1.3v-5.3h-2v5.3h-4.8v-4.6h-2.3v-4.5h-2v4.5h-1.5v-2.6h-.6v-.4h-.9v.4h-.9v-1.1h-.9v1.1h-.7v-1.9h-1v1.9h-.8v4.5h-.9v-4.4h-1v4.4h-.5v6.1h-2.2v5h28.6v-8.4z"/>
  <path class="st2" d="M598 110.3v-6.1h-2v6.1h-1.3v-5.2h-2v2.5H588v1.7h-2.4v-4.9h-2v1.3h-1.4v-2.5h-.6v3.5h-1v-3.5h-.8V102h-1v1.2h-.7v1.9h-.9v-1.9h-.8v4.4h-1v-4.3h-.9v4.3h-.5v6.1h-2.2v5h28.5v-8.4z"/>
  <g>
    <path class="st3" d="M600.7 114.4H544l-5.8 3.9-8.8-1-4.6-2.9H512l-1.9 1.6-5 1.3-2.7-2.9H367.7v5.8h233zM388.6 57.8h15v3.4h-15zM388.6 61.8h15v3.4h-15zM388.6 65.9h15v3.4h-15zM443.4 59.9h33.9v4.7h-33.9z"/>
    <g>
      <path class="st3" d="M368.2 95h18.1v21.6h-18.1zM463.2 107.8h41.2v9.5h-41.2z"/>
      <path class="st3" d="M432.7 100h33.4v16.9h-33.4z"/>
      <path class="st3" d="M459.2 92.5h5.2v10.1h-5.2z"/>
      <path class="st3" d="M460.4 87.8h.5v5.6h-.5zM463 87.3h.5v6.1h-.5z"/>
      <path class="st3" d="M460.6 91h2.8v.5h-2.8zM460.6 88.9h2.8v.5h-2.8z"/>
      <g>
        <path class="st3" d="M452.2 92.5h5.2v10.1h-5.2z"/>
        <path class="st3" d="M453.3 87.8h.5v5.6h-.5zM455.9 87.3h.5v6.1h-.5z"/>
        <path class="st3" d="M453.6 91h2.8v.5h-2.8zM453.6 88.9h2.8v.5h-2.8z"/>
      </g>
      <g>
        <path class="st3" d="M445.1 92.5h5.2v10.1h-5.2z"/>
        <path class="st3" d="M446.3 87.8h.5v5.6h-.5zM448.8 87.3h.5v6.1h-.5z"/>
        <path class="st3" d="M446.5 91h2.8v.5h-2.8zM446.5 88.9h2.8v.5h-2.8z"/>
      </g>
      <g>
        <path class="st3" d="M438 92.5h5.2v10.1H438z"/>
        <path class="st3" d="M439.2 87.8h.5v5.6h-.5zM441.8 87.3h.5v6.1h-.5z"/>
        <path class="st3" d="M439.4 91h2.8v.5h-2.8zM439.4 88.9h2.8v.5h-2.8z"/>
      </g>
      <path class="st3" d="M412.7 69.5h13.4v13h-13.4z"/>
      <path class="st3" d="M385.9 76.9v40H435v-40h-49.1zm28.5 29.6h-3v-3h3v3zm0-4.9h-3v-3h3v3zm0-7.6h-3v-3h3v3zm0-4.9h-3v-3h3v3zm5.4 17.4h-3v-3h3v3zm0-4.9h-3v-3h3v3zm0-7.6h-3v-3h3v3zm0-4.9h-3v-3h3v3zm6.7 17.4h-3v-3h3v3zm0-4.9h-3v-3h3v3zm.4-7.6h-3v-3h3v3zm0-4.9h-3v-3h3v3zm5.1 17.4h-3v-3h3v3zm0-4.9h-3v-3h3v3zm-41.9 4.9h-3v-3h3v3zm0-4.9h-3v-3h3v3zm5.4 4.9h-3v-3h3v3zm0-4.9h-3v-3h3v3zm6.7 4.9h-3v-3h3v3zm0-4.9h-3v-3h3v3zm5.5 4.9h-3v-3h3v3zm0-4.9h-3v-3h3v3zm24.6-7.6h-3v-3h3v3zm0-4.9h-3v-3h3v3z"/>
      <g>
        <path class="st3" d="M416.2 48.4h1.4v22.4h-1.4zM423.2 48.4h1.4v22.4h-1.4z"/>
        <path class="st3" d="M417.2 62.3h6.7v1.4h-6.7z"/>
        <path class="st3" d="M416.6122 63.7862l.9898-.99 6.789 6.7872-.9897.99z"/>
        <path class="st3" d="M416.2912 69.8013l6.7863-6.79.9902.9895-6.7863 6.79zM417.2 55.3h6.7v1.4h-6.7z"/>
        <path class="st3" d="M416.408 56.795l.9896-.9904 6.791 6.7853-.9895.9903z"/>
        <path class="st3" d="M416.3094 62.7937l6.7872-6.789.99.9897-6.787 6.789zM417.1 48.4h6.7v1.4h-6.7z"/>
        <g>
          <path class="st3" d="M416.624 49.7998l.9903-.9895 6.7853 6.791-.9904.9896z"/>
          <path class="st3" d="M416.36 55.882l6.7862-6.791.9904.9895-6.7863 6.791z"/>
        </g>
        <g>
          <path class="st3" d="M416.4 42.3h22.4v1.2h-22.4zM416.4 49.8v-1.2h22.4l-1.4 1.2z"/>
          <path class="st3" d="M423.5 43.2h1.4v5.9h-1.4z"/>
          <path class="st3" d="M423.2 42.5l1 .8-6.5 6.4-1-.9z"/>
          <path class="st3" d="M424.2 48.5l-1 .8-6.8-6 1-.8zM430.4 43.2h1.4v5.9h-1.4z"/>
          <path class="st3" d="M430.2 42.4l.9.9-6.2 6.3-1-.9z"/>
          <path class="st3" d="M431.1 48.4l-.9.9-6.9-6 1-.9zM437.4 43.1h1.4V49h-1.4z"/>
          <g>
            <path class="st3" d="M437.1 42.4l1 .8-6.3 6.5-.9-.9z"/>
            <path class="st3" d="M438.1 48.4l-1 .9-6.8-6.1 1-.8z"/>
          </g>
        </g>
        <g>
          <path class="st3" d="M437.4 43.6l1.4-1.3 21.7 1.1-.7 1.2zM437.4 49.8v-1.2l22.4-1.2v1.2z"/>
          <path class="st3" d="M444.5 43.3h1.4v5.9h-1.4z"/>
          <path class="st3" d="M444.2 42.7l1 .8-6.3 6.1-.9-.9z"/>
          <path class="st3" d="M445.2 48.5l-1 .9-6.8-6 1-.9zM451.5 43.2h1.4v5.6h-1.4zM459.1 43.4h1.4v18.4l-1.4.3z"/>
          <path class="st3" d="M450.2 43.3h1.9l-6.8 6-.9-.8z"/>
          <path class="st3" d="M451.7 48.1l-.9.9-5.8-5.1 1-.8z"/>
          <g>
            <path class="st3" d="M458.7 43.4l1 .9-6.5 4.7-1-.9z"/>
            <path class="st3" d="M459.4 47.7l-.9.8-6.3-4.5.9-.8z"/>
          </g>
        </g>
        <g>
          <path class="st3" d="M417.4 28.5l-.7 14.8 1.3-.2.7-14.6zM422.5 28.5l.9 14.6h1.3l-.9-14.6z"/>
          <path class="st3" d="M417.7 35.1h6.3v1.3h-6.3z"/>
          <path class="st3" d="M417 36.6l1-.9 6 6.4-.9.9z"/>
          <path class="st3" d="M416.8736 42.0935l6.4346-6.4346.9192.919-6.4346 6.4347zM417.4 28.5h6.4v1.3h-6.4z"/>
          <g>
            <path class="st3" d="M417.7 31v-1.8l6.5 6.4-1 .9z"/>
            <path class="st3" d="M417.548 34.8876l5.378-5.371.9186.92-5.3778 5.3708z"/>
          </g>
        </g>
        <g>
          <path class="st3" d="M395.5 42.3h22.4v1.2h-22.4zM395.5 48.6h22.4v1.2h-22.4z"/>
          <path class="st3" d="M402.6 43.2h1.4v5.9h-1.4zM395.5 47.4h1.4v19.5h-1.4z"/>
          <path class="st3" d="M395.5 43.3h1.4v5.9h-1.4z"/>
          <path class="st3" d="M402.3 42.5l1 .8-6.5 6.4-1-.8z"/>
          <path class="st3" d="M403.3 48.5l-1 .8-6.8-6 1-.8zM409.6 43.2h1.4v5.9h-1.4z"/>
          <path class="st3" d="M409.3 42.4l.9.9-6.3 6.4-.9-.8z"/>
          <path class="st3" d="M410.2 48.4l-.9.9-6.8-6 .9-.9zM416.5 43.1h1.4V49h-1.4z"/>
          <g>
            <path class="st3" d="M416.2 42.4l1 .8-6.3 6.5-1-.9z"/>
            <path class="st3" d="M417.2 48.4l-1 .9-6.8-6.1 1-.8z"/>
          </g>
        </g>
      </g>
    </g>
  </g>
  <g>
    <animateTransform accumulate="none" additive="replace" attributeName="transform" calcMode="linear" dur="10s" fill="remove" repeatCount="indefinite" restart="always" type="translate" values="0 0 ; 100 0;"/>
    <path class="st3" d="M389.1 100.4h-6.8l-14.5-10.5h6.8z"/>
    <path class="st4" d="M400 100.4h-10.9l-14.5-10.5h10.8z"/>
    <path class="st3" d="M406.9 100.4h-6.8l-14.6-10.5h6.8z"/>
    <path class="st4" d="M417.7 100.4h-10.8l-14.6-10.5h10.8z"/>
    <path class="st3" d="M424.6 100.4h-6.8l-14.6-10.5h6.8z"/>
    <path class="st4" d="M435.4 100.4h-10.8L410 89.9h10.8z"/>
    <path class="st3" d="M442.3 100.4h-6.8l-14.6-10.5h6.8z"/>
    <path class="st4" d="M453.1 100.4h-10.8l-14.6-10.5h10.9z"/>
    <path class="st3" d="M460 100.4h-6.8l-14.5-10.5h6.8z"/>
    <path class="st4" d="M470.9 100.4H460l-14.5-10.5h10.8z"/>
    <path class="st3" d="M477.8 100.4H471l-14.6-10.5h6.8z"/>
    <path class="st4" d="M488.6 100.4h-10.8l-14.6-10.5H474z"/>
    <path class="st3" d="M495.5 100.4h-6.8l-14.6-10.5h6.8z"/>
    <path class="st4" d="M506.3 100.4h-10.8l-14.6-10.5h10.8z"/>
    <g>
      <path class="st3" d="M513.2 100.4h-6.8l-14.6-10.5h6.8z"/>
      <path class="st4" d="M524 100.4h-10.8l-14.6-10.5h10.9z"/>
    </g>
    <g>
      <path class="st3" d="M530.9 100.4h-6.8l-14.5-10.5h6.8z"/>
      <path class="st4" d="M541.8 100.4h-10.9l-14.5-10.5h10.8z"/>
    </g>
    <g>
      <path class="st3" d="M548.7 100.4h-6.8l-14.6-10.5h6.8z"/>
      <path class="st4" d="M559.5 100.4h-10.8l-14.6-10.5h10.8z"/>
    </g>
    <g>
      <path class="st3" d="M566.4 100.4h-6.8L545 89.9h6.8z"/>
      <path class="st4" d="M577.2 100.4h-10.8l-14.6-10.5h10.8z"/>
    </g>
    <g>
      <path class="st3" d="M584.1 100.4h-6.8l-14.6-10.5h6.8z"/>
      <path class="st4" d="M594.9 100.4h-10.8l-14.6-10.5h10.9z"/>
    </g>
    <g>
      <path class="st3" d="M601.8 100.4H595l-14.5-10.5h6.8z"/>
      <path class="st4" d="M612.7 100.4h-10.9l-14.5-10.5h10.8z"/>
    </g>
    <g>
      <path class="st3" d="M159.4 101.1h-6.8l-14.5-10.5h6.8z"/>
      <path class="st4" d="M170.3 101.1h-10.9l-14.5-10.5h10.8z"/>
      <path class="st3" d="M177.2 101.1h-6.8l-14.6-10.5h6.8z"/>
      <path class="st4" d="M188 101.1h-10.8l-14.6-10.5h10.8z"/>
      <path class="st3" d="M194.9 101.1h-6.8l-14.6-10.5h6.8z"/>
      <path class="st4" d="M205.7 101.1h-10.8l-14.6-10.5h10.8z"/>
      <path class="st3" d="M212.6 101.1h-6.8l-14.6-10.5h6.8z"/>
      <path class="st4" d="M223.4 101.1h-10.8L198 90.6h10.9z"/>
      <path class="st3" d="M230.3 101.1h-6.8L209 90.6h6.8z"/>
      <path class="st4" d="M241.2 101.1h-10.9l-14.5-10.5h10.8z"/>
      <path class="st3" d="M248.1 101.1h-6.8l-14.6-10.5h6.8z"/>
      <path class="st4" d="M258.9 101.1h-10.8l-14.6-10.5h10.8z"/>
      <path class="st3" d="M265.8 101.1H259l-14.6-10.5h6.8z"/>
      <path class="st4" d="M276.6 101.1h-10.8l-14.6-10.5H262z"/>
      <g>
        <path class="st3" d="M283.5 101.1h-6.8l-14.6-10.5h6.8z"/>
        <path class="st4" d="M294.3 101.1h-10.8l-14.6-10.5h10.9z"/>
      </g>
      <g>
        <path class="st3" d="M301.2 101.1h-6.8l-14.5-10.5h6.8z"/>
        <path class="st4" d="M312.1 101.1h-10.9l-14.5-10.5h10.8z"/>
      </g>
      <g>
        <path class="st3" d="M319 101.1h-6.8l-14.6-10.5h6.8z"/>
        <path class="st4" d="M329.8 101.1H319l-14.6-10.5h10.8z"/>
      </g>
      <g>
        <path class="st3" d="M336.7 101.1h-6.8l-14.6-10.5h6.8z"/>
        <path class="st4" d="M347.5 101.1h-10.8l-14.6-10.5h10.8z"/>
      </g>
      <g>
        <path class="st3" d="M354.4 101.1h-6.8L333 90.6h6.8z"/>
        <path class="st4" d="M365.2 101.1h-10.8l-14.6-10.5h10.9z"/>
      </g>
      <g>
        <path class="st3" d="M372.1 101.1h-6.8l-14.5-10.5h6.8z"/>
        <path class="st4" d="M383 101.1h-10.9l-14.5-10.5h10.8z"/>
      </g>
    </g>
  </g>
  <path class="st0" d="M-1.3-.8v121.1h334c18.7 0 33.9-8.1 33.9-18.1V17.3c0-10-15.2-18.1-33.9-18.1h-334z"/>
  <g class="st5">
    <path d="M92.2 73.2c-1 0-1.9-.1-2.6-.4s-1.4-.6-1.9-1.1-.9-1-1.2-1.7c-.3-.7-.5-1.4-.6-2.2s-.2-1.6-.2-2.6v-8.5c0-1 .1-1.9.2-2.7s.3-1.5.6-2.2c.3-.7.7-1.3 1.2-1.7s1.1-.8 1.9-1 1.6-.4 2.6-.4c2.2 0 3.7.6 4.7 1.8.9 1.2 1.4 2.9 1.4 5.2v1.9h-3.2v-1.7-.9-.8s0-.6-.1-.7c0-.2-.1-.4-.2-.6-.1-.2-.1-.4-.2-.5s-.2-.3-.4-.4c-.1-.1-.3-.3-.5-.3-.2-.1-.4-.1-.7-.2s-.5-.1-.8-.1c-.5 0-.9.1-1.2.2-.3.1-.6.3-.9.5-.2.2-.4.5-.5.7-.1.3-.2.6-.3 1-.1.4-.1.8-.1 1.2v10.9c0 1.8.2 3.1.7 3.8.5.7 1.3 1.1 2.4 1.1.4 0 .8 0 1.2-.1s.6-.3.8-.5c.2-.2.4-.5.5-.7s.2-.6.3-1c.1-.4.1-.8.1-1.1V64h3.2v1.8c0 .9-.1 1.7-.2 2.5s-.3 1.4-.6 2c-.3.6-.6 1.2-1.1 1.6s-1 .7-1.7 1-1.6.3-2.6.3zM101.7 73V48.9h3.3V73h-3.3zM113.1 73l-5.4-24.1h3.1l3.8 17.8 3.6-17.8h3.1L116 73h-2.9zM124.1 73V48.9h3.3V73h-3.3zM131.3 73V48.9h3.4v21.7h6.1V73h-9.5zM149.9 73V48.9h9.3v2.5h-6v8h4.9v2.4h-4.9v8.8h6V73h-9.3zM162.1 73V48.9h2.3l6.8 16v-16h2.8V73h-2.2l-6.9-16.5V73h-2.8zM183.5 73.3c-2.2 0-3.8-.7-4.7-2.1-1-1.4-1.5-3.4-1.5-6.1V57c0-1.1.1-2.1.2-2.9.1-.8.3-1.6.6-2.3s.7-1.3 1.2-1.7 1.1-.8 1.8-1 1.6-.4 2.6-.4c2.2 0 3.8.6 4.8 1.7s1.5 2.9 1.5 5.3v.9h-3.2v-.8c0-.7 0-1.2-.1-1.7 0-.4-.1-.9-.2-1.3s-.3-.7-.5-.9-.5-.4-.9-.5-.8-.2-1.4-.2c-.4 0-.8 0-1.1.1s-.6.2-.8.4l-.6.6s-.3.5-.4.8-.2.6-.2 1-.1.8-.1 1.1v10.1c0 1.9.2 3.2.7 4s1.3 1.2 2.6 1.2 2.1-.4 2.6-1.3.7-2.3.7-4.2v-1.7H184V61h6.1v12H188l-.3-2.8c-.6 2-2 3.1-4.2 3.1zM193.9 73V48.9h3.3V73h-3.3zM201.1 73V48.9h2.3l6.8 16v-16h2.8V73h-2.2l-6.9-16.5V73h-2.8zM216.8 73V48.9h9.3v2.5h-6v8h4.9v2.4h-4.9v8.8h6V73h-9.3zM228.9 73V48.9h9.3v2.5h-6v8h4.9v2.4h-4.9v8.8h6V73h-9.3zM241.1 73V48.9h4.8c2.4 0 4.2.5 5.4 1.5 1.1 1 1.7 2.6 1.7 4.9 0 3.1-1 5-3 5.6l3.4 12.1h-3.3L247 61.7h-2.6V73h-3.3zm3.3-13.8h1.3c1.5 0 2.5-.3 3.1-.9.6-.6.9-1.6.9-3.1s-.3-2.5-.8-3.1-1.6-.9-3-.9h-1.5v8zM256.7 73V48.9h3.3V73h-3.3zM263.9 73V48.9h2.3l6.8 16v-16h2.8V73h-2.2l-6.9-16.5V73h-2.8zM285.3 73.3c-2.2 0-3.8-.7-4.7-2.1-1-1.4-1.5-3.4-1.5-6.1V57c0-1.1.1-2.1.2-2.9.1-.8.3-1.6.6-2.3.3-.7.7-1.3 1.2-1.7s1.1-.8 1.8-1c.7-.2 1.6-.4 2.6-.4 2.2 0 3.8.6 4.8 1.7s1.5 2.9 1.5 5.3v.9h-3.2v-.8c0-.7 0-1.2-.1-1.7 0-.4-.1-.9-.2-1.3s-.3-.7-.5-.9-.5-.4-.9-.5-.8-.2-1.4-.2c-.4 0-.8 0-1.1.1s-.6.2-.8.4l-.6.6s-.3.5-.4.8-.2.6-.2 1-.1.8-.1 1.1v10.1c0 1.9.2 3.2.7 4s1.3 1.2 2.6 1.2 2.1-.4 2.6-1.3.7-2.3.7-4.2v-1.7H286V61h6.1v12H290l-.3-2.8c-.8 2-2.2 3.1-4.4 3.1z"/>
  </g>
</svg>
