<svg id="Layer_1" xmlns="http://www.w3.org/2000/svg" viewBox="0 0 600 120">
  <style>
    .st0{fill:#EAECED;} .st1{fill:#FF7373;} .st2{fill:#FFFFFF;} .st3{fill:#CCCCCC;} .st4{fill:#C5D0D9;} .st5{fill:#A8B8C4;} .st6{fill:#E8E7E5;} .st7{fill:#B7D5F0;} .st8{fill:#3F73A1;} .st9{fill:#5D8CB5;} .st10{fill:#7BA4C9;} .st11{fill:#99BDDC;} .st12{fill:#FC8D25;} .st13{fill:#57291E;} .st14{fill:#27557D;} .st15{fill:#FFD7B7;} .st16{fill:#D1A886;} .st17{fill:#FFE7D4;} .st18{fill:#F2CAA9;} .st19{fill:#5A8FBD;} .st20{fill:#6F7478;} .st21{fill:#969DA3;} .st22{fill:#B55C46;} .st23{fill:#3B1911;} .st24{fill:#99780B;}
  </style>
  <path class="st0" d="M-1.3-.8v121.1h547.4c30.7 0 55.6-8.1 55.6-18.1V17.3c0-10-24.9-18.1-55.6-18.1H-1.3z"/>
  <path class="st1" d="M367.6-.5v121.7h233.2V-.5z"/>
  <path d="M58.3 73l.5-24.1h3.3l4.3 19.6 4.3-19.6H74l.3 24.1h-2.7l-.3-17.5-4 17.5h-1.9l-4.1-17.5-.2 17.5h-2.8zM76.7 73l5.1-24.1H85L90.2 73H87l-1.1-6.1H81L79.9 73h-3.2zm4.8-8.5h4l-2-10.9-2 10.9zM92.7 73V48.9H95l6.8 16v-16h2.8V73h-2.2l-6.9-16.5V73h-2.8zM107.1 73l5.1-24.1h3.2l5.1 24.1h-3.2l-1.1-6.1h-4.9l-1.1 6.1h-3.1zm4.7-8.5h4l-2-10.9-2 10.9zM128.7 73.3c-2.2 0-3.8-.7-4.7-2.1-1-1.4-1.5-3.4-1.5-6.1V57c0-1.1.1-2.1.2-2.9.1-.8.3-1.6.6-2.3.3-.7.7-1.3 1.2-1.7s1.1-.8 1.8-1c.7-.2 1.6-.4 2.6-.4 2.2 0 3.8.6 4.8 1.7s1.5 2.9 1.5 5.3v.9H132v-.8c0-.7 0-1.2-.1-1.7 0-.4-.1-.9-.2-1.3s-.3-.7-.5-.9-.5-.4-.9-.5-.8-.2-1.4-.2c-.4 0-.8 0-1.1.1-.3.1-.6.2-.8.4l-.6.6s-.3.5-.4.8-.2.6-.2 1-.1.8-.1 1.1v10.1c0 1.9.2 3.2.7 4 .4.8 1.3 1.2 2.6 1.2s2.1-.4 2.6-1.3.7-2.3.7-4.2v-1.7h-3.1V61h6.1v12h-2.1l-.3-2.8c-.7 2-2.1 3.1-4.2 3.1zM138.9 73V48.9h9.3v2.5h-6v8h4.9v2.4h-4.9v8.8h6V73h-9.3zM150.9 73l.5-24.1h3.3l4.3 19.6 4.3-19.6h3.3l.5 24.1h-2.7l-.4-17.6-4.1 17.6H158l-4.1-17.5-.2 17.5h-2.8zM170.6 73V48.9h9.3v2.5h-6v8h4.9v2.4H174v8.8h6V73h-9.4zM182.8 73V48.9h2.3l6.8 16v-16h2.8V73h-2.2l-6.9-16.5V73h-2.8zM201 73V51.3h-4.4v-2.5h12v2.5h-4.2V73H201zM222.9 73.2c-2 0-3.6-.6-4.6-1.9-1.1-1.3-1.7-3-1.8-5.1l3-.8c.2 3.5 1.4 5.2 3.4 5.2.9 0 1.5-.2 2-.7s.7-1.2.7-2.1c0-.5-.1-1-.2-1.4-.1-.4-.3-.8-.6-1.2-.3-.4-.5-.7-.8-1-.2-.3-.6-.6-1.1-1l-4-3.6c-.8-.7-1.4-1.5-1.8-2.3-.4-.8-.6-1.8-.6-3 0-1.7.5-3.1 1.5-4.1s2.4-1.5 4.2-1.5c1.9 0 3.4.5 4.3 1.5 1 1 1.5 2.6 1.7 4.7l-2.8.8c0-.5-.1-1-.2-1.4l-.3-1.2c-.2-.4-.3-.7-.6-1-.2-.3-.5-.5-.9-.6s-.8-.2-1.3-.2c-1.8.1-2.7 1-2.7 2.6 0 .7.1 1.3.4 1.8.2.5.6 1 1.2 1.5l4.1 3.6c1.1.9 1.9 2 2.5 3.1s.9 2.3.9 3.7c0 1.8-.5 3.2-1.6 4.2-.9.9-2.3 1.4-4 1.4zM237.3 73.2c-1 0-1.9-.1-2.6-.4s-1.4-.6-1.9-1.1-.9-1-1.2-1.7-.5-1.4-.6-2.2-.2-1.6-.2-2.6v-8.5c0-1 .1-1.9.2-2.7.1-.8.3-1.5.6-2.2s.7-1.3 1.2-1.7 1.1-.8 1.9-1 1.6-.4 2.6-.4c2.2 0 3.7.6 4.7 1.8.9 1.2 1.4 2.9 1.4 5.2v1.9h-3.2v-1.7-.9-.8s0-.6-.1-.7-.1-.4-.2-.6c-.1-.2-.1-.4-.2-.5-.1-.1-.2-.3-.4-.4s-.3-.3-.5-.3-.4-.1-.7-.2-.5-.1-.8-.1c-.5 0-.9.1-1.2.2-.3.1-.6.3-.9.5-.2.2-.4.5-.5.7-.1.3-.2.6-.3 1s-.1.8-.1 1.2v10.9c0 1.8.2 3.1.7 3.8.5.7 1.3 1.1 2.4 1.1.4 0 .8 0 1.2-.1.3-.1.6-.3.8-.5s.4-.5.5-.7.2-.6.3-1 .1-.8.1-1.1V64h3.2v1.8c0 .9-.1 1.7-.2 2.5-.1.7-.3 1.4-.6 2s-.6 1.2-1.1 1.6-1 .7-1.7 1c-.8.2-1.7.3-2.6.3zM246.8 73V48.9h3.3V73h-3.3zM254 73V48.9h9.3v2.5h-6v8h4.9v2.4h-4.9v8.8h6V73H254zM266.1 73V48.9h2.3l6.8 16v-16h2.8V73h-2.2l-6.9-16.5V73h-2.8zM287.8 73.2c-1 0-1.9-.1-2.6-.4s-1.4-.6-1.9-1.1-.9-1-1.2-1.7-.5-1.4-.6-2.2-.2-1.6-.2-2.6v-8.5c0-1 .1-1.9.2-2.7s.3-1.5.6-2.2c.3-.7.7-1.3 1.2-1.7s1.1-.8 1.9-1 1.6-.4 2.6-.4c2.2 0 3.7.6 4.7 1.8.9 1.2 1.4 2.9 1.4 5.2v1.9h-3.2v-1.7-.9-.8s0-.6-.1-.7-.1-.4-.2-.6c-.1-.2-.1-.4-.2-.5s-.2-.3-.4-.4-.3-.3-.5-.3-.4-.1-.7-.2-.5-.1-.8-.1c-.5 0-.9.1-1.2.2-.3.1-.6.3-.9.5-.2.2-.4.5-.5.7-.1.3-.2.6-.3 1-.1.4-.1.8-.1 1.2v10.9c0 1.8.2 3.1.7 3.8.5.7 1.3 1.1 2.4 1.1.4 0 .8 0 1.2-.1.3-.1.6-.3.8-.5.2-.2.4-.5.5-.7s.2-.6.3-1c.1-.4.1-.8.1-1.1V64h3.2v1.8c0 .9-.1 1.7-.2 2.5-.1.7-.3 1.4-.6 2-.3.6-.6 1.2-1.1 1.6s-1 .7-1.7 1c-.8.2-1.6.3-2.6.3zM297.1 73V48.9h9.3v2.5h-6v8h4.9v2.4h-4.9v8.8h6V73h-9.3zM314.9 73.2c-2 0-3.6-.6-4.6-1.9-1.1-1.3-1.7-3-1.8-5.1l3-.8c.2 3.5 1.4 5.2 3.4 5.2.9 0 1.5-.2 2-.7s.7-1.2.7-2.1c0-.5-.1-1-.2-1.4s-.3-.8-.6-1.2c-.3-.4-.5-.7-.8-1-.2-.3-.6-.6-1.1-1l-4-3.6c-.8-.7-1.4-1.5-1.8-2.3s-.6-1.8-.6-3c0-1.7.5-3.1 1.5-4.1s2.4-1.5 4.2-1.5c1.9 0 3.4.5 4.3 1.5 1 1 1.5 2.6 1.7 4.7l-2.8.8c0-.5-.1-1-.2-1.4l-.3-1.2c-.2-.4-.3-.7-.6-1s-.5-.5-.9-.6-.8-.2-1.3-.2c-1.8.1-2.7 1-2.7 2.6 0 .7.1 1.3.4 1.8.2.5.6 1 1.2 1.5l4.1 3.6c1.1.9 1.9 2 2.5 3.1s.9 2.3.9 3.7c0 1.8-.5 3.2-1.6 4.2-.9.9-2.2 1.4-4 1.4z"/>
  <g>
    <path class="st2" d="M469.7 16.7h45.5V70h-45.5z"/>
    <path class="st3" d="M473.7 37.6h17.1v.6h-17.1zM473.7 39h17.1v.6h-17.1zM473.7 40.3h17.1v.6h-17.1zM473.7 41.6h17.1v.6h-17.1zM473.7 42.9h17.1v.6h-17.1zM473.7 32.3h17.1v3.2h-17.1z"/>
    <path class="st4" d="M491.4 97.7V70c0-.6.5-1 1-1 .6 0 1 .5 1 1v27.8c0 .6-.5 1-1 1s-1-.5-1-1.1z"/>
    <path class="st4" d="M492.4 15.7h23.7V71h-23.7v-2.1h21.7V17.8h-21.7v-2.1zm-22.7 0h22.7v2.1h-21.7V69h21.7v2h-23.7V15.7h1z"/>
    <path class="st4" d="M469.7 16.7h45.5v8.4h-45.5zM475.1 106.7L486.3 71h2.2l-11.4 36.3c-.5 1.6-2.5 1.2-2-.6zM509.8 106.7L498.6 71h-2.2l11.4 36.3c.4 1.4 2.5.9 2-.6z"/>
    <path class="st4" d="M482 88h20.9v2.1H482z"/>
    <path class="st5" d="M514.1 62.8l-5.1 6.1h5.1z"/>
    <g>
      <path class="st3" d="M493.4 57.8h17.1v.6h-17.1zM493.4 59.1h17.1v.6h-17.1zM493.4 60.4h17.1v.6h-17.1zM493.4 61.7h17.1v.6h-17.1zM493.4 63.1h17.1v.6h-17.1zM493.4 52.4h17.1v3.2h-17.1z"/>
    </g>
    <path class="st6" d="M514.1 62.8l-5.2 6.1c.5-2.1.4-4.3-.9-6.4 2 1.4 4 1.3 6.1.3z"/>
    <g>
      <circle class="st7" cx="481.7" cy="58.4" r="7.3"/>
      <path class="st8" d="M485.7 64.5c1-.7 1.9-1.6 2.5-2.8l-6.5-3.3 4 6.1z"/>
      <path class="st9" d="M488.2 61.8c.5-1 .8-2.1.8-3.3 0-2.3-1.1-4.4-2.8-5.7l-4.5 5.7 6.5 3.3z"/>
      <path class="st10" d="M486.2 52.7c-1.2-1-2.8-1.5-4.5-1.5v7.3l4.5-5.8z"/>
      <path class="st11" d="M481.7 51.2v7.3l-5.2-5.1c1.4-1.4 3.2-2.2 5.2-2.2z"/>
    </g>
    <g>
      <path class="st12" d="M493.4 46.1h17.1v.8h-17.1z"/>
      <path class="st8" d="M507.5 28.5h3v17.6h-3z"/>
      <path class="st9" d="M504 35.2h3v10.9h-3z"/>
      <path class="st10" d="M500.5 38.9h3v7.2h-3z"/>
      <path class="st11" d="M497 35.5h3v10.6h-3z"/>
      <path class="st7" d="M493.4 38.5h3v7.6h-3z"/>
    </g>
  </g>
  <g>
    <g>
      <animateTransform attributeName="transform" attributeType="XML" type="rotate" dur="5s" begin="3s" values="0 440 40; 30 440 50; 0 440 40;" repeatCount="indefinite"/>
      <path class="st2" d="M461.4 45.9l-.8-4.4-1 .2.8 4.3z"/>
      <path class="st2" d="M459.3 41.8l.7 4.4 1.9-.4-.8-4.3z"/>
      <path class="st13" d="M462.1 44.7l-2.5 1.6-.6-.9 2.6-1.6c.2.1.4 0 .5 0v.9z"/>
      <path class="st14" d="M440.2 50.1l-.9-4.7 20.8-3.9.9 4.7-20.8 3.9z"/>
      <g>
        <path class="st15" d="M470.8 40.1c.1.3 0 .6-.3.7l-4.4 1.2c-.3.1-.6-.1-.8-.4-.1-.3 0-.6.3-.7l4.4-1.2c.4-.1.7.1.8.4z"/>
        <path class="st16" d="M460.6 42.3l.7 2.5h2.4c1.3 0 3.7-1.8 4.8-2.5l-1.1-1.6-4.4-.2-2.4 1.8z"/>
        <path class="st13" d="M482.1 30.9l.2.4-22.7 15.1-.6-1z"/>
        <path class="st15" d="M462.7 41.1v.4l.5-.1 3.7-.8c.4-.1.6-.3.7-.6.1-.2.1-.8-.1-.7l-4.2.9c-.3.1-.6.5-.6.9z"/>
        <path class="st17" d="M467.6 39.4c0-.1 0-.1 0 0l-.9.1c.1.4.5.3.8.1.1 0 .1-.1.1-.2z"/>
        <path class="st15" d="M465.8 43.8c0 .3-.2.5-.5.5l-.9-.1c-.3 0-.5-.3-.5-.6s.2-.5.5-.5l.9.1c.3.1.5.3.5.6z"/>
        <path class="st15" d="M467.2 42.9c0 .3-.2.6-.6.5l-.9-.1c-.3 0-.6-.3-.6-.7 0-.3.2-.6.5-.5l.9.1c.5.1.7.4.7.7z"/>
        <path class="st17" d="M466.3 42.8c0 .3-.2.4-.4.4h-.1c-.2 0-.4-.3-.4-.5 0-.3.2-.4.4-.4h.1c.2 0 .4.2.4.5zM464.9 43.7c0 .2-.2.4-.4.4h-.1c-.2 0-.4-.2-.4-.5 0-.2.2-.4.4-.4h.1c.2 0 .4.2.4.5z"/>
        <path class="st15" d="M468.7 41.8c0 .3-.2.6-.6.5l-.9-.1c-.3 0-.6-.3-.6-.7 0-.3.2-.6.6-.5l.9.1c.4.1.6.4.6.7z"/>
        <path class="st17" d="M467.8 41.7c0 .3-.2.4-.4.4h-.1c-.2 0-.4-.3-.4-.5 0-.3.2-.4.4-.4h.1c.2 0 .4.3.4.5z"/>
        <path class="st15" d="M460.6 42.3l.5 1.8c1.3-.3 3.6-1.3 3.3-2.9 0-.2-.1-.5-.1-.6l-1.1-.1-2.6 1.8z"/>
      </g>
    </g>
    <path class="st13" d="M430.8 100.2c-.3.5-.6 2.2-.6 3 .1.9.1.9.5 1.2.4.3.6.3.6.1.1-.2 1 .8 1.4 1.1.4.3 1.4.9 2.7 1 1.2 0 2.3-.2 2.3-1s-.4-1.2-1.3-1.9c-.9-.8-1.8-2.2-2.1-2.9-.3-.7-1.1-.5-1.5-.3s-.8 1.4-1.3 1c-.5-.5-.6-1.6-.7-1.3zM437.7 100.2c-.4.5-.7 2.1-.6 2.9s.1.9.6 1.1.6.3.7.1c.1-.2 1.1.8 1.6 1.1.5.3 1.6.9 3.1.9 1.4 0 2.7-.2 2.7-.9 0-.8-.4-1.1-1.5-1.8-1-.7-2.1-2.1-2.4-2.8-.3-.6-1.3-.5-1.8-.3s-.9 1.4-1.5 1c-.6-.5-.7-1.5-.9-1.3z"/>
    <path class="st14" d="M431 70.2h4c.6 0 1 .5 1 1v29.7c0 .6-.5 1-1 1h-4c-.6 0-1-.5-1-1V71.2c0-.6.4-1 1-1zM437.9 63.7h4c.6 0 1 .5 1 1v36.2c0 .6-.5 1-1 1h-4c-.6 0-1-.5-1-1V64.7c0-.6.4-1 1-1z"/>
    <path class="st18" d="M422.0106 70.9525l1.5718-3.3496 2.4443 1.147-1.5718 3.3495z"/>
    <path class="st18" d="M425.5 69.3l-2.4-.5-.4 1.9-1.2 1.9c1 .5 2.9-.1 2.7 1.4l1.3-4.7z"/>
    <path class="st18" d="M421 73.3l1.6-3.6c.1-.3.5-.4.8-.2h.1l.1-.3c.1-.3.5-.4.8-.3.2.1.3.3.3.5.1 0 .3 0 .4.1.3.2.4.5.3.9l-2.1 3.8-.6 1.7c-.2.3-.5.4-.8.3-.3-.1-.3-.7-.2-1 0-.2-1-1.1-.7-1.9z"/>
    <path class="st18" d="M422 78.2c-.2 0-.4-.3-.4-.5l.7-3.7.8.5-.7 3.3c.1.3-.2.5-.4.4zM424.5 75.7c-.3 0-.4-.3-.4-.5l.1-1.4c0-.5-.4-.4-.7.1l-.8-3 1.5-1 .6 1.3c.4.1.5.8.5 1.2l-.3 3c0 .2-.3.4-.5.3z"/>
    <path class="st18" d="M422 77.5c-.2 0-.5-.1-.5-.4l-.3-3.7.9.3.3 3.4c.1.1-.1.3-.4.4z"/>
    <path class="st18" d="M422.7 77.5c-.2.1-.5 0-.6-.2L421 74l1 .5 1 2.5c0 .2-.1.4-.3.5z"/>
    <path class="st2" d="M421.3 71.4l4.2 1.1.3-1-4.3-1z"/>
    <path class="st14" d="M430.9 51.2L428 48c-1.3 1-2.1 3.1-2.3 4l-4.5 18.7 4.7 1.1 5-20.6z"/>
    <path class="st8" d="M443.5 69.7c-3.9 2.7-9.4 4.6-14.1 3.2l-.8-16.5c-.1-2.6-2.7-5.6-2.1-6.9 1.2-2.4 6.1-4 7.8-5.4.7.6 1.4.9 2.1.9s1.5-.3 2.1-.9c1.2 1 2.9.8 3.8.6-.6 3.1 1.7 3.6 1.7 4.7l-.5 20.3z"/>
    <path class="st2" d="M432.4 45.5l.4 4.2 3.7 9.3 3.6-9.3.5-4.2-1.8-1.1h-4.7z"/>
    <path class="st14" d="M433 45.1l3.5 14-4.9-7.7.7-1.4-1.4-1.1 1.5-3.4z"/>
    <path class="st12" d="M435.9 50.3h1.2l.6 5.9-1.2 2.9-1.2-2.9z"/>
    <path class="st8" d="M433 45.1l3.5 14-4.4-8.4.7-1-1.4-1.1 1-3.1z"/>
    <path class="st14" d="M439.9 45.1l-3.4 14 4.8-7.7-.6-1.4 1.3-1.1-1.4-3.4z"/>
    <path class="st8" d="M439.9 45.1l-3.4 14 4.3-8.4-.7-1 1.4-1.1-.9-3.1z"/>
    <path class="st14" d="M436.6 73.2c-.5-4.4-.5-10.3-.1-15.4.4 5.1.5 11 .1 15.4z"/>
    <path class="st16" d="M434.1 42.9h4.7v3.8h-4.7z"/>
    <path class="st12" d="M437.1 49l.3-.5-.9-2.1-.8 2.1.3.6c.3-.1.7-.1 1.1-.1z"/>
    <path class="st3" d="M434.1 44.4l2.4 2-1.3 3.5-2.2-4.8zM438.8 44.4l-2.3 2 1.3 3.5 2.1-4.8z"/>
    <path class="st2" d="M434.1 44.4l2.4 2-1.4 2.6-2.1-3.9zM438.8 44.4l-2.3 2 1.3 2.6 2.1-3.9z"/>
    <path class="st12" d="M435.9 48.9h1.2c.3.5.2 1 0 1.5h-1.2c-.2-.5-.3-.9 0-1.5z"/>
    <path class="st18" d="M438.5 44.7c4.9-1.3 4.2-15.4-3.7-13-7.3 2.2-1.2 14.3 3.7 13z"/>
    <path class="st13" d="M441 35c-.5 1-4.4 2.8-6.1 3-1.7.1-.1-6.4 6.1-3z"/>
    <path class="st13" d="M433.7 31.9c-3.3 1.9-3.5 8.2.5 11-.7-.8-.8-1.9-.4-3.6.3.2 1.2 1.4 1-.7-.3-4 2.7-4.3 6.1-3.3-.1-3.5-4.6-4.9-7.2-3.4z"/>
    <ellipse transform="rotate(-6.28 433.32 38.46)" class="st18" cx="433.3" cy="38.6" rx=".9" ry="1.7"/>
  </g>
  <g>
    <g>
      <animateTransform attributeName="transform" attributeType="XML" type="rotate" dur="5s" values="0 529 53; -30 535 53; 0 529 53;" repeatCount="indefinite"/>
      <path class="st15" d="M513.3 44.5c-.2.1-.3.4-.1.6l2.5 2.8c.2.2.5.2.7.1.2-.1.3-.4.1-.6l-2.5-2.8c-.2-.2-.5-.3-.7-.1z"/>
      <path class="st16" d="M519.2 50.6l-1.7 1.3-1.7-1.1c-.9-.6-1.7-2.9-2.1-3.9l1.5-.5 3.1 1.8.9 2.4z"/>
      <path class="st13" d="M510 33.4l-.3.1 8.3 20.2.9-.3z"/>
      <path class="st15" d="M518.4 48.8l-.2.3-.3-.3-2.2-2.2c-.2-.2-.3-.5-.2-.7s.3-.5.4-.4l2.4 2.5c.3.2.3.6.1.8z"/>
      <path class="st17" d="M515.8 45.5c0-.1.1 0 0 0l.6.5c-.2.2-.5 0-.7-.3 0-.1.1-.1.1-.2z"/>
      <path class="st15" d="M515 49.2c-.1.2-.1.4.1.5l.7.3c.2.1.5 0 .6-.2.1-.2.1-.4-.1-.5l-.7-.3c-.2-.1-.5 0-.6.2zM514.4 47.9c-.2.2-.1.5.1.6l.7.3c.2.1.5 0 .7-.2.2-.2.1-.5-.1-.6l-.7-.3c-.2-.1-.5 0-.7.2z"/>
      <path class="st17" d="M515.1 48.3c-.1.2-.1.4.1.5h.1c.2.1.4 0 .6-.1.1-.2.1-.4-.1-.5h-.1c-.2-.2-.5-.1-.6.1zM515.6 49.5c-.1.2-.1.3.1.4h.1c.2.1.4 0 .5-.1.1-.2.1-.3-.1-.4h-.1c-.1-.1-.4-.1-.5.1z"/>
      <path class="st15" d="M513.9 46.6c-.2.2-.1.5.1.6l.7.3c.2.1.6 0 .7-.2.2-.2.1-.5-.1-.6l-.7-.3c-.2-.1-.6 0-.7.2z"/>
      <path class="st17" d="M514.6 46.9c-.1.2-.1.4.1.5h.1c.2.1.4 0 .6-.1.1-.2.1-.4-.1-.5h-.1c-.2-.1-.5-.1-.6.1z"/>
      <path class="st15" d="M519.2 50.6l-1.2.9c-.8-.8-1.8-2.5-.8-3.4l.4-.4.8.5.8 2.4z"/>
      <path class="st14" d="M534.2 49.8l-3.3-2.1-6.5 6.2-4.2-3.9-2.8 2.6 5.4 5.4c1.2 1.2 2.3.3 2.8-.1.7-.6 8.6-8.1 8.6-8.1z"/>
      <path class="st2" d="M521 51.2l-2.5 2.2-1.3-1.3 2.4-2.3z"/>
      <path class="st13" d="M517.1 51.5l.9 2.2.9-.3-1-2.2c-.2 0-.3-.1-.3-.2l-.5.5z"/>
    </g>
    <path class="st13" d="M532 41.2c1.4 6.3 4.2 17.6 6.4 17.6 2.1 0 6.3-12.1 7.1-16.8.7-4-.6-11.9-9.6-9.3-3-.2-5.1 3-3.9 8.5z"/>
    <path class="st18" d="M553.1 70.6l-2.2 1-1.4-2.9 2.2-1z"/>
    <path class="st18" d="M550 69.2l2.2-.5.4 1.7 1.1 1.6c-.9.4-2.6-.1-2.5 1.2l-1.2-4z"/>
    <path class="st18" d="M554.1 72.7l-1.5-3.1c-.1-.2-.4-.3-.7-.2h-.1l-.1-.3c-.1-.3-.5-.4-.7-.2-.2.1-.3.3-.3.4h-.4c-.3.1-.4.5-.3.7l1.9 3.3.5 1.5c.1.3.5.4.8.2.3-.1.3-.6.1-.8.2-.1 1.1-.9.8-1.5z"/>
    <path class="st18" d="M553.2 76.9c.2 0 .4-.2.3-.4l-.7-3.2-.7.5.6 2.9c.1.1.3.2.5.2zM551 74.8c.2 0 .4-.2.4-.4l-.1-1.2c0-.5.4-.4.7.1l.7-2.6-1.4-.9-.5 1.1c-.4.1-.5.7-.4 1l.3 2.6c-.2.1 0 .3.3.3z"/>
    <path class="st18" d="M553.2 76.3c.2 0 .4-.1.4-.3l.3-3.2-.9.3-.3 2.9c.1.1.3.2.5.3z"/>
    <path class="st18" d="M552.6 76.3c.2.1.4 0 .5-.2l1.1-2.9-.9.5-.9 2.1c-.1.2 0 .4.2.5z"/>
    <path class="st2" d="M553.5 71.2l-3.4.7-.2-.8 3.4-.8z"/>
    <path class="st14" d="M541.8 48.7l4-.9s7.4 20.9 7.8 22.5l-4 .9-7.8-22.5z"/>
    <path class="st18" d="M543.9 70.2h-4.1c-.6 0-1 .4-1 1 .2 5.6-.1 10.2.8 15.9.4 2.7.2 6.1.5 10 .2 2.1-.5 2.9-.4 3.3.2.5 2.4 3.6 4.1 3.2l2.1-.5c.5-.1-2.3-2.6-2.4-3.1-1.2-4.9-.3-8.7.2-13.4.5-4.9 1.1-10.5 1.1-15.4.1-.6-.3-1-.9-1z"/>
    <path class="st13" d="M540 99.2c-.6.5-1.1 2-1.1 2.8.1.8.1.9.6 1.1s.7.3.8.1c.1-.2 1.2.7 1.7 1s1.2.7 2.6 1.1c.8.2 2 .3 2.5-.3 1.3-1.3-1.5-2.7-2.6-4.1.6 1 2.1 2 .4 2-3 .1-4.9-1.7-4.9-3.7z"/>
    <path class="st18" d="M533 70.2h4.1c.6 0 1 .4 1 1-.2 5.6.1 10.2-.8 15.9-.4 2.7-.2 6.1-.5 10-.2 2.1.5 2.9.4 3.3-.2.5-2.4 3.6-4.1 3.2l-2.1-.6c-.5-.1 2.3-2.6 2.4-3.1 1.2-4.9.3-8.7-.2-13.4-.5-4.9-1.1-10.5-1.1-15.4-.1-.5.3-.9.9-.9z"/>
    <path class="st13" d="M536.9 99.2c.6.5 1.1 2 1.1 2.8-.1.8-.1.9-.6 1.1s-.7.3-.8.1c-.1-.2-1.2.7-1.7 1s-1.2.7-2.6 1.1c-.8.2-2 .3-2.5-.3-1.3-1.3 1.5-2.7 2.6-4.1-.6 1-2.1 2-.4 2 3 .1 4.9-1.7 4.9-3.7z"/>
    <path class="st14" d="M544.1 62.7c1 2.2 3.3 9.3.8 18.8-.6.6-12.6.6-13 0-2.3-9.2-.2-16.8.8-18.8h11.4z"/>
    <path class="st8" d="M545.7 67c-.2-1-.5-1.9-.9-2.7-1.7-4-1.2-4.5.3-8 1.4-3.1-1.4-4.7.6-8.5-1.8-1.1-4.1-1.5-5.6-2.6-.7.6-1.1.7-1.9.7-.8 0-1.3-.1-1.9-.7-1 .8-3.7 1.5-5.6 2.6 1.9 3.9-.7 4.5.6 8.5 1.1 3.4 3 3.2.5 7.8-.4.8-.7 1.8-1 2.8 3.6 2.5 12.2 2.1 14.9.1z"/>
    <path class="st2" d="M541.9 46l.2 4.3-3.7 9-3.7-9 .2-4.4 1.6-.8h3.8z"/>
    <path class="st16" d="M536.5 43.6h3.8v3.7h-3.8z"/>
    <path class="st18" d="M538.4 45.8c-1.9 0-3.6-2-4.5-4.5-.1.1-.1.1-.2.1-.4.1-.8-.6-1-1.5s0-1.6.4-1.7h.1c-.2-3.1 1.2-5.9 5.2-5.9s5.4 2.9 5.2 5.9h.1c.4.1.6.8.4 1.7-.2.9-.6 1.5-1 1.5-.1 0-.2-.1-.2-.1-.9 2.5-2.6 4.5-4.5 4.5z"/>
    <path class="st12" d="M537.8 49.6l-.3-.5.9-2 .9 2-.3.6c-.4-.1-.8-.1-1.2-.1z"/>
    <path class="st3" d="M540.3 45.1l-1.9 1.9 1.3 3.5 1.7-4.7z"/>
    <path class="st14" d="M541.4 45.7l-3 13.7 4.9-7.5-.6-1.3 1.4-1.1-1.9-3.4z"/>
    <path class="st3" d="M536.5 45.1l1.9 1.9-1.4 3.5-1.7-4.7z"/>
    <path class="st12" d="M539 50.9h-1.2l-.7 5.7 1.3 2.8 1.2-2.8z"/>
    <path class="st2" d="M540.3 45.1l-1.9 1.9 1.4 2.6 1.6-3.8z"/>
    <path class="st8" d="M541.4 45.7l-3 13.7 4.5-8.1-.8-1 1.4-1.1-1.3-3.1z"/>
    <path class="st14" d="M535.3 45.7l3.1 13.7-5-7.5.7-1.3-1.4-1.1 1.5-3.3z"/>
    <path class="st8" d="M535.3 45.7l3.1 13.7-4.5-8.1.8-1-1.5-1.1 1-3z"/>
    <path class="st2" d="M536.5 45.1l1.9 1.9-1.4 2.6-1.7-3.8z"/>
    <path class="st12" d="M539 49.5h-1.2c-.3.5-.3 1 0 1.5h1.2c.2-.5.2-1 0-1.5z"/>
    <path class="st14" d="M538.3 68.7c.4-4.2.4-4.7 0-9.5-.3 4.9-.4 5.3 0 9.5z"/>
    <path class="st18" d="M533.1 38.7c-.4.1-.5.7-.3 1.4s.6 1.2 1 1.2c.4-.1.5-.7.3-1.4s-.6-1.2-1-1.2z"/>
    <path class="st13" d="M533.1 38.2c-.2-3.1 1.2-5.9 5.3-5.9s5.5 2.9 5.3 5.9c-.3.1-.7.6-.8 1.4-.3.2-.5.1-.5-.6 0-1.8-.2-3.5-1.5-3.9-1.2-.4-1.5.4-2.5.4-.9 0-1.2-.8-2.5-.4-1.3.3-1.5 2-1.5 3.9 0 .6-.2.7-.4.6-.2-.8-.5-1.4-.9-1.4z"/>
    <path class="st13" d="M534.7 33.3c-.3 1.7 2.6 5.5 4.7 6.4-1.3-.7-2.2-3.3-1.9-5.2.1-.5-3.1-.9-2.8-1.2z"/>
    <path class="st13" d="M536.1 33.5c.2 1.7 6.4 7.1 8.7 7.4.7-8.9-5.1-5.2-5.7-7-.1-.4-3.2 0-3-.4z"/>
    <path class="st13" d="M537.5 32.4c.1 1.7-2.9 8-5 8.7-.8-6.4.9-7.2 2.1-7.7.5-.2 3.1-.6 2.9-1z"/>
  </g>
  <g>
    <path class="st8" d="M455.7 105c2.3-.6 5.6-1.9 6 0 .5 2.2 1.1 7.5 1.8 12.7.1 1.1-1.3 1.7-1.6 1.8-1.6.5-2.9.6-4.7.9l-1.5-15.4zM448.6 105c-2.9-.7-5.3-2.3-5.8 0-.5 2.4-1.1 7.7-1.7 12.6-.2 1.3 1.2 1.8 1.6 1.9 1.5.4 2.8.6 4.5.8l1.4-15.3c.1 0 0 0 0 0z"/>
    <path class="st14" d="M446.4 120l-.1.2c3.6.5 8.1.5 11.7 0 0-.1-.1-.1-.1-.2h-11.5z"/>
    <path class="st16" d="M450.2 99.7h3.8v3.9h-3.8z"/>
    <path class="st19" d="M444.9 120c.8-2.3-1-13.1-2-15.1.6-2 5.8-1.8 7.2-3 .3.3 3.6.3 3.9 0 1.1.9 6.7.9 7.6 2.9-1.1 2.3-3 13.1-2.2 15.2-3.6.7-10.8.8-14.5 0z"/>
    <path class="st16" d="M449.8 99.6h4.8v2.5c-1.6.7-4 .4-4.8 0v-2.5z"/>
    <path class="st13" d="M452.2 101.9c4.6 0 7.4-8.5 4.2-12.4-1.6-1.9-5.4-2.4-6.6-.9-5.6 1.7-2.9 13.3 2.4 13.3z"/>
    <path class="st8" d="M455.1 101.9c.5.3 1.1.7 1.1.7-1.9 2-6.7 1.4-8.1.1l1.1-.9c1.2.8 3.7 1.6 5.9.1z"/>
    <path class="st2" d="M449.7 101.5c.8.9 4.3.9 4.9.1 0 0 .2.2.5.3-2.2 1.5-4.7.7-5.8 0l.4-.4z"/>
    <g>
      <path class="st20" d="M479.1 105c2.3-.6 5.6-1.9 6 0 .5 2.2 1.1 7.5 1.8 12.7.1 1.1-1.3 1.7-1.6 1.8-1.6.5-2.9.6-4.7.9l-1.5-15.4zM472 105c-2.9-.7-5.3-2.3-5.8 0-.5 2.4-1.1 7.7-1.7 12.6-.2 1.3 1.2 1.8 1.6 1.9 1.5.4 2.8.6 4.5.8L472 105z"/>
      <path class="st14" d="M469.7 120l-.1.2c3.6.5 8.1.5 11.7 0 0-.1-.1-.1-.1-.2h-11.5z"/>
      <path class="st16" d="M473.6 99.7h3.8v3.9h-3.8z"/>
      <path class="st21" d="M468.3 120c.8-2.3-1-13.1-2-15.1.6-2 5.8-1.8 7.2-3 .3.3 3.6.3 3.9 0 1.1.9 6.7.9 7.6 2.9-1.1 2.3-3 13.1-2.2 15.2-3.6.7-10.8.8-14.5 0z"/>
      <path class="st16" d="M473.1 99.6h4.8v2.5c-1.6.7-4 .4-4.8 0v-2.5z"/>
      <path class="st22" d="M475.6 101.9c4.6 0 7.4-8.5 4.2-12.4-1.6-1.9-5.4-2.4-6.6-.9-5.6 1.7-2.9 13.3 2.4 13.3z"/>
      <path class="st20" d="M478.5 101.9c.5.3 1.1.7 1.1.7-1.9 2-6.7 1.4-8.1.1l1.1-.9c1.1.8 3.6 1.6 5.9.1z"/>
      <path class="st2" d="M473.1 101.5c.8.9 4.3.9 4.9.1 0 0 .2.2.5.3-2.2 1.5-4.7.7-5.8 0l.4-.4z"/>
    </g>
    <g>
      <path class="st14" d="M502.4 105c2.3-.6 5.6-1.9 6 0 .5 2.2 1.1 7.5 1.8 12.7.1 1.1-1.3 1.7-1.6 1.8-1.6.5-2.9.6-4.7.9l-1.5-15.4zM495.4 105c-2.9-.7-5.3-2.3-5.8 0-.5 2.4-1.1 7.7-1.7 12.6-.2 1.3 1.2 1.8 1.6 1.9 1.5.4 2.8.6 4.5.8l1.4-15.3z"/>
      <path class="st14" d="M493.1 120l-.1.2c3.6.5 8.1.5 11.7 0 0-.1-.1-.1-.1-.2h-11.5z"/>
      <path class="st16" d="M497 99.7h3.8v3.9H497z"/>
      <path class="st8" d="M491.7 120c.8-2.3-1-13.1-2-15.1.6-2 5.8-1.8 7.2-3 .3.3 3.6.3 3.9 0 1.1.9 6.7.9 7.6 2.9-1.1 2.3-3 13.1-2.2 15.2-3.6.7-10.8.8-14.5 0z"/>
      <path class="st16" d="M496.5 99.6h4.8v2.5c-1.6.7-4 .4-4.8 0v-2.5z"/>
      <path class="st23" d="M498.9 101.9c4.6 0 7.4-8.5 4.2-12.4-1.6-1.9-5.4-2.4-6.6-.9-5.5 1.7-2.8 13.3 2.4 13.3z"/>
      <path class="st14" d="M501.8 101.9c.5.3 1.1.7 1.1.7-1.9 2-6.7 1.4-8.1.1l1.1-.9c1.2.8 3.7 1.6 5.9.1z"/>
      <path class="st2" d="M496.5 101.5c.8.9 4.3.9 4.9.1 0 0 .2.2.5.3-2.2 1.5-4.7.7-5.8 0l.4-.4z"/>
    </g>
    <g>
      <path class="st14" d="M525.8 105c2.3-.6 5.6-1.9 6 0 .5 2.2 1.1 7.5 1.8 12.7.1 1.1-1.3 1.7-1.6 1.8-1.6.5-2.9.6-4.7.9l-1.5-15.4zM518.8 105c-2.9-.7-5.3-2.3-5.8 0-.5 2.4-1.1 7.7-1.7 12.6-.2 1.3 1.2 1.8 1.6 1.9 1.5.4 2.8.6 4.5.8l1.4-15.3z"/>
      <path class="st14" d="M516.5 120l-.1.2c3.6.5 8.1.5 11.7 0 0-.1-.1-.1-.1-.2h-11.5z"/>
      <path class="st16" d="M520.4 99.7h3.8v3.9h-3.8z"/>
      <path class="st8" d="M515 120c.8-2.3-1-13.1-2-15.1.6-2 5.8-1.8 7.2-3 .3.3 3.6.3 3.9 0 1.1.9 6.7.9 7.6 2.9-1.1 2.3-3 13.1-2.2 15.2-3.5.7-10.8.8-14.5 0z"/>
      <path class="st16" d="M519.9 99.6h4.8v2.5c-1.6.7-4 .4-4.8 0v-2.5z"/>
      <path class="st24" d="M522.3 101.9c4.6 0 7.4-8.5 4.2-12.4-1.6-1.9-5.4-2.4-6.6-.9-5.5 1.7-2.8 13.3 2.4 13.3z"/>
      <path class="st14" d="M525.2 101.9c.5.3 1.1.7 1.1.7-1.9 2-6.7 1.4-8.1.1l1.1-.9c1.2.8 3.7 1.6 5.9.1z"/>
      <path class="st2" d="M519.9 101.5c.8.9 4.3.9 4.9.1 0 0 .2.2.5.3-2.2 1.5-4.7.7-5.8 0l.4-.4z"/>
    </g>
  </g>
</svg>
