<svg id="Layer_1" xmlns="http://www.w3.org/2000/svg" viewBox="0 0 600 120">
  <style>
    .st0{fill:#EAECED;} .st1{fill:#FFE471;} .st2{enable-background:new ;} .st3{opacity:0.42;} .st4{fill:url(#XMLID_2_);} .st5{fill:url(#XMLID_3_);} .st6{fill:url(#XMLID_4_);} .st7{fill:url(#XMLID_5_);} .st8{fill:url(#XMLID_6_);} .st9{fill:url(#XMLID_8_);} .st10{fill:#F7CFA3;} .st11{fill:#E3BC94;} .st12{fill:#F0F0F0;} .st13{fill:#666666;} .st14{fill:#5E5E5E;} .st15{fill:#F7F7F7;} .st16{fill:#333333;} .st17{opacity:0.94;} .st18{fill:#F7941D;}
  </style>
  <path class="st0" d="M-1.3-.8v121.1h547.4c30.7 0 55.6-8.1 55.6-18.1V17.3c0-10-24.9-18.1-55.6-18.1H-1.3z"/>
  <path class="st1" d="M367.6-.5v121.7h233.2V-.5z"/>
  <g class="st2">
    <path d="M21.4 57V32.9h9.3v2.5h-6v8h4.9v2.4h-4.9v8.8h6V57h-9.3zM33.6 57V32.9H37v21.7h6.1V57h-9.5zM45.4 57V32.9h9.3v2.5h-6v8h4.9v2.4h-4.9v8.8h6V57h-9.3zM63.5 57.2c-1 0-1.9-.1-2.6-.4s-1.4-.6-1.9-1.1c-.5-.5-.9-1-1.2-1.7-.3-.7-.5-1.4-.6-2.2s-.2-1.6-.2-2.6v-8.5c0-1 .1-1.9.2-2.7.1-.8.3-1.5.6-2.2.3-.7.7-1.3 1.2-1.7.5-.4 1.1-.8 1.9-1s1.6-.4 2.6-.4c2.2 0 3.7.6 4.7 1.8.9 1.2 1.4 2.9 1.4 5.2v1.9h-3.2v-1.7-.9-.8c0-.3 0-.6-.1-.7 0-.2-.1-.4-.2-.6-.1-.2-.1-.4-.2-.5-.1-.1-.2-.3-.4-.4-.1-.1-.3-.3-.5-.3-.2-.1-.4-.1-.7-.2s-.5-.1-.8-.1c-.5 0-.9.1-1.2.2-.3.1-.6.3-.9.5-.2.2-.4.5-.5.7-.1.3-.2.6-.3 1-.1.4-.1.8-.1 1.2v10.9c0 1.8.2 3.1.7 3.8.5.7 1.3 1.1 2.4 1.1.4 0 .8 0 1.2-.1s.6-.3.8-.5c.2-.2.4-.5.5-.7s.2-.6.3-1c.1-.4.1-.8.1-1.1V48h3.2v1.8c0 .9-.1 1.7-.2 2.5s-.3 1.4-.6 2c-.3.6-.6 1.2-1.1 1.6-.5.4-1 .7-1.7 1s-1.6.3-2.6.3zM75.3 57V35.3h-4.4v-2.5h12v2.5h-4.2V57h-3.4zM84.7 57V32.9h4.8c2.4 0 4.2.5 5.4 1.5 1.1 1 1.7 2.6 1.7 4.9 0 3.1-1 5-3 5.6L97.1 57h-3.3l-3.2-11.3H88V57h-3.3zm3.4-13.8h1.3c1.5 0 2.5-.3 3.1-.9.6-.6.9-1.6.9-3.1s-.3-2.5-.8-3.1c-.5-.6-1.6-.9-3-.9h-1.5v8zM100.4 57V32.9h3.3V57h-3.3zM113.6 57.2c-1 0-1.9-.1-2.6-.4s-1.4-.6-1.9-1.1c-.5-.5-.9-1-1.2-1.7-.3-.7-.5-1.4-.6-2.2s-.2-1.6-.2-2.6v-8.5c0-1 .1-1.9.2-2.7.1-.8.3-1.5.6-2.2.3-.7.7-1.3 1.2-1.7.5-.4 1.1-.8 1.9-1s1.6-.4 2.6-.4c2.2 0 3.7.6 4.7 1.8.9 1.2 1.4 2.9 1.4 5.2v1.9h-3.2v-1.7-.9-.8c0-.3 0-.6-.1-.7 0-.2-.1-.4-.2-.6-.1-.2-.1-.4-.2-.5-.1-.1-.2-.3-.4-.4-.1-.1-.3-.3-.5-.3-.2-.1-.4-.1-.7-.2s-.5-.1-.8-.1c-.5 0-.9.1-1.2.2-.3.1-.6.3-.9.5-.2.2-.4.5-.5.7-.1.3-.2.6-.3 1-.1.4-.1.8-.1 1.2v10.9c0 1.8.2 3.1.7 3.8.5.7 1.3 1.1 2.4 1.1.4 0 .8 0 1.2-.1s.6-.3.8-.5c.2-.2.4-.5.5-.7s.2-.6.3-1c.1-.4.1-.8.1-1.1V48h3.2v1.8c0 .9-.1 1.7-.2 2.5s-.3 1.4-.6 2c-.3.6-.6 1.2-1.1 1.6-.5.4-1 .7-1.7 1s-1.7.3-2.6.3zM121.6 57l5.1-24.1h3.2L135 57h-3.2l-1.1-6.1h-4.9l-1.1 6.1h-3.1zm4.7-8.5h4l-2-10.9-2 10.9zM137.5 57V32.9h3.4v21.7h6.1V57h-9.5zM154.8 57l5.1-24.1h3.2l5.1 24.1H165l-1.1-6.1H159l-1 6.1h-3.2zm4.8-8.5h4l-2-10.9-2 10.9zM170.8 57V32.9h2.3l6.8 16v-16h2.8V57h-2.2l-6.9-16.5V57h-2.8zM186.5 57V32.9h5.2c2.6 0 4.4.6 5.5 1.8 1.1 1.2 1.6 3 1.6 5.6v8.9c0 2.6-.5 4.6-1.6 5.9-1.1 1.3-2.8 2-5.3 2h-5.4zm3.4-2.5h1.9c.5 0 1-.1 1.4-.2.4-.1.7-.2 1-.4.3-.1.5-.4.7-.7.2-.3.3-.6.4-.9.1-.3.2-.6.2-1.2s.1-1 .1-1.3v-9.4-1.5s-.1-.8-.1-1.2-.1-.7-.3-1-.3-.5-.5-.7-.4-.4-.7-.5c-.3-.1-.6-.2-1-.3-.4-.1-.8-.1-1.3-.1h-1.8v19.4zM209 57V32.9h9.3v2.5h-6v8h4.9v2.4h-4.9v8.8h6V57H209zM221.1 57V32.9h3.4v21.7h6.1V57h-9.5zM232.9 57V32.9h9.3v2.5h-6v8h4.9v2.4h-4.9v8.8h6V57h-9.3zM251.1 57.2c-1 0-1.9-.1-2.6-.4s-1.4-.6-1.9-1.1c-.5-.5-.9-1-1.2-1.7-.3-.7-.5-1.4-.6-2.2s-.2-1.6-.2-2.6v-8.5c0-1 .1-1.9.2-2.7.1-.8.3-1.5.6-2.2.3-.7.7-1.3 1.2-1.7.5-.4 1.1-.8 1.9-1s1.6-.4 2.6-.4c2.2 0 3.7.6 4.7 1.8.9 1.2 1.4 2.9 1.4 5.2v1.9H254v-1.7-.9-.8c0-.3 0-.6-.1-.7 0-.2-.1-.4-.2-.6-.1-.2-.1-.4-.2-.5-.1-.1-.2-.3-.4-.4-.1-.1-.3-.3-.5-.3-.2-.1-.4-.1-.7-.2s-.5-.1-.8-.1c-.5 0-.9.1-1.2.2-.3.1-.6.3-.9.5-.2.2-.4.5-.5.7-.1.3-.2.6-.3 1-.1.4-.1.8-.1 1.2v10.9c0 1.8.2 3.1.7 3.8.5.7 1.3 1.1 2.4 1.1.4 0 .8 0 1.2-.1s.6-.3.8-.5c.2-.2.4-.5.5-.7s.2-.6.3-1c.1-.4.1-.8.1-1.1V48h3.2v1.8c0 .9-.1 1.7-.2 2.5s-.3 1.4-.6 2c-.3.6-.6 1.2-1.1 1.6-.5.4-1 .7-1.7 1s-1.7.3-2.6.3zM262.9 57V35.3h-4.4v-2.5h12v2.5h-4.2V57h-3.4zM272.3 57V32.9h4.8c2.4 0 4.2.5 5.4 1.5 1.1 1 1.7 2.6 1.7 4.9 0 3.1-1 5-3 5.6l3.4 12.1h-3.3l-3.2-11.3h-2.6V57h-3.2zm3.4-13.8h1.3c1.5 0 2.5-.3 3.1-.9.6-.6.9-1.6.9-3.1s-.3-2.5-.8-3.1c-.5-.6-1.6-.9-3-.9h-1.5v8zM293.9 57.2c-1.2 0-2.2-.2-3.1-.5s-1.5-.9-2-1.6c-.5-.7-.9-1.5-1.1-2.4-.2-.9-.3-2-.3-3.3v-9.1c0-2.5.5-4.4 1.5-5.7s2.7-1.9 5.1-1.9c2.3 0 4 .7 5 2s1.5 3.2 1.5 5.7v9.1c0 2.5-.5 4.4-1.5 5.8s-2.8 1.9-5.1 1.9zm-1.6-2.9c.4.2 1 .3 1.6.3s1.2-.1 1.6-.3c.4-.2.8-.5 1-.9.2-.4.4-.9.5-1.4.1-.5.1-1.1.1-1.9V39.6c0-.7 0-1.3-.1-1.8s-.2-.9-.5-1.3c-.2-.4-.6-.7-1-.9-.4-.2-1-.3-1.6-.3s-1.2.1-1.6.3c-.4.2-.8.5-1 .9-.2.4-.4.9-.5 1.3-.1.5-.1 1.1-.1 1.8v10.6c0 .7 0 1.4.1 1.9s.2 1 .5 1.4c.2.3.5.6 1 .8zM303.8 57V32.9h2.3l6.8 16v-16h2.8V57h-2.2l-6.9-16.5V57h-2.8zM319.7 57V32.9h3.3V57h-3.3zM332.9 57.2c-1 0-1.9-.1-2.6-.4s-1.4-.6-1.9-1.1c-.5-.5-.9-1-1.2-1.7-.3-.7-.5-1.4-.6-2.2s-.2-1.6-.2-2.6v-8.5c0-1 .1-1.9.2-2.7s.3-1.5.6-2.2c.3-.7.7-1.3 1.2-1.7.5-.4 1.1-.8 1.9-1s1.6-.4 2.6-.4c2.2 0 3.7.6 4.7 1.8.9 1.2 1.4 2.9 1.4 5.2v1.9h-3.2v-1.7-.9-.8c0-.3 0-.6-.1-.7 0-.2-.1-.4-.2-.6-.1-.2-.1-.4-.2-.5s-.2-.3-.4-.4c-.1-.1-.3-.3-.5-.3-.2-.1-.4-.1-.7-.2s-.5-.1-.8-.1c-.5 0-.9.1-1.2.2-.3.1-.6.3-.9.5s-.4.5-.5.7-.2.6-.3 1c-.1.4-.1.8-.1 1.2v10.9c0 1.8.2 3.1.7 3.8.5.7 1.3 1.1 2.4 1.1.4 0 .8 0 1.2-.1.3-.1.6-.3.8-.5.2-.2.4-.5.5-.7s.2-.6.3-1c.1-.4.1-.8.1-1.1V48h3.2v1.8c0 .9-.1 1.7-.2 2.5s-.3 1.4-.6 2-.6 1.2-1.1 1.6c-.5.4-1 .7-1.7 1-.8.2-1.7.3-2.6.3zM347.9 57.2c-2 0-3.6-.6-4.6-1.9-1.1-1.3-1.7-3-1.8-5.1l3-.8c.2 3.5 1.4 5.2 3.4 5.2.9 0 1.5-.2 2-.7.5-.5.7-1.2.7-2.1 0-.5-.1-1-.2-1.4s-.3-.8-.6-1.2c-.3-.4-.5-.7-.8-1s-.6-.6-1.1-1l-4-3.6c-.8-.7-1.4-1.5-1.8-2.3-.4-.8-.6-1.8-.6-3 0-1.7.5-3.1 1.5-4.1 1-1 2.4-1.5 4.2-1.5 1.9 0 3.4.5 4.3 1.5 1 1 1.5 2.6 1.7 4.7l-2.8.8c0-.5-.1-1-.2-1.4l-.3-1.2c-.2-.4-.3-.7-.6-1s-.5-.5-.9-.6-.8-.2-1.3-.2c-1.8.1-2.7 1-2.7 2.6 0 .7.1 1.3.4 1.8s.6 1 1.2 1.5l4.1 3.6c1.1 1 1.9 2 2.5 3.1.6 1.1.9 2.3.9 3.7 0 1.8-.5 3.2-1.6 4.2-.9.9-2.3 1.4-4 1.4z"/>
  </g>
  <g class="st2">
    <path d="M116 92.7V68.6h9.3V71h-6v8h4.9v2.4h-4.9v8.8h6v2.4H116zM128.2 92.7V68.6h2.3l6.8 16v-16h2.8v24.1h-2.2L131 76.2v16.5h-2.8zM149.6 93c-2.2 0-3.8-.7-4.7-2.1-1-1.4-1.5-3.4-1.5-6.1v-8.1c0-1.1.1-2.1.2-2.9.1-.8.3-1.6.6-2.3.3-.7.7-1.3 1.2-1.7.5-.4 1.1-.8 1.8-1 .7-.2 1.6-.4 2.6-.4 2.2 0 3.8.6 4.8 1.7s1.5 2.9 1.5 5.3v.9H153v-.8c0-.7 0-1.2-.1-1.7 0-.4-.1-.9-.2-1.3s-.3-.7-.5-.9c-.2-.2-.5-.4-.9-.5-.4-.1-.8-.2-1.4-.2-.4 0-.8 0-1.1.1s-.6.2-.8.4l-.6.6c-.2.3-.3.5-.4.8-.1.3-.2.6-.2 1s-.1.8-.1 1.1V85c0 1.9.2 3.2.7 4s1.3 1.2 2.6 1.2 2.1-.4 2.6-1.3.7-2.3.7-4.2V83h-3.1v-2.4h6.1v11.9h-2.1l-.3-2.8c-.7 2.2-2.2 3.3-4.3 3.3zM160 92.7V68.6h3.3v24.1H160zM167.2 92.7V68.6h2.3l6.8 16v-16h2.8v24.1H177l-7-16.5v16.5h-2.8zM182.9 92.7V68.6h9.3V71h-6v8h4.9v2.4h-4.9v8.8h6v2.4h-9.3zM195 92.7V68.6h9.3V71h-6v8h4.9v2.4h-4.9v8.8h6v2.4H195zM207.1 92.7V68.6h4.8c2.4 0 4.2.5 5.4 1.5 1.1 1 1.7 2.6 1.7 4.9 0 3.1-1 5-3 5.6l3.4 12.1h-3.3l-3.2-11.3h-2.6v11.3h-3.2zm3.4-13.8h1.3c1.5 0 2.5-.3 3.1-.9.6-.6.9-1.6.9-3.1s-.3-2.5-.8-3.1c-.5-.6-1.6-.9-3-.9h-1.5v8zM222.8 92.7V68.6h3.3v24.1h-3.3zM230 92.7V68.6h2.3l6.8 16v-16h2.8v24.1h-2.2l-6.9-16.5v16.5H230zM251.4 93c-2.2 0-3.8-.7-4.7-2.1-1-1.4-1.5-3.4-1.5-6.1v-8.1c0-1.1.1-2.1.2-2.9.1-.8.3-1.6.6-2.3.3-.7.7-1.3 1.2-1.7.5-.4 1.1-.8 1.8-1 .7-.2 1.6-.4 2.6-.4 2.2 0 3.8.6 4.8 1.7s1.5 2.9 1.5 5.3v.9h-3.2v-.8c0-.7 0-1.2-.1-1.7 0-.4-.1-.9-.2-1.3s-.3-.7-.5-.9c-.2-.2-.5-.4-.9-.5-.4-.1-.8-.2-1.4-.2-.4 0-.8 0-1.1.1s-.6.2-.8.4l-.6.6c-.2.3-.3.5-.4.8-.1.3-.2.6-.2 1s-.1.8-.1 1.1V85c0 1.9.2 3.2.7 4s1.3 1.2 2.6 1.2 2.1-.4 2.6-1.3.7-2.3.7-4.2V83h-3v-2.4h6.1v11.9H256l-.3-2.8c-.7 2.2-2.2 3.3-4.3 3.3z"/>
  </g>
  <g id="XMLID_7_" class="st3">
    <linearGradient id="XMLID_2_" gradientUnits="userSpaceOnUse" x1="397.2" y1="62.75" x2="449.7" y2="62.75" gradientTransform="matrix(1 0 0 -1 0 122)">
      <stop offset="0" stop-color="#FFB75E"/>
      <stop offset=".0112" stop-color="#FEB559"/>
      <stop offset=".081" stop-color="#F9A93E"/>
      <stop offset=".1612" stop-color="#F49F28"/>
      <stop offset=".2549" stop-color="#F19817"/>
      <stop offset=".3708" stop-color="#EF930C"/>
      <stop offset=".5333" stop-color="#ED9005"/>
      <stop offset=".9845" stop-color="#ED8F03"/>
    </linearGradient>
    <path id="XMLID_26_" class="st4" d="M449.7 51.9l-24.1 28.5-2 2.4-10.7 12.7 3.1-12.6 4.1-16.3h-22.9l24.1-28.5L434 23l-7.2 28.9z"/>
    <linearGradient id="XMLID_3_" gradientUnits="userSpaceOnUse" x1="397.2114" y1="62.65" x2="449.6667" y2="62.65" gradientTransform="matrix(1 0 0 -1 0 122)">
      <stop offset="0" stop-color="#FFB75E"/>
      <stop offset=".2059" stop-color="#FCB151"/>
      <stop offset=".5867" stop-color="#F6A22F"/>
      <stop offset="1" stop-color="#ED8F03"/>
    </linearGradient>
    <path id="XMLID_25_" class="st5" d="M449.7 51.9l-22.9 27.2-1.1 1.4 1.6-6.4c.9-3.8-1.9-7.4-5.8-7.4h-24.2l24-28.5-1.6 6.4c-.9 3.8 1.9 7.4 5.8 7.4h24.2v-.1z"/>
    <linearGradient id="XMLID_4_" gradientUnits="userSpaceOnUse" x1="425.9134" y1="84.55" x2="433.9814" y2="84.55" gradientTransform="matrix(1 0 0 -1 0 122)">
      <stop offset="0" stop-color="#414042"/>
      <stop offset="1" stop-color="#231F20"/>
    </linearGradient>
    <path id="XMLID_23_" class="st6" d="M434 23l-8.1 28.9h.9z"/>
    <linearGradient id="XMLID_5_" gradientUnits="userSpaceOnUse" x1="412.9" y1="40.95" x2="421.2" y2="40.95" gradientTransform="matrix(1 0 0 -1 0 122)">
      <stop offset="0" stop-color="#414042"/>
      <stop offset="1" stop-color="#231F20"/>
    </linearGradient>
    <path id="XMLID_19_" class="st7" d="M412.9 95.5l8.3-28.9h-1.1z"/>
    <linearGradient id="XMLID_6_" gradientUnits="userSpaceOnUse" x1="397.2" y1="48.8508" x2="428.7531" y2="48.8508" gradientTransform="matrix(1 0 0 -1 0 122)">
      <stop offset="0" stop-color="#808285"/>
      <stop offset="1"/>
    </linearGradient>
    <path id="XMLID_18_" class="st8" d="M428.3 74.9l-1.6 4.1-1.1 1.4 1.6-6.4c.9-3.8-1.9-7.4-5.8-7.4h-24.2l24.8-.7c4.7-.1 8 4.6 6.3 9z"/>
    <linearGradient id="XMLID_8_" gradientUnits="userSpaceOnUse" x1="2203.4431" y1="468.1115" x2="2235.0139" y2="468.1115" gradientTransform="matrix(-1 0 0 1 2653.11 -422.76)">
      <stop offset="0" stop-color="#808285"/>
      <stop offset="1"/>
    </linearGradient>
    <path id="XMLID_14_" class="st9" d="M418.5 43.6l1.6-4.1 1.1-1.4-1.6 6.4c-.9 3.8 1.9 7.4 5.8 7.4h24.2l-24.8.7c-4.6.1-7.9-4.6-6.3-9z"/>
  </g>
  <g>
    <animateTransform attributeName="transform" dur="5s" type="translate" values="0 0 ; 5 -15; 0 0" repeatCount="indefinite"/>
    <path class="st10" d="M502.4 111.9l3.7 1.8-.3.6c-1.9 3.8-.4 8.4 3.4 10.3l6.5-13c.3-.6.1-1.4-.6-1.8l-12.7-6.4-6.6 13.1c3.5 1.9 4.8-1.1 6.6-4.6z"/>
    <path class="st11" d="M503.7 108.1l11 5.5.7-1.4z"/>
    <path class="st12" d="M520.6 72.4c-.5-.3-1.2 0-1.4.5l-3.6 7.2 1.9.9 3.6-7.2c.2-.5 0-1.2-.5-1.4zM530.7 77.4c-.5-.3-1.2 0-1.4.5l-3.6 7.2 1.9.9 3.6-7.2c.3-.5.1-1.2-.5-1.4z"/>
    <path class="st13" d="M510.2 102.3l-23.2 47h3.9l22.4-45.4z"/>
    <path class="st14" d="M517 98.7l-5-2.5-2.3-7.8 15 7.3z"/>
    <path class="st13" d="M509.7545 88.3168l3.672-7.4435 14.8868 7.344-3.672 7.4433z"/>
    <path class="st13" d="M511.1268 81.7595l1.5488-3.1388 17.936 8.85-1.5488 3.1388zM513.9 104.2l-4.3-2.2 2.4-5.8 5 2.5z"/>
    <path class="st14" d="M510.2 102.3l3.1 1.6-1 1.8zM520.1 86.2l7.4 3.6-.7 1.6z"/>
    <path class="st10" d="M509.1 139.6l10.1-20c.8-1.6.2-3.6-1.5-4.4l-14.1-7.1 1.6-3.1-2.9-1.4-12.6 8.8h-12.6V135h12.5l15 6.1c1.7.8 3.7.1 4.5-1.5z"/>
    <g>
      <path class="st15" d="M480.2 110.3l.1 25.9-8 .1.1-26z"/>
    </g>
    <g>
      <path class="st16" d="M475.8 137.3l-24.7 2v-30l24.7.1z"/>
    </g>
    <g>
      <ellipse transform="rotate(-5.19 469.67 130.95)" class="st15" cx="469.6" cy="131.1" rx="2.6" ry="2.6"/>
      <ellipse transform="rotate(-5.19 460.66 130.96)" class="st15" cx="460.6" cy="131.1" rx="2.6" ry="2.6"/>
    </g>
  </g>
  <g class="st17">
    <animate accumulate="none" additive="replace" attributeName="opacity" attributeType="XML" calcMode="linear" dur="2.5s" fill="remove" from=".1" repeatCount="indefinite" restart="always" to="1"/>
    <path class="st18" d="M557 97.7l11.6 7.6L555.5 91l-1.4 2.7-11.6-7.6 13 14.3zM565.5 78l13.3.1-17.9-4.7.2 2.9h-13.3l17.9 4.6zM500.6 48.7l-11.7-7.6L502 55.3l1.4-2.7 11.7 7.6L502 46zM491.2 68.4h-13.6l18.3 4.7-.2-2.9h13.5l-18.3-4.7z"/>
  </g>
  <g>
    <path class="st10" d="M549.2 38l-3.7-1.8.3-.6c1.9-3.8.4-8.4-3.4-10.3l-6.5 13c-.3.6-.1 1.4.6 1.8l12.7 6.4 6.6-13.1c-3.6-1.9-4.8 1.1-6.6 4.6z"/>
    <path class="st11" d="M547.9 41.8l-11-5.5-.7 1.4z"/>
    <path class="st13" d="M561-.1l-23.3 47.3 3 1.5L564.8-.1z"/>
    <path class="st14" d="M533.9 52.4l5 2.4 2.3 7.9-14.9-7.4z"/>
    <path class="st13" d="M522.6665 62.704l3.672-7.4434 14.8868 7.3438-3.672 7.4435z"/>
    <path class="st14" d="M530.8 64.9l-7.4-3.7.8-1.6z"/>
    <path class="st13" d="M520.2555 63.562l1.5484-3.139 17.936 8.848-1.5485 3.139zM537.1 46.9l4.3 2.1-2.5 5.8-5-2.4z"/>
    <path class="st10" d="M542.4 10.3l-10.1 20c-.8 1.6-.2 3.6 1.5 4.4l14.1 7.1-1.6 3.1 2.9 1.4 12.6-8.8h12.6V14.9h-12.5l-15-6.1c-1.6-.8-3.6-.1-4.5 1.5z"/>
    <g>
      <path class="st15" d="M571.3 39.4V13.3l8 .1-.1 26z"/>
    </g>
    <g>
      <path class="st16" d="M575.7 12.4l24.8-.3v30l-24.7-1.8z"/>
    </g>
    <g>
      <ellipse transform="rotate(-5.19 582.03 18.51)" class="st15" cx="582" cy="18.7" rx="2.6" ry="2.6"/>
      <ellipse transform="rotate(-5.19 591.03 18.53)" class="st15" cx="591" cy="18.7" rx="2.6" ry="2.6"/>
    </g>
    <path class="st14" d="M540.7 48.7l-3-1.5.9-1.9z"/>
  </g>
</svg>
